G04 #@! TF.GenerationSoftware,KiCad,Pcbnew,5.1.4-e60b266~84~ubuntu18.04.1*
G04 #@! TF.CreationDate,2020-01-21T10:37:06-03:00*
G04 #@! TF.ProjectId,tecsci_dip,74656373-6369-45f6-9469-702e6b696361,v1.3*
G04 #@! TF.SameCoordinates,Original*
G04 #@! TF.FileFunction,Legend,Top*
G04 #@! TF.FilePolarity,Positive*
%FSLAX46Y46*%
G04 Gerber Fmt 4.6, Leading zero omitted, Abs format (unit mm)*
G04 Created by KiCad (PCBNEW 5.1.4-e60b266~84~ubuntu18.04.1) date 2020-01-21 10:37:06*
%MOMM*%
%LPD*%
G04 APERTURE LIST*
%ADD10C,0.150000*%
%ADD11C,0.120000*%
%ADD12C,0.127000*%
%ADD13C,0.010000*%
%ADD14C,0.096520*%
G04 APERTURE END LIST*
D10*
X85092738Y-107717380D02*
X85664166Y-107717380D01*
X85378452Y-108717380D02*
X85378452Y-107717380D01*
X86378452Y-108669761D02*
X86283214Y-108717380D01*
X86092738Y-108717380D01*
X85997500Y-108669761D01*
X85949880Y-108574523D01*
X85949880Y-108193571D01*
X85997500Y-108098333D01*
X86092738Y-108050714D01*
X86283214Y-108050714D01*
X86378452Y-108098333D01*
X86426071Y-108193571D01*
X86426071Y-108288809D01*
X85949880Y-108384047D01*
X87283214Y-108669761D02*
X87187976Y-108717380D01*
X86997500Y-108717380D01*
X86902261Y-108669761D01*
X86854642Y-108622142D01*
X86807023Y-108526904D01*
X86807023Y-108241190D01*
X86854642Y-108145952D01*
X86902261Y-108098333D01*
X86997500Y-108050714D01*
X87187976Y-108050714D01*
X87283214Y-108098333D01*
X87711785Y-108717380D02*
X87711785Y-107717380D01*
X88140357Y-108717380D02*
X88140357Y-108193571D01*
X88092738Y-108098333D01*
X87997500Y-108050714D01*
X87854642Y-108050714D01*
X87759404Y-108098333D01*
X87711785Y-108145952D01*
X88616547Y-108050714D02*
X88616547Y-108717380D01*
X88616547Y-108145952D02*
X88664166Y-108098333D01*
X88759404Y-108050714D01*
X88902261Y-108050714D01*
X88997500Y-108098333D01*
X89045119Y-108193571D01*
X89045119Y-108717380D01*
X89664166Y-108717380D02*
X89568928Y-108669761D01*
X89521309Y-108622142D01*
X89473690Y-108526904D01*
X89473690Y-108241190D01*
X89521309Y-108145952D01*
X89568928Y-108098333D01*
X89664166Y-108050714D01*
X89807023Y-108050714D01*
X89902261Y-108098333D01*
X89949880Y-108145952D01*
X89997500Y-108241190D01*
X89997500Y-108526904D01*
X89949880Y-108622142D01*
X89902261Y-108669761D01*
X89807023Y-108717380D01*
X89664166Y-108717380D01*
X90568928Y-108717380D02*
X90473690Y-108669761D01*
X90426071Y-108574523D01*
X90426071Y-107717380D01*
X91092738Y-108717380D02*
X90997500Y-108669761D01*
X90949880Y-108622142D01*
X90902261Y-108526904D01*
X90902261Y-108241190D01*
X90949880Y-108145952D01*
X90997500Y-108098333D01*
X91092738Y-108050714D01*
X91235595Y-108050714D01*
X91330833Y-108098333D01*
X91378452Y-108145952D01*
X91426071Y-108241190D01*
X91426071Y-108526904D01*
X91378452Y-108622142D01*
X91330833Y-108669761D01*
X91235595Y-108717380D01*
X91092738Y-108717380D01*
X92283214Y-108050714D02*
X92283214Y-108860238D01*
X92235595Y-108955476D01*
X92187976Y-109003095D01*
X92092738Y-109050714D01*
X91949880Y-109050714D01*
X91854642Y-109003095D01*
X92283214Y-108669761D02*
X92187976Y-108717380D01*
X91997500Y-108717380D01*
X91902261Y-108669761D01*
X91854642Y-108622142D01*
X91807023Y-108526904D01*
X91807023Y-108241190D01*
X91854642Y-108145952D01*
X91902261Y-108098333D01*
X91997500Y-108050714D01*
X92187976Y-108050714D01*
X92283214Y-108098333D01*
X92664166Y-108050714D02*
X92902261Y-108717380D01*
X93140357Y-108050714D02*
X92902261Y-108717380D01*
X92807023Y-108955476D01*
X92759404Y-109003095D01*
X92664166Y-109050714D01*
X94140357Y-108050714D02*
X94521309Y-108050714D01*
X94283214Y-108717380D02*
X94283214Y-107860238D01*
X94330833Y-107765000D01*
X94426071Y-107717380D01*
X94521309Y-107717380D01*
X94997500Y-108717380D02*
X94902261Y-108669761D01*
X94854642Y-108622142D01*
X94807023Y-108526904D01*
X94807023Y-108241190D01*
X94854642Y-108145952D01*
X94902261Y-108098333D01*
X94997500Y-108050714D01*
X95140357Y-108050714D01*
X95235595Y-108098333D01*
X95283214Y-108145952D01*
X95330833Y-108241190D01*
X95330833Y-108526904D01*
X95283214Y-108622142D01*
X95235595Y-108669761D01*
X95140357Y-108717380D01*
X94997500Y-108717380D01*
X95759404Y-108717380D02*
X95759404Y-108050714D01*
X95759404Y-108241190D02*
X95807023Y-108145952D01*
X95854642Y-108098333D01*
X95949880Y-108050714D01*
X96045119Y-108050714D01*
X97092738Y-108669761D02*
X97235595Y-108717380D01*
X97473690Y-108717380D01*
X97568928Y-108669761D01*
X97616547Y-108622142D01*
X97664166Y-108526904D01*
X97664166Y-108431666D01*
X97616547Y-108336428D01*
X97568928Y-108288809D01*
X97473690Y-108241190D01*
X97283214Y-108193571D01*
X97187976Y-108145952D01*
X97140357Y-108098333D01*
X97092738Y-108003095D01*
X97092738Y-107907857D01*
X97140357Y-107812619D01*
X97187976Y-107765000D01*
X97283214Y-107717380D01*
X97521309Y-107717380D01*
X97664166Y-107765000D01*
X98521309Y-108669761D02*
X98426071Y-108717380D01*
X98235595Y-108717380D01*
X98140357Y-108669761D01*
X98092738Y-108622142D01*
X98045119Y-108526904D01*
X98045119Y-108241190D01*
X98092738Y-108145952D01*
X98140357Y-108098333D01*
X98235595Y-108050714D01*
X98426071Y-108050714D01*
X98521309Y-108098333D01*
X98949880Y-108717380D02*
X98949880Y-108050714D01*
X98949880Y-107717380D02*
X98902261Y-107765000D01*
X98949880Y-107812619D01*
X98997500Y-107765000D01*
X98949880Y-107717380D01*
X98949880Y-107812619D01*
X99426071Y-108050714D02*
X99426071Y-108717380D01*
X99426071Y-108145952D02*
X99473690Y-108098333D01*
X99568928Y-108050714D01*
X99711785Y-108050714D01*
X99807023Y-108098333D01*
X99854642Y-108193571D01*
X99854642Y-108717380D01*
X100759404Y-108669761D02*
X100664166Y-108717380D01*
X100473690Y-108717380D01*
X100378452Y-108669761D01*
X100330833Y-108622142D01*
X100283214Y-108526904D01*
X100283214Y-108241190D01*
X100330833Y-108145952D01*
X100378452Y-108098333D01*
X100473690Y-108050714D01*
X100664166Y-108050714D01*
X100759404Y-108098333D01*
X101568928Y-108669761D02*
X101473690Y-108717380D01*
X101283214Y-108717380D01*
X101187976Y-108669761D01*
X101140357Y-108574523D01*
X101140357Y-108193571D01*
X101187976Y-108098333D01*
X101283214Y-108050714D01*
X101473690Y-108050714D01*
X101568928Y-108098333D01*
X101616547Y-108193571D01*
X101616547Y-108288809D01*
X101140357Y-108384047D01*
X85235595Y-110367380D02*
X85235595Y-109367380D01*
X85473690Y-109367380D01*
X85616547Y-109415000D01*
X85711785Y-109510238D01*
X85759404Y-109605476D01*
X85807023Y-109795952D01*
X85807023Y-109938809D01*
X85759404Y-110129285D01*
X85711785Y-110224523D01*
X85616547Y-110319761D01*
X85473690Y-110367380D01*
X85235595Y-110367380D01*
X86235595Y-110367380D02*
X86235595Y-109700714D01*
X86235595Y-109367380D02*
X86187976Y-109415000D01*
X86235595Y-109462619D01*
X86283214Y-109415000D01*
X86235595Y-109367380D01*
X86235595Y-109462619D01*
X86711785Y-109700714D02*
X86711785Y-110700714D01*
X86711785Y-109748333D02*
X86807023Y-109700714D01*
X86997500Y-109700714D01*
X87092738Y-109748333D01*
X87140357Y-109795952D01*
X87187976Y-109891190D01*
X87187976Y-110176904D01*
X87140357Y-110272142D01*
X87092738Y-110319761D01*
X86997500Y-110367380D01*
X86807023Y-110367380D01*
X86711785Y-110319761D01*
X88949880Y-110272142D02*
X88902261Y-110319761D01*
X88759404Y-110367380D01*
X88664166Y-110367380D01*
X88521309Y-110319761D01*
X88426071Y-110224523D01*
X88378452Y-110129285D01*
X88330833Y-109938809D01*
X88330833Y-109795952D01*
X88378452Y-109605476D01*
X88426071Y-109510238D01*
X88521309Y-109415000D01*
X88664166Y-109367380D01*
X88759404Y-109367380D01*
X88902261Y-109415000D01*
X88949880Y-109462619D01*
X89521309Y-110367380D02*
X89426071Y-110319761D01*
X89378452Y-110272142D01*
X89330833Y-110176904D01*
X89330833Y-109891190D01*
X89378452Y-109795952D01*
X89426071Y-109748333D01*
X89521309Y-109700714D01*
X89664166Y-109700714D01*
X89759404Y-109748333D01*
X89807023Y-109795952D01*
X89854642Y-109891190D01*
X89854642Y-110176904D01*
X89807023Y-110272142D01*
X89759404Y-110319761D01*
X89664166Y-110367380D01*
X89521309Y-110367380D01*
X90711785Y-110367380D02*
X90711785Y-109843571D01*
X90664166Y-109748333D01*
X90568928Y-109700714D01*
X90378452Y-109700714D01*
X90283214Y-109748333D01*
X90711785Y-110319761D02*
X90616547Y-110367380D01*
X90378452Y-110367380D01*
X90283214Y-110319761D01*
X90235595Y-110224523D01*
X90235595Y-110129285D01*
X90283214Y-110034047D01*
X90378452Y-109986428D01*
X90616547Y-109986428D01*
X90711785Y-109938809D01*
X91045119Y-109700714D02*
X91426071Y-109700714D01*
X91187976Y-109367380D02*
X91187976Y-110224523D01*
X91235595Y-110319761D01*
X91330833Y-110367380D01*
X91426071Y-110367380D01*
X92140357Y-110319761D02*
X92045119Y-110367380D01*
X91854642Y-110367380D01*
X91759404Y-110319761D01*
X91711785Y-110224523D01*
X91711785Y-109843571D01*
X91759404Y-109748333D01*
X91854642Y-109700714D01*
X92045119Y-109700714D01*
X92140357Y-109748333D01*
X92187976Y-109843571D01*
X92187976Y-109938809D01*
X91711785Y-110034047D01*
X92616547Y-110367380D02*
X92616547Y-109700714D01*
X92616547Y-109891190D02*
X92664166Y-109795952D01*
X92711785Y-109748333D01*
X92807023Y-109700714D01*
X92902261Y-109700714D01*
X93902261Y-109700714D02*
X94140357Y-110367380D01*
X94378452Y-109700714D01*
X95283214Y-110367380D02*
X94711785Y-110367380D01*
X94997500Y-110367380D02*
X94997500Y-109367380D01*
X94902261Y-109510238D01*
X94807023Y-109605476D01*
X94711785Y-109653095D01*
X95711785Y-110272142D02*
X95759404Y-110319761D01*
X95711785Y-110367380D01*
X95664166Y-110319761D01*
X95711785Y-110272142D01*
X95711785Y-110367380D01*
X96092738Y-109367380D02*
X96711785Y-109367380D01*
X96378452Y-109748333D01*
X96521309Y-109748333D01*
X96616547Y-109795952D01*
X96664166Y-109843571D01*
X96711785Y-109938809D01*
X96711785Y-110176904D01*
X96664166Y-110272142D01*
X96616547Y-110319761D01*
X96521309Y-110367380D01*
X96235595Y-110367380D01*
X96140357Y-110319761D01*
X96092738Y-110272142D01*
X108095238Y-92178571D02*
X108238095Y-92226190D01*
X108285714Y-92273809D01*
X108333333Y-92369047D01*
X108333333Y-92511904D01*
X108285714Y-92607142D01*
X108238095Y-92654761D01*
X108142857Y-92702380D01*
X107761904Y-92702380D01*
X107761904Y-91702380D01*
X108095238Y-91702380D01*
X108190476Y-91750000D01*
X108238095Y-91797619D01*
X108285714Y-91892857D01*
X108285714Y-91988095D01*
X108238095Y-92083333D01*
X108190476Y-92130952D01*
X108095238Y-92178571D01*
X107761904Y-92178571D01*
X108714285Y-91797619D02*
X108761904Y-91750000D01*
X108857142Y-91702380D01*
X109095238Y-91702380D01*
X109190476Y-91750000D01*
X109238095Y-91797619D01*
X109285714Y-91892857D01*
X109285714Y-91988095D01*
X109238095Y-92130952D01*
X108666666Y-92702380D01*
X109285714Y-92702380D01*
X108095238Y-88678571D02*
X108238095Y-88726190D01*
X108285714Y-88773809D01*
X108333333Y-88869047D01*
X108333333Y-89011904D01*
X108285714Y-89107142D01*
X108238095Y-89154761D01*
X108142857Y-89202380D01*
X107761904Y-89202380D01*
X107761904Y-88202380D01*
X108095238Y-88202380D01*
X108190476Y-88250000D01*
X108238095Y-88297619D01*
X108285714Y-88392857D01*
X108285714Y-88488095D01*
X108238095Y-88583333D01*
X108190476Y-88630952D01*
X108095238Y-88678571D01*
X107761904Y-88678571D01*
X109285714Y-89202380D02*
X108714285Y-89202380D01*
X109000000Y-89202380D02*
X109000000Y-88202380D01*
X108904761Y-88345238D01*
X108809523Y-88440476D01*
X108714285Y-88488095D01*
X107785714Y-85416666D02*
X108261904Y-85416666D01*
X107690476Y-85702380D02*
X108023809Y-84702380D01*
X108357142Y-85702380D01*
X108642857Y-84797619D02*
X108690476Y-84750000D01*
X108785714Y-84702380D01*
X109023809Y-84702380D01*
X109119047Y-84750000D01*
X109166666Y-84797619D01*
X109214285Y-84892857D01*
X109214285Y-84988095D01*
X109166666Y-85130952D01*
X108595238Y-85702380D01*
X109214285Y-85702380D01*
X107785714Y-81916666D02*
X108261904Y-81916666D01*
X107690476Y-82202380D02*
X108023809Y-81202380D01*
X108357142Y-82202380D01*
X109214285Y-82202380D02*
X108642857Y-82202380D01*
X108928571Y-82202380D02*
X108928571Y-81202380D01*
X108833333Y-81345238D01*
X108738095Y-81440476D01*
X108642857Y-81488095D01*
X107988095Y-55500000D02*
X107892857Y-55452380D01*
X107750000Y-55452380D01*
X107607142Y-55500000D01*
X107511904Y-55595238D01*
X107464285Y-55690476D01*
X107416666Y-55880952D01*
X107416666Y-56023809D01*
X107464285Y-56214285D01*
X107511904Y-56309523D01*
X107607142Y-56404761D01*
X107750000Y-56452380D01*
X107845238Y-56452380D01*
X107988095Y-56404761D01*
X108035714Y-56357142D01*
X108035714Y-56023809D01*
X107845238Y-56023809D01*
X108464285Y-56452380D02*
X108464285Y-55452380D01*
X109035714Y-56452380D01*
X109035714Y-55452380D01*
X109511904Y-56452380D02*
X109511904Y-55452380D01*
X109750000Y-55452380D01*
X109892857Y-55500000D01*
X109988095Y-55595238D01*
X110035714Y-55690476D01*
X110083333Y-55880952D01*
X110083333Y-56023809D01*
X110035714Y-56214285D01*
X109988095Y-56309523D01*
X109892857Y-56404761D01*
X109750000Y-56452380D01*
X109511904Y-56452380D01*
X102416666Y-56071428D02*
X103178571Y-56071428D01*
X102797619Y-56452380D02*
X102797619Y-55690476D01*
X103607142Y-55547619D02*
X103654761Y-55500000D01*
X103750000Y-55452380D01*
X103988095Y-55452380D01*
X104083333Y-55500000D01*
X104130952Y-55547619D01*
X104178571Y-55642857D01*
X104178571Y-55738095D01*
X104130952Y-55880952D01*
X103559523Y-56452380D01*
X104178571Y-56452380D01*
X105035714Y-55785714D02*
X105035714Y-56452380D01*
X104797619Y-55404761D02*
X104559523Y-56119047D01*
X105178571Y-56119047D01*
X85833333Y-114452380D02*
X85357142Y-114452380D01*
X85357142Y-113452380D01*
X86166666Y-114452380D02*
X86166666Y-113785714D01*
X86166666Y-113452380D02*
X86119047Y-113500000D01*
X86166666Y-113547619D01*
X86214285Y-113500000D01*
X86166666Y-113452380D01*
X86166666Y-113547619D01*
X87071428Y-114404761D02*
X86976190Y-114452380D01*
X86785714Y-114452380D01*
X86690476Y-114404761D01*
X86642857Y-114357142D01*
X86595238Y-114261904D01*
X86595238Y-113976190D01*
X86642857Y-113880952D01*
X86690476Y-113833333D01*
X86785714Y-113785714D01*
X86976190Y-113785714D01*
X87071428Y-113833333D01*
X87880952Y-114404761D02*
X87785714Y-114452380D01*
X87595238Y-114452380D01*
X87500000Y-114404761D01*
X87452380Y-114309523D01*
X87452380Y-113928571D01*
X87500000Y-113833333D01*
X87595238Y-113785714D01*
X87785714Y-113785714D01*
X87880952Y-113833333D01*
X87928571Y-113928571D01*
X87928571Y-114023809D01*
X87452380Y-114119047D01*
X88357142Y-113785714D02*
X88357142Y-114452380D01*
X88357142Y-113880952D02*
X88404761Y-113833333D01*
X88500000Y-113785714D01*
X88642857Y-113785714D01*
X88738095Y-113833333D01*
X88785714Y-113928571D01*
X88785714Y-114452380D01*
X89214285Y-114404761D02*
X89309523Y-114452380D01*
X89500000Y-114452380D01*
X89595238Y-114404761D01*
X89642857Y-114309523D01*
X89642857Y-114261904D01*
X89595238Y-114166666D01*
X89500000Y-114119047D01*
X89357142Y-114119047D01*
X89261904Y-114071428D01*
X89214285Y-113976190D01*
X89214285Y-113928571D01*
X89261904Y-113833333D01*
X89357142Y-113785714D01*
X89500000Y-113785714D01*
X89595238Y-113833333D01*
X90452380Y-114404761D02*
X90357142Y-114452380D01*
X90166666Y-114452380D01*
X90071428Y-114404761D01*
X90023809Y-114309523D01*
X90023809Y-113928571D01*
X90071428Y-113833333D01*
X90166666Y-113785714D01*
X90357142Y-113785714D01*
X90452380Y-113833333D01*
X90500000Y-113928571D01*
X90500000Y-114023809D01*
X90023809Y-114119047D01*
X91357142Y-114452380D02*
X91357142Y-113452380D01*
X91357142Y-114404761D02*
X91261904Y-114452380D01*
X91071428Y-114452380D01*
X90976190Y-114404761D01*
X90928571Y-114357142D01*
X90880952Y-114261904D01*
X90880952Y-113976190D01*
X90928571Y-113880952D01*
X90976190Y-113833333D01*
X91071428Y-113785714D01*
X91261904Y-113785714D01*
X91357142Y-113833333D01*
X93166666Y-114357142D02*
X93119047Y-114404761D01*
X92976190Y-114452380D01*
X92880952Y-114452380D01*
X92738095Y-114404761D01*
X92642857Y-114309523D01*
X92595238Y-114214285D01*
X92547619Y-114023809D01*
X92547619Y-113880952D01*
X92595238Y-113690476D01*
X92642857Y-113595238D01*
X92738095Y-113500000D01*
X92880952Y-113452380D01*
X92976190Y-113452380D01*
X93119047Y-113500000D01*
X93166666Y-113547619D01*
X93595238Y-113928571D02*
X93928571Y-113928571D01*
X94071428Y-114452380D02*
X93595238Y-114452380D01*
X93595238Y-113452380D01*
X94071428Y-113452380D01*
X95071428Y-114452380D02*
X94738095Y-113976190D01*
X94500000Y-114452380D02*
X94500000Y-113452380D01*
X94880952Y-113452380D01*
X94976190Y-113500000D01*
X95023809Y-113547619D01*
X95071428Y-113642857D01*
X95071428Y-113785714D01*
X95023809Y-113880952D01*
X94976190Y-113928571D01*
X94880952Y-113976190D01*
X94500000Y-113976190D01*
X95500000Y-114452380D02*
X95500000Y-113452380D01*
X96071428Y-114452380D01*
X96071428Y-113452380D01*
X97500000Y-113452380D02*
X97690476Y-113452380D01*
X97785714Y-113500000D01*
X97880952Y-113595238D01*
X97928571Y-113785714D01*
X97928571Y-114119047D01*
X97880952Y-114309523D01*
X97785714Y-114404761D01*
X97690476Y-114452380D01*
X97500000Y-114452380D01*
X97404761Y-114404761D01*
X97309523Y-114309523D01*
X97261904Y-114119047D01*
X97261904Y-113785714D01*
X97309523Y-113595238D01*
X97404761Y-113500000D01*
X97500000Y-113452380D01*
X98357142Y-114452380D02*
X98357142Y-113452380D01*
X98357142Y-113928571D02*
X98928571Y-113928571D01*
X98928571Y-114452380D02*
X98928571Y-113452380D01*
X99880952Y-114452380D02*
X99404761Y-114452380D01*
X99404761Y-113452380D01*
X100880952Y-113785714D02*
X101119047Y-114452380D01*
X101357142Y-113785714D01*
X102261904Y-114452380D02*
X101690476Y-114452380D01*
X101976190Y-114452380D02*
X101976190Y-113452380D01*
X101880952Y-113595238D01*
X101785714Y-113690476D01*
X101690476Y-113738095D01*
X102690476Y-114357142D02*
X102738095Y-114404761D01*
X102690476Y-114452380D01*
X102642857Y-114404761D01*
X102690476Y-114357142D01*
X102690476Y-114452380D01*
X103119047Y-113547619D02*
X103166666Y-113500000D01*
X103261904Y-113452380D01*
X103499999Y-113452380D01*
X103595238Y-113500000D01*
X103642857Y-113547619D01*
X103690476Y-113642857D01*
X103690476Y-113738095D01*
X103642857Y-113880952D01*
X103071428Y-114452380D01*
X103690476Y-114452380D01*
X81000952Y-56777380D02*
X81000952Y-55777380D01*
X81239047Y-55777380D01*
X81381904Y-55825000D01*
X81477142Y-55920238D01*
X81524761Y-56015476D01*
X81572380Y-56205952D01*
X81572380Y-56348809D01*
X81524761Y-56539285D01*
X81477142Y-56634523D01*
X81381904Y-56729761D01*
X81239047Y-56777380D01*
X81000952Y-56777380D01*
X82000952Y-56777380D02*
X82000952Y-56110714D01*
X82000952Y-55777380D02*
X81953333Y-55825000D01*
X82000952Y-55872619D01*
X82048571Y-55825000D01*
X82000952Y-55777380D01*
X82000952Y-55872619D01*
X82429523Y-56729761D02*
X82524761Y-56777380D01*
X82715238Y-56777380D01*
X82810476Y-56729761D01*
X82858095Y-56634523D01*
X82858095Y-56586904D01*
X82810476Y-56491666D01*
X82715238Y-56444047D01*
X82572380Y-56444047D01*
X82477142Y-56396428D01*
X82429523Y-56301190D01*
X82429523Y-56253571D01*
X82477142Y-56158333D01*
X82572380Y-56110714D01*
X82715238Y-56110714D01*
X82810476Y-56158333D01*
X83667619Y-56729761D02*
X83572380Y-56777380D01*
X83381904Y-56777380D01*
X83286666Y-56729761D01*
X83239047Y-56634523D01*
X83239047Y-56253571D01*
X83286666Y-56158333D01*
X83381904Y-56110714D01*
X83572380Y-56110714D01*
X83667619Y-56158333D01*
X83715238Y-56253571D01*
X83715238Y-56348809D01*
X83239047Y-56444047D01*
X84143809Y-56110714D02*
X84143809Y-56777380D01*
X84143809Y-56205952D02*
X84191428Y-56158333D01*
X84286666Y-56110714D01*
X84429523Y-56110714D01*
X84524761Y-56158333D01*
X84572380Y-56253571D01*
X84572380Y-56777380D01*
X84096190Y-55872619D02*
X84143809Y-55825000D01*
X84239047Y-55777380D01*
X84429523Y-55872619D01*
X84524761Y-55825000D01*
X84572380Y-55777380D01*
X85191428Y-56777380D02*
X85096190Y-56729761D01*
X85048571Y-56682142D01*
X85000952Y-56586904D01*
X85000952Y-56301190D01*
X85048571Y-56205952D01*
X85096190Y-56158333D01*
X85191428Y-56110714D01*
X85334285Y-56110714D01*
X85429523Y-56158333D01*
X85477142Y-56205952D01*
X85524761Y-56301190D01*
X85524761Y-56586904D01*
X85477142Y-56682142D01*
X85429523Y-56729761D01*
X85334285Y-56777380D01*
X85191428Y-56777380D01*
X80310476Y-58141666D02*
X80786666Y-58141666D01*
X80215238Y-58427380D02*
X80548571Y-57427380D01*
X80881904Y-58427380D01*
X81215238Y-58427380D02*
X81215238Y-57760714D01*
X81215238Y-57951190D02*
X81262857Y-57855952D01*
X81310476Y-57808333D01*
X81405714Y-57760714D01*
X81500952Y-57760714D01*
X82262857Y-57760714D02*
X82262857Y-58570238D01*
X82215238Y-58665476D01*
X82167619Y-58713095D01*
X82072380Y-58760714D01*
X81929523Y-58760714D01*
X81834285Y-58713095D01*
X82262857Y-58379761D02*
X82167619Y-58427380D01*
X81977142Y-58427380D01*
X81881904Y-58379761D01*
X81834285Y-58332142D01*
X81786666Y-58236904D01*
X81786666Y-57951190D01*
X81834285Y-57855952D01*
X81881904Y-57808333D01*
X81977142Y-57760714D01*
X82167619Y-57760714D01*
X82262857Y-57808333D01*
X83120000Y-58379761D02*
X83024761Y-58427380D01*
X82834285Y-58427380D01*
X82739047Y-58379761D01*
X82691428Y-58284523D01*
X82691428Y-57903571D01*
X82739047Y-57808333D01*
X82834285Y-57760714D01*
X83024761Y-57760714D01*
X83120000Y-57808333D01*
X83167619Y-57903571D01*
X83167619Y-57998809D01*
X82691428Y-58094047D01*
X83596190Y-57760714D02*
X83596190Y-58427380D01*
X83596190Y-57855952D02*
X83643809Y-57808333D01*
X83739047Y-57760714D01*
X83881904Y-57760714D01*
X83977142Y-57808333D01*
X84024761Y-57903571D01*
X84024761Y-58427380D01*
X84358095Y-57760714D02*
X84739047Y-57760714D01*
X84500952Y-57427380D02*
X84500952Y-58284523D01*
X84548571Y-58379761D01*
X84643809Y-58427380D01*
X84739047Y-58427380D01*
X85072380Y-58427380D02*
X85072380Y-57760714D01*
X85072380Y-57427380D02*
X85024761Y-57475000D01*
X85072380Y-57522619D01*
X85120000Y-57475000D01*
X85072380Y-57427380D01*
X85072380Y-57522619D01*
X85548571Y-57760714D02*
X85548571Y-58427380D01*
X85548571Y-57855952D02*
X85596190Y-57808333D01*
X85691428Y-57760714D01*
X85834285Y-57760714D01*
X85929523Y-57808333D01*
X85977142Y-57903571D01*
X85977142Y-58427380D01*
X86596190Y-58427380D02*
X86500952Y-58379761D01*
X86453333Y-58332142D01*
X86405714Y-58236904D01*
X86405714Y-57951190D01*
X86453333Y-57855952D01*
X86500952Y-57808333D01*
X86596190Y-57760714D01*
X86739047Y-57760714D01*
X86834285Y-57808333D01*
X86881904Y-57855952D01*
X86929523Y-57951190D01*
X86929523Y-58236904D01*
X86881904Y-58332142D01*
X86834285Y-58379761D01*
X86739047Y-58427380D01*
X86596190Y-58427380D01*
D11*
X59420000Y-69960000D02*
X59420000Y-68500000D01*
X62580000Y-69960000D02*
X62580000Y-67800000D01*
X62580000Y-69960000D02*
X61650000Y-69960000D01*
X59420000Y-69960000D02*
X60350000Y-69960000D01*
X59420000Y-65160000D02*
X59420000Y-63700000D01*
X62580000Y-65160000D02*
X62580000Y-63000000D01*
X62580000Y-65160000D02*
X61650000Y-65160000D01*
X59420000Y-65160000D02*
X60350000Y-65160000D01*
X56555000Y-104620000D02*
X56555000Y-105000000D01*
X50135000Y-104620000D02*
X56555000Y-104620000D01*
X50135000Y-86380000D02*
X56555000Y-86380000D01*
X50135000Y-104620000D02*
X50135000Y-86380000D01*
X75880000Y-86380000D02*
X75880000Y-87380000D01*
X75100000Y-86380000D02*
X75880000Y-86380000D01*
X75880000Y-104620000D02*
X75880000Y-103620000D01*
X75100000Y-104620000D02*
X75880000Y-104620000D01*
X64930000Y-76270000D02*
X64930000Y-77600000D01*
X63600000Y-76270000D02*
X64930000Y-76270000D01*
X62330000Y-76270000D02*
X62330000Y-78930000D01*
X62330000Y-78930000D02*
X59730000Y-78930000D01*
X62330000Y-76270000D02*
X59730000Y-76270000D01*
X59730000Y-76270000D02*
X59730000Y-78930000D01*
X68790000Y-68085000D02*
X68790000Y-68810000D01*
X74010000Y-63590000D02*
X73285000Y-63590000D01*
X74010000Y-64315000D02*
X74010000Y-63590000D01*
X74010000Y-68810000D02*
X73285000Y-68810000D01*
X74010000Y-68085000D02*
X74010000Y-68810000D01*
X68790000Y-63590000D02*
X69515000Y-63590000D01*
X68790000Y-64315000D02*
X68790000Y-63590000D01*
X68141422Y-73710000D02*
X68658578Y-73710000D01*
X68141422Y-72290000D02*
X68658578Y-72290000D01*
X60741422Y-74110000D02*
X61258578Y-74110000D01*
X60741422Y-72690000D02*
X61258578Y-72690000D01*
X72796078Y-72290000D02*
X72278922Y-72290000D01*
X72796078Y-73710000D02*
X72278922Y-73710000D01*
X65141422Y-69110000D02*
X65658578Y-69110000D01*
X65141422Y-67690000D02*
X65658578Y-67690000D01*
X65721078Y-63490000D02*
X65203922Y-63490000D01*
X65721078Y-64910000D02*
X65203922Y-64910000D01*
X74200000Y-61062500D02*
X74200000Y-60612500D01*
X74200000Y-61062500D02*
X73750000Y-61062500D01*
X68600000Y-60512500D02*
X69050000Y-60512500D01*
X68600000Y-58662500D02*
X68600000Y-60512500D01*
X76400000Y-56112500D02*
X76400000Y-56362500D01*
X68600000Y-56112500D02*
X68600000Y-56362500D01*
X76400000Y-58662500D02*
X76400000Y-60512500D01*
X76400000Y-60512500D02*
X75950000Y-60512500D01*
X80400000Y-63350000D02*
X80400000Y-67250000D01*
X78400000Y-63350000D02*
X78400000Y-67250000D01*
X80400000Y-63350000D02*
X78400000Y-63350000D01*
X76730000Y-80670000D02*
X76730000Y-82000000D01*
X75400000Y-80670000D02*
X76730000Y-80670000D01*
X74130000Y-80670000D02*
X74130000Y-83330000D01*
X74130000Y-83330000D02*
X63910000Y-83330000D01*
X74130000Y-80670000D02*
X63910000Y-80670000D01*
X63910000Y-80670000D02*
X63910000Y-83330000D01*
X79330000Y-107670000D02*
X79330000Y-109000000D01*
X78000000Y-107670000D02*
X79330000Y-107670000D01*
X76730000Y-107670000D02*
X76730000Y-110330000D01*
X76730000Y-110330000D02*
X63970000Y-110330000D01*
X76730000Y-107670000D02*
X63970000Y-107670000D01*
X63970000Y-107670000D02*
X63970000Y-110330000D01*
X68141422Y-76910000D02*
X68658578Y-76910000D01*
X68141422Y-75490000D02*
X68658578Y-75490000D01*
X83160000Y-69900000D02*
X83160000Y-75910000D01*
X76340000Y-72150000D02*
X76340000Y-75910000D01*
X83160000Y-75910000D02*
X81900000Y-75910000D01*
X76340000Y-75910000D02*
X77600000Y-75910000D01*
X72796078Y-75490000D02*
X72278922Y-75490000D01*
X72796078Y-76910000D02*
X72278922Y-76910000D01*
X81860320Y-61481202D02*
X81860320Y-61998358D01*
X83280320Y-61481202D02*
X83280320Y-61998358D01*
X59008578Y-105790000D02*
X58491422Y-105790000D01*
X59008578Y-107210000D02*
X58491422Y-107210000D01*
X84872400Y-82609920D02*
X84872400Y-82849920D01*
X85612400Y-82609920D02*
X84872400Y-82609920D01*
X82542400Y-79009920D02*
X83072400Y-79009920D01*
X82542400Y-82609920D02*
X82542400Y-79009920D01*
X83072400Y-82609920D02*
X82542400Y-82609920D01*
X83072400Y-82849920D02*
X83072400Y-82609920D01*
X84872400Y-79009920D02*
X85612400Y-79009920D01*
X87942400Y-82609920D02*
X87412400Y-82609920D01*
X87942400Y-79009920D02*
X87942400Y-82609920D01*
X87412400Y-79009920D02*
X87942400Y-79009920D01*
X86119202Y-84992280D02*
X86636358Y-84992280D01*
X86119202Y-83572280D02*
X86636358Y-83572280D01*
X90991422Y-91710000D02*
X91508578Y-91710000D01*
X90991422Y-90290000D02*
X91508578Y-90290000D01*
D12*
X110550000Y-81000000D02*
X109750000Y-81000000D01*
X110550000Y-82500000D02*
X110550000Y-81000000D01*
X109750000Y-82500000D02*
X110550000Y-82500000D01*
X110450000Y-84500000D02*
X109650000Y-84500000D01*
X110450000Y-86000000D02*
X110450000Y-84500000D01*
X109650000Y-86000000D02*
X110450000Y-86000000D01*
X110550000Y-88000000D02*
X109750000Y-88000000D01*
X110550000Y-89500000D02*
X110550000Y-88000000D01*
X109750000Y-89500000D02*
X110550000Y-89500000D01*
X110450000Y-91500000D02*
X109650000Y-91500000D01*
X110450000Y-93000000D02*
X110450000Y-91500000D01*
X109650000Y-93000000D02*
X110450000Y-93000000D01*
X109650000Y-79200000D02*
X120850000Y-79200000D01*
X109650000Y-94800000D02*
X120850000Y-94800000D01*
X120850000Y-94800000D02*
X120850000Y-79200000D01*
X109650000Y-84500000D02*
X109650000Y-79200000D01*
X109650000Y-86000000D02*
X109650000Y-84500000D01*
X109650000Y-91500000D02*
X109650000Y-86000000D01*
X109650000Y-93000000D02*
X109650000Y-91500000D01*
X109650000Y-94800000D02*
X109650000Y-93000000D01*
D11*
X107520354Y-97875000D02*
X107520354Y-98875000D01*
X107020354Y-98375000D02*
X108020354Y-98375000D01*
X117581000Y-100651000D02*
X117581000Y-101849000D01*
X117541000Y-100388000D02*
X117541000Y-102112000D01*
X117501000Y-100188000D02*
X117501000Y-102312000D01*
X117421000Y-102491000D02*
X117421000Y-102628000D01*
X117421000Y-99872000D02*
X117421000Y-100009000D01*
X117381000Y-102491000D02*
X117381000Y-102760000D01*
X117381000Y-99740000D02*
X117381000Y-100009000D01*
X117341000Y-102491000D02*
X117341000Y-102880000D01*
X117341000Y-99620000D02*
X117341000Y-100009000D01*
X117301000Y-102491000D02*
X117301000Y-102992000D01*
X117301000Y-99508000D02*
X117301000Y-100009000D01*
X117261000Y-102491000D02*
X117261000Y-103096000D01*
X117261000Y-99404000D02*
X117261000Y-100009000D01*
X117221000Y-102491000D02*
X117221000Y-103194000D01*
X117221000Y-99306000D02*
X117221000Y-100009000D01*
X117181000Y-102491000D02*
X117181000Y-103287000D01*
X117181000Y-99213000D02*
X117181000Y-100009000D01*
X117141000Y-102491000D02*
X117141000Y-103375000D01*
X117141000Y-99125000D02*
X117141000Y-100009000D01*
X117101000Y-102491000D02*
X117101000Y-103459000D01*
X117101000Y-99041000D02*
X117101000Y-100009000D01*
X117061000Y-102491000D02*
X117061000Y-103539000D01*
X117061000Y-98961000D02*
X117061000Y-100009000D01*
X117021000Y-102491000D02*
X117021000Y-103615000D01*
X117021000Y-98885000D02*
X117021000Y-100009000D01*
X116981000Y-102491000D02*
X116981000Y-103689000D01*
X116981000Y-98811000D02*
X116981000Y-100009000D01*
X116941000Y-102491000D02*
X116941000Y-103760000D01*
X116941000Y-98740000D02*
X116941000Y-100009000D01*
X116901000Y-102491000D02*
X116901000Y-103829000D01*
X116901000Y-98671000D02*
X116901000Y-100009000D01*
X116861000Y-102491000D02*
X116861000Y-103895000D01*
X116861000Y-98605000D02*
X116861000Y-100009000D01*
X116821000Y-102491000D02*
X116821000Y-103959000D01*
X116821000Y-98541000D02*
X116821000Y-100009000D01*
X116781000Y-102491000D02*
X116781000Y-104020000D01*
X116781000Y-98480000D02*
X116781000Y-100009000D01*
X116741000Y-102491000D02*
X116741000Y-104080000D01*
X116741000Y-98420000D02*
X116741000Y-100009000D01*
X116701000Y-102491000D02*
X116701000Y-104139000D01*
X116701000Y-98361000D02*
X116701000Y-100009000D01*
X116661000Y-102491000D02*
X116661000Y-104195000D01*
X116661000Y-98305000D02*
X116661000Y-100009000D01*
X116621000Y-102491000D02*
X116621000Y-104250000D01*
X116621000Y-98250000D02*
X116621000Y-100009000D01*
X116581000Y-102491000D02*
X116581000Y-104304000D01*
X116581000Y-98196000D02*
X116581000Y-100009000D01*
X116541000Y-102491000D02*
X116541000Y-104356000D01*
X116541000Y-98144000D02*
X116541000Y-100009000D01*
X116501000Y-102491000D02*
X116501000Y-104406000D01*
X116501000Y-98094000D02*
X116501000Y-100009000D01*
X116461000Y-102491000D02*
X116461000Y-104456000D01*
X116461000Y-98044000D02*
X116461000Y-100009000D01*
X116421000Y-102491000D02*
X116421000Y-104504000D01*
X116421000Y-97996000D02*
X116421000Y-100009000D01*
X116381000Y-102491000D02*
X116381000Y-104551000D01*
X116381000Y-97949000D02*
X116381000Y-100009000D01*
X116341000Y-102491000D02*
X116341000Y-104597000D01*
X116341000Y-97903000D02*
X116341000Y-100009000D01*
X116301000Y-102491000D02*
X116301000Y-104642000D01*
X116301000Y-97858000D02*
X116301000Y-100009000D01*
X116261000Y-102491000D02*
X116261000Y-104686000D01*
X116261000Y-97814000D02*
X116261000Y-100009000D01*
X116221000Y-102491000D02*
X116221000Y-104728000D01*
X116221000Y-97772000D02*
X116221000Y-100009000D01*
X116181000Y-102491000D02*
X116181000Y-104770000D01*
X116181000Y-97730000D02*
X116181000Y-100009000D01*
X116141000Y-102491000D02*
X116141000Y-104811000D01*
X116141000Y-97689000D02*
X116141000Y-100009000D01*
X116101000Y-102491000D02*
X116101000Y-104851000D01*
X116101000Y-97649000D02*
X116101000Y-100009000D01*
X116061000Y-102491000D02*
X116061000Y-104890000D01*
X116061000Y-97610000D02*
X116061000Y-100009000D01*
X116021000Y-102491000D02*
X116021000Y-104929000D01*
X116021000Y-97571000D02*
X116021000Y-100009000D01*
X115981000Y-102491000D02*
X115981000Y-104966000D01*
X115981000Y-97534000D02*
X115981000Y-100009000D01*
X115941000Y-102491000D02*
X115941000Y-105003000D01*
X115941000Y-97497000D02*
X115941000Y-100009000D01*
X115901000Y-102491000D02*
X115901000Y-105039000D01*
X115901000Y-97461000D02*
X115901000Y-100009000D01*
X115861000Y-102491000D02*
X115861000Y-105074000D01*
X115861000Y-97426000D02*
X115861000Y-100009000D01*
X115821000Y-102491000D02*
X115821000Y-105108000D01*
X115821000Y-97392000D02*
X115821000Y-100009000D01*
X115781000Y-102491000D02*
X115781000Y-105142000D01*
X115781000Y-97358000D02*
X115781000Y-100009000D01*
X115741000Y-102491000D02*
X115741000Y-105175000D01*
X115741000Y-97325000D02*
X115741000Y-100009000D01*
X115701000Y-102491000D02*
X115701000Y-105207000D01*
X115701000Y-97293000D02*
X115701000Y-100009000D01*
X115661000Y-102491000D02*
X115661000Y-105239000D01*
X115661000Y-97261000D02*
X115661000Y-100009000D01*
X115621000Y-102491000D02*
X115621000Y-105270000D01*
X115621000Y-97230000D02*
X115621000Y-100009000D01*
X115581000Y-102491000D02*
X115581000Y-105300000D01*
X115581000Y-97200000D02*
X115581000Y-100009000D01*
X115541000Y-102491000D02*
X115541000Y-105330000D01*
X115541000Y-97170000D02*
X115541000Y-100009000D01*
X115501000Y-102491000D02*
X115501000Y-105360000D01*
X115501000Y-97140000D02*
X115501000Y-100009000D01*
X115461000Y-102491000D02*
X115461000Y-105388000D01*
X115461000Y-97112000D02*
X115461000Y-100009000D01*
X115421000Y-102491000D02*
X115421000Y-105416000D01*
X115421000Y-97084000D02*
X115421000Y-100009000D01*
X115381000Y-102491000D02*
X115381000Y-105444000D01*
X115381000Y-97056000D02*
X115381000Y-100009000D01*
X115341000Y-102491000D02*
X115341000Y-105471000D01*
X115341000Y-97029000D02*
X115341000Y-100009000D01*
X115301000Y-102491000D02*
X115301000Y-105497000D01*
X115301000Y-97003000D02*
X115301000Y-100009000D01*
X115261000Y-102491000D02*
X115261000Y-105523000D01*
X115261000Y-96977000D02*
X115261000Y-100009000D01*
X115221000Y-102491000D02*
X115221000Y-105548000D01*
X115221000Y-96952000D02*
X115221000Y-100009000D01*
X115181000Y-102491000D02*
X115181000Y-105573000D01*
X115181000Y-96927000D02*
X115181000Y-100009000D01*
X115141000Y-102491000D02*
X115141000Y-105597000D01*
X115141000Y-96903000D02*
X115141000Y-100009000D01*
X115101000Y-102491000D02*
X115101000Y-105621000D01*
X115101000Y-96879000D02*
X115101000Y-100009000D01*
X115061000Y-102491000D02*
X115061000Y-105645000D01*
X115061000Y-96855000D02*
X115061000Y-100009000D01*
X115021000Y-102491000D02*
X115021000Y-105667000D01*
X115021000Y-96833000D02*
X115021000Y-100009000D01*
X114981000Y-96810000D02*
X114981000Y-105690000D01*
X114941000Y-96788000D02*
X114941000Y-105712000D01*
X114901000Y-96767000D02*
X114901000Y-105733000D01*
X114861000Y-96746000D02*
X114861000Y-105754000D01*
X114821000Y-96725000D02*
X114821000Y-105775000D01*
X114781000Y-96705000D02*
X114781000Y-105795000D01*
X114741000Y-96686000D02*
X114741000Y-105814000D01*
X114701000Y-96666000D02*
X114701000Y-105834000D01*
X114661000Y-96647000D02*
X114661000Y-105853000D01*
X114621000Y-96629000D02*
X114621000Y-105871000D01*
X114581000Y-96611000D02*
X114581000Y-105889000D01*
X114541000Y-96593000D02*
X114541000Y-105907000D01*
X114501000Y-96576000D02*
X114501000Y-105924000D01*
X114461000Y-96560000D02*
X114461000Y-105940000D01*
X114421000Y-96543000D02*
X114421000Y-105957000D01*
X114381000Y-96527000D02*
X114381000Y-105973000D01*
X114341000Y-96512000D02*
X114341000Y-105988000D01*
X114301000Y-96496000D02*
X114301000Y-106004000D01*
X114261000Y-96482000D02*
X114261000Y-106018000D01*
X114221000Y-96467000D02*
X114221000Y-106033000D01*
X114181000Y-96453000D02*
X114181000Y-106047000D01*
X114141000Y-96439000D02*
X114141000Y-106061000D01*
X114101000Y-96426000D02*
X114101000Y-106074000D01*
X114061000Y-96413000D02*
X114061000Y-106087000D01*
X114021000Y-96400000D02*
X114021000Y-106100000D01*
X113981000Y-96388000D02*
X113981000Y-106112000D01*
X113941000Y-96376000D02*
X113941000Y-106124000D01*
X113901000Y-96365000D02*
X113901000Y-106135000D01*
X113861000Y-96353000D02*
X113861000Y-106147000D01*
X113821000Y-96343000D02*
X113821000Y-106157000D01*
X113781000Y-96332000D02*
X113781000Y-106168000D01*
X113741000Y-96322000D02*
X113741000Y-106178000D01*
X113701000Y-96312000D02*
X113701000Y-106188000D01*
X113661000Y-96303000D02*
X113661000Y-106197000D01*
X113621000Y-96294000D02*
X113621000Y-106206000D01*
X113581000Y-96285000D02*
X113581000Y-106215000D01*
X113541000Y-96276000D02*
X113541000Y-106224000D01*
X113501000Y-96268000D02*
X113501000Y-106232000D01*
X113461000Y-96260000D02*
X113461000Y-106240000D01*
X113421000Y-96253000D02*
X113421000Y-106247000D01*
X113381000Y-96246000D02*
X113381000Y-106254000D01*
X113341000Y-96239000D02*
X113341000Y-106261000D01*
X113301000Y-96232000D02*
X113301000Y-106268000D01*
X113261000Y-96226000D02*
X113261000Y-106274000D01*
X113221000Y-96220000D02*
X113221000Y-106280000D01*
X113180000Y-96215000D02*
X113180000Y-106285000D01*
X113140000Y-96210000D02*
X113140000Y-106290000D01*
X113100000Y-96205000D02*
X113100000Y-106295000D01*
X113060000Y-96200000D02*
X113060000Y-106300000D01*
X113020000Y-96196000D02*
X113020000Y-106304000D01*
X112980000Y-96192000D02*
X112980000Y-106308000D01*
X112940000Y-96188000D02*
X112940000Y-106312000D01*
X112900000Y-96185000D02*
X112900000Y-106315000D01*
X112860000Y-96182000D02*
X112860000Y-106318000D01*
X112820000Y-96180000D02*
X112820000Y-106320000D01*
X112780000Y-96177000D02*
X112780000Y-106323000D01*
X112740000Y-96175000D02*
X112740000Y-106325000D01*
X112700000Y-96173000D02*
X112700000Y-106327000D01*
X112660000Y-96172000D02*
X112660000Y-106328000D01*
X112620000Y-96171000D02*
X112620000Y-106329000D01*
X112580000Y-96170000D02*
X112580000Y-106330000D01*
X112540000Y-96170000D02*
X112540000Y-106330000D01*
X112500000Y-96170000D02*
X112500000Y-106330000D01*
X107537460Y-102510000D02*
G75*
G03X107537460Y-99990000I4962540J1260000D01*
G01*
X97508578Y-101465000D02*
X96991422Y-101465000D01*
X97508578Y-102885000D02*
X96991422Y-102885000D01*
X104928922Y-72210000D02*
X105446078Y-72210000D01*
X104928922Y-70790000D02*
X105446078Y-70790000D01*
D10*
X96175000Y-68400000D02*
X94825000Y-68400000D01*
X96175000Y-73525000D02*
X100825000Y-73525000D01*
X96175000Y-68275000D02*
X100825000Y-68275000D01*
X96175000Y-73525000D02*
X96175000Y-73300000D01*
X100825000Y-73525000D02*
X100825000Y-73300000D01*
X100825000Y-68275000D02*
X100825000Y-68500000D01*
X96175000Y-68275000D02*
X96175000Y-68400000D01*
D11*
X86782064Y-70840000D02*
X85577936Y-70840000D01*
X86782064Y-72660000D02*
X85577936Y-72660000D01*
X104928922Y-75710000D02*
X105446078Y-75710000D01*
X104928922Y-74290000D02*
X105446078Y-74290000D01*
X107520354Y-69375000D02*
X107520354Y-70375000D01*
X107020354Y-69875000D02*
X108020354Y-69875000D01*
X117581000Y-72151000D02*
X117581000Y-73349000D01*
X117541000Y-71888000D02*
X117541000Y-73612000D01*
X117501000Y-71688000D02*
X117501000Y-73812000D01*
X117421000Y-73991000D02*
X117421000Y-74128000D01*
X117421000Y-71372000D02*
X117421000Y-71509000D01*
X117381000Y-73991000D02*
X117381000Y-74260000D01*
X117381000Y-71240000D02*
X117381000Y-71509000D01*
X117341000Y-73991000D02*
X117341000Y-74380000D01*
X117341000Y-71120000D02*
X117341000Y-71509000D01*
X117301000Y-73991000D02*
X117301000Y-74492000D01*
X117301000Y-71008000D02*
X117301000Y-71509000D01*
X117261000Y-73991000D02*
X117261000Y-74596000D01*
X117261000Y-70904000D02*
X117261000Y-71509000D01*
X117221000Y-73991000D02*
X117221000Y-74694000D01*
X117221000Y-70806000D02*
X117221000Y-71509000D01*
X117181000Y-73991000D02*
X117181000Y-74787000D01*
X117181000Y-70713000D02*
X117181000Y-71509000D01*
X117141000Y-73991000D02*
X117141000Y-74875000D01*
X117141000Y-70625000D02*
X117141000Y-71509000D01*
X117101000Y-73991000D02*
X117101000Y-74959000D01*
X117101000Y-70541000D02*
X117101000Y-71509000D01*
X117061000Y-73991000D02*
X117061000Y-75039000D01*
X117061000Y-70461000D02*
X117061000Y-71509000D01*
X117021000Y-73991000D02*
X117021000Y-75115000D01*
X117021000Y-70385000D02*
X117021000Y-71509000D01*
X116981000Y-73991000D02*
X116981000Y-75189000D01*
X116981000Y-70311000D02*
X116981000Y-71509000D01*
X116941000Y-73991000D02*
X116941000Y-75260000D01*
X116941000Y-70240000D02*
X116941000Y-71509000D01*
X116901000Y-73991000D02*
X116901000Y-75329000D01*
X116901000Y-70171000D02*
X116901000Y-71509000D01*
X116861000Y-73991000D02*
X116861000Y-75395000D01*
X116861000Y-70105000D02*
X116861000Y-71509000D01*
X116821000Y-73991000D02*
X116821000Y-75459000D01*
X116821000Y-70041000D02*
X116821000Y-71509000D01*
X116781000Y-73991000D02*
X116781000Y-75520000D01*
X116781000Y-69980000D02*
X116781000Y-71509000D01*
X116741000Y-73991000D02*
X116741000Y-75580000D01*
X116741000Y-69920000D02*
X116741000Y-71509000D01*
X116701000Y-73991000D02*
X116701000Y-75639000D01*
X116701000Y-69861000D02*
X116701000Y-71509000D01*
X116661000Y-73991000D02*
X116661000Y-75695000D01*
X116661000Y-69805000D02*
X116661000Y-71509000D01*
X116621000Y-73991000D02*
X116621000Y-75750000D01*
X116621000Y-69750000D02*
X116621000Y-71509000D01*
X116581000Y-73991000D02*
X116581000Y-75804000D01*
X116581000Y-69696000D02*
X116581000Y-71509000D01*
X116541000Y-73991000D02*
X116541000Y-75856000D01*
X116541000Y-69644000D02*
X116541000Y-71509000D01*
X116501000Y-73991000D02*
X116501000Y-75906000D01*
X116501000Y-69594000D02*
X116501000Y-71509000D01*
X116461000Y-73991000D02*
X116461000Y-75956000D01*
X116461000Y-69544000D02*
X116461000Y-71509000D01*
X116421000Y-73991000D02*
X116421000Y-76004000D01*
X116421000Y-69496000D02*
X116421000Y-71509000D01*
X116381000Y-73991000D02*
X116381000Y-76051000D01*
X116381000Y-69449000D02*
X116381000Y-71509000D01*
X116341000Y-73991000D02*
X116341000Y-76097000D01*
X116341000Y-69403000D02*
X116341000Y-71509000D01*
X116301000Y-73991000D02*
X116301000Y-76142000D01*
X116301000Y-69358000D02*
X116301000Y-71509000D01*
X116261000Y-73991000D02*
X116261000Y-76186000D01*
X116261000Y-69314000D02*
X116261000Y-71509000D01*
X116221000Y-73991000D02*
X116221000Y-76228000D01*
X116221000Y-69272000D02*
X116221000Y-71509000D01*
X116181000Y-73991000D02*
X116181000Y-76270000D01*
X116181000Y-69230000D02*
X116181000Y-71509000D01*
X116141000Y-73991000D02*
X116141000Y-76311000D01*
X116141000Y-69189000D02*
X116141000Y-71509000D01*
X116101000Y-73991000D02*
X116101000Y-76351000D01*
X116101000Y-69149000D02*
X116101000Y-71509000D01*
X116061000Y-73991000D02*
X116061000Y-76390000D01*
X116061000Y-69110000D02*
X116061000Y-71509000D01*
X116021000Y-73991000D02*
X116021000Y-76429000D01*
X116021000Y-69071000D02*
X116021000Y-71509000D01*
X115981000Y-73991000D02*
X115981000Y-76466000D01*
X115981000Y-69034000D02*
X115981000Y-71509000D01*
X115941000Y-73991000D02*
X115941000Y-76503000D01*
X115941000Y-68997000D02*
X115941000Y-71509000D01*
X115901000Y-73991000D02*
X115901000Y-76539000D01*
X115901000Y-68961000D02*
X115901000Y-71509000D01*
X115861000Y-73991000D02*
X115861000Y-76574000D01*
X115861000Y-68926000D02*
X115861000Y-71509000D01*
X115821000Y-73991000D02*
X115821000Y-76608000D01*
X115821000Y-68892000D02*
X115821000Y-71509000D01*
X115781000Y-73991000D02*
X115781000Y-76642000D01*
X115781000Y-68858000D02*
X115781000Y-71509000D01*
X115741000Y-73991000D02*
X115741000Y-76675000D01*
X115741000Y-68825000D02*
X115741000Y-71509000D01*
X115701000Y-73991000D02*
X115701000Y-76707000D01*
X115701000Y-68793000D02*
X115701000Y-71509000D01*
X115661000Y-73991000D02*
X115661000Y-76739000D01*
X115661000Y-68761000D02*
X115661000Y-71509000D01*
X115621000Y-73991000D02*
X115621000Y-76770000D01*
X115621000Y-68730000D02*
X115621000Y-71509000D01*
X115581000Y-73991000D02*
X115581000Y-76800000D01*
X115581000Y-68700000D02*
X115581000Y-71509000D01*
X115541000Y-73991000D02*
X115541000Y-76830000D01*
X115541000Y-68670000D02*
X115541000Y-71509000D01*
X115501000Y-73991000D02*
X115501000Y-76860000D01*
X115501000Y-68640000D02*
X115501000Y-71509000D01*
X115461000Y-73991000D02*
X115461000Y-76888000D01*
X115461000Y-68612000D02*
X115461000Y-71509000D01*
X115421000Y-73991000D02*
X115421000Y-76916000D01*
X115421000Y-68584000D02*
X115421000Y-71509000D01*
X115381000Y-73991000D02*
X115381000Y-76944000D01*
X115381000Y-68556000D02*
X115381000Y-71509000D01*
X115341000Y-73991000D02*
X115341000Y-76971000D01*
X115341000Y-68529000D02*
X115341000Y-71509000D01*
X115301000Y-73991000D02*
X115301000Y-76997000D01*
X115301000Y-68503000D02*
X115301000Y-71509000D01*
X115261000Y-73991000D02*
X115261000Y-77023000D01*
X115261000Y-68477000D02*
X115261000Y-71509000D01*
X115221000Y-73991000D02*
X115221000Y-77048000D01*
X115221000Y-68452000D02*
X115221000Y-71509000D01*
X115181000Y-73991000D02*
X115181000Y-77073000D01*
X115181000Y-68427000D02*
X115181000Y-71509000D01*
X115141000Y-73991000D02*
X115141000Y-77097000D01*
X115141000Y-68403000D02*
X115141000Y-71509000D01*
X115101000Y-73991000D02*
X115101000Y-77121000D01*
X115101000Y-68379000D02*
X115101000Y-71509000D01*
X115061000Y-73991000D02*
X115061000Y-77145000D01*
X115061000Y-68355000D02*
X115061000Y-71509000D01*
X115021000Y-73991000D02*
X115021000Y-77167000D01*
X115021000Y-68333000D02*
X115021000Y-71509000D01*
X114981000Y-68310000D02*
X114981000Y-77190000D01*
X114941000Y-68288000D02*
X114941000Y-77212000D01*
X114901000Y-68267000D02*
X114901000Y-77233000D01*
X114861000Y-68246000D02*
X114861000Y-77254000D01*
X114821000Y-68225000D02*
X114821000Y-77275000D01*
X114781000Y-68205000D02*
X114781000Y-77295000D01*
X114741000Y-68186000D02*
X114741000Y-77314000D01*
X114701000Y-68166000D02*
X114701000Y-77334000D01*
X114661000Y-68147000D02*
X114661000Y-77353000D01*
X114621000Y-68129000D02*
X114621000Y-77371000D01*
X114581000Y-68111000D02*
X114581000Y-77389000D01*
X114541000Y-68093000D02*
X114541000Y-77407000D01*
X114501000Y-68076000D02*
X114501000Y-77424000D01*
X114461000Y-68060000D02*
X114461000Y-77440000D01*
X114421000Y-68043000D02*
X114421000Y-77457000D01*
X114381000Y-68027000D02*
X114381000Y-77473000D01*
X114341000Y-68012000D02*
X114341000Y-77488000D01*
X114301000Y-67996000D02*
X114301000Y-77504000D01*
X114261000Y-67982000D02*
X114261000Y-77518000D01*
X114221000Y-67967000D02*
X114221000Y-77533000D01*
X114181000Y-67953000D02*
X114181000Y-77547000D01*
X114141000Y-67939000D02*
X114141000Y-77561000D01*
X114101000Y-67926000D02*
X114101000Y-77574000D01*
X114061000Y-67913000D02*
X114061000Y-77587000D01*
X114021000Y-67900000D02*
X114021000Y-77600000D01*
X113981000Y-67888000D02*
X113981000Y-77612000D01*
X113941000Y-67876000D02*
X113941000Y-77624000D01*
X113901000Y-67865000D02*
X113901000Y-77635000D01*
X113861000Y-67853000D02*
X113861000Y-77647000D01*
X113821000Y-67843000D02*
X113821000Y-77657000D01*
X113781000Y-67832000D02*
X113781000Y-77668000D01*
X113741000Y-67822000D02*
X113741000Y-77678000D01*
X113701000Y-67812000D02*
X113701000Y-77688000D01*
X113661000Y-67803000D02*
X113661000Y-77697000D01*
X113621000Y-67794000D02*
X113621000Y-77706000D01*
X113581000Y-67785000D02*
X113581000Y-77715000D01*
X113541000Y-67776000D02*
X113541000Y-77724000D01*
X113501000Y-67768000D02*
X113501000Y-77732000D01*
X113461000Y-67760000D02*
X113461000Y-77740000D01*
X113421000Y-67753000D02*
X113421000Y-77747000D01*
X113381000Y-67746000D02*
X113381000Y-77754000D01*
X113341000Y-67739000D02*
X113341000Y-77761000D01*
X113301000Y-67732000D02*
X113301000Y-77768000D01*
X113261000Y-67726000D02*
X113261000Y-77774000D01*
X113221000Y-67720000D02*
X113221000Y-77780000D01*
X113180000Y-67715000D02*
X113180000Y-77785000D01*
X113140000Y-67710000D02*
X113140000Y-77790000D01*
X113100000Y-67705000D02*
X113100000Y-77795000D01*
X113060000Y-67700000D02*
X113060000Y-77800000D01*
X113020000Y-67696000D02*
X113020000Y-77804000D01*
X112980000Y-67692000D02*
X112980000Y-77808000D01*
X112940000Y-67688000D02*
X112940000Y-77812000D01*
X112900000Y-67685000D02*
X112900000Y-77815000D01*
X112860000Y-67682000D02*
X112860000Y-77818000D01*
X112820000Y-67680000D02*
X112820000Y-77820000D01*
X112780000Y-67677000D02*
X112780000Y-77823000D01*
X112740000Y-67675000D02*
X112740000Y-77825000D01*
X112700000Y-67673000D02*
X112700000Y-77827000D01*
X112660000Y-67672000D02*
X112660000Y-77828000D01*
X112620000Y-67671000D02*
X112620000Y-77829000D01*
X112580000Y-67670000D02*
X112580000Y-77830000D01*
X112540000Y-67670000D02*
X112540000Y-77830000D01*
X112500000Y-67670000D02*
X112500000Y-77830000D01*
X107537460Y-74010000D02*
G75*
G03X107537460Y-71490000I4962540J1260000D01*
G01*
D13*
G36*
X109246536Y-107100427D02*
G01*
X109359118Y-107697618D01*
X109774531Y-107868865D01*
X110189945Y-108040112D01*
X110688302Y-107701233D01*
X110827869Y-107606877D01*
X110954029Y-107522630D01*
X111060896Y-107452338D01*
X111142583Y-107399847D01*
X111193202Y-107369004D01*
X111206987Y-107362353D01*
X111231821Y-107379458D01*
X111284889Y-107426744D01*
X111360241Y-107498172D01*
X111451930Y-107587700D01*
X111554008Y-107689289D01*
X111660527Y-107796898D01*
X111765537Y-107904487D01*
X111863092Y-108006015D01*
X111947243Y-108095441D01*
X112012041Y-108166726D01*
X112051538Y-108213828D01*
X112060981Y-108229592D01*
X112047392Y-108258653D01*
X112009294Y-108322321D01*
X111950694Y-108414367D01*
X111875598Y-108528564D01*
X111788009Y-108658684D01*
X111737255Y-108732901D01*
X111644746Y-108868422D01*
X111562541Y-108990716D01*
X111494631Y-109093695D01*
X111445001Y-109171273D01*
X111417641Y-109217361D01*
X111413530Y-109227047D01*
X111422850Y-109254574D01*
X111448255Y-109318728D01*
X111485912Y-109410490D01*
X111531987Y-109520839D01*
X111582647Y-109640755D01*
X111634060Y-109761219D01*
X111682390Y-109873209D01*
X111723807Y-109967707D01*
X111754475Y-110035692D01*
X111770562Y-110068143D01*
X111771512Y-110069420D01*
X111796773Y-110075617D01*
X111864046Y-110089440D01*
X111966361Y-110109532D01*
X112096742Y-110134534D01*
X112248217Y-110163086D01*
X112336594Y-110179551D01*
X112498453Y-110210369D01*
X112644650Y-110239694D01*
X112767788Y-110265921D01*
X112860470Y-110287446D01*
X112915302Y-110302665D01*
X112926324Y-110307493D01*
X112937119Y-110340174D01*
X112945830Y-110413985D01*
X112952461Y-110520292D01*
X112957019Y-110650467D01*
X112959510Y-110795876D01*
X112959939Y-110947890D01*
X112958312Y-111097877D01*
X112954636Y-111237206D01*
X112948916Y-111357245D01*
X112941158Y-111449365D01*
X112931369Y-111504932D01*
X112925497Y-111516500D01*
X112890400Y-111530365D01*
X112816029Y-111550188D01*
X112712224Y-111573639D01*
X112588820Y-111598391D01*
X112545742Y-111606398D01*
X112338048Y-111644441D01*
X112173985Y-111675079D01*
X112048131Y-111699529D01*
X111955066Y-111719009D01*
X111889368Y-111734736D01*
X111845618Y-111747928D01*
X111818393Y-111759804D01*
X111802273Y-111771580D01*
X111800018Y-111773908D01*
X111777504Y-111811400D01*
X111743159Y-111884365D01*
X111700412Y-111983867D01*
X111652693Y-112100973D01*
X111603431Y-112226748D01*
X111556056Y-112352257D01*
X111513996Y-112468565D01*
X111480681Y-112566739D01*
X111459542Y-112637843D01*
X111454006Y-112672942D01*
X111454467Y-112674172D01*
X111473224Y-112702861D01*
X111515777Y-112765985D01*
X111577654Y-112856973D01*
X111654383Y-112969255D01*
X111741492Y-113096260D01*
X111766299Y-113132353D01*
X111854753Y-113263203D01*
X111932589Y-113382591D01*
X111995567Y-113483662D01*
X112039446Y-113559559D01*
X112059986Y-113603427D01*
X112060981Y-113608817D01*
X112043723Y-113637144D01*
X111996036Y-113693261D01*
X111924051Y-113771137D01*
X111833898Y-113864740D01*
X111731706Y-113968041D01*
X111623606Y-114075006D01*
X111515729Y-114179606D01*
X111414205Y-114275809D01*
X111325163Y-114357584D01*
X111254734Y-114418900D01*
X111209048Y-114453726D01*
X111196410Y-114459412D01*
X111166992Y-114446020D01*
X111106762Y-114409899D01*
X111025530Y-114357136D01*
X110963031Y-114314667D01*
X110849786Y-114236740D01*
X110715675Y-114144984D01*
X110581156Y-114053375D01*
X110508834Y-114004346D01*
X110264039Y-113838770D01*
X110058551Y-113949875D01*
X109964937Y-113998548D01*
X109885331Y-114036381D01*
X109831468Y-114057958D01*
X109817758Y-114060961D01*
X109801271Y-114038793D01*
X109768746Y-113976149D01*
X109722609Y-113878809D01*
X109665291Y-113752549D01*
X109599217Y-113603150D01*
X109526816Y-113436388D01*
X109450517Y-113258042D01*
X109372747Y-113073891D01*
X109295935Y-112889712D01*
X109222507Y-112711285D01*
X109154893Y-112544387D01*
X109095521Y-112394797D01*
X109046817Y-112268293D01*
X109011211Y-112170654D01*
X108991131Y-112107657D01*
X108987901Y-112086021D01*
X109013497Y-112058424D01*
X109069539Y-112013625D01*
X109144312Y-111960934D01*
X109150588Y-111956765D01*
X109343846Y-111802069D01*
X109499675Y-111621591D01*
X109616725Y-111421102D01*
X109693646Y-111206374D01*
X109729087Y-110983177D01*
X109721698Y-110757281D01*
X109670128Y-110534459D01*
X109573027Y-110320479D01*
X109544459Y-110273664D01*
X109395869Y-110084618D01*
X109220328Y-109932812D01*
X109023911Y-109819034D01*
X108812694Y-109744075D01*
X108592754Y-109708722D01*
X108370164Y-109713767D01*
X108151002Y-109759999D01*
X107941343Y-109848206D01*
X107747262Y-109979179D01*
X107687227Y-110032337D01*
X107534436Y-110198739D01*
X107423098Y-110373912D01*
X107346724Y-110570266D01*
X107304188Y-110764717D01*
X107293687Y-110983342D01*
X107328701Y-111203052D01*
X107405674Y-111416420D01*
X107521048Y-111616022D01*
X107671266Y-111794429D01*
X107852774Y-111944217D01*
X107876628Y-111960006D01*
X107952202Y-112011712D01*
X108009652Y-112056512D01*
X108037118Y-112085117D01*
X108037518Y-112086021D01*
X108031621Y-112116964D01*
X108008246Y-112187191D01*
X107969822Y-112290925D01*
X107918778Y-112422390D01*
X107857543Y-112575807D01*
X107788545Y-112745401D01*
X107714214Y-112925393D01*
X107636979Y-113110008D01*
X107559269Y-113293468D01*
X107483512Y-113469996D01*
X107412138Y-113633814D01*
X107347575Y-113779147D01*
X107292253Y-113900217D01*
X107248601Y-113991247D01*
X107219047Y-114046460D01*
X107207145Y-114060961D01*
X107170778Y-114049669D01*
X107102731Y-114019385D01*
X107014737Y-113975520D01*
X106966351Y-113949875D01*
X106760864Y-113838770D01*
X106516069Y-114004346D01*
X106391107Y-114089170D01*
X106254296Y-114182516D01*
X106126089Y-114270408D01*
X106061872Y-114314667D01*
X105971552Y-114375318D01*
X105895072Y-114423381D01*
X105842408Y-114452770D01*
X105825303Y-114458982D01*
X105800406Y-114442223D01*
X105745306Y-114395436D01*
X105665344Y-114323480D01*
X105565861Y-114231212D01*
X105452201Y-114123490D01*
X105380316Y-114054326D01*
X105254552Y-113930757D01*
X105145864Y-113820234D01*
X105058646Y-113727485D01*
X104997290Y-113657237D01*
X104966192Y-113614220D01*
X104963209Y-113605490D01*
X104977054Y-113572284D01*
X105015313Y-113505142D01*
X105073742Y-113410863D01*
X105148098Y-113296245D01*
X105234136Y-113168083D01*
X105258603Y-113132353D01*
X105347755Y-113002489D01*
X105427739Y-112885569D01*
X105494081Y-112788162D01*
X105542312Y-112716839D01*
X105567958Y-112678170D01*
X105570436Y-112674172D01*
X105566730Y-112643355D01*
X105547062Y-112575599D01*
X105514861Y-112479839D01*
X105473556Y-112365009D01*
X105426576Y-112240044D01*
X105377350Y-112113879D01*
X105329309Y-111995448D01*
X105285882Y-111893685D01*
X105250497Y-111817526D01*
X105226585Y-111775904D01*
X105224885Y-111773908D01*
X105210263Y-111762013D01*
X105185566Y-111750250D01*
X105145373Y-111737401D01*
X105084264Y-111722249D01*
X104996818Y-111703576D01*
X104877613Y-111680165D01*
X104721228Y-111650797D01*
X104522244Y-111614255D01*
X104479161Y-111606398D01*
X104351471Y-111581727D01*
X104240154Y-111557593D01*
X104155046Y-111536324D01*
X104105984Y-111520248D01*
X104099406Y-111516500D01*
X104088565Y-111483273D01*
X104079754Y-111409021D01*
X104072977Y-111302376D01*
X104068241Y-111171967D01*
X104065551Y-111026427D01*
X104064914Y-110874386D01*
X104066335Y-110724476D01*
X104069821Y-110585328D01*
X104075377Y-110465572D01*
X104083009Y-110373841D01*
X104092723Y-110318766D01*
X104098579Y-110307493D01*
X104131181Y-110296123D01*
X104205419Y-110277624D01*
X104313897Y-110253602D01*
X104449218Y-110225662D01*
X104603986Y-110195408D01*
X104688308Y-110179551D01*
X104848297Y-110149644D01*
X104990968Y-110122550D01*
X105109349Y-110099631D01*
X105196466Y-110082243D01*
X105245346Y-110071747D01*
X105253391Y-110069420D01*
X105266988Y-110043186D01*
X105295730Y-109979995D01*
X105335786Y-109888877D01*
X105383325Y-109778857D01*
X105434516Y-109658965D01*
X105485527Y-109538227D01*
X105532527Y-109425671D01*
X105571685Y-109330326D01*
X105599170Y-109261217D01*
X105611150Y-109227374D01*
X105611373Y-109225895D01*
X105597792Y-109199197D01*
X105559716Y-109137760D01*
X105501148Y-109047689D01*
X105426089Y-108935090D01*
X105338541Y-108806070D01*
X105287648Y-108731961D01*
X105194910Y-108596077D01*
X105112542Y-108472709D01*
X105044562Y-108368097D01*
X104994989Y-108288483D01*
X104967843Y-108240107D01*
X104963922Y-108229262D01*
X104980776Y-108204020D01*
X105027369Y-108150124D01*
X105097749Y-108073613D01*
X105185966Y-107980523D01*
X105286066Y-107876895D01*
X105392099Y-107768764D01*
X105498112Y-107662170D01*
X105598153Y-107563150D01*
X105686271Y-107477742D01*
X105756514Y-107411985D01*
X105802929Y-107371916D01*
X105818457Y-107362353D01*
X105843740Y-107375800D01*
X105904212Y-107413575D01*
X105993993Y-107471835D01*
X106107204Y-107546734D01*
X106237964Y-107634425D01*
X106336600Y-107701233D01*
X106834958Y-108040112D01*
X107250371Y-107868865D01*
X107665785Y-107697618D01*
X107778367Y-107100427D01*
X107890950Y-106503235D01*
X109133953Y-106503235D01*
X109246536Y-107100427D01*
X109246536Y-107100427D01*
G37*
X109246536Y-107100427D02*
X109359118Y-107697618D01*
X109774531Y-107868865D01*
X110189945Y-108040112D01*
X110688302Y-107701233D01*
X110827869Y-107606877D01*
X110954029Y-107522630D01*
X111060896Y-107452338D01*
X111142583Y-107399847D01*
X111193202Y-107369004D01*
X111206987Y-107362353D01*
X111231821Y-107379458D01*
X111284889Y-107426744D01*
X111360241Y-107498172D01*
X111451930Y-107587700D01*
X111554008Y-107689289D01*
X111660527Y-107796898D01*
X111765537Y-107904487D01*
X111863092Y-108006015D01*
X111947243Y-108095441D01*
X112012041Y-108166726D01*
X112051538Y-108213828D01*
X112060981Y-108229592D01*
X112047392Y-108258653D01*
X112009294Y-108322321D01*
X111950694Y-108414367D01*
X111875598Y-108528564D01*
X111788009Y-108658684D01*
X111737255Y-108732901D01*
X111644746Y-108868422D01*
X111562541Y-108990716D01*
X111494631Y-109093695D01*
X111445001Y-109171273D01*
X111417641Y-109217361D01*
X111413530Y-109227047D01*
X111422850Y-109254574D01*
X111448255Y-109318728D01*
X111485912Y-109410490D01*
X111531987Y-109520839D01*
X111582647Y-109640755D01*
X111634060Y-109761219D01*
X111682390Y-109873209D01*
X111723807Y-109967707D01*
X111754475Y-110035692D01*
X111770562Y-110068143D01*
X111771512Y-110069420D01*
X111796773Y-110075617D01*
X111864046Y-110089440D01*
X111966361Y-110109532D01*
X112096742Y-110134534D01*
X112248217Y-110163086D01*
X112336594Y-110179551D01*
X112498453Y-110210369D01*
X112644650Y-110239694D01*
X112767788Y-110265921D01*
X112860470Y-110287446D01*
X112915302Y-110302665D01*
X112926324Y-110307493D01*
X112937119Y-110340174D01*
X112945830Y-110413985D01*
X112952461Y-110520292D01*
X112957019Y-110650467D01*
X112959510Y-110795876D01*
X112959939Y-110947890D01*
X112958312Y-111097877D01*
X112954636Y-111237206D01*
X112948916Y-111357245D01*
X112941158Y-111449365D01*
X112931369Y-111504932D01*
X112925497Y-111516500D01*
X112890400Y-111530365D01*
X112816029Y-111550188D01*
X112712224Y-111573639D01*
X112588820Y-111598391D01*
X112545742Y-111606398D01*
X112338048Y-111644441D01*
X112173985Y-111675079D01*
X112048131Y-111699529D01*
X111955066Y-111719009D01*
X111889368Y-111734736D01*
X111845618Y-111747928D01*
X111818393Y-111759804D01*
X111802273Y-111771580D01*
X111800018Y-111773908D01*
X111777504Y-111811400D01*
X111743159Y-111884365D01*
X111700412Y-111983867D01*
X111652693Y-112100973D01*
X111603431Y-112226748D01*
X111556056Y-112352257D01*
X111513996Y-112468565D01*
X111480681Y-112566739D01*
X111459542Y-112637843D01*
X111454006Y-112672942D01*
X111454467Y-112674172D01*
X111473224Y-112702861D01*
X111515777Y-112765985D01*
X111577654Y-112856973D01*
X111654383Y-112969255D01*
X111741492Y-113096260D01*
X111766299Y-113132353D01*
X111854753Y-113263203D01*
X111932589Y-113382591D01*
X111995567Y-113483662D01*
X112039446Y-113559559D01*
X112059986Y-113603427D01*
X112060981Y-113608817D01*
X112043723Y-113637144D01*
X111996036Y-113693261D01*
X111924051Y-113771137D01*
X111833898Y-113864740D01*
X111731706Y-113968041D01*
X111623606Y-114075006D01*
X111515729Y-114179606D01*
X111414205Y-114275809D01*
X111325163Y-114357584D01*
X111254734Y-114418900D01*
X111209048Y-114453726D01*
X111196410Y-114459412D01*
X111166992Y-114446020D01*
X111106762Y-114409899D01*
X111025530Y-114357136D01*
X110963031Y-114314667D01*
X110849786Y-114236740D01*
X110715675Y-114144984D01*
X110581156Y-114053375D01*
X110508834Y-114004346D01*
X110264039Y-113838770D01*
X110058551Y-113949875D01*
X109964937Y-113998548D01*
X109885331Y-114036381D01*
X109831468Y-114057958D01*
X109817758Y-114060961D01*
X109801271Y-114038793D01*
X109768746Y-113976149D01*
X109722609Y-113878809D01*
X109665291Y-113752549D01*
X109599217Y-113603150D01*
X109526816Y-113436388D01*
X109450517Y-113258042D01*
X109372747Y-113073891D01*
X109295935Y-112889712D01*
X109222507Y-112711285D01*
X109154893Y-112544387D01*
X109095521Y-112394797D01*
X109046817Y-112268293D01*
X109011211Y-112170654D01*
X108991131Y-112107657D01*
X108987901Y-112086021D01*
X109013497Y-112058424D01*
X109069539Y-112013625D01*
X109144312Y-111960934D01*
X109150588Y-111956765D01*
X109343846Y-111802069D01*
X109499675Y-111621591D01*
X109616725Y-111421102D01*
X109693646Y-111206374D01*
X109729087Y-110983177D01*
X109721698Y-110757281D01*
X109670128Y-110534459D01*
X109573027Y-110320479D01*
X109544459Y-110273664D01*
X109395869Y-110084618D01*
X109220328Y-109932812D01*
X109023911Y-109819034D01*
X108812694Y-109744075D01*
X108592754Y-109708722D01*
X108370164Y-109713767D01*
X108151002Y-109759999D01*
X107941343Y-109848206D01*
X107747262Y-109979179D01*
X107687227Y-110032337D01*
X107534436Y-110198739D01*
X107423098Y-110373912D01*
X107346724Y-110570266D01*
X107304188Y-110764717D01*
X107293687Y-110983342D01*
X107328701Y-111203052D01*
X107405674Y-111416420D01*
X107521048Y-111616022D01*
X107671266Y-111794429D01*
X107852774Y-111944217D01*
X107876628Y-111960006D01*
X107952202Y-112011712D01*
X108009652Y-112056512D01*
X108037118Y-112085117D01*
X108037518Y-112086021D01*
X108031621Y-112116964D01*
X108008246Y-112187191D01*
X107969822Y-112290925D01*
X107918778Y-112422390D01*
X107857543Y-112575807D01*
X107788545Y-112745401D01*
X107714214Y-112925393D01*
X107636979Y-113110008D01*
X107559269Y-113293468D01*
X107483512Y-113469996D01*
X107412138Y-113633814D01*
X107347575Y-113779147D01*
X107292253Y-113900217D01*
X107248601Y-113991247D01*
X107219047Y-114046460D01*
X107207145Y-114060961D01*
X107170778Y-114049669D01*
X107102731Y-114019385D01*
X107014737Y-113975520D01*
X106966351Y-113949875D01*
X106760864Y-113838770D01*
X106516069Y-114004346D01*
X106391107Y-114089170D01*
X106254296Y-114182516D01*
X106126089Y-114270408D01*
X106061872Y-114314667D01*
X105971552Y-114375318D01*
X105895072Y-114423381D01*
X105842408Y-114452770D01*
X105825303Y-114458982D01*
X105800406Y-114442223D01*
X105745306Y-114395436D01*
X105665344Y-114323480D01*
X105565861Y-114231212D01*
X105452201Y-114123490D01*
X105380316Y-114054326D01*
X105254552Y-113930757D01*
X105145864Y-113820234D01*
X105058646Y-113727485D01*
X104997290Y-113657237D01*
X104966192Y-113614220D01*
X104963209Y-113605490D01*
X104977054Y-113572284D01*
X105015313Y-113505142D01*
X105073742Y-113410863D01*
X105148098Y-113296245D01*
X105234136Y-113168083D01*
X105258603Y-113132353D01*
X105347755Y-113002489D01*
X105427739Y-112885569D01*
X105494081Y-112788162D01*
X105542312Y-112716839D01*
X105567958Y-112678170D01*
X105570436Y-112674172D01*
X105566730Y-112643355D01*
X105547062Y-112575599D01*
X105514861Y-112479839D01*
X105473556Y-112365009D01*
X105426576Y-112240044D01*
X105377350Y-112113879D01*
X105329309Y-111995448D01*
X105285882Y-111893685D01*
X105250497Y-111817526D01*
X105226585Y-111775904D01*
X105224885Y-111773908D01*
X105210263Y-111762013D01*
X105185566Y-111750250D01*
X105145373Y-111737401D01*
X105084264Y-111722249D01*
X104996818Y-111703576D01*
X104877613Y-111680165D01*
X104721228Y-111650797D01*
X104522244Y-111614255D01*
X104479161Y-111606398D01*
X104351471Y-111581727D01*
X104240154Y-111557593D01*
X104155046Y-111536324D01*
X104105984Y-111520248D01*
X104099406Y-111516500D01*
X104088565Y-111483273D01*
X104079754Y-111409021D01*
X104072977Y-111302376D01*
X104068241Y-111171967D01*
X104065551Y-111026427D01*
X104064914Y-110874386D01*
X104066335Y-110724476D01*
X104069821Y-110585328D01*
X104075377Y-110465572D01*
X104083009Y-110373841D01*
X104092723Y-110318766D01*
X104098579Y-110307493D01*
X104131181Y-110296123D01*
X104205419Y-110277624D01*
X104313897Y-110253602D01*
X104449218Y-110225662D01*
X104603986Y-110195408D01*
X104688308Y-110179551D01*
X104848297Y-110149644D01*
X104990968Y-110122550D01*
X105109349Y-110099631D01*
X105196466Y-110082243D01*
X105245346Y-110071747D01*
X105253391Y-110069420D01*
X105266988Y-110043186D01*
X105295730Y-109979995D01*
X105335786Y-109888877D01*
X105383325Y-109778857D01*
X105434516Y-109658965D01*
X105485527Y-109538227D01*
X105532527Y-109425671D01*
X105571685Y-109330326D01*
X105599170Y-109261217D01*
X105611150Y-109227374D01*
X105611373Y-109225895D01*
X105597792Y-109199197D01*
X105559716Y-109137760D01*
X105501148Y-109047689D01*
X105426089Y-108935090D01*
X105338541Y-108806070D01*
X105287648Y-108731961D01*
X105194910Y-108596077D01*
X105112542Y-108472709D01*
X105044562Y-108368097D01*
X104994989Y-108288483D01*
X104967843Y-108240107D01*
X104963922Y-108229262D01*
X104980776Y-108204020D01*
X105027369Y-108150124D01*
X105097749Y-108073613D01*
X105185966Y-107980523D01*
X105286066Y-107876895D01*
X105392099Y-107768764D01*
X105498112Y-107662170D01*
X105598153Y-107563150D01*
X105686271Y-107477742D01*
X105756514Y-107411985D01*
X105802929Y-107371916D01*
X105818457Y-107362353D01*
X105843740Y-107375800D01*
X105904212Y-107413575D01*
X105993993Y-107471835D01*
X106107204Y-107546734D01*
X106237964Y-107634425D01*
X106336600Y-107701233D01*
X106834958Y-108040112D01*
X107250371Y-107868865D01*
X107665785Y-107697618D01*
X107778367Y-107100427D01*
X107890950Y-106503235D01*
X109133953Y-106503235D01*
X109246536Y-107100427D01*
D12*
X95650000Y-84150000D02*
X95650000Y-90350000D01*
X101850000Y-84150000D02*
X95650000Y-84150000D01*
X101850000Y-90350000D02*
X101850000Y-84150000D01*
X95650000Y-90350000D02*
X101850000Y-90350000D01*
X94300000Y-83750000D02*
G75*
G03X94300000Y-83750000I-50000J0D01*
G01*
X94350000Y-83750000D02*
G75*
G03X94350000Y-83750000I-100000J0D01*
G01*
X94450000Y-83750000D02*
G75*
G03X94450000Y-83750000I-200000J0D01*
G01*
X94550000Y-83750000D02*
G75*
G03X94550000Y-83750000I-300000J0D01*
G01*
D11*
X92502064Y-97090000D02*
X91297936Y-97090000D01*
X92502064Y-98910000D02*
X91297936Y-98910000D01*
X86852064Y-100185000D02*
X85647936Y-100185000D01*
X86852064Y-102905000D02*
X85647936Y-102905000D01*
X90491422Y-69210000D02*
X91008578Y-69210000D01*
X90491422Y-67790000D02*
X91008578Y-67790000D01*
X90710000Y-76008578D02*
X90710000Y-75491422D01*
X89290000Y-76008578D02*
X89290000Y-75491422D01*
X92002064Y-79090000D02*
X90797936Y-79090000D01*
X92002064Y-80910000D02*
X90797936Y-80910000D01*
X104928922Y-68960000D02*
X105446078Y-68960000D01*
X104928922Y-67540000D02*
X105446078Y-67540000D01*
X92290000Y-75553922D02*
X92290000Y-76071078D01*
X93710000Y-75553922D02*
X93710000Y-76071078D01*
X85908578Y-93790000D02*
X85391422Y-93790000D01*
X85908578Y-95210000D02*
X85391422Y-95210000D01*
X105008578Y-79790000D02*
X104491422Y-79790000D01*
X105008578Y-81210000D02*
X104491422Y-81210000D01*
X95290000Y-75491422D02*
X95290000Y-76008578D01*
X96710000Y-75491422D02*
X96710000Y-76008578D01*
X90891422Y-102885000D02*
X91408578Y-102885000D01*
X90891422Y-101465000D02*
X91408578Y-101465000D01*
X85908578Y-97040000D02*
X85391422Y-97040000D01*
X85908578Y-98460000D02*
X85391422Y-98460000D01*
X91508578Y-94040000D02*
X90991422Y-94040000D01*
X91508578Y-95460000D02*
X90991422Y-95460000D01*
X85908578Y-90790000D02*
X85391422Y-90790000D01*
X85908578Y-92210000D02*
X85391422Y-92210000D01*
X84000000Y-60250000D02*
X87900000Y-60250000D01*
X84000000Y-62250000D02*
X87900000Y-62250000D01*
X84000000Y-60250000D02*
X84000000Y-62250000D01*
X93460000Y-71758578D02*
X93460000Y-71241422D01*
X92040000Y-71758578D02*
X92040000Y-71241422D01*
X90710000Y-71758578D02*
X90710000Y-71241422D01*
X89290000Y-71758578D02*
X89290000Y-71241422D01*
D12*
X111750000Y-57000000D02*
X100750000Y-57000000D01*
X100650000Y-67000000D02*
X100650000Y-55000000D01*
X111850000Y-67000000D02*
X111850000Y-55000000D01*
X102750000Y-55000000D02*
X100650000Y-55000000D01*
X102750000Y-55500000D02*
X102750000Y-55000000D01*
X104750000Y-55500000D02*
X102750000Y-55500000D01*
X104750000Y-55000000D02*
X104750000Y-55500000D01*
X107750000Y-55000000D02*
X104750000Y-55000000D01*
X107750000Y-55500000D02*
X107750000Y-55000000D01*
X109750000Y-55500000D02*
X107750000Y-55500000D01*
X109750000Y-55000000D02*
X109750000Y-55500000D01*
X111850000Y-55000000D02*
X109750000Y-55000000D01*
X111850000Y-67000000D02*
X100650000Y-67000000D01*
D11*
X96300000Y-65150000D02*
X92200000Y-65150000D01*
X96300000Y-56850000D02*
X98400000Y-58950000D01*
X92200000Y-56850000D02*
X96300000Y-56850000D01*
X92200000Y-56850000D02*
X90100000Y-58950000D01*
X92200000Y-65150000D02*
X90100000Y-63050000D01*
D12*
X104800000Y-100889000D02*
X101200000Y-100889000D01*
X101200000Y-97650000D02*
X104800000Y-97650000D01*
X101200000Y-102350000D02*
X104800000Y-102350000D01*
X104800000Y-100889000D02*
X104800000Y-97650000D01*
X104800000Y-102350000D02*
X104800000Y-100889000D01*
X101200000Y-100889000D02*
X101200000Y-97650000D01*
X101200000Y-102350000D02*
X101200000Y-100889000D01*
D11*
X85838578Y-67790000D02*
X85321422Y-67790000D01*
X85838578Y-69210000D02*
X85321422Y-69210000D01*
X85838578Y-63790000D02*
X85321422Y-63790000D01*
X85838578Y-65210000D02*
X85321422Y-65210000D01*
X86782064Y-74340000D02*
X85577936Y-74340000D01*
X86782064Y-76160000D02*
X85577936Y-76160000D01*
D10*
X59952380Y-72147619D02*
X59857142Y-72100000D01*
X59761904Y-72004761D01*
X59619047Y-71861904D01*
X59523809Y-71814285D01*
X59428571Y-71814285D01*
X59476190Y-72052380D02*
X59380952Y-72004761D01*
X59285714Y-71909523D01*
X59238095Y-71719047D01*
X59238095Y-71385714D01*
X59285714Y-71195238D01*
X59380952Y-71100000D01*
X59476190Y-71052380D01*
X59666666Y-71052380D01*
X59761904Y-71100000D01*
X59857142Y-71195238D01*
X59904761Y-71385714D01*
X59904761Y-71719047D01*
X59857142Y-71909523D01*
X59761904Y-72004761D01*
X59666666Y-72052380D01*
X59476190Y-72052380D01*
X60285714Y-71147619D02*
X60333333Y-71100000D01*
X60428571Y-71052380D01*
X60666666Y-71052380D01*
X60761904Y-71100000D01*
X60809523Y-71147619D01*
X60857142Y-71242857D01*
X60857142Y-71338095D01*
X60809523Y-71480952D01*
X60238095Y-72052380D01*
X60857142Y-72052380D01*
X61476190Y-71052380D02*
X61571428Y-71052380D01*
X61666666Y-71100000D01*
X61714285Y-71147619D01*
X61761904Y-71242857D01*
X61809523Y-71433333D01*
X61809523Y-71671428D01*
X61761904Y-71861904D01*
X61714285Y-71957142D01*
X61666666Y-72004761D01*
X61571428Y-72052380D01*
X61476190Y-72052380D01*
X61380952Y-72004761D01*
X61333333Y-71957142D01*
X61285714Y-71861904D01*
X61238095Y-71671428D01*
X61238095Y-71433333D01*
X61285714Y-71242857D01*
X61333333Y-71147619D01*
X61380952Y-71100000D01*
X61476190Y-71052380D01*
X62190476Y-71147619D02*
X62238095Y-71100000D01*
X62333333Y-71052380D01*
X62571428Y-71052380D01*
X62666666Y-71100000D01*
X62714285Y-71147619D01*
X62761904Y-71242857D01*
X62761904Y-71338095D01*
X62714285Y-71480952D01*
X62142857Y-72052380D01*
X62761904Y-72052380D01*
X59952380Y-67347619D02*
X59857142Y-67300000D01*
X59761904Y-67204761D01*
X59619047Y-67061904D01*
X59523809Y-67014285D01*
X59428571Y-67014285D01*
X59476190Y-67252380D02*
X59380952Y-67204761D01*
X59285714Y-67109523D01*
X59238095Y-66919047D01*
X59238095Y-66585714D01*
X59285714Y-66395238D01*
X59380952Y-66300000D01*
X59476190Y-66252380D01*
X59666666Y-66252380D01*
X59761904Y-66300000D01*
X59857142Y-66395238D01*
X59904761Y-66585714D01*
X59904761Y-66919047D01*
X59857142Y-67109523D01*
X59761904Y-67204761D01*
X59666666Y-67252380D01*
X59476190Y-67252380D01*
X60285714Y-66347619D02*
X60333333Y-66300000D01*
X60428571Y-66252380D01*
X60666666Y-66252380D01*
X60761904Y-66300000D01*
X60809523Y-66347619D01*
X60857142Y-66442857D01*
X60857142Y-66538095D01*
X60809523Y-66680952D01*
X60238095Y-67252380D01*
X60857142Y-67252380D01*
X61476190Y-66252380D02*
X61571428Y-66252380D01*
X61666666Y-66300000D01*
X61714285Y-66347619D01*
X61761904Y-66442857D01*
X61809523Y-66633333D01*
X61809523Y-66871428D01*
X61761904Y-67061904D01*
X61714285Y-67157142D01*
X61666666Y-67204761D01*
X61571428Y-67252380D01*
X61476190Y-67252380D01*
X61380952Y-67204761D01*
X61333333Y-67157142D01*
X61285714Y-67061904D01*
X61238095Y-66871428D01*
X61238095Y-66633333D01*
X61285714Y-66442857D01*
X61333333Y-66347619D01*
X61380952Y-66300000D01*
X61476190Y-66252380D01*
X62761904Y-67252380D02*
X62190476Y-67252380D01*
X62476190Y-67252380D02*
X62476190Y-66252380D01*
X62380952Y-66395238D01*
X62285714Y-66490476D01*
X62190476Y-66538095D01*
X68485714Y-93972380D02*
X68485714Y-94781904D01*
X68533333Y-94877142D01*
X68580952Y-94924761D01*
X68676190Y-94972380D01*
X68866666Y-94972380D01*
X68961904Y-94924761D01*
X69009523Y-94877142D01*
X69057142Y-94781904D01*
X69057142Y-93972380D01*
X69485714Y-94067619D02*
X69533333Y-94020000D01*
X69628571Y-93972380D01*
X69866666Y-93972380D01*
X69961904Y-94020000D01*
X70009523Y-94067619D01*
X70057142Y-94162857D01*
X70057142Y-94258095D01*
X70009523Y-94400952D01*
X69438095Y-94972380D01*
X70057142Y-94972380D01*
X70676190Y-93972380D02*
X70771428Y-93972380D01*
X70866666Y-94020000D01*
X70914285Y-94067619D01*
X70961904Y-94162857D01*
X71009523Y-94353333D01*
X71009523Y-94591428D01*
X70961904Y-94781904D01*
X70914285Y-94877142D01*
X70866666Y-94924761D01*
X70771428Y-94972380D01*
X70676190Y-94972380D01*
X70580952Y-94924761D01*
X70533333Y-94877142D01*
X70485714Y-94781904D01*
X70438095Y-94591428D01*
X70438095Y-94353333D01*
X70485714Y-94162857D01*
X70533333Y-94067619D01*
X70580952Y-94020000D01*
X70676190Y-93972380D01*
X71390476Y-94067619D02*
X71438095Y-94020000D01*
X71533333Y-93972380D01*
X71771428Y-93972380D01*
X71866666Y-94020000D01*
X71914285Y-94067619D01*
X71961904Y-94162857D01*
X71961904Y-94258095D01*
X71914285Y-94400952D01*
X71342857Y-94972380D01*
X71961904Y-94972380D01*
X59524285Y-79552380D02*
X59524285Y-80266666D01*
X59476666Y-80409523D01*
X59381428Y-80504761D01*
X59238571Y-80552380D01*
X59143333Y-80552380D01*
X59952857Y-79647619D02*
X60000476Y-79600000D01*
X60095714Y-79552380D01*
X60333809Y-79552380D01*
X60429047Y-79600000D01*
X60476666Y-79647619D01*
X60524285Y-79742857D01*
X60524285Y-79838095D01*
X60476666Y-79980952D01*
X59905238Y-80552380D01*
X60524285Y-80552380D01*
X61143333Y-79552380D02*
X61238571Y-79552380D01*
X61333809Y-79600000D01*
X61381428Y-79647619D01*
X61429047Y-79742857D01*
X61476666Y-79933333D01*
X61476666Y-80171428D01*
X61429047Y-80361904D01*
X61381428Y-80457142D01*
X61333809Y-80504761D01*
X61238571Y-80552380D01*
X61143333Y-80552380D01*
X61048095Y-80504761D01*
X61000476Y-80457142D01*
X60952857Y-80361904D01*
X60905238Y-80171428D01*
X60905238Y-79933333D01*
X60952857Y-79742857D01*
X61000476Y-79647619D01*
X61048095Y-79600000D01*
X61143333Y-79552380D01*
X61857619Y-79647619D02*
X61905238Y-79600000D01*
X62000476Y-79552380D01*
X62238571Y-79552380D01*
X62333809Y-79600000D01*
X62381428Y-79647619D01*
X62429047Y-79742857D01*
X62429047Y-79838095D01*
X62381428Y-79980952D01*
X61810000Y-80552380D01*
X62429047Y-80552380D01*
X69635714Y-69402380D02*
X69635714Y-70211904D01*
X69683333Y-70307142D01*
X69730952Y-70354761D01*
X69826190Y-70402380D01*
X70016666Y-70402380D01*
X70111904Y-70354761D01*
X70159523Y-70307142D01*
X70207142Y-70211904D01*
X70207142Y-69402380D01*
X70635714Y-69497619D02*
X70683333Y-69450000D01*
X70778571Y-69402380D01*
X71016666Y-69402380D01*
X71111904Y-69450000D01*
X71159523Y-69497619D01*
X71207142Y-69592857D01*
X71207142Y-69688095D01*
X71159523Y-69830952D01*
X70588095Y-70402380D01*
X71207142Y-70402380D01*
X71826190Y-69402380D02*
X71921428Y-69402380D01*
X72016666Y-69450000D01*
X72064285Y-69497619D01*
X72111904Y-69592857D01*
X72159523Y-69783333D01*
X72159523Y-70021428D01*
X72111904Y-70211904D01*
X72064285Y-70307142D01*
X72016666Y-70354761D01*
X71921428Y-70402380D01*
X71826190Y-70402380D01*
X71730952Y-70354761D01*
X71683333Y-70307142D01*
X71635714Y-70211904D01*
X71588095Y-70021428D01*
X71588095Y-69783333D01*
X71635714Y-69592857D01*
X71683333Y-69497619D01*
X71730952Y-69450000D01*
X71826190Y-69402380D01*
X72492857Y-69402380D02*
X73111904Y-69402380D01*
X72778571Y-69783333D01*
X72921428Y-69783333D01*
X73016666Y-69830952D01*
X73064285Y-69878571D01*
X73111904Y-69973809D01*
X73111904Y-70211904D01*
X73064285Y-70307142D01*
X73016666Y-70354761D01*
X72921428Y-70402380D01*
X72635714Y-70402380D01*
X72540476Y-70354761D01*
X72492857Y-70307142D01*
X67280952Y-75052380D02*
X66947619Y-74576190D01*
X66709523Y-75052380D02*
X66709523Y-74052380D01*
X67090476Y-74052380D01*
X67185714Y-74100000D01*
X67233333Y-74147619D01*
X67280952Y-74242857D01*
X67280952Y-74385714D01*
X67233333Y-74480952D01*
X67185714Y-74528571D01*
X67090476Y-74576190D01*
X66709523Y-74576190D01*
X67661904Y-74147619D02*
X67709523Y-74100000D01*
X67804761Y-74052380D01*
X68042857Y-74052380D01*
X68138095Y-74100000D01*
X68185714Y-74147619D01*
X68233333Y-74242857D01*
X68233333Y-74338095D01*
X68185714Y-74480952D01*
X67614285Y-75052380D01*
X68233333Y-75052380D01*
X68852380Y-74052380D02*
X68947619Y-74052380D01*
X69042857Y-74100000D01*
X69090476Y-74147619D01*
X69138095Y-74242857D01*
X69185714Y-74433333D01*
X69185714Y-74671428D01*
X69138095Y-74861904D01*
X69090476Y-74957142D01*
X69042857Y-75004761D01*
X68947619Y-75052380D01*
X68852380Y-75052380D01*
X68757142Y-75004761D01*
X68709523Y-74957142D01*
X68661904Y-74861904D01*
X68614285Y-74671428D01*
X68614285Y-74433333D01*
X68661904Y-74242857D01*
X68709523Y-74147619D01*
X68757142Y-74100000D01*
X68852380Y-74052380D01*
X69661904Y-75052380D02*
X69852380Y-75052380D01*
X69947619Y-75004761D01*
X69995238Y-74957142D01*
X70090476Y-74814285D01*
X70138095Y-74623809D01*
X70138095Y-74242857D01*
X70090476Y-74147619D01*
X70042857Y-74100000D01*
X69947619Y-74052380D01*
X69757142Y-74052380D01*
X69661904Y-74100000D01*
X69614285Y-74147619D01*
X69566666Y-74242857D01*
X69566666Y-74480952D01*
X69614285Y-74576190D01*
X69661904Y-74623809D01*
X69757142Y-74671428D01*
X69947619Y-74671428D01*
X70042857Y-74623809D01*
X70090476Y-74576190D01*
X70138095Y-74480952D01*
X59880952Y-75452380D02*
X59547619Y-74976190D01*
X59309523Y-75452380D02*
X59309523Y-74452380D01*
X59690476Y-74452380D01*
X59785714Y-74500000D01*
X59833333Y-74547619D01*
X59880952Y-74642857D01*
X59880952Y-74785714D01*
X59833333Y-74880952D01*
X59785714Y-74928571D01*
X59690476Y-74976190D01*
X59309523Y-74976190D01*
X60261904Y-74547619D02*
X60309523Y-74500000D01*
X60404761Y-74452380D01*
X60642857Y-74452380D01*
X60738095Y-74500000D01*
X60785714Y-74547619D01*
X60833333Y-74642857D01*
X60833333Y-74738095D01*
X60785714Y-74880952D01*
X60214285Y-75452380D01*
X60833333Y-75452380D01*
X61452380Y-74452380D02*
X61547619Y-74452380D01*
X61642857Y-74500000D01*
X61690476Y-74547619D01*
X61738095Y-74642857D01*
X61785714Y-74833333D01*
X61785714Y-75071428D01*
X61738095Y-75261904D01*
X61690476Y-75357142D01*
X61642857Y-75404761D01*
X61547619Y-75452380D01*
X61452380Y-75452380D01*
X61357142Y-75404761D01*
X61309523Y-75357142D01*
X61261904Y-75261904D01*
X61214285Y-75071428D01*
X61214285Y-74833333D01*
X61261904Y-74642857D01*
X61309523Y-74547619D01*
X61357142Y-74500000D01*
X61452380Y-74452380D01*
X62357142Y-74880952D02*
X62261904Y-74833333D01*
X62214285Y-74785714D01*
X62166666Y-74690476D01*
X62166666Y-74642857D01*
X62214285Y-74547619D01*
X62261904Y-74500000D01*
X62357142Y-74452380D01*
X62547619Y-74452380D01*
X62642857Y-74500000D01*
X62690476Y-74547619D01*
X62738095Y-74642857D01*
X62738095Y-74690476D01*
X62690476Y-74785714D01*
X62642857Y-74833333D01*
X62547619Y-74880952D01*
X62357142Y-74880952D01*
X62261904Y-74928571D01*
X62214285Y-74976190D01*
X62166666Y-75071428D01*
X62166666Y-75261904D01*
X62214285Y-75357142D01*
X62261904Y-75404761D01*
X62357142Y-75452380D01*
X62547619Y-75452380D01*
X62642857Y-75404761D01*
X62690476Y-75357142D01*
X62738095Y-75261904D01*
X62738095Y-75071428D01*
X62690476Y-74976190D01*
X62642857Y-74928571D01*
X62547619Y-74880952D01*
X71418452Y-75052380D02*
X71085119Y-74576190D01*
X70847023Y-75052380D02*
X70847023Y-74052380D01*
X71227976Y-74052380D01*
X71323214Y-74100000D01*
X71370833Y-74147619D01*
X71418452Y-74242857D01*
X71418452Y-74385714D01*
X71370833Y-74480952D01*
X71323214Y-74528571D01*
X71227976Y-74576190D01*
X70847023Y-74576190D01*
X71799404Y-74147619D02*
X71847023Y-74100000D01*
X71942261Y-74052380D01*
X72180357Y-74052380D01*
X72275595Y-74100000D01*
X72323214Y-74147619D01*
X72370833Y-74242857D01*
X72370833Y-74338095D01*
X72323214Y-74480952D01*
X71751785Y-75052380D01*
X72370833Y-75052380D01*
X72989880Y-74052380D02*
X73085119Y-74052380D01*
X73180357Y-74100000D01*
X73227976Y-74147619D01*
X73275595Y-74242857D01*
X73323214Y-74433333D01*
X73323214Y-74671428D01*
X73275595Y-74861904D01*
X73227976Y-74957142D01*
X73180357Y-75004761D01*
X73085119Y-75052380D01*
X72989880Y-75052380D01*
X72894642Y-75004761D01*
X72847023Y-74957142D01*
X72799404Y-74861904D01*
X72751785Y-74671428D01*
X72751785Y-74433333D01*
X72799404Y-74242857D01*
X72847023Y-74147619D01*
X72894642Y-74100000D01*
X72989880Y-74052380D01*
X73656547Y-74052380D02*
X74323214Y-74052380D01*
X73894642Y-75052380D01*
X64280952Y-70452380D02*
X63947619Y-69976190D01*
X63709523Y-70452380D02*
X63709523Y-69452380D01*
X64090476Y-69452380D01*
X64185714Y-69500000D01*
X64233333Y-69547619D01*
X64280952Y-69642857D01*
X64280952Y-69785714D01*
X64233333Y-69880952D01*
X64185714Y-69928571D01*
X64090476Y-69976190D01*
X63709523Y-69976190D01*
X64661904Y-69547619D02*
X64709523Y-69500000D01*
X64804761Y-69452380D01*
X65042857Y-69452380D01*
X65138095Y-69500000D01*
X65185714Y-69547619D01*
X65233333Y-69642857D01*
X65233333Y-69738095D01*
X65185714Y-69880952D01*
X64614285Y-70452380D01*
X65233333Y-70452380D01*
X65852380Y-69452380D02*
X65947619Y-69452380D01*
X66042857Y-69500000D01*
X66090476Y-69547619D01*
X66138095Y-69642857D01*
X66185714Y-69833333D01*
X66185714Y-70071428D01*
X66138095Y-70261904D01*
X66090476Y-70357142D01*
X66042857Y-70404761D01*
X65947619Y-70452380D01*
X65852380Y-70452380D01*
X65757142Y-70404761D01*
X65709523Y-70357142D01*
X65661904Y-70261904D01*
X65614285Y-70071428D01*
X65614285Y-69833333D01*
X65661904Y-69642857D01*
X65709523Y-69547619D01*
X65757142Y-69500000D01*
X65852380Y-69452380D01*
X67042857Y-69452380D02*
X66852380Y-69452380D01*
X66757142Y-69500000D01*
X66709523Y-69547619D01*
X66614285Y-69690476D01*
X66566666Y-69880952D01*
X66566666Y-70261904D01*
X66614285Y-70357142D01*
X66661904Y-70404761D01*
X66757142Y-70452380D01*
X66947619Y-70452380D01*
X67042857Y-70404761D01*
X67090476Y-70357142D01*
X67138095Y-70261904D01*
X67138095Y-70023809D01*
X67090476Y-69928571D01*
X67042857Y-69880952D01*
X66947619Y-69833333D01*
X66757142Y-69833333D01*
X66661904Y-69880952D01*
X66614285Y-69928571D01*
X66566666Y-70023809D01*
X64343452Y-66302380D02*
X64010119Y-65826190D01*
X63772023Y-66302380D02*
X63772023Y-65302380D01*
X64152976Y-65302380D01*
X64248214Y-65350000D01*
X64295833Y-65397619D01*
X64343452Y-65492857D01*
X64343452Y-65635714D01*
X64295833Y-65730952D01*
X64248214Y-65778571D01*
X64152976Y-65826190D01*
X63772023Y-65826190D01*
X64724404Y-65397619D02*
X64772023Y-65350000D01*
X64867261Y-65302380D01*
X65105357Y-65302380D01*
X65200595Y-65350000D01*
X65248214Y-65397619D01*
X65295833Y-65492857D01*
X65295833Y-65588095D01*
X65248214Y-65730952D01*
X64676785Y-66302380D01*
X65295833Y-66302380D01*
X65914880Y-65302380D02*
X66010119Y-65302380D01*
X66105357Y-65350000D01*
X66152976Y-65397619D01*
X66200595Y-65492857D01*
X66248214Y-65683333D01*
X66248214Y-65921428D01*
X66200595Y-66111904D01*
X66152976Y-66207142D01*
X66105357Y-66254761D01*
X66010119Y-66302380D01*
X65914880Y-66302380D01*
X65819642Y-66254761D01*
X65772023Y-66207142D01*
X65724404Y-66111904D01*
X65676785Y-65921428D01*
X65676785Y-65683333D01*
X65724404Y-65492857D01*
X65772023Y-65397619D01*
X65819642Y-65350000D01*
X65914880Y-65302380D01*
X67152976Y-65302380D02*
X66676785Y-65302380D01*
X66629166Y-65778571D01*
X66676785Y-65730952D01*
X66772023Y-65683333D01*
X67010119Y-65683333D01*
X67105357Y-65730952D01*
X67152976Y-65778571D01*
X67200595Y-65873809D01*
X67200595Y-66111904D01*
X67152976Y-66207142D01*
X67105357Y-66254761D01*
X67010119Y-66302380D01*
X66772023Y-66302380D01*
X66676785Y-66254761D01*
X66629166Y-66207142D01*
X71214285Y-61314880D02*
X71214285Y-62029166D01*
X71166666Y-62172023D01*
X71071428Y-62267261D01*
X70928571Y-62314880D01*
X70833333Y-62314880D01*
X71642857Y-61410119D02*
X71690476Y-61362500D01*
X71785714Y-61314880D01*
X72023809Y-61314880D01*
X72119047Y-61362500D01*
X72166666Y-61410119D01*
X72214285Y-61505357D01*
X72214285Y-61600595D01*
X72166666Y-61743452D01*
X71595238Y-62314880D01*
X72214285Y-62314880D01*
X72833333Y-61314880D02*
X72928571Y-61314880D01*
X73023809Y-61362500D01*
X73071428Y-61410119D01*
X73119047Y-61505357D01*
X73166666Y-61695833D01*
X73166666Y-61933928D01*
X73119047Y-62124404D01*
X73071428Y-62219642D01*
X73023809Y-62267261D01*
X72928571Y-62314880D01*
X72833333Y-62314880D01*
X72738095Y-62267261D01*
X72690476Y-62219642D01*
X72642857Y-62124404D01*
X72595238Y-61933928D01*
X72595238Y-61695833D01*
X72642857Y-61505357D01*
X72690476Y-61410119D01*
X72738095Y-61362500D01*
X72833333Y-61314880D01*
X74119047Y-62314880D02*
X73547619Y-62314880D01*
X73833333Y-62314880D02*
X73833333Y-61314880D01*
X73738095Y-61457738D01*
X73642857Y-61552976D01*
X73547619Y-61600595D01*
X81852380Y-68040476D02*
X80852380Y-68040476D01*
X80852380Y-67802380D01*
X80900000Y-67659523D01*
X80995238Y-67564285D01*
X81090476Y-67516666D01*
X81280952Y-67469047D01*
X81423809Y-67469047D01*
X81614285Y-67516666D01*
X81709523Y-67564285D01*
X81804761Y-67659523D01*
X81852380Y-67802380D01*
X81852380Y-68040476D01*
X80947619Y-67088095D02*
X80900000Y-67040476D01*
X80852380Y-66945238D01*
X80852380Y-66707142D01*
X80900000Y-66611904D01*
X80947619Y-66564285D01*
X81042857Y-66516666D01*
X81138095Y-66516666D01*
X81280952Y-66564285D01*
X81852380Y-67135714D01*
X81852380Y-66516666D01*
X80852380Y-65897619D02*
X80852380Y-65802380D01*
X80900000Y-65707142D01*
X80947619Y-65659523D01*
X81042857Y-65611904D01*
X81233333Y-65564285D01*
X81471428Y-65564285D01*
X81661904Y-65611904D01*
X81757142Y-65659523D01*
X81804761Y-65707142D01*
X81852380Y-65802380D01*
X81852380Y-65897619D01*
X81804761Y-65992857D01*
X81757142Y-66040476D01*
X81661904Y-66088095D01*
X81471428Y-66135714D01*
X81233333Y-66135714D01*
X81042857Y-66088095D01*
X80947619Y-66040476D01*
X80900000Y-65992857D01*
X80852380Y-65897619D01*
X80947619Y-65183333D02*
X80900000Y-65135714D01*
X80852380Y-65040476D01*
X80852380Y-64802380D01*
X80900000Y-64707142D01*
X80947619Y-64659523D01*
X81042857Y-64611904D01*
X81138095Y-64611904D01*
X81280952Y-64659523D01*
X81852380Y-65230952D01*
X81852380Y-64611904D01*
X74714285Y-83952380D02*
X74714285Y-84666666D01*
X74666666Y-84809523D01*
X74571428Y-84904761D01*
X74428571Y-84952380D01*
X74333333Y-84952380D01*
X75142857Y-84047619D02*
X75190476Y-84000000D01*
X75285714Y-83952380D01*
X75523809Y-83952380D01*
X75619047Y-84000000D01*
X75666666Y-84047619D01*
X75714285Y-84142857D01*
X75714285Y-84238095D01*
X75666666Y-84380952D01*
X75095238Y-84952380D01*
X75714285Y-84952380D01*
X76333333Y-83952380D02*
X76428571Y-83952380D01*
X76523809Y-84000000D01*
X76571428Y-84047619D01*
X76619047Y-84142857D01*
X76666666Y-84333333D01*
X76666666Y-84571428D01*
X76619047Y-84761904D01*
X76571428Y-84857142D01*
X76523809Y-84904761D01*
X76428571Y-84952380D01*
X76333333Y-84952380D01*
X76238095Y-84904761D01*
X76190476Y-84857142D01*
X76142857Y-84761904D01*
X76095238Y-84571428D01*
X76095238Y-84333333D01*
X76142857Y-84142857D01*
X76190476Y-84047619D01*
X76238095Y-84000000D01*
X76333333Y-83952380D01*
X77000000Y-83952380D02*
X77619047Y-83952380D01*
X77285714Y-84333333D01*
X77428571Y-84333333D01*
X77523809Y-84380952D01*
X77571428Y-84428571D01*
X77619047Y-84523809D01*
X77619047Y-84761904D01*
X77571428Y-84857142D01*
X77523809Y-84904761D01*
X77428571Y-84952380D01*
X77142857Y-84952380D01*
X77047619Y-84904761D01*
X77000000Y-84857142D01*
X77364285Y-111002380D02*
X77364285Y-111716666D01*
X77316666Y-111859523D01*
X77221428Y-111954761D01*
X77078571Y-112002380D01*
X76983333Y-112002380D01*
X77792857Y-111097619D02*
X77840476Y-111050000D01*
X77935714Y-111002380D01*
X78173809Y-111002380D01*
X78269047Y-111050000D01*
X78316666Y-111097619D01*
X78364285Y-111192857D01*
X78364285Y-111288095D01*
X78316666Y-111430952D01*
X77745238Y-112002380D01*
X78364285Y-112002380D01*
X78983333Y-111002380D02*
X79078571Y-111002380D01*
X79173809Y-111050000D01*
X79221428Y-111097619D01*
X79269047Y-111192857D01*
X79316666Y-111383333D01*
X79316666Y-111621428D01*
X79269047Y-111811904D01*
X79221428Y-111907142D01*
X79173809Y-111954761D01*
X79078571Y-112002380D01*
X78983333Y-112002380D01*
X78888095Y-111954761D01*
X78840476Y-111907142D01*
X78792857Y-111811904D01*
X78745238Y-111621428D01*
X78745238Y-111383333D01*
X78792857Y-111192857D01*
X78840476Y-111097619D01*
X78888095Y-111050000D01*
X78983333Y-111002380D01*
X80173809Y-111335714D02*
X80173809Y-112002380D01*
X79935714Y-110954761D02*
X79697619Y-111669047D01*
X80316666Y-111669047D01*
X67280952Y-78157142D02*
X67233333Y-78204761D01*
X67090476Y-78252380D01*
X66995238Y-78252380D01*
X66852380Y-78204761D01*
X66757142Y-78109523D01*
X66709523Y-78014285D01*
X66661904Y-77823809D01*
X66661904Y-77680952D01*
X66709523Y-77490476D01*
X66757142Y-77395238D01*
X66852380Y-77300000D01*
X66995238Y-77252380D01*
X67090476Y-77252380D01*
X67233333Y-77300000D01*
X67280952Y-77347619D01*
X67661904Y-77347619D02*
X67709523Y-77300000D01*
X67804761Y-77252380D01*
X68042857Y-77252380D01*
X68138095Y-77300000D01*
X68185714Y-77347619D01*
X68233333Y-77442857D01*
X68233333Y-77538095D01*
X68185714Y-77680952D01*
X67614285Y-78252380D01*
X68233333Y-78252380D01*
X69185714Y-78252380D02*
X68614285Y-78252380D01*
X68900000Y-78252380D02*
X68900000Y-77252380D01*
X68804761Y-77395238D01*
X68709523Y-77490476D01*
X68614285Y-77538095D01*
X69566666Y-77347619D02*
X69614285Y-77300000D01*
X69709523Y-77252380D01*
X69947619Y-77252380D01*
X70042857Y-77300000D01*
X70090476Y-77347619D01*
X70138095Y-77442857D01*
X70138095Y-77538095D01*
X70090476Y-77680952D01*
X69519047Y-78252380D01*
X70138095Y-78252380D01*
X78508154Y-68194580D02*
X78508154Y-69004104D01*
X78555773Y-69099342D01*
X78603392Y-69146961D01*
X78698630Y-69194580D01*
X78889106Y-69194580D01*
X78984344Y-69146961D01*
X79031963Y-69099342D01*
X79079582Y-69004104D01*
X79079582Y-68194580D01*
X79460535Y-68194580D02*
X80079582Y-68194580D01*
X79746249Y-68575533D01*
X79889106Y-68575533D01*
X79984344Y-68623152D01*
X80031963Y-68670771D01*
X80079582Y-68766009D01*
X80079582Y-69004104D01*
X80031963Y-69099342D01*
X79984344Y-69146961D01*
X79889106Y-69194580D01*
X79603392Y-69194580D01*
X79508154Y-69146961D01*
X79460535Y-69099342D01*
X80698630Y-68194580D02*
X80793868Y-68194580D01*
X80889106Y-68242200D01*
X80936725Y-68289819D01*
X80984344Y-68385057D01*
X81031963Y-68575533D01*
X81031963Y-68813628D01*
X80984344Y-69004104D01*
X80936725Y-69099342D01*
X80889106Y-69146961D01*
X80793868Y-69194580D01*
X80698630Y-69194580D01*
X80603392Y-69146961D01*
X80555773Y-69099342D01*
X80508154Y-69004104D01*
X80460535Y-68813628D01*
X80460535Y-68575533D01*
X80508154Y-68385057D01*
X80555773Y-68289819D01*
X80603392Y-68242200D01*
X80698630Y-68194580D01*
X81412916Y-68289819D02*
X81460535Y-68242200D01*
X81555773Y-68194580D01*
X81793868Y-68194580D01*
X81889106Y-68242200D01*
X81936725Y-68289819D01*
X81984344Y-68385057D01*
X81984344Y-68480295D01*
X81936725Y-68623152D01*
X81365297Y-69194580D01*
X81984344Y-69194580D01*
X71418452Y-78157142D02*
X71370833Y-78204761D01*
X71227976Y-78252380D01*
X71132738Y-78252380D01*
X70989880Y-78204761D01*
X70894642Y-78109523D01*
X70847023Y-78014285D01*
X70799404Y-77823809D01*
X70799404Y-77680952D01*
X70847023Y-77490476D01*
X70894642Y-77395238D01*
X70989880Y-77300000D01*
X71132738Y-77252380D01*
X71227976Y-77252380D01*
X71370833Y-77300000D01*
X71418452Y-77347619D01*
X71751785Y-77252380D02*
X72370833Y-77252380D01*
X72037500Y-77633333D01*
X72180357Y-77633333D01*
X72275595Y-77680952D01*
X72323214Y-77728571D01*
X72370833Y-77823809D01*
X72370833Y-78061904D01*
X72323214Y-78157142D01*
X72275595Y-78204761D01*
X72180357Y-78252380D01*
X71894642Y-78252380D01*
X71799404Y-78204761D01*
X71751785Y-78157142D01*
X73323214Y-78252380D02*
X72751785Y-78252380D01*
X73037500Y-78252380D02*
X73037500Y-77252380D01*
X72942261Y-77395238D01*
X72847023Y-77490476D01*
X72751785Y-77538095D01*
X74275595Y-78252380D02*
X73704166Y-78252380D01*
X73989880Y-78252380D02*
X73989880Y-77252380D01*
X73894642Y-77395238D01*
X73799404Y-77490476D01*
X73704166Y-77538095D01*
X81457142Y-62869047D02*
X81504761Y-62916666D01*
X81552380Y-63059523D01*
X81552380Y-63154761D01*
X81504761Y-63297619D01*
X81409523Y-63392857D01*
X81314285Y-63440476D01*
X81123809Y-63488095D01*
X80980952Y-63488095D01*
X80790476Y-63440476D01*
X80695238Y-63392857D01*
X80600000Y-63297619D01*
X80552380Y-63154761D01*
X80552380Y-63059523D01*
X80600000Y-62916666D01*
X80647619Y-62869047D01*
X80552380Y-62535714D02*
X80552380Y-61916666D01*
X80933333Y-62250000D01*
X80933333Y-62107142D01*
X80980952Y-62011904D01*
X81028571Y-61964285D01*
X81123809Y-61916666D01*
X81361904Y-61916666D01*
X81457142Y-61964285D01*
X81504761Y-62011904D01*
X81552380Y-62107142D01*
X81552380Y-62392857D01*
X81504761Y-62488095D01*
X81457142Y-62535714D01*
X81552380Y-60964285D02*
X81552380Y-61535714D01*
X81552380Y-61250000D02*
X80552380Y-61250000D01*
X80695238Y-61345238D01*
X80790476Y-61440476D01*
X80838095Y-61535714D01*
X80552380Y-60345238D02*
X80552380Y-60250000D01*
X80600000Y-60154761D01*
X80647619Y-60107142D01*
X80742857Y-60059523D01*
X80933333Y-60011904D01*
X81171428Y-60011904D01*
X81361904Y-60059523D01*
X81457142Y-60107142D01*
X81504761Y-60154761D01*
X81552380Y-60250000D01*
X81552380Y-60345238D01*
X81504761Y-60440476D01*
X81457142Y-60488095D01*
X81361904Y-60535714D01*
X81171428Y-60583333D01*
X80933333Y-60583333D01*
X80742857Y-60535714D01*
X80647619Y-60488095D01*
X80600000Y-60440476D01*
X80552380Y-60345238D01*
X61380952Y-107357142D02*
X61333333Y-107404761D01*
X61190476Y-107452380D01*
X61095238Y-107452380D01*
X60952380Y-107404761D01*
X60857142Y-107309523D01*
X60809523Y-107214285D01*
X60761904Y-107023809D01*
X60761904Y-106880952D01*
X60809523Y-106690476D01*
X60857142Y-106595238D01*
X60952380Y-106500000D01*
X61095238Y-106452380D01*
X61190476Y-106452380D01*
X61333333Y-106500000D01*
X61380952Y-106547619D01*
X61761904Y-106547619D02*
X61809523Y-106500000D01*
X61904761Y-106452380D01*
X62142857Y-106452380D01*
X62238095Y-106500000D01*
X62285714Y-106547619D01*
X62333333Y-106642857D01*
X62333333Y-106738095D01*
X62285714Y-106880952D01*
X61714285Y-107452380D01*
X62333333Y-107452380D01*
X63285714Y-107452380D02*
X62714285Y-107452380D01*
X63000000Y-107452380D02*
X63000000Y-106452380D01*
X62904761Y-106595238D01*
X62809523Y-106690476D01*
X62714285Y-106738095D01*
X64238095Y-107452380D02*
X63666666Y-107452380D01*
X63952380Y-107452380D02*
X63952380Y-106452380D01*
X63857142Y-106595238D01*
X63761904Y-106690476D01*
X63666666Y-106738095D01*
X79238095Y-79652380D02*
X79904761Y-80652380D01*
X79904761Y-79652380D02*
X79238095Y-80652380D01*
X80190476Y-79652380D02*
X80809523Y-79652380D01*
X80476190Y-80033333D01*
X80619047Y-80033333D01*
X80714285Y-80080952D01*
X80761904Y-80128571D01*
X80809523Y-80223809D01*
X80809523Y-80461904D01*
X80761904Y-80557142D01*
X80714285Y-80604761D01*
X80619047Y-80652380D01*
X80333333Y-80652380D01*
X80238095Y-80604761D01*
X80190476Y-80557142D01*
X81428571Y-79652380D02*
X81523809Y-79652380D01*
X81619047Y-79700000D01*
X81666666Y-79747619D01*
X81714285Y-79842857D01*
X81761904Y-80033333D01*
X81761904Y-80271428D01*
X81714285Y-80461904D01*
X81666666Y-80557142D01*
X81619047Y-80604761D01*
X81523809Y-80652380D01*
X81428571Y-80652380D01*
X81333333Y-80604761D01*
X81285714Y-80557142D01*
X81238095Y-80461904D01*
X81190476Y-80271428D01*
X81190476Y-80033333D01*
X81238095Y-79842857D01*
X81285714Y-79747619D01*
X81333333Y-79700000D01*
X81428571Y-79652380D01*
X82714285Y-80652380D02*
X82142857Y-80652380D01*
X82428571Y-80652380D02*
X82428571Y-79652380D01*
X82333333Y-79795238D01*
X82238095Y-79890476D01*
X82142857Y-79938095D01*
X85319692Y-86445362D02*
X85272073Y-86492981D01*
X85129216Y-86540600D01*
X85033978Y-86540600D01*
X84891120Y-86492981D01*
X84795882Y-86397743D01*
X84748263Y-86302505D01*
X84700644Y-86112029D01*
X84700644Y-85969172D01*
X84748263Y-85778696D01*
X84795882Y-85683458D01*
X84891120Y-85588220D01*
X85033978Y-85540600D01*
X85129216Y-85540600D01*
X85272073Y-85588220D01*
X85319692Y-85635839D01*
X85653025Y-85540600D02*
X86272073Y-85540600D01*
X85938740Y-85921553D01*
X86081597Y-85921553D01*
X86176835Y-85969172D01*
X86224454Y-86016791D01*
X86272073Y-86112029D01*
X86272073Y-86350124D01*
X86224454Y-86445362D01*
X86176835Y-86492981D01*
X86081597Y-86540600D01*
X85795882Y-86540600D01*
X85700644Y-86492981D01*
X85653025Y-86445362D01*
X86891120Y-85540600D02*
X86986359Y-85540600D01*
X87081597Y-85588220D01*
X87129216Y-85635839D01*
X87176835Y-85731077D01*
X87224454Y-85921553D01*
X87224454Y-86159648D01*
X87176835Y-86350124D01*
X87129216Y-86445362D01*
X87081597Y-86492981D01*
X86986359Y-86540600D01*
X86891120Y-86540600D01*
X86795882Y-86492981D01*
X86748263Y-86445362D01*
X86700644Y-86350124D01*
X86653025Y-86159648D01*
X86653025Y-85921553D01*
X86700644Y-85731077D01*
X86748263Y-85635839D01*
X86795882Y-85588220D01*
X86891120Y-85540600D01*
X87795882Y-85969172D02*
X87700644Y-85921553D01*
X87653025Y-85873934D01*
X87605406Y-85778696D01*
X87605406Y-85731077D01*
X87653025Y-85635839D01*
X87700644Y-85588220D01*
X87795882Y-85540600D01*
X87986359Y-85540600D01*
X88081597Y-85588220D01*
X88129216Y-85635839D01*
X88176835Y-85731077D01*
X88176835Y-85778696D01*
X88129216Y-85873934D01*
X88081597Y-85921553D01*
X87986359Y-85969172D01*
X87795882Y-85969172D01*
X87700644Y-86016791D01*
X87653025Y-86064410D01*
X87605406Y-86159648D01*
X87605406Y-86350124D01*
X87653025Y-86445362D01*
X87700644Y-86492981D01*
X87795882Y-86540600D01*
X87986359Y-86540600D01*
X88081597Y-86492981D01*
X88129216Y-86445362D01*
X88176835Y-86350124D01*
X88176835Y-86159648D01*
X88129216Y-86064410D01*
X88081597Y-86016791D01*
X87986359Y-85969172D01*
X90230952Y-93202380D02*
X89897619Y-92726190D01*
X89659523Y-93202380D02*
X89659523Y-92202380D01*
X90040476Y-92202380D01*
X90135714Y-92250000D01*
X90183333Y-92297619D01*
X90230952Y-92392857D01*
X90230952Y-92535714D01*
X90183333Y-92630952D01*
X90135714Y-92678571D01*
X90040476Y-92726190D01*
X89659523Y-92726190D01*
X90611904Y-92297619D02*
X90659523Y-92250000D01*
X90754761Y-92202380D01*
X90992857Y-92202380D01*
X91088095Y-92250000D01*
X91135714Y-92297619D01*
X91183333Y-92392857D01*
X91183333Y-92488095D01*
X91135714Y-92630952D01*
X90564285Y-93202380D01*
X91183333Y-93202380D01*
X91802380Y-92202380D02*
X91897619Y-92202380D01*
X91992857Y-92250000D01*
X92040476Y-92297619D01*
X92088095Y-92392857D01*
X92135714Y-92583333D01*
X92135714Y-92821428D01*
X92088095Y-93011904D01*
X92040476Y-93107142D01*
X91992857Y-93154761D01*
X91897619Y-93202380D01*
X91802380Y-93202380D01*
X91707142Y-93154761D01*
X91659523Y-93107142D01*
X91611904Y-93011904D01*
X91564285Y-92821428D01*
X91564285Y-92583333D01*
X91611904Y-92392857D01*
X91659523Y-92297619D01*
X91707142Y-92250000D01*
X91802380Y-92202380D01*
X92469047Y-92202380D02*
X93088095Y-92202380D01*
X92754761Y-92583333D01*
X92897619Y-92583333D01*
X92992857Y-92630952D01*
X93040476Y-92678571D01*
X93088095Y-92773809D01*
X93088095Y-93011904D01*
X93040476Y-93107142D01*
X92992857Y-93154761D01*
X92897619Y-93202380D01*
X92611904Y-93202380D01*
X92516666Y-93154761D01*
X92469047Y-93107142D01*
X115281010Y-67670371D02*
X114947677Y-67670371D01*
X114947677Y-68194180D02*
X114947677Y-67194180D01*
X115423867Y-67194180D01*
X115804820Y-68194180D02*
X115804820Y-67194180D01*
X116281010Y-68194180D02*
X116281010Y-67194180D01*
X116519105Y-67194180D01*
X116661962Y-67241800D01*
X116757200Y-67337038D01*
X116804820Y-67432276D01*
X116852439Y-67622752D01*
X116852439Y-67765609D01*
X116804820Y-67956085D01*
X116757200Y-68051323D01*
X116661962Y-68146561D01*
X116519105Y-68194180D01*
X116281010Y-68194180D01*
X117804820Y-68194180D02*
X117233391Y-68194180D01*
X117519105Y-68194180D02*
X117519105Y-67194180D01*
X117423867Y-67337038D01*
X117328629Y-67432276D01*
X117233391Y-67479895D01*
X118423867Y-67194180D02*
X118519105Y-67194180D01*
X118614343Y-67241800D01*
X118661962Y-67289419D01*
X118709581Y-67384657D01*
X118757200Y-67575133D01*
X118757200Y-67813228D01*
X118709581Y-68003704D01*
X118661962Y-68098942D01*
X118614343Y-68146561D01*
X118519105Y-68194180D01*
X118423867Y-68194180D01*
X118328629Y-68146561D01*
X118281010Y-68098942D01*
X118233391Y-68003704D01*
X118185772Y-67813228D01*
X118185772Y-67575133D01*
X118233391Y-67384657D01*
X118281010Y-67289419D01*
X118328629Y-67241800D01*
X118423867Y-67194180D01*
X119090534Y-67194180D02*
X119709581Y-67194180D01*
X119376248Y-67575133D01*
X119519105Y-67575133D01*
X119614343Y-67622752D01*
X119661962Y-67670371D01*
X119709581Y-67765609D01*
X119709581Y-68003704D01*
X119661962Y-68098942D01*
X119614343Y-68146561D01*
X119519105Y-68194180D01*
X119233391Y-68194180D01*
X119138153Y-68146561D01*
X119090534Y-68098942D01*
X70046190Y-114148571D02*
X69712857Y-114148571D01*
X69712857Y-114672380D02*
X69712857Y-113672380D01*
X70189047Y-113672380D01*
X70570000Y-114672380D02*
X70570000Y-113672380D01*
X71046190Y-114672380D02*
X71046190Y-113672380D01*
X71284285Y-113672380D01*
X71427142Y-113720000D01*
X71522380Y-113815238D01*
X71570000Y-113910476D01*
X71617619Y-114100952D01*
X71617619Y-114243809D01*
X71570000Y-114434285D01*
X71522380Y-114529523D01*
X71427142Y-114624761D01*
X71284285Y-114672380D01*
X71046190Y-114672380D01*
X72570000Y-114672380D02*
X71998571Y-114672380D01*
X72284285Y-114672380D02*
X72284285Y-113672380D01*
X72189047Y-113815238D01*
X72093809Y-113910476D01*
X71998571Y-113958095D01*
X73189047Y-113672380D02*
X73284285Y-113672380D01*
X73379523Y-113720000D01*
X73427142Y-113767619D01*
X73474761Y-113862857D01*
X73522380Y-114053333D01*
X73522380Y-114291428D01*
X73474761Y-114481904D01*
X73427142Y-114577142D01*
X73379523Y-114624761D01*
X73284285Y-114672380D01*
X73189047Y-114672380D01*
X73093809Y-114624761D01*
X73046190Y-114577142D01*
X72998571Y-114481904D01*
X72950952Y-114291428D01*
X72950952Y-114053333D01*
X72998571Y-113862857D01*
X73046190Y-113767619D01*
X73093809Y-113720000D01*
X73189047Y-113672380D01*
X73903333Y-113767619D02*
X73950952Y-113720000D01*
X74046190Y-113672380D01*
X74284285Y-113672380D01*
X74379523Y-113720000D01*
X74427142Y-113767619D01*
X74474761Y-113862857D01*
X74474761Y-113958095D01*
X74427142Y-114100952D01*
X73855714Y-114672380D01*
X74474761Y-114672380D01*
D14*
X116849999Y-94986047D02*
X116849999Y-95962738D01*
X116907452Y-96077642D01*
X116964904Y-96135095D01*
X117079809Y-96192547D01*
X117309618Y-96192547D01*
X117424523Y-96135095D01*
X117481976Y-96077642D01*
X117539428Y-95962738D01*
X117539428Y-94986047D01*
X118056499Y-95100952D02*
X118113952Y-95043500D01*
X118228857Y-94986047D01*
X118516118Y-94986047D01*
X118631023Y-95043500D01*
X118688476Y-95100952D01*
X118745928Y-95215857D01*
X118745928Y-95330761D01*
X118688476Y-95503119D01*
X117999047Y-96192547D01*
X118745928Y-96192547D01*
X119492809Y-94986047D02*
X119607714Y-94986047D01*
X119722618Y-95043500D01*
X119780071Y-95100952D01*
X119837523Y-95215857D01*
X119894976Y-95445666D01*
X119894976Y-95732928D01*
X119837523Y-95962738D01*
X119780071Y-96077642D01*
X119722618Y-96135095D01*
X119607714Y-96192547D01*
X119492809Y-96192547D01*
X119377904Y-96135095D01*
X119320452Y-96077642D01*
X119262999Y-95962738D01*
X119205547Y-95732928D01*
X119205547Y-95445666D01*
X119262999Y-95215857D01*
X119320452Y-95100952D01*
X119377904Y-95043500D01*
X119492809Y-94986047D01*
X121044023Y-96192547D02*
X120354595Y-96192547D01*
X120699309Y-96192547D02*
X120699309Y-94986047D01*
X120584404Y-95158404D01*
X120469499Y-95273309D01*
X120354595Y-95330761D01*
D10*
X111380952Y-95357142D02*
X111333333Y-95404761D01*
X111190476Y-95452380D01*
X111095238Y-95452380D01*
X110952380Y-95404761D01*
X110857142Y-95309523D01*
X110809523Y-95214285D01*
X110761904Y-95023809D01*
X110761904Y-94880952D01*
X110809523Y-94690476D01*
X110857142Y-94595238D01*
X110952380Y-94500000D01*
X111095238Y-94452380D01*
X111190476Y-94452380D01*
X111333333Y-94500000D01*
X111380952Y-94547619D01*
X111761904Y-94547619D02*
X111809523Y-94500000D01*
X111904761Y-94452380D01*
X112142857Y-94452380D01*
X112238095Y-94500000D01*
X112285714Y-94547619D01*
X112333333Y-94642857D01*
X112333333Y-94738095D01*
X112285714Y-94880952D01*
X111714285Y-95452380D01*
X112333333Y-95452380D01*
X112952380Y-94452380D02*
X113047619Y-94452380D01*
X113142857Y-94500000D01*
X113190476Y-94547619D01*
X113238095Y-94642857D01*
X113285714Y-94833333D01*
X113285714Y-95071428D01*
X113238095Y-95261904D01*
X113190476Y-95357142D01*
X113142857Y-95404761D01*
X113047619Y-95452380D01*
X112952380Y-95452380D01*
X112857142Y-95404761D01*
X112809523Y-95357142D01*
X112761904Y-95261904D01*
X112714285Y-95071428D01*
X112714285Y-94833333D01*
X112761904Y-94642857D01*
X112809523Y-94547619D01*
X112857142Y-94500000D01*
X112952380Y-94452380D01*
X114238095Y-95452380D02*
X113666666Y-95452380D01*
X113952380Y-95452380D02*
X113952380Y-94452380D01*
X113857142Y-94595238D01*
X113761904Y-94690476D01*
X113666666Y-94738095D01*
X63726190Y-60978571D02*
X63392857Y-60978571D01*
X63392857Y-61502380D02*
X63392857Y-60502380D01*
X63869047Y-60502380D01*
X64250000Y-61502380D02*
X64250000Y-60502380D01*
X64726190Y-61502380D02*
X64726190Y-60502380D01*
X64964285Y-60502380D01*
X65107142Y-60550000D01*
X65202380Y-60645238D01*
X65250000Y-60740476D01*
X65297619Y-60930952D01*
X65297619Y-61073809D01*
X65250000Y-61264285D01*
X65202380Y-61359523D01*
X65107142Y-61454761D01*
X64964285Y-61502380D01*
X64726190Y-61502380D01*
X66250000Y-61502380D02*
X65678571Y-61502380D01*
X65964285Y-61502380D02*
X65964285Y-60502380D01*
X65869047Y-60645238D01*
X65773809Y-60740476D01*
X65678571Y-60788095D01*
X66869047Y-60502380D02*
X66964285Y-60502380D01*
X67059523Y-60550000D01*
X67107142Y-60597619D01*
X67154761Y-60692857D01*
X67202380Y-60883333D01*
X67202380Y-61121428D01*
X67154761Y-61311904D01*
X67107142Y-61407142D01*
X67059523Y-61454761D01*
X66964285Y-61502380D01*
X66869047Y-61502380D01*
X66773809Y-61454761D01*
X66726190Y-61407142D01*
X66678571Y-61311904D01*
X66630952Y-61121428D01*
X66630952Y-60883333D01*
X66678571Y-60692857D01*
X66726190Y-60597619D01*
X66773809Y-60550000D01*
X66869047Y-60502380D01*
X68154761Y-61502380D02*
X67583333Y-61502380D01*
X67869047Y-61502380D02*
X67869047Y-60502380D01*
X67773809Y-60645238D01*
X67678571Y-60740476D01*
X67583333Y-60788095D01*
X96130952Y-104452380D02*
X95797619Y-103976190D01*
X95559523Y-104452380D02*
X95559523Y-103452380D01*
X95940476Y-103452380D01*
X96035714Y-103500000D01*
X96083333Y-103547619D01*
X96130952Y-103642857D01*
X96130952Y-103785714D01*
X96083333Y-103880952D01*
X96035714Y-103928571D01*
X95940476Y-103976190D01*
X95559523Y-103976190D01*
X96511904Y-103547619D02*
X96559523Y-103500000D01*
X96654761Y-103452380D01*
X96892857Y-103452380D01*
X96988095Y-103500000D01*
X97035714Y-103547619D01*
X97083333Y-103642857D01*
X97083333Y-103738095D01*
X97035714Y-103880952D01*
X96464285Y-104452380D01*
X97083333Y-104452380D01*
X97702380Y-103452380D02*
X97797619Y-103452380D01*
X97892857Y-103500000D01*
X97940476Y-103547619D01*
X97988095Y-103642857D01*
X98035714Y-103833333D01*
X98035714Y-104071428D01*
X97988095Y-104261904D01*
X97940476Y-104357142D01*
X97892857Y-104404761D01*
X97797619Y-104452380D01*
X97702380Y-104452380D01*
X97607142Y-104404761D01*
X97559523Y-104357142D01*
X97511904Y-104261904D01*
X97464285Y-104071428D01*
X97464285Y-103833333D01*
X97511904Y-103642857D01*
X97559523Y-103547619D01*
X97607142Y-103500000D01*
X97702380Y-103452380D01*
X98988095Y-104452380D02*
X98416666Y-104452380D01*
X98702380Y-104452380D02*
X98702380Y-103452380D01*
X98607142Y-103595238D01*
X98511904Y-103690476D01*
X98416666Y-103738095D01*
X104068452Y-73357142D02*
X104020833Y-73404761D01*
X103877976Y-73452380D01*
X103782738Y-73452380D01*
X103639880Y-73404761D01*
X103544642Y-73309523D01*
X103497023Y-73214285D01*
X103449404Y-73023809D01*
X103449404Y-72880952D01*
X103497023Y-72690476D01*
X103544642Y-72595238D01*
X103639880Y-72500000D01*
X103782738Y-72452380D01*
X103877976Y-72452380D01*
X104020833Y-72500000D01*
X104068452Y-72547619D01*
X104401785Y-72452380D02*
X105020833Y-72452380D01*
X104687500Y-72833333D01*
X104830357Y-72833333D01*
X104925595Y-72880952D01*
X104973214Y-72928571D01*
X105020833Y-73023809D01*
X105020833Y-73261904D01*
X104973214Y-73357142D01*
X104925595Y-73404761D01*
X104830357Y-73452380D01*
X104544642Y-73452380D01*
X104449404Y-73404761D01*
X104401785Y-73357142D01*
X105639880Y-72452380D02*
X105735119Y-72452380D01*
X105830357Y-72500000D01*
X105877976Y-72547619D01*
X105925595Y-72642857D01*
X105973214Y-72833333D01*
X105973214Y-73071428D01*
X105925595Y-73261904D01*
X105877976Y-73357142D01*
X105830357Y-73404761D01*
X105735119Y-73452380D01*
X105639880Y-73452380D01*
X105544642Y-73404761D01*
X105497023Y-73357142D01*
X105449404Y-73261904D01*
X105401785Y-73071428D01*
X105401785Y-72833333D01*
X105449404Y-72642857D01*
X105497023Y-72547619D01*
X105544642Y-72500000D01*
X105639880Y-72452380D01*
X106830357Y-72785714D02*
X106830357Y-73452380D01*
X106592261Y-72404761D02*
X106354166Y-73119047D01*
X106973214Y-73119047D01*
X96785714Y-66802380D02*
X96785714Y-67611904D01*
X96833333Y-67707142D01*
X96880952Y-67754761D01*
X96976190Y-67802380D01*
X97166666Y-67802380D01*
X97261904Y-67754761D01*
X97309523Y-67707142D01*
X97357142Y-67611904D01*
X97357142Y-66802380D01*
X97738095Y-66802380D02*
X98357142Y-66802380D01*
X98023809Y-67183333D01*
X98166666Y-67183333D01*
X98261904Y-67230952D01*
X98309523Y-67278571D01*
X98357142Y-67373809D01*
X98357142Y-67611904D01*
X98309523Y-67707142D01*
X98261904Y-67754761D01*
X98166666Y-67802380D01*
X97880952Y-67802380D01*
X97785714Y-67754761D01*
X97738095Y-67707142D01*
X98976190Y-66802380D02*
X99071428Y-66802380D01*
X99166666Y-66850000D01*
X99214285Y-66897619D01*
X99261904Y-66992857D01*
X99309523Y-67183333D01*
X99309523Y-67421428D01*
X99261904Y-67611904D01*
X99214285Y-67707142D01*
X99166666Y-67754761D01*
X99071428Y-67802380D01*
X98976190Y-67802380D01*
X98880952Y-67754761D01*
X98833333Y-67707142D01*
X98785714Y-67611904D01*
X98738095Y-67421428D01*
X98738095Y-67183333D01*
X98785714Y-66992857D01*
X98833333Y-66897619D01*
X98880952Y-66850000D01*
X98976190Y-66802380D01*
X100261904Y-67802380D02*
X99690476Y-67802380D01*
X99976190Y-67802380D02*
X99976190Y-66802380D01*
X99880952Y-66945238D01*
X99785714Y-67040476D01*
X99690476Y-67088095D01*
X84380952Y-73927142D02*
X84333333Y-73974761D01*
X84190476Y-74022380D01*
X84095238Y-74022380D01*
X83952380Y-73974761D01*
X83857142Y-73879523D01*
X83809523Y-73784285D01*
X83761904Y-73593809D01*
X83761904Y-73450952D01*
X83809523Y-73260476D01*
X83857142Y-73165238D01*
X83952380Y-73070000D01*
X84095238Y-73022380D01*
X84190476Y-73022380D01*
X84333333Y-73070000D01*
X84380952Y-73117619D01*
X84714285Y-73022380D02*
X85333333Y-73022380D01*
X85000000Y-73403333D01*
X85142857Y-73403333D01*
X85238095Y-73450952D01*
X85285714Y-73498571D01*
X85333333Y-73593809D01*
X85333333Y-73831904D01*
X85285714Y-73927142D01*
X85238095Y-73974761D01*
X85142857Y-74022380D01*
X84857142Y-74022380D01*
X84761904Y-73974761D01*
X84714285Y-73927142D01*
X85952380Y-73022380D02*
X86047619Y-73022380D01*
X86142857Y-73070000D01*
X86190476Y-73117619D01*
X86238095Y-73212857D01*
X86285714Y-73403333D01*
X86285714Y-73641428D01*
X86238095Y-73831904D01*
X86190476Y-73927142D01*
X86142857Y-73974761D01*
X86047619Y-74022380D01*
X85952380Y-74022380D01*
X85857142Y-73974761D01*
X85809523Y-73927142D01*
X85761904Y-73831904D01*
X85714285Y-73641428D01*
X85714285Y-73403333D01*
X85761904Y-73212857D01*
X85809523Y-73117619D01*
X85857142Y-73070000D01*
X85952380Y-73022380D01*
X86666666Y-73117619D02*
X86714285Y-73070000D01*
X86809523Y-73022380D01*
X87047619Y-73022380D01*
X87142857Y-73070000D01*
X87190476Y-73117619D01*
X87238095Y-73212857D01*
X87238095Y-73308095D01*
X87190476Y-73450952D01*
X86619047Y-74022380D01*
X87238095Y-74022380D01*
X104068452Y-76952380D02*
X103735119Y-76476190D01*
X103497023Y-76952380D02*
X103497023Y-75952380D01*
X103877976Y-75952380D01*
X103973214Y-76000000D01*
X104020833Y-76047619D01*
X104068452Y-76142857D01*
X104068452Y-76285714D01*
X104020833Y-76380952D01*
X103973214Y-76428571D01*
X103877976Y-76476190D01*
X103497023Y-76476190D01*
X104401785Y-75952380D02*
X105020833Y-75952380D01*
X104687500Y-76333333D01*
X104830357Y-76333333D01*
X104925595Y-76380952D01*
X104973214Y-76428571D01*
X105020833Y-76523809D01*
X105020833Y-76761904D01*
X104973214Y-76857142D01*
X104925595Y-76904761D01*
X104830357Y-76952380D01*
X104544642Y-76952380D01*
X104449404Y-76904761D01*
X104401785Y-76857142D01*
X105639880Y-75952380D02*
X105735119Y-75952380D01*
X105830357Y-76000000D01*
X105877976Y-76047619D01*
X105925595Y-76142857D01*
X105973214Y-76333333D01*
X105973214Y-76571428D01*
X105925595Y-76761904D01*
X105877976Y-76857142D01*
X105830357Y-76904761D01*
X105735119Y-76952380D01*
X105639880Y-76952380D01*
X105544642Y-76904761D01*
X105497023Y-76857142D01*
X105449404Y-76761904D01*
X105401785Y-76571428D01*
X105401785Y-76333333D01*
X105449404Y-76142857D01*
X105497023Y-76047619D01*
X105544642Y-76000000D01*
X105639880Y-75952380D01*
X106877976Y-75952380D02*
X106401785Y-75952380D01*
X106354166Y-76428571D01*
X106401785Y-76380952D01*
X106497023Y-76333333D01*
X106735119Y-76333333D01*
X106830357Y-76380952D01*
X106877976Y-76428571D01*
X106925595Y-76523809D01*
X106925595Y-76761904D01*
X106877976Y-76857142D01*
X106830357Y-76904761D01*
X106735119Y-76952380D01*
X106497023Y-76952380D01*
X106401785Y-76904761D01*
X106354166Y-76857142D01*
X62685714Y-56252380D02*
X62685714Y-55252380D01*
X62685714Y-55728571D02*
X63257142Y-55728571D01*
X63257142Y-56252380D02*
X63257142Y-55252380D01*
X64257142Y-56252380D02*
X63685714Y-56252380D01*
X63971428Y-56252380D02*
X63971428Y-55252380D01*
X63876190Y-55395238D01*
X63780952Y-55490476D01*
X63685714Y-55538095D01*
X64876190Y-55252380D02*
X64971428Y-55252380D01*
X65066666Y-55300000D01*
X65114285Y-55347619D01*
X65161904Y-55442857D01*
X65209523Y-55633333D01*
X65209523Y-55871428D01*
X65161904Y-56061904D01*
X65114285Y-56157142D01*
X65066666Y-56204761D01*
X64971428Y-56252380D01*
X64876190Y-56252380D01*
X64780952Y-56204761D01*
X64733333Y-56157142D01*
X64685714Y-56061904D01*
X64638095Y-55871428D01*
X64638095Y-55633333D01*
X64685714Y-55442857D01*
X64733333Y-55347619D01*
X64780952Y-55300000D01*
X64876190Y-55252380D01*
X66066666Y-55585714D02*
X66066666Y-56252380D01*
X65828571Y-55204761D02*
X65590476Y-55919047D01*
X66209523Y-55919047D01*
X115535714Y-107502380D02*
X115535714Y-106502380D01*
X115535714Y-106978571D02*
X116107142Y-106978571D01*
X116107142Y-107502380D02*
X116107142Y-106502380D01*
X117107142Y-107502380D02*
X116535714Y-107502380D01*
X116821428Y-107502380D02*
X116821428Y-106502380D01*
X116726190Y-106645238D01*
X116630952Y-106740476D01*
X116535714Y-106788095D01*
X117726190Y-106502380D02*
X117821428Y-106502380D01*
X117916666Y-106550000D01*
X117964285Y-106597619D01*
X118011904Y-106692857D01*
X118059523Y-106883333D01*
X118059523Y-107121428D01*
X118011904Y-107311904D01*
X117964285Y-107407142D01*
X117916666Y-107454761D01*
X117821428Y-107502380D01*
X117726190Y-107502380D01*
X117630952Y-107454761D01*
X117583333Y-107407142D01*
X117535714Y-107311904D01*
X117488095Y-107121428D01*
X117488095Y-106883333D01*
X117535714Y-106692857D01*
X117583333Y-106597619D01*
X117630952Y-106550000D01*
X117726190Y-106502380D01*
X118392857Y-106502380D02*
X119011904Y-106502380D01*
X118678571Y-106883333D01*
X118821428Y-106883333D01*
X118916666Y-106930952D01*
X118964285Y-106978571D01*
X119011904Y-107073809D01*
X119011904Y-107311904D01*
X118964285Y-107407142D01*
X118916666Y-107454761D01*
X118821428Y-107502380D01*
X118535714Y-107502380D01*
X118440476Y-107454761D01*
X118392857Y-107407142D01*
X115535714Y-63202380D02*
X115535714Y-62202380D01*
X115535714Y-62678571D02*
X116107142Y-62678571D01*
X116107142Y-63202380D02*
X116107142Y-62202380D01*
X117107142Y-63202380D02*
X116535714Y-63202380D01*
X116821428Y-63202380D02*
X116821428Y-62202380D01*
X116726190Y-62345238D01*
X116630952Y-62440476D01*
X116535714Y-62488095D01*
X117726190Y-62202380D02*
X117821428Y-62202380D01*
X117916666Y-62250000D01*
X117964285Y-62297619D01*
X118011904Y-62392857D01*
X118059523Y-62583333D01*
X118059523Y-62821428D01*
X118011904Y-63011904D01*
X117964285Y-63107142D01*
X117916666Y-63154761D01*
X117821428Y-63202380D01*
X117726190Y-63202380D01*
X117630952Y-63154761D01*
X117583333Y-63107142D01*
X117535714Y-63011904D01*
X117488095Y-62821428D01*
X117488095Y-62583333D01*
X117535714Y-62392857D01*
X117583333Y-62297619D01*
X117630952Y-62250000D01*
X117726190Y-62202380D01*
X118440476Y-62297619D02*
X118488095Y-62250000D01*
X118583333Y-62202380D01*
X118821428Y-62202380D01*
X118916666Y-62250000D01*
X118964285Y-62297619D01*
X119011904Y-62392857D01*
X119011904Y-62488095D01*
X118964285Y-62630952D01*
X118392857Y-63202380D01*
X119011904Y-63202380D01*
X62485714Y-114702380D02*
X62485714Y-113702380D01*
X62485714Y-114178571D02*
X63057142Y-114178571D01*
X63057142Y-114702380D02*
X63057142Y-113702380D01*
X64057142Y-114702380D02*
X63485714Y-114702380D01*
X63771428Y-114702380D02*
X63771428Y-113702380D01*
X63676190Y-113845238D01*
X63580952Y-113940476D01*
X63485714Y-113988095D01*
X64676190Y-113702380D02*
X64771428Y-113702380D01*
X64866666Y-113750000D01*
X64914285Y-113797619D01*
X64961904Y-113892857D01*
X65009523Y-114083333D01*
X65009523Y-114321428D01*
X64961904Y-114511904D01*
X64914285Y-114607142D01*
X64866666Y-114654761D01*
X64771428Y-114702380D01*
X64676190Y-114702380D01*
X64580952Y-114654761D01*
X64533333Y-114607142D01*
X64485714Y-114511904D01*
X64438095Y-114321428D01*
X64438095Y-114083333D01*
X64485714Y-113892857D01*
X64533333Y-113797619D01*
X64580952Y-113750000D01*
X64676190Y-113702380D01*
X65961904Y-114702380D02*
X65390476Y-114702380D01*
X65676190Y-114702380D02*
X65676190Y-113702380D01*
X65580952Y-113845238D01*
X65485714Y-113940476D01*
X65390476Y-113988095D01*
X111380952Y-78857142D02*
X111333333Y-78904761D01*
X111190476Y-78952380D01*
X111095238Y-78952380D01*
X110952380Y-78904761D01*
X110857142Y-78809523D01*
X110809523Y-78714285D01*
X110761904Y-78523809D01*
X110761904Y-78380952D01*
X110809523Y-78190476D01*
X110857142Y-78095238D01*
X110952380Y-78000000D01*
X111095238Y-77952380D01*
X111190476Y-77952380D01*
X111333333Y-78000000D01*
X111380952Y-78047619D01*
X111761904Y-78047619D02*
X111809523Y-78000000D01*
X111904761Y-77952380D01*
X112142857Y-77952380D01*
X112238095Y-78000000D01*
X112285714Y-78047619D01*
X112333333Y-78142857D01*
X112333333Y-78238095D01*
X112285714Y-78380952D01*
X111714285Y-78952380D01*
X112333333Y-78952380D01*
X113285714Y-78952380D02*
X112714285Y-78952380D01*
X113000000Y-78952380D02*
X113000000Y-77952380D01*
X112904761Y-78095238D01*
X112809523Y-78190476D01*
X112714285Y-78238095D01*
X113904761Y-77952380D02*
X114000000Y-77952380D01*
X114095238Y-78000000D01*
X114142857Y-78047619D01*
X114190476Y-78142857D01*
X114238095Y-78333333D01*
X114238095Y-78571428D01*
X114190476Y-78761904D01*
X114142857Y-78857142D01*
X114095238Y-78904761D01*
X114000000Y-78952380D01*
X113904761Y-78952380D01*
X113809523Y-78904761D01*
X113761904Y-78857142D01*
X113714285Y-78761904D01*
X113666666Y-78571428D01*
X113666666Y-78333333D01*
X113714285Y-78142857D01*
X113761904Y-78047619D01*
X113809523Y-78000000D01*
X113904761Y-77952380D01*
X97085595Y-93452380D02*
X97085595Y-92452380D01*
X98133214Y-93357142D02*
X98085595Y-93404761D01*
X97942738Y-93452380D01*
X97847500Y-93452380D01*
X97704642Y-93404761D01*
X97609404Y-93309523D01*
X97561785Y-93214285D01*
X97514166Y-93023809D01*
X97514166Y-92880952D01*
X97561785Y-92690476D01*
X97609404Y-92595238D01*
X97704642Y-92500000D01*
X97847500Y-92452380D01*
X97942738Y-92452380D01*
X98085595Y-92500000D01*
X98133214Y-92547619D01*
X98514166Y-92547619D02*
X98561785Y-92500000D01*
X98657023Y-92452380D01*
X98895119Y-92452380D01*
X98990357Y-92500000D01*
X99037976Y-92547619D01*
X99085595Y-92642857D01*
X99085595Y-92738095D01*
X99037976Y-92880952D01*
X98466547Y-93452380D01*
X99085595Y-93452380D01*
X99704642Y-92452380D02*
X99799880Y-92452380D01*
X99895119Y-92500000D01*
X99942738Y-92547619D01*
X99990357Y-92642857D01*
X100037976Y-92833333D01*
X100037976Y-93071428D01*
X99990357Y-93261904D01*
X99942738Y-93357142D01*
X99895119Y-93404761D01*
X99799880Y-93452380D01*
X99704642Y-93452380D01*
X99609404Y-93404761D01*
X99561785Y-93357142D01*
X99514166Y-93261904D01*
X99466547Y-93071428D01*
X99466547Y-92833333D01*
X99514166Y-92642857D01*
X99561785Y-92547619D01*
X99609404Y-92500000D01*
X99704642Y-92452380D01*
X100990357Y-93452380D02*
X100418928Y-93452380D01*
X100704642Y-93452380D02*
X100704642Y-92452380D01*
X100609404Y-92595238D01*
X100514166Y-92690476D01*
X100418928Y-92738095D01*
X90280952Y-100452380D02*
X89947619Y-99976190D01*
X89709523Y-100452380D02*
X89709523Y-99452380D01*
X90090476Y-99452380D01*
X90185714Y-99500000D01*
X90233333Y-99547619D01*
X90280952Y-99642857D01*
X90280952Y-99785714D01*
X90233333Y-99880952D01*
X90185714Y-99928571D01*
X90090476Y-99976190D01*
X89709523Y-99976190D01*
X90661904Y-99547619D02*
X90709523Y-99500000D01*
X90804761Y-99452380D01*
X91042857Y-99452380D01*
X91138095Y-99500000D01*
X91185714Y-99547619D01*
X91233333Y-99642857D01*
X91233333Y-99738095D01*
X91185714Y-99880952D01*
X90614285Y-100452380D01*
X91233333Y-100452380D01*
X91852380Y-99452380D02*
X91947619Y-99452380D01*
X92042857Y-99500000D01*
X92090476Y-99547619D01*
X92138095Y-99642857D01*
X92185714Y-99833333D01*
X92185714Y-100071428D01*
X92138095Y-100261904D01*
X92090476Y-100357142D01*
X92042857Y-100404761D01*
X91947619Y-100452380D01*
X91852380Y-100452380D01*
X91757142Y-100404761D01*
X91709523Y-100357142D01*
X91661904Y-100261904D01*
X91614285Y-100071428D01*
X91614285Y-99833333D01*
X91661904Y-99642857D01*
X91709523Y-99547619D01*
X91757142Y-99500000D01*
X91852380Y-99452380D01*
X92566666Y-99547619D02*
X92614285Y-99500000D01*
X92709523Y-99452380D01*
X92947619Y-99452380D01*
X93042857Y-99500000D01*
X93090476Y-99547619D01*
X93138095Y-99642857D01*
X93138095Y-99738095D01*
X93090476Y-99880952D01*
X92519047Y-100452380D01*
X93138095Y-100452380D01*
X84630952Y-104182142D02*
X84583333Y-104229761D01*
X84440476Y-104277380D01*
X84345238Y-104277380D01*
X84202380Y-104229761D01*
X84107142Y-104134523D01*
X84059523Y-104039285D01*
X84011904Y-103848809D01*
X84011904Y-103705952D01*
X84059523Y-103515476D01*
X84107142Y-103420238D01*
X84202380Y-103325000D01*
X84345238Y-103277380D01*
X84440476Y-103277380D01*
X84583333Y-103325000D01*
X84630952Y-103372619D01*
X85011904Y-103372619D02*
X85059523Y-103325000D01*
X85154761Y-103277380D01*
X85392857Y-103277380D01*
X85488095Y-103325000D01*
X85535714Y-103372619D01*
X85583333Y-103467857D01*
X85583333Y-103563095D01*
X85535714Y-103705952D01*
X84964285Y-104277380D01*
X85583333Y-104277380D01*
X86202380Y-103277380D02*
X86297619Y-103277380D01*
X86392857Y-103325000D01*
X86440476Y-103372619D01*
X86488095Y-103467857D01*
X86535714Y-103658333D01*
X86535714Y-103896428D01*
X86488095Y-104086904D01*
X86440476Y-104182142D01*
X86392857Y-104229761D01*
X86297619Y-104277380D01*
X86202380Y-104277380D01*
X86107142Y-104229761D01*
X86059523Y-104182142D01*
X86011904Y-104086904D01*
X85964285Y-103896428D01*
X85964285Y-103658333D01*
X86011904Y-103467857D01*
X86059523Y-103372619D01*
X86107142Y-103325000D01*
X86202380Y-103277380D01*
X87011904Y-104277380D02*
X87202380Y-104277380D01*
X87297619Y-104229761D01*
X87345238Y-104182142D01*
X87440476Y-104039285D01*
X87488095Y-103848809D01*
X87488095Y-103467857D01*
X87440476Y-103372619D01*
X87392857Y-103325000D01*
X87297619Y-103277380D01*
X87107142Y-103277380D01*
X87011904Y-103325000D01*
X86964285Y-103372619D01*
X86916666Y-103467857D01*
X86916666Y-103705952D01*
X86964285Y-103801190D01*
X87011904Y-103848809D01*
X87107142Y-103896428D01*
X87297619Y-103896428D01*
X87392857Y-103848809D01*
X87440476Y-103801190D01*
X87488095Y-103705952D01*
X89630952Y-67452380D02*
X89297619Y-66976190D01*
X89059523Y-67452380D02*
X89059523Y-66452380D01*
X89440476Y-66452380D01*
X89535714Y-66500000D01*
X89583333Y-66547619D01*
X89630952Y-66642857D01*
X89630952Y-66785714D01*
X89583333Y-66880952D01*
X89535714Y-66928571D01*
X89440476Y-66976190D01*
X89059523Y-66976190D01*
X89964285Y-66452380D02*
X90583333Y-66452380D01*
X90250000Y-66833333D01*
X90392857Y-66833333D01*
X90488095Y-66880952D01*
X90535714Y-66928571D01*
X90583333Y-67023809D01*
X90583333Y-67261904D01*
X90535714Y-67357142D01*
X90488095Y-67404761D01*
X90392857Y-67452380D01*
X90107142Y-67452380D01*
X90011904Y-67404761D01*
X89964285Y-67357142D01*
X91202380Y-66452380D02*
X91297619Y-66452380D01*
X91392857Y-66500000D01*
X91440476Y-66547619D01*
X91488095Y-66642857D01*
X91535714Y-66833333D01*
X91535714Y-67071428D01*
X91488095Y-67261904D01*
X91440476Y-67357142D01*
X91392857Y-67404761D01*
X91297619Y-67452380D01*
X91202380Y-67452380D01*
X91107142Y-67404761D01*
X91059523Y-67357142D01*
X91011904Y-67261904D01*
X90964285Y-67071428D01*
X90964285Y-66833333D01*
X91011904Y-66642857D01*
X91059523Y-66547619D01*
X91107142Y-66500000D01*
X91202380Y-66452380D01*
X92392857Y-66785714D02*
X92392857Y-67452380D01*
X92154761Y-66404761D02*
X91916666Y-67119047D01*
X92535714Y-67119047D01*
X91952380Y-76869047D02*
X91476190Y-77202380D01*
X91952380Y-77440476D02*
X90952380Y-77440476D01*
X90952380Y-77059523D01*
X91000000Y-76964285D01*
X91047619Y-76916666D01*
X91142857Y-76869047D01*
X91285714Y-76869047D01*
X91380952Y-76916666D01*
X91428571Y-76964285D01*
X91476190Y-77059523D01*
X91476190Y-77440476D01*
X90952380Y-76535714D02*
X90952380Y-75916666D01*
X91333333Y-76250000D01*
X91333333Y-76107142D01*
X91380952Y-76011904D01*
X91428571Y-75964285D01*
X91523809Y-75916666D01*
X91761904Y-75916666D01*
X91857142Y-75964285D01*
X91904761Y-76011904D01*
X91952380Y-76107142D01*
X91952380Y-76392857D01*
X91904761Y-76488095D01*
X91857142Y-76535714D01*
X90952380Y-75297619D02*
X90952380Y-75202380D01*
X91000000Y-75107142D01*
X91047619Y-75059523D01*
X91142857Y-75011904D01*
X91333333Y-74964285D01*
X91571428Y-74964285D01*
X91761904Y-75011904D01*
X91857142Y-75059523D01*
X91904761Y-75107142D01*
X91952380Y-75202380D01*
X91952380Y-75297619D01*
X91904761Y-75392857D01*
X91857142Y-75440476D01*
X91761904Y-75488095D01*
X91571428Y-75535714D01*
X91333333Y-75535714D01*
X91142857Y-75488095D01*
X91047619Y-75440476D01*
X91000000Y-75392857D01*
X90952380Y-75297619D01*
X91047619Y-74583333D02*
X91000000Y-74535714D01*
X90952380Y-74440476D01*
X90952380Y-74202380D01*
X91000000Y-74107142D01*
X91047619Y-74059523D01*
X91142857Y-74011904D01*
X91238095Y-74011904D01*
X91380952Y-74059523D01*
X91952380Y-74630952D01*
X91952380Y-74011904D01*
X89630952Y-82272380D02*
X89297619Y-81796190D01*
X89059523Y-82272380D02*
X89059523Y-81272380D01*
X89440476Y-81272380D01*
X89535714Y-81320000D01*
X89583333Y-81367619D01*
X89630952Y-81462857D01*
X89630952Y-81605714D01*
X89583333Y-81700952D01*
X89535714Y-81748571D01*
X89440476Y-81796190D01*
X89059523Y-81796190D01*
X90011904Y-81367619D02*
X90059523Y-81320000D01*
X90154761Y-81272380D01*
X90392857Y-81272380D01*
X90488095Y-81320000D01*
X90535714Y-81367619D01*
X90583333Y-81462857D01*
X90583333Y-81558095D01*
X90535714Y-81700952D01*
X89964285Y-82272380D01*
X90583333Y-82272380D01*
X91202380Y-81272380D02*
X91297619Y-81272380D01*
X91392857Y-81320000D01*
X91440476Y-81367619D01*
X91488095Y-81462857D01*
X91535714Y-81653333D01*
X91535714Y-81891428D01*
X91488095Y-82081904D01*
X91440476Y-82177142D01*
X91392857Y-82224761D01*
X91297619Y-82272380D01*
X91202380Y-82272380D01*
X91107142Y-82224761D01*
X91059523Y-82177142D01*
X91011904Y-82081904D01*
X90964285Y-81891428D01*
X90964285Y-81653333D01*
X91011904Y-81462857D01*
X91059523Y-81367619D01*
X91107142Y-81320000D01*
X91202380Y-81272380D01*
X92392857Y-81605714D02*
X92392857Y-82272380D01*
X92154761Y-81224761D02*
X91916666Y-81939047D01*
X92535714Y-81939047D01*
X104068452Y-70107142D02*
X104020833Y-70154761D01*
X103877976Y-70202380D01*
X103782738Y-70202380D01*
X103639880Y-70154761D01*
X103544642Y-70059523D01*
X103497023Y-69964285D01*
X103449404Y-69773809D01*
X103449404Y-69630952D01*
X103497023Y-69440476D01*
X103544642Y-69345238D01*
X103639880Y-69250000D01*
X103782738Y-69202380D01*
X103877976Y-69202380D01*
X104020833Y-69250000D01*
X104068452Y-69297619D01*
X104401785Y-69202380D02*
X105020833Y-69202380D01*
X104687500Y-69583333D01*
X104830357Y-69583333D01*
X104925595Y-69630952D01*
X104973214Y-69678571D01*
X105020833Y-69773809D01*
X105020833Y-70011904D01*
X104973214Y-70107142D01*
X104925595Y-70154761D01*
X104830357Y-70202380D01*
X104544642Y-70202380D01*
X104449404Y-70154761D01*
X104401785Y-70107142D01*
X105639880Y-69202380D02*
X105735119Y-69202380D01*
X105830357Y-69250000D01*
X105877976Y-69297619D01*
X105925595Y-69392857D01*
X105973214Y-69583333D01*
X105973214Y-69821428D01*
X105925595Y-70011904D01*
X105877976Y-70107142D01*
X105830357Y-70154761D01*
X105735119Y-70202380D01*
X105639880Y-70202380D01*
X105544642Y-70154761D01*
X105497023Y-70107142D01*
X105449404Y-70011904D01*
X105401785Y-69821428D01*
X105401785Y-69583333D01*
X105449404Y-69392857D01*
X105497023Y-69297619D01*
X105544642Y-69250000D01*
X105639880Y-69202380D01*
X106877976Y-69202380D02*
X106401785Y-69202380D01*
X106354166Y-69678571D01*
X106401785Y-69630952D01*
X106497023Y-69583333D01*
X106735119Y-69583333D01*
X106830357Y-69630952D01*
X106877976Y-69678571D01*
X106925595Y-69773809D01*
X106925595Y-70011904D01*
X106877976Y-70107142D01*
X106830357Y-70154761D01*
X106735119Y-70202380D01*
X106497023Y-70202380D01*
X106401785Y-70154761D01*
X106354166Y-70107142D01*
X94857142Y-76869047D02*
X94904761Y-76916666D01*
X94952380Y-77059523D01*
X94952380Y-77154761D01*
X94904761Y-77297619D01*
X94809523Y-77392857D01*
X94714285Y-77440476D01*
X94523809Y-77488095D01*
X94380952Y-77488095D01*
X94190476Y-77440476D01*
X94095238Y-77392857D01*
X94000000Y-77297619D01*
X93952380Y-77154761D01*
X93952380Y-77059523D01*
X94000000Y-76916666D01*
X94047619Y-76869047D01*
X93952380Y-76535714D02*
X93952380Y-75916666D01*
X94333333Y-76250000D01*
X94333333Y-76107142D01*
X94380952Y-76011904D01*
X94428571Y-75964285D01*
X94523809Y-75916666D01*
X94761904Y-75916666D01*
X94857142Y-75964285D01*
X94904761Y-76011904D01*
X94952380Y-76107142D01*
X94952380Y-76392857D01*
X94904761Y-76488095D01*
X94857142Y-76535714D01*
X93952380Y-75297619D02*
X93952380Y-75202380D01*
X94000000Y-75107142D01*
X94047619Y-75059523D01*
X94142857Y-75011904D01*
X94333333Y-74964285D01*
X94571428Y-74964285D01*
X94761904Y-75011904D01*
X94857142Y-75059523D01*
X94904761Y-75107142D01*
X94952380Y-75202380D01*
X94952380Y-75297619D01*
X94904761Y-75392857D01*
X94857142Y-75440476D01*
X94761904Y-75488095D01*
X94571428Y-75535714D01*
X94333333Y-75535714D01*
X94142857Y-75488095D01*
X94047619Y-75440476D01*
X94000000Y-75392857D01*
X93952380Y-75297619D01*
X93952380Y-74630952D02*
X93952380Y-74011904D01*
X94333333Y-74345238D01*
X94333333Y-74202380D01*
X94380952Y-74107142D01*
X94428571Y-74059523D01*
X94523809Y-74011904D01*
X94761904Y-74011904D01*
X94857142Y-74059523D01*
X94904761Y-74107142D01*
X94952380Y-74202380D01*
X94952380Y-74488095D01*
X94904761Y-74583333D01*
X94857142Y-74630952D01*
X84530952Y-96507142D02*
X84483333Y-96554761D01*
X84340476Y-96602380D01*
X84245238Y-96602380D01*
X84102380Y-96554761D01*
X84007142Y-96459523D01*
X83959523Y-96364285D01*
X83911904Y-96173809D01*
X83911904Y-96030952D01*
X83959523Y-95840476D01*
X84007142Y-95745238D01*
X84102380Y-95650000D01*
X84245238Y-95602380D01*
X84340476Y-95602380D01*
X84483333Y-95650000D01*
X84530952Y-95697619D01*
X84911904Y-95697619D02*
X84959523Y-95650000D01*
X85054761Y-95602380D01*
X85292857Y-95602380D01*
X85388095Y-95650000D01*
X85435714Y-95697619D01*
X85483333Y-95792857D01*
X85483333Y-95888095D01*
X85435714Y-96030952D01*
X84864285Y-96602380D01*
X85483333Y-96602380D01*
X86102380Y-95602380D02*
X86197619Y-95602380D01*
X86292857Y-95650000D01*
X86340476Y-95697619D01*
X86388095Y-95792857D01*
X86435714Y-95983333D01*
X86435714Y-96221428D01*
X86388095Y-96411904D01*
X86340476Y-96507142D01*
X86292857Y-96554761D01*
X86197619Y-96602380D01*
X86102380Y-96602380D01*
X86007142Y-96554761D01*
X85959523Y-96507142D01*
X85911904Y-96411904D01*
X85864285Y-96221428D01*
X85864285Y-95983333D01*
X85911904Y-95792857D01*
X85959523Y-95697619D01*
X86007142Y-95650000D01*
X86102380Y-95602380D01*
X87007142Y-96030952D02*
X86911904Y-95983333D01*
X86864285Y-95935714D01*
X86816666Y-95840476D01*
X86816666Y-95792857D01*
X86864285Y-95697619D01*
X86911904Y-95650000D01*
X87007142Y-95602380D01*
X87197619Y-95602380D01*
X87292857Y-95650000D01*
X87340476Y-95697619D01*
X87388095Y-95792857D01*
X87388095Y-95840476D01*
X87340476Y-95935714D01*
X87292857Y-95983333D01*
X87197619Y-96030952D01*
X87007142Y-96030952D01*
X86911904Y-96078571D01*
X86864285Y-96126190D01*
X86816666Y-96221428D01*
X86816666Y-96411904D01*
X86864285Y-96507142D01*
X86911904Y-96554761D01*
X87007142Y-96602380D01*
X87197619Y-96602380D01*
X87292857Y-96554761D01*
X87340476Y-96507142D01*
X87388095Y-96411904D01*
X87388095Y-96221428D01*
X87340476Y-96126190D01*
X87292857Y-96078571D01*
X87197619Y-96030952D01*
X103630952Y-79357142D02*
X103583333Y-79404761D01*
X103440476Y-79452380D01*
X103345238Y-79452380D01*
X103202380Y-79404761D01*
X103107142Y-79309523D01*
X103059523Y-79214285D01*
X103011904Y-79023809D01*
X103011904Y-78880952D01*
X103059523Y-78690476D01*
X103107142Y-78595238D01*
X103202380Y-78500000D01*
X103345238Y-78452380D01*
X103440476Y-78452380D01*
X103583333Y-78500000D01*
X103630952Y-78547619D01*
X104011904Y-78547619D02*
X104059523Y-78500000D01*
X104154761Y-78452380D01*
X104392857Y-78452380D01*
X104488095Y-78500000D01*
X104535714Y-78547619D01*
X104583333Y-78642857D01*
X104583333Y-78738095D01*
X104535714Y-78880952D01*
X103964285Y-79452380D01*
X104583333Y-79452380D01*
X105202380Y-78452380D02*
X105297619Y-78452380D01*
X105392857Y-78500000D01*
X105440476Y-78547619D01*
X105488095Y-78642857D01*
X105535714Y-78833333D01*
X105535714Y-79071428D01*
X105488095Y-79261904D01*
X105440476Y-79357142D01*
X105392857Y-79404761D01*
X105297619Y-79452380D01*
X105202380Y-79452380D01*
X105107142Y-79404761D01*
X105059523Y-79357142D01*
X105011904Y-79261904D01*
X104964285Y-79071428D01*
X104964285Y-78833333D01*
X105011904Y-78642857D01*
X105059523Y-78547619D01*
X105107142Y-78500000D01*
X105202380Y-78452380D01*
X105869047Y-78452380D02*
X106535714Y-78452380D01*
X106107142Y-79452380D01*
X98107142Y-76869047D02*
X98154761Y-76916666D01*
X98202380Y-77059523D01*
X98202380Y-77154761D01*
X98154761Y-77297619D01*
X98059523Y-77392857D01*
X97964285Y-77440476D01*
X97773809Y-77488095D01*
X97630952Y-77488095D01*
X97440476Y-77440476D01*
X97345238Y-77392857D01*
X97250000Y-77297619D01*
X97202380Y-77154761D01*
X97202380Y-77059523D01*
X97250000Y-76916666D01*
X97297619Y-76869047D01*
X97297619Y-76488095D02*
X97250000Y-76440476D01*
X97202380Y-76345238D01*
X97202380Y-76107142D01*
X97250000Y-76011904D01*
X97297619Y-75964285D01*
X97392857Y-75916666D01*
X97488095Y-75916666D01*
X97630952Y-75964285D01*
X98202380Y-76535714D01*
X98202380Y-75916666D01*
X97202380Y-75297619D02*
X97202380Y-75202380D01*
X97250000Y-75107142D01*
X97297619Y-75059523D01*
X97392857Y-75011904D01*
X97583333Y-74964285D01*
X97821428Y-74964285D01*
X98011904Y-75011904D01*
X98107142Y-75059523D01*
X98154761Y-75107142D01*
X98202380Y-75202380D01*
X98202380Y-75297619D01*
X98154761Y-75392857D01*
X98107142Y-75440476D01*
X98011904Y-75488095D01*
X97821428Y-75535714D01*
X97583333Y-75535714D01*
X97392857Y-75488095D01*
X97297619Y-75440476D01*
X97250000Y-75392857D01*
X97202380Y-75297619D01*
X97202380Y-74107142D02*
X97202380Y-74297619D01*
X97250000Y-74392857D01*
X97297619Y-74440476D01*
X97440476Y-74535714D01*
X97630952Y-74583333D01*
X98011904Y-74583333D01*
X98107142Y-74535714D01*
X98154761Y-74488095D01*
X98202380Y-74392857D01*
X98202380Y-74202380D01*
X98154761Y-74107142D01*
X98107142Y-74059523D01*
X98011904Y-74011904D01*
X97773809Y-74011904D01*
X97678571Y-74059523D01*
X97630952Y-74107142D01*
X97583333Y-74202380D01*
X97583333Y-74392857D01*
X97630952Y-74488095D01*
X97678571Y-74535714D01*
X97773809Y-74583333D01*
X90030952Y-104357142D02*
X89983333Y-104404761D01*
X89840476Y-104452380D01*
X89745238Y-104452380D01*
X89602380Y-104404761D01*
X89507142Y-104309523D01*
X89459523Y-104214285D01*
X89411904Y-104023809D01*
X89411904Y-103880952D01*
X89459523Y-103690476D01*
X89507142Y-103595238D01*
X89602380Y-103500000D01*
X89745238Y-103452380D01*
X89840476Y-103452380D01*
X89983333Y-103500000D01*
X90030952Y-103547619D01*
X90411904Y-103547619D02*
X90459523Y-103500000D01*
X90554761Y-103452380D01*
X90792857Y-103452380D01*
X90888095Y-103500000D01*
X90935714Y-103547619D01*
X90983333Y-103642857D01*
X90983333Y-103738095D01*
X90935714Y-103880952D01*
X90364285Y-104452380D01*
X90983333Y-104452380D01*
X91602380Y-103452380D02*
X91697619Y-103452380D01*
X91792857Y-103500000D01*
X91840476Y-103547619D01*
X91888095Y-103642857D01*
X91935714Y-103833333D01*
X91935714Y-104071428D01*
X91888095Y-104261904D01*
X91840476Y-104357142D01*
X91792857Y-104404761D01*
X91697619Y-104452380D01*
X91602380Y-104452380D01*
X91507142Y-104404761D01*
X91459523Y-104357142D01*
X91411904Y-104261904D01*
X91364285Y-104071428D01*
X91364285Y-103833333D01*
X91411904Y-103642857D01*
X91459523Y-103547619D01*
X91507142Y-103500000D01*
X91602380Y-103452380D01*
X92840476Y-103452380D02*
X92364285Y-103452380D01*
X92316666Y-103928571D01*
X92364285Y-103880952D01*
X92459523Y-103833333D01*
X92697619Y-103833333D01*
X92792857Y-103880952D01*
X92840476Y-103928571D01*
X92888095Y-104023809D01*
X92888095Y-104261904D01*
X92840476Y-104357142D01*
X92792857Y-104404761D01*
X92697619Y-104452380D01*
X92459523Y-104452380D01*
X92364285Y-104404761D01*
X92316666Y-104357142D01*
X84530952Y-99757142D02*
X84483333Y-99804761D01*
X84340476Y-99852380D01*
X84245238Y-99852380D01*
X84102380Y-99804761D01*
X84007142Y-99709523D01*
X83959523Y-99614285D01*
X83911904Y-99423809D01*
X83911904Y-99280952D01*
X83959523Y-99090476D01*
X84007142Y-98995238D01*
X84102380Y-98900000D01*
X84245238Y-98852380D01*
X84340476Y-98852380D01*
X84483333Y-98900000D01*
X84530952Y-98947619D01*
X84911904Y-98947619D02*
X84959523Y-98900000D01*
X85054761Y-98852380D01*
X85292857Y-98852380D01*
X85388095Y-98900000D01*
X85435714Y-98947619D01*
X85483333Y-99042857D01*
X85483333Y-99138095D01*
X85435714Y-99280952D01*
X84864285Y-99852380D01*
X85483333Y-99852380D01*
X86102380Y-98852380D02*
X86197619Y-98852380D01*
X86292857Y-98900000D01*
X86340476Y-98947619D01*
X86388095Y-99042857D01*
X86435714Y-99233333D01*
X86435714Y-99471428D01*
X86388095Y-99661904D01*
X86340476Y-99757142D01*
X86292857Y-99804761D01*
X86197619Y-99852380D01*
X86102380Y-99852380D01*
X86007142Y-99804761D01*
X85959523Y-99757142D01*
X85911904Y-99661904D01*
X85864285Y-99471428D01*
X85864285Y-99233333D01*
X85911904Y-99042857D01*
X85959523Y-98947619D01*
X86007142Y-98900000D01*
X86102380Y-98852380D01*
X87292857Y-99185714D02*
X87292857Y-99852380D01*
X87054761Y-98804761D02*
X86816666Y-99519047D01*
X87435714Y-99519047D01*
X90130952Y-96757142D02*
X90083333Y-96804761D01*
X89940476Y-96852380D01*
X89845238Y-96852380D01*
X89702380Y-96804761D01*
X89607142Y-96709523D01*
X89559523Y-96614285D01*
X89511904Y-96423809D01*
X89511904Y-96280952D01*
X89559523Y-96090476D01*
X89607142Y-95995238D01*
X89702380Y-95900000D01*
X89845238Y-95852380D01*
X89940476Y-95852380D01*
X90083333Y-95900000D01*
X90130952Y-95947619D01*
X90511904Y-95947619D02*
X90559523Y-95900000D01*
X90654761Y-95852380D01*
X90892857Y-95852380D01*
X90988095Y-95900000D01*
X91035714Y-95947619D01*
X91083333Y-96042857D01*
X91083333Y-96138095D01*
X91035714Y-96280952D01*
X90464285Y-96852380D01*
X91083333Y-96852380D01*
X91702380Y-95852380D02*
X91797619Y-95852380D01*
X91892857Y-95900000D01*
X91940476Y-95947619D01*
X91988095Y-96042857D01*
X92035714Y-96233333D01*
X92035714Y-96471428D01*
X91988095Y-96661904D01*
X91940476Y-96757142D01*
X91892857Y-96804761D01*
X91797619Y-96852380D01*
X91702380Y-96852380D01*
X91607142Y-96804761D01*
X91559523Y-96757142D01*
X91511904Y-96661904D01*
X91464285Y-96471428D01*
X91464285Y-96233333D01*
X91511904Y-96042857D01*
X91559523Y-95947619D01*
X91607142Y-95900000D01*
X91702380Y-95852380D01*
X92369047Y-95852380D02*
X92988095Y-95852380D01*
X92654761Y-96233333D01*
X92797619Y-96233333D01*
X92892857Y-96280952D01*
X92940476Y-96328571D01*
X92988095Y-96423809D01*
X92988095Y-96661904D01*
X92940476Y-96757142D01*
X92892857Y-96804761D01*
X92797619Y-96852380D01*
X92511904Y-96852380D01*
X92416666Y-96804761D01*
X92369047Y-96757142D01*
X84530952Y-93507142D02*
X84483333Y-93554761D01*
X84340476Y-93602380D01*
X84245238Y-93602380D01*
X84102380Y-93554761D01*
X84007142Y-93459523D01*
X83959523Y-93364285D01*
X83911904Y-93173809D01*
X83911904Y-93030952D01*
X83959523Y-92840476D01*
X84007142Y-92745238D01*
X84102380Y-92650000D01*
X84245238Y-92602380D01*
X84340476Y-92602380D01*
X84483333Y-92650000D01*
X84530952Y-92697619D01*
X84911904Y-92697619D02*
X84959523Y-92650000D01*
X85054761Y-92602380D01*
X85292857Y-92602380D01*
X85388095Y-92650000D01*
X85435714Y-92697619D01*
X85483333Y-92792857D01*
X85483333Y-92888095D01*
X85435714Y-93030952D01*
X84864285Y-93602380D01*
X85483333Y-93602380D01*
X86102380Y-92602380D02*
X86197619Y-92602380D01*
X86292857Y-92650000D01*
X86340476Y-92697619D01*
X86388095Y-92792857D01*
X86435714Y-92983333D01*
X86435714Y-93221428D01*
X86388095Y-93411904D01*
X86340476Y-93507142D01*
X86292857Y-93554761D01*
X86197619Y-93602380D01*
X86102380Y-93602380D01*
X86007142Y-93554761D01*
X85959523Y-93507142D01*
X85911904Y-93411904D01*
X85864285Y-93221428D01*
X85864285Y-92983333D01*
X85911904Y-92792857D01*
X85959523Y-92697619D01*
X86007142Y-92650000D01*
X86102380Y-92602380D01*
X86816666Y-92697619D02*
X86864285Y-92650000D01*
X86959523Y-92602380D01*
X87197619Y-92602380D01*
X87292857Y-92650000D01*
X87340476Y-92697619D01*
X87388095Y-92792857D01*
X87388095Y-92888095D01*
X87340476Y-93030952D01*
X86769047Y-93602380D01*
X87388095Y-93602380D01*
X83959523Y-63452380D02*
X83959523Y-62452380D01*
X84197619Y-62452380D01*
X84340476Y-62500000D01*
X84435714Y-62595238D01*
X84483333Y-62690476D01*
X84530952Y-62880952D01*
X84530952Y-63023809D01*
X84483333Y-63214285D01*
X84435714Y-63309523D01*
X84340476Y-63404761D01*
X84197619Y-63452380D01*
X83959523Y-63452380D01*
X84864285Y-62452380D02*
X85483333Y-62452380D01*
X85150000Y-62833333D01*
X85292857Y-62833333D01*
X85388095Y-62880952D01*
X85435714Y-62928571D01*
X85483333Y-63023809D01*
X85483333Y-63261904D01*
X85435714Y-63357142D01*
X85388095Y-63404761D01*
X85292857Y-63452380D01*
X85007142Y-63452380D01*
X84911904Y-63404761D01*
X84864285Y-63357142D01*
X86102380Y-62452380D02*
X86197619Y-62452380D01*
X86292857Y-62500000D01*
X86340476Y-62547619D01*
X86388095Y-62642857D01*
X86435714Y-62833333D01*
X86435714Y-63071428D01*
X86388095Y-63261904D01*
X86340476Y-63357142D01*
X86292857Y-63404761D01*
X86197619Y-63452380D01*
X86102380Y-63452380D01*
X86007142Y-63404761D01*
X85959523Y-63357142D01*
X85911904Y-63261904D01*
X85864285Y-63071428D01*
X85864285Y-62833333D01*
X85911904Y-62642857D01*
X85959523Y-62547619D01*
X86007142Y-62500000D01*
X86102380Y-62452380D01*
X87388095Y-63452380D02*
X86816666Y-63452380D01*
X87102380Y-63452380D02*
X87102380Y-62452380D01*
X87007142Y-62595238D01*
X86911904Y-62690476D01*
X86816666Y-62738095D01*
X94702380Y-72619047D02*
X94226190Y-72952380D01*
X94702380Y-73190476D02*
X93702380Y-73190476D01*
X93702380Y-72809523D01*
X93750000Y-72714285D01*
X93797619Y-72666666D01*
X93892857Y-72619047D01*
X94035714Y-72619047D01*
X94130952Y-72666666D01*
X94178571Y-72714285D01*
X94226190Y-72809523D01*
X94226190Y-73190476D01*
X93702380Y-72285714D02*
X93702380Y-71666666D01*
X94083333Y-72000000D01*
X94083333Y-71857142D01*
X94130952Y-71761904D01*
X94178571Y-71714285D01*
X94273809Y-71666666D01*
X94511904Y-71666666D01*
X94607142Y-71714285D01*
X94654761Y-71761904D01*
X94702380Y-71857142D01*
X94702380Y-72142857D01*
X94654761Y-72238095D01*
X94607142Y-72285714D01*
X93702380Y-71047619D02*
X93702380Y-70952380D01*
X93750000Y-70857142D01*
X93797619Y-70809523D01*
X93892857Y-70761904D01*
X94083333Y-70714285D01*
X94321428Y-70714285D01*
X94511904Y-70761904D01*
X94607142Y-70809523D01*
X94654761Y-70857142D01*
X94702380Y-70952380D01*
X94702380Y-71047619D01*
X94654761Y-71142857D01*
X94607142Y-71190476D01*
X94511904Y-71238095D01*
X94321428Y-71285714D01*
X94083333Y-71285714D01*
X93892857Y-71238095D01*
X93797619Y-71190476D01*
X93750000Y-71142857D01*
X93702380Y-71047619D01*
X93702380Y-70380952D02*
X93702380Y-69761904D01*
X94083333Y-70095238D01*
X94083333Y-69952380D01*
X94130952Y-69857142D01*
X94178571Y-69809523D01*
X94273809Y-69761904D01*
X94511904Y-69761904D01*
X94607142Y-69809523D01*
X94654761Y-69857142D01*
X94702380Y-69952380D01*
X94702380Y-70238095D01*
X94654761Y-70333333D01*
X94607142Y-70380952D01*
X91952380Y-72619047D02*
X91476190Y-72952380D01*
X91952380Y-73190476D02*
X90952380Y-73190476D01*
X90952380Y-72809523D01*
X91000000Y-72714285D01*
X91047619Y-72666666D01*
X91142857Y-72619047D01*
X91285714Y-72619047D01*
X91380952Y-72666666D01*
X91428571Y-72714285D01*
X91476190Y-72809523D01*
X91476190Y-73190476D01*
X90952380Y-72285714D02*
X90952380Y-71666666D01*
X91333333Y-72000000D01*
X91333333Y-71857142D01*
X91380952Y-71761904D01*
X91428571Y-71714285D01*
X91523809Y-71666666D01*
X91761904Y-71666666D01*
X91857142Y-71714285D01*
X91904761Y-71761904D01*
X91952380Y-71857142D01*
X91952380Y-72142857D01*
X91904761Y-72238095D01*
X91857142Y-72285714D01*
X90952380Y-71047619D02*
X90952380Y-70952380D01*
X91000000Y-70857142D01*
X91047619Y-70809523D01*
X91142857Y-70761904D01*
X91333333Y-70714285D01*
X91571428Y-70714285D01*
X91761904Y-70761904D01*
X91857142Y-70809523D01*
X91904761Y-70857142D01*
X91952380Y-70952380D01*
X91952380Y-71047619D01*
X91904761Y-71142857D01*
X91857142Y-71190476D01*
X91761904Y-71238095D01*
X91571428Y-71285714D01*
X91333333Y-71285714D01*
X91142857Y-71238095D01*
X91047619Y-71190476D01*
X91000000Y-71142857D01*
X90952380Y-71047619D01*
X91952380Y-69761904D02*
X91952380Y-70333333D01*
X91952380Y-70047619D02*
X90952380Y-70047619D01*
X91095238Y-70142857D01*
X91190476Y-70238095D01*
X91238095Y-70333333D01*
X93130952Y-56252380D02*
X92654761Y-56252380D01*
X92654761Y-55252380D01*
X93369047Y-55252380D02*
X93988095Y-55252380D01*
X93654761Y-55633333D01*
X93797619Y-55633333D01*
X93892857Y-55680952D01*
X93940476Y-55728571D01*
X93988095Y-55823809D01*
X93988095Y-56061904D01*
X93940476Y-56157142D01*
X93892857Y-56204761D01*
X93797619Y-56252380D01*
X93511904Y-56252380D01*
X93416666Y-56204761D01*
X93369047Y-56157142D01*
X94607142Y-55252380D02*
X94702380Y-55252380D01*
X94797619Y-55300000D01*
X94845238Y-55347619D01*
X94892857Y-55442857D01*
X94940476Y-55633333D01*
X94940476Y-55871428D01*
X94892857Y-56061904D01*
X94845238Y-56157142D01*
X94797619Y-56204761D01*
X94702380Y-56252380D01*
X94607142Y-56252380D01*
X94511904Y-56204761D01*
X94464285Y-56157142D01*
X94416666Y-56061904D01*
X94369047Y-55871428D01*
X94369047Y-55633333D01*
X94416666Y-55442857D01*
X94464285Y-55347619D01*
X94511904Y-55300000D01*
X94607142Y-55252380D01*
X95892857Y-56252380D02*
X95321428Y-56252380D01*
X95607142Y-56252380D02*
X95607142Y-55252380D01*
X95511904Y-55395238D01*
X95416666Y-55490476D01*
X95321428Y-55538095D01*
X101335595Y-103952380D02*
X101335595Y-102952380D01*
X101573690Y-102952380D01*
X101716547Y-103000000D01*
X101811785Y-103095238D01*
X101859404Y-103190476D01*
X101907023Y-103380952D01*
X101907023Y-103523809D01*
X101859404Y-103714285D01*
X101811785Y-103809523D01*
X101716547Y-103904761D01*
X101573690Y-103952380D01*
X101335595Y-103952380D01*
X102287976Y-103047619D02*
X102335595Y-103000000D01*
X102430833Y-102952380D01*
X102668928Y-102952380D01*
X102764166Y-103000000D01*
X102811785Y-103047619D01*
X102859404Y-103142857D01*
X102859404Y-103238095D01*
X102811785Y-103380952D01*
X102240357Y-103952380D01*
X102859404Y-103952380D01*
X103478452Y-102952380D02*
X103573690Y-102952380D01*
X103668928Y-103000000D01*
X103716547Y-103047619D01*
X103764166Y-103142857D01*
X103811785Y-103333333D01*
X103811785Y-103571428D01*
X103764166Y-103761904D01*
X103716547Y-103857142D01*
X103668928Y-103904761D01*
X103573690Y-103952380D01*
X103478452Y-103952380D01*
X103383214Y-103904761D01*
X103335595Y-103857142D01*
X103287976Y-103761904D01*
X103240357Y-103571428D01*
X103240357Y-103333333D01*
X103287976Y-103142857D01*
X103335595Y-103047619D01*
X103383214Y-103000000D01*
X103478452Y-102952380D01*
X104764166Y-103952380D02*
X104192738Y-103952380D01*
X104478452Y-103952380D02*
X104478452Y-102952380D01*
X104383214Y-103095238D01*
X104287976Y-103190476D01*
X104192738Y-103238095D01*
X84460952Y-70507142D02*
X84413333Y-70554761D01*
X84270476Y-70602380D01*
X84175238Y-70602380D01*
X84032380Y-70554761D01*
X83937142Y-70459523D01*
X83889523Y-70364285D01*
X83841904Y-70173809D01*
X83841904Y-70030952D01*
X83889523Y-69840476D01*
X83937142Y-69745238D01*
X84032380Y-69650000D01*
X84175238Y-69602380D01*
X84270476Y-69602380D01*
X84413333Y-69650000D01*
X84460952Y-69697619D01*
X84794285Y-69602380D02*
X85413333Y-69602380D01*
X85080000Y-69983333D01*
X85222857Y-69983333D01*
X85318095Y-70030952D01*
X85365714Y-70078571D01*
X85413333Y-70173809D01*
X85413333Y-70411904D01*
X85365714Y-70507142D01*
X85318095Y-70554761D01*
X85222857Y-70602380D01*
X84937142Y-70602380D01*
X84841904Y-70554761D01*
X84794285Y-70507142D01*
X86032380Y-69602380D02*
X86127619Y-69602380D01*
X86222857Y-69650000D01*
X86270476Y-69697619D01*
X86318095Y-69792857D01*
X86365714Y-69983333D01*
X86365714Y-70221428D01*
X86318095Y-70411904D01*
X86270476Y-70507142D01*
X86222857Y-70554761D01*
X86127619Y-70602380D01*
X86032380Y-70602380D01*
X85937142Y-70554761D01*
X85889523Y-70507142D01*
X85841904Y-70411904D01*
X85794285Y-70221428D01*
X85794285Y-69983333D01*
X85841904Y-69792857D01*
X85889523Y-69697619D01*
X85937142Y-69650000D01*
X86032380Y-69602380D01*
X86699047Y-69602380D02*
X87365714Y-69602380D01*
X86937142Y-70602380D01*
X84460952Y-66507142D02*
X84413333Y-66554761D01*
X84270476Y-66602380D01*
X84175238Y-66602380D01*
X84032380Y-66554761D01*
X83937142Y-66459523D01*
X83889523Y-66364285D01*
X83841904Y-66173809D01*
X83841904Y-66030952D01*
X83889523Y-65840476D01*
X83937142Y-65745238D01*
X84032380Y-65650000D01*
X84175238Y-65602380D01*
X84270476Y-65602380D01*
X84413333Y-65650000D01*
X84460952Y-65697619D01*
X84794285Y-65602380D02*
X85413333Y-65602380D01*
X85080000Y-65983333D01*
X85222857Y-65983333D01*
X85318095Y-66030952D01*
X85365714Y-66078571D01*
X85413333Y-66173809D01*
X85413333Y-66411904D01*
X85365714Y-66507142D01*
X85318095Y-66554761D01*
X85222857Y-66602380D01*
X84937142Y-66602380D01*
X84841904Y-66554761D01*
X84794285Y-66507142D01*
X86032380Y-65602380D02*
X86127619Y-65602380D01*
X86222857Y-65650000D01*
X86270476Y-65697619D01*
X86318095Y-65792857D01*
X86365714Y-65983333D01*
X86365714Y-66221428D01*
X86318095Y-66411904D01*
X86270476Y-66507142D01*
X86222857Y-66554761D01*
X86127619Y-66602380D01*
X86032380Y-66602380D01*
X85937142Y-66554761D01*
X85889523Y-66507142D01*
X85841904Y-66411904D01*
X85794285Y-66221428D01*
X85794285Y-65983333D01*
X85841904Y-65792857D01*
X85889523Y-65697619D01*
X85937142Y-65650000D01*
X86032380Y-65602380D01*
X87222857Y-65602380D02*
X87032380Y-65602380D01*
X86937142Y-65650000D01*
X86889523Y-65697619D01*
X86794285Y-65840476D01*
X86746666Y-66030952D01*
X86746666Y-66411904D01*
X86794285Y-66507142D01*
X86841904Y-66554761D01*
X86937142Y-66602380D01*
X87127619Y-66602380D01*
X87222857Y-66554761D01*
X87270476Y-66507142D01*
X87318095Y-66411904D01*
X87318095Y-66173809D01*
X87270476Y-66078571D01*
X87222857Y-66030952D01*
X87127619Y-65983333D01*
X86937142Y-65983333D01*
X86841904Y-66030952D01*
X86794285Y-66078571D01*
X86746666Y-66173809D01*
X84630952Y-77427142D02*
X84583333Y-77474761D01*
X84440476Y-77522380D01*
X84345238Y-77522380D01*
X84202380Y-77474761D01*
X84107142Y-77379523D01*
X84059523Y-77284285D01*
X84011904Y-77093809D01*
X84011904Y-76950952D01*
X84059523Y-76760476D01*
X84107142Y-76665238D01*
X84202380Y-76570000D01*
X84345238Y-76522380D01*
X84440476Y-76522380D01*
X84583333Y-76570000D01*
X84630952Y-76617619D01*
X84964285Y-76522380D02*
X85583333Y-76522380D01*
X85250000Y-76903333D01*
X85392857Y-76903333D01*
X85488095Y-76950952D01*
X85535714Y-76998571D01*
X85583333Y-77093809D01*
X85583333Y-77331904D01*
X85535714Y-77427142D01*
X85488095Y-77474761D01*
X85392857Y-77522380D01*
X85107142Y-77522380D01*
X85011904Y-77474761D01*
X84964285Y-77427142D01*
X86202380Y-76522380D02*
X86297619Y-76522380D01*
X86392857Y-76570000D01*
X86440476Y-76617619D01*
X86488095Y-76712857D01*
X86535714Y-76903333D01*
X86535714Y-77141428D01*
X86488095Y-77331904D01*
X86440476Y-77427142D01*
X86392857Y-77474761D01*
X86297619Y-77522380D01*
X86202380Y-77522380D01*
X86107142Y-77474761D01*
X86059523Y-77427142D01*
X86011904Y-77331904D01*
X85964285Y-77141428D01*
X85964285Y-76903333D01*
X86011904Y-76712857D01*
X86059523Y-76617619D01*
X86107142Y-76570000D01*
X86202380Y-76522380D01*
X87488095Y-77522380D02*
X86916666Y-77522380D01*
X87202380Y-77522380D02*
X87202380Y-76522380D01*
X87107142Y-76665238D01*
X87011904Y-76760476D01*
X86916666Y-76808095D01*
M02*
