G04 #@! TF.GenerationSoftware,KiCad,Pcbnew,5.1.4-e60b266~84~ubuntu18.04.1*
G04 #@! TF.CreationDate,2020-01-24T11:28:00-03:00*
G04 #@! TF.ProjectId,tecsci_dip,74656373-6369-45f6-9469-702e6b696361,v1.3*
G04 #@! TF.SameCoordinates,Original*
G04 #@! TF.FileFunction,Soldermask,Bot*
G04 #@! TF.FilePolarity,Negative*
%FSLAX46Y46*%
G04 Gerber Fmt 4.6, Leading zero omitted, Abs format (unit mm)*
G04 Created by KiCad (PCBNEW 5.1.4-e60b266~84~ubuntu18.04.1) date 2020-01-24 11:28:00*
%MOMM*%
%LPD*%
G04 APERTURE LIST*
%ADD10C,0.100000*%
G04 APERTURE END LIST*
D10*
G36*
X117884239Y-108061467D02*
G01*
X118198282Y-108123934D01*
X118789926Y-108369001D01*
X119322392Y-108724784D01*
X119775216Y-109177608D01*
X120130999Y-109710074D01*
X120376066Y-110301718D01*
X120376066Y-110301719D01*
X120501000Y-110929803D01*
X120501000Y-111570197D01*
X120438533Y-111884239D01*
X120376066Y-112198282D01*
X120130999Y-112789926D01*
X119775216Y-113322392D01*
X119322392Y-113775216D01*
X118789926Y-114130999D01*
X118198282Y-114376066D01*
X117884239Y-114438533D01*
X117570197Y-114501000D01*
X116929803Y-114501000D01*
X116615761Y-114438533D01*
X116301718Y-114376066D01*
X115710074Y-114130999D01*
X115177608Y-113775216D01*
X114724784Y-113322392D01*
X114369001Y-112789926D01*
X114123934Y-112198282D01*
X114061467Y-111884239D01*
X113999000Y-111570197D01*
X113999000Y-110929803D01*
X114123934Y-110301719D01*
X114123934Y-110301718D01*
X114369001Y-109710074D01*
X114724784Y-109177608D01*
X115177608Y-108724784D01*
X115710074Y-108369001D01*
X116301718Y-108123934D01*
X116615761Y-108061467D01*
X116929803Y-107999000D01*
X117570197Y-107999000D01*
X117884239Y-108061467D01*
X117884239Y-108061467D01*
G37*
G36*
X60384239Y-108061467D02*
G01*
X60698282Y-108123934D01*
X61289926Y-108369001D01*
X61822392Y-108724784D01*
X62275216Y-109177608D01*
X62630999Y-109710074D01*
X62876066Y-110301718D01*
X62876066Y-110301719D01*
X63001000Y-110929803D01*
X63001000Y-111570197D01*
X62938533Y-111884239D01*
X62876066Y-112198282D01*
X62630999Y-112789926D01*
X62275216Y-113322392D01*
X61822392Y-113775216D01*
X61289926Y-114130999D01*
X60698282Y-114376066D01*
X60384239Y-114438533D01*
X60070197Y-114501000D01*
X59429803Y-114501000D01*
X59115761Y-114438533D01*
X58801718Y-114376066D01*
X58210074Y-114130999D01*
X57677608Y-113775216D01*
X57224784Y-113322392D01*
X56869001Y-112789926D01*
X56623934Y-112198282D01*
X56561467Y-111884239D01*
X56499000Y-111570197D01*
X56499000Y-110929803D01*
X56623934Y-110301719D01*
X56623934Y-110301718D01*
X56869001Y-109710074D01*
X57224784Y-109177608D01*
X57677608Y-108724784D01*
X58210074Y-108369001D01*
X58801718Y-108123934D01*
X59115761Y-108061467D01*
X59429803Y-107999000D01*
X60070197Y-107999000D01*
X60384239Y-108061467D01*
X60384239Y-108061467D01*
G37*
G36*
X78901000Y-109901000D02*
G01*
X77099000Y-109901000D01*
X77099000Y-108099000D01*
X78901000Y-108099000D01*
X78901000Y-109901000D01*
X78901000Y-109901000D01*
G37*
G36*
X75570442Y-108105518D02*
G01*
X75636627Y-108112037D01*
X75806466Y-108163557D01*
X75962991Y-108247222D01*
X75998729Y-108276552D01*
X76100186Y-108359814D01*
X76183448Y-108461271D01*
X76212778Y-108497009D01*
X76296443Y-108653534D01*
X76347963Y-108823373D01*
X76365359Y-109000000D01*
X76347963Y-109176627D01*
X76296443Y-109346466D01*
X76212778Y-109502991D01*
X76208237Y-109508524D01*
X76100186Y-109640186D01*
X75998729Y-109723448D01*
X75962991Y-109752778D01*
X75806466Y-109836443D01*
X75636627Y-109887963D01*
X75570443Y-109894481D01*
X75504260Y-109901000D01*
X75415740Y-109901000D01*
X75349557Y-109894481D01*
X75283373Y-109887963D01*
X75113534Y-109836443D01*
X74957009Y-109752778D01*
X74921271Y-109723448D01*
X74819814Y-109640186D01*
X74711763Y-109508524D01*
X74707222Y-109502991D01*
X74623557Y-109346466D01*
X74572037Y-109176627D01*
X74554641Y-109000000D01*
X74572037Y-108823373D01*
X74623557Y-108653534D01*
X74707222Y-108497009D01*
X74736552Y-108461271D01*
X74819814Y-108359814D01*
X74921271Y-108276552D01*
X74957009Y-108247222D01*
X75113534Y-108163557D01*
X75283373Y-108112037D01*
X75349558Y-108105518D01*
X75415740Y-108099000D01*
X75504260Y-108099000D01*
X75570442Y-108105518D01*
X75570442Y-108105518D01*
G37*
G36*
X73030442Y-108105518D02*
G01*
X73096627Y-108112037D01*
X73266466Y-108163557D01*
X73422991Y-108247222D01*
X73458729Y-108276552D01*
X73560186Y-108359814D01*
X73643448Y-108461271D01*
X73672778Y-108497009D01*
X73756443Y-108653534D01*
X73807963Y-108823373D01*
X73825359Y-109000000D01*
X73807963Y-109176627D01*
X73756443Y-109346466D01*
X73672778Y-109502991D01*
X73668237Y-109508524D01*
X73560186Y-109640186D01*
X73458729Y-109723448D01*
X73422991Y-109752778D01*
X73266466Y-109836443D01*
X73096627Y-109887963D01*
X73030443Y-109894481D01*
X72964260Y-109901000D01*
X72875740Y-109901000D01*
X72809557Y-109894481D01*
X72743373Y-109887963D01*
X72573534Y-109836443D01*
X72417009Y-109752778D01*
X72381271Y-109723448D01*
X72279814Y-109640186D01*
X72171763Y-109508524D01*
X72167222Y-109502991D01*
X72083557Y-109346466D01*
X72032037Y-109176627D01*
X72014641Y-109000000D01*
X72032037Y-108823373D01*
X72083557Y-108653534D01*
X72167222Y-108497009D01*
X72196552Y-108461271D01*
X72279814Y-108359814D01*
X72381271Y-108276552D01*
X72417009Y-108247222D01*
X72573534Y-108163557D01*
X72743373Y-108112037D01*
X72809558Y-108105518D01*
X72875740Y-108099000D01*
X72964260Y-108099000D01*
X73030442Y-108105518D01*
X73030442Y-108105518D01*
G37*
G36*
X70490442Y-108105518D02*
G01*
X70556627Y-108112037D01*
X70726466Y-108163557D01*
X70882991Y-108247222D01*
X70918729Y-108276552D01*
X71020186Y-108359814D01*
X71103448Y-108461271D01*
X71132778Y-108497009D01*
X71216443Y-108653534D01*
X71267963Y-108823373D01*
X71285359Y-109000000D01*
X71267963Y-109176627D01*
X71216443Y-109346466D01*
X71132778Y-109502991D01*
X71128237Y-109508524D01*
X71020186Y-109640186D01*
X70918729Y-109723448D01*
X70882991Y-109752778D01*
X70726466Y-109836443D01*
X70556627Y-109887963D01*
X70490443Y-109894481D01*
X70424260Y-109901000D01*
X70335740Y-109901000D01*
X70269557Y-109894481D01*
X70203373Y-109887963D01*
X70033534Y-109836443D01*
X69877009Y-109752778D01*
X69841271Y-109723448D01*
X69739814Y-109640186D01*
X69631763Y-109508524D01*
X69627222Y-109502991D01*
X69543557Y-109346466D01*
X69492037Y-109176627D01*
X69474641Y-109000000D01*
X69492037Y-108823373D01*
X69543557Y-108653534D01*
X69627222Y-108497009D01*
X69656552Y-108461271D01*
X69739814Y-108359814D01*
X69841271Y-108276552D01*
X69877009Y-108247222D01*
X70033534Y-108163557D01*
X70203373Y-108112037D01*
X70269558Y-108105518D01*
X70335740Y-108099000D01*
X70424260Y-108099000D01*
X70490442Y-108105518D01*
X70490442Y-108105518D01*
G37*
G36*
X67950442Y-108105518D02*
G01*
X68016627Y-108112037D01*
X68186466Y-108163557D01*
X68342991Y-108247222D01*
X68378729Y-108276552D01*
X68480186Y-108359814D01*
X68563448Y-108461271D01*
X68592778Y-108497009D01*
X68676443Y-108653534D01*
X68727963Y-108823373D01*
X68745359Y-109000000D01*
X68727963Y-109176627D01*
X68676443Y-109346466D01*
X68592778Y-109502991D01*
X68588237Y-109508524D01*
X68480186Y-109640186D01*
X68378729Y-109723448D01*
X68342991Y-109752778D01*
X68186466Y-109836443D01*
X68016627Y-109887963D01*
X67950443Y-109894481D01*
X67884260Y-109901000D01*
X67795740Y-109901000D01*
X67729557Y-109894481D01*
X67663373Y-109887963D01*
X67493534Y-109836443D01*
X67337009Y-109752778D01*
X67301271Y-109723448D01*
X67199814Y-109640186D01*
X67091763Y-109508524D01*
X67087222Y-109502991D01*
X67003557Y-109346466D01*
X66952037Y-109176627D01*
X66934641Y-109000000D01*
X66952037Y-108823373D01*
X67003557Y-108653534D01*
X67087222Y-108497009D01*
X67116552Y-108461271D01*
X67199814Y-108359814D01*
X67301271Y-108276552D01*
X67337009Y-108247222D01*
X67493534Y-108163557D01*
X67663373Y-108112037D01*
X67729558Y-108105518D01*
X67795740Y-108099000D01*
X67884260Y-108099000D01*
X67950442Y-108105518D01*
X67950442Y-108105518D01*
G37*
G36*
X65410442Y-108105518D02*
G01*
X65476627Y-108112037D01*
X65646466Y-108163557D01*
X65802991Y-108247222D01*
X65838729Y-108276552D01*
X65940186Y-108359814D01*
X66023448Y-108461271D01*
X66052778Y-108497009D01*
X66136443Y-108653534D01*
X66187963Y-108823373D01*
X66205359Y-109000000D01*
X66187963Y-109176627D01*
X66136443Y-109346466D01*
X66052778Y-109502991D01*
X66048237Y-109508524D01*
X65940186Y-109640186D01*
X65838729Y-109723448D01*
X65802991Y-109752778D01*
X65646466Y-109836443D01*
X65476627Y-109887963D01*
X65410443Y-109894481D01*
X65344260Y-109901000D01*
X65255740Y-109901000D01*
X65189557Y-109894481D01*
X65123373Y-109887963D01*
X64953534Y-109836443D01*
X64797009Y-109752778D01*
X64761271Y-109723448D01*
X64659814Y-109640186D01*
X64551763Y-109508524D01*
X64547222Y-109502991D01*
X64463557Y-109346466D01*
X64412037Y-109176627D01*
X64394641Y-109000000D01*
X64412037Y-108823373D01*
X64463557Y-108653534D01*
X64547222Y-108497009D01*
X64576552Y-108461271D01*
X64659814Y-108359814D01*
X64761271Y-108276552D01*
X64797009Y-108247222D01*
X64953534Y-108163557D01*
X65123373Y-108112037D01*
X65189558Y-108105518D01*
X65255740Y-108099000D01*
X65344260Y-108099000D01*
X65410442Y-108105518D01*
X65410442Y-108105518D01*
G37*
G36*
X116556564Y-100239389D02*
G01*
X116747833Y-100318615D01*
X116747835Y-100318616D01*
X116919973Y-100433635D01*
X117066365Y-100580027D01*
X117181385Y-100752167D01*
X117260611Y-100943436D01*
X117301000Y-101146484D01*
X117301000Y-101353516D01*
X117260611Y-101556564D01*
X117181385Y-101747833D01*
X117181384Y-101747835D01*
X117066365Y-101919973D01*
X116919973Y-102066365D01*
X116747835Y-102181384D01*
X116747834Y-102181385D01*
X116747833Y-102181385D01*
X116556564Y-102260611D01*
X116353516Y-102301000D01*
X116146484Y-102301000D01*
X115943436Y-102260611D01*
X115752167Y-102181385D01*
X115752166Y-102181385D01*
X115752165Y-102181384D01*
X115580027Y-102066365D01*
X115433635Y-101919973D01*
X115318616Y-101747835D01*
X115318615Y-101747833D01*
X115239389Y-101556564D01*
X115199000Y-101353516D01*
X115199000Y-101146484D01*
X115239389Y-100943436D01*
X115318615Y-100752167D01*
X115433635Y-100580027D01*
X115580027Y-100433635D01*
X115752165Y-100318616D01*
X115752167Y-100318615D01*
X115943436Y-100239389D01*
X116146484Y-100199000D01*
X116353516Y-100199000D01*
X116556564Y-100239389D01*
X116556564Y-100239389D01*
G37*
G36*
X109801000Y-102301000D02*
G01*
X107699000Y-102301000D01*
X107699000Y-100199000D01*
X109801000Y-100199000D01*
X109801000Y-102301000D01*
X109801000Y-102301000D01*
G37*
G36*
X112307785Y-91070537D02*
G01*
X112531011Y-91163000D01*
X112531013Y-91163001D01*
X112632144Y-91230575D01*
X112731911Y-91297237D01*
X112902763Y-91468089D01*
X113037000Y-91668989D01*
X113129463Y-91892215D01*
X113176600Y-92129189D01*
X113176600Y-92370811D01*
X113129463Y-92607785D01*
X113037000Y-92831011D01*
X113036999Y-92831013D01*
X112902762Y-93031912D01*
X112731912Y-93202762D01*
X112531013Y-93336999D01*
X112531012Y-93337000D01*
X112531011Y-93337000D01*
X112307785Y-93429463D01*
X112070811Y-93476600D01*
X111829189Y-93476600D01*
X111592215Y-93429463D01*
X111368989Y-93337000D01*
X111368988Y-93337000D01*
X111368987Y-93336999D01*
X111168088Y-93202762D01*
X110997238Y-93031912D01*
X110863001Y-92831013D01*
X110863000Y-92831011D01*
X110770537Y-92607785D01*
X110723400Y-92370811D01*
X110723400Y-92129189D01*
X110770537Y-91892215D01*
X110863000Y-91668989D01*
X110997237Y-91468089D01*
X111168089Y-91297237D01*
X111267856Y-91230575D01*
X111368987Y-91163001D01*
X111368989Y-91163000D01*
X111592215Y-91070537D01*
X111829189Y-91023400D01*
X112070811Y-91023400D01*
X112307785Y-91070537D01*
X112307785Y-91070537D01*
G37*
G36*
X112307785Y-87570537D02*
G01*
X112531011Y-87663000D01*
X112531013Y-87663001D01*
X112632144Y-87730575D01*
X112731911Y-87797237D01*
X112902763Y-87968089D01*
X113037000Y-88168989D01*
X113129463Y-88392215D01*
X113176600Y-88629189D01*
X113176600Y-88870811D01*
X113129463Y-89107785D01*
X113037000Y-89331011D01*
X113036999Y-89331013D01*
X112902762Y-89531912D01*
X112731912Y-89702762D01*
X112531013Y-89836999D01*
X112531012Y-89837000D01*
X112531011Y-89837000D01*
X112307785Y-89929463D01*
X112070811Y-89976600D01*
X111829189Y-89976600D01*
X111592215Y-89929463D01*
X111368989Y-89837000D01*
X111368988Y-89837000D01*
X111368987Y-89836999D01*
X111168088Y-89702762D01*
X110997238Y-89531912D01*
X110863001Y-89331013D01*
X110863000Y-89331011D01*
X110770537Y-89107785D01*
X110723400Y-88870811D01*
X110723400Y-88629189D01*
X110770537Y-88392215D01*
X110863000Y-88168989D01*
X110997237Y-87968089D01*
X111168089Y-87797237D01*
X111267856Y-87730575D01*
X111368987Y-87663001D01*
X111368989Y-87663000D01*
X111592215Y-87570537D01*
X111829189Y-87523400D01*
X112070811Y-87523400D01*
X112307785Y-87570537D01*
X112307785Y-87570537D01*
G37*
G36*
X112307785Y-84070537D02*
G01*
X112531011Y-84163000D01*
X112531013Y-84163001D01*
X112632144Y-84230575D01*
X112731911Y-84297237D01*
X112902763Y-84468089D01*
X113037000Y-84668989D01*
X113129463Y-84892215D01*
X113176600Y-85129189D01*
X113176600Y-85370811D01*
X113129463Y-85607785D01*
X113037000Y-85831011D01*
X113036999Y-85831013D01*
X112902762Y-86031912D01*
X112731912Y-86202762D01*
X112531013Y-86336999D01*
X112531012Y-86337000D01*
X112531011Y-86337000D01*
X112307785Y-86429463D01*
X112070811Y-86476600D01*
X111829189Y-86476600D01*
X111592215Y-86429463D01*
X111368989Y-86337000D01*
X111368988Y-86337000D01*
X111368987Y-86336999D01*
X111168088Y-86202762D01*
X110997238Y-86031912D01*
X110863001Y-85831013D01*
X110863000Y-85831011D01*
X110770537Y-85607785D01*
X110723400Y-85370811D01*
X110723400Y-85129189D01*
X110770537Y-84892215D01*
X110863000Y-84668989D01*
X110997237Y-84468089D01*
X111168089Y-84297237D01*
X111267856Y-84230575D01*
X111368987Y-84163001D01*
X111368989Y-84163000D01*
X111592215Y-84070537D01*
X111829189Y-84023400D01*
X112070811Y-84023400D01*
X112307785Y-84070537D01*
X112307785Y-84070537D01*
G37*
G36*
X112307785Y-80570537D02*
G01*
X112531011Y-80663000D01*
X112531013Y-80663001D01*
X112731912Y-80797238D01*
X112902762Y-80968088D01*
X113033371Y-81163557D01*
X113037000Y-81168989D01*
X113129463Y-81392215D01*
X113176600Y-81629189D01*
X113176600Y-81870811D01*
X113129463Y-82107785D01*
X113037000Y-82331011D01*
X113036999Y-82331013D01*
X113026672Y-82346468D01*
X112922087Y-82502991D01*
X112902762Y-82531912D01*
X112731912Y-82702762D01*
X112531013Y-82836999D01*
X112531012Y-82837000D01*
X112531011Y-82837000D01*
X112307785Y-82929463D01*
X112070811Y-82976600D01*
X111829189Y-82976600D01*
X111592215Y-82929463D01*
X111368989Y-82837000D01*
X111368988Y-82837000D01*
X111368987Y-82836999D01*
X111168088Y-82702762D01*
X110997238Y-82531912D01*
X110977914Y-82502991D01*
X110873328Y-82346468D01*
X110863001Y-82331013D01*
X110863000Y-82331011D01*
X110770537Y-82107785D01*
X110723400Y-81870811D01*
X110723400Y-81629189D01*
X110770537Y-81392215D01*
X110863000Y-81168989D01*
X110866630Y-81163557D01*
X110997238Y-80968088D01*
X111168088Y-80797238D01*
X111368987Y-80663001D01*
X111368989Y-80663000D01*
X111592215Y-80570537D01*
X111829189Y-80523400D01*
X112070811Y-80523400D01*
X112307785Y-80570537D01*
X112307785Y-80570537D01*
G37*
G36*
X67890443Y-81105519D02*
G01*
X67956627Y-81112037D01*
X68126466Y-81163557D01*
X68126468Y-81163558D01*
X68204728Y-81205389D01*
X68282991Y-81247222D01*
X68318729Y-81276552D01*
X68420186Y-81359814D01*
X68503448Y-81461271D01*
X68532778Y-81497009D01*
X68616443Y-81653534D01*
X68667963Y-81823373D01*
X68685359Y-82000000D01*
X68667963Y-82176627D01*
X68616443Y-82346466D01*
X68532778Y-82502991D01*
X68509044Y-82531911D01*
X68420186Y-82640186D01*
X68318729Y-82723448D01*
X68282991Y-82752778D01*
X68126466Y-82836443D01*
X67956627Y-82887963D01*
X67890443Y-82894481D01*
X67824260Y-82901000D01*
X67735740Y-82901000D01*
X67669557Y-82894481D01*
X67603373Y-82887963D01*
X67433534Y-82836443D01*
X67277009Y-82752778D01*
X67241271Y-82723448D01*
X67139814Y-82640186D01*
X67050956Y-82531911D01*
X67027222Y-82502991D01*
X66943557Y-82346466D01*
X66892037Y-82176627D01*
X66874641Y-82000000D01*
X66892037Y-81823373D01*
X66943557Y-81653534D01*
X67027222Y-81497009D01*
X67056552Y-81461271D01*
X67139814Y-81359814D01*
X67241271Y-81276552D01*
X67277009Y-81247222D01*
X67355272Y-81205389D01*
X67433532Y-81163558D01*
X67433534Y-81163557D01*
X67603373Y-81112037D01*
X67669557Y-81105519D01*
X67735740Y-81099000D01*
X67824260Y-81099000D01*
X67890443Y-81105519D01*
X67890443Y-81105519D01*
G37*
G36*
X65350443Y-81105519D02*
G01*
X65416627Y-81112037D01*
X65586466Y-81163557D01*
X65586468Y-81163558D01*
X65664728Y-81205389D01*
X65742991Y-81247222D01*
X65778729Y-81276552D01*
X65880186Y-81359814D01*
X65963448Y-81461271D01*
X65992778Y-81497009D01*
X66076443Y-81653534D01*
X66127963Y-81823373D01*
X66145359Y-82000000D01*
X66127963Y-82176627D01*
X66076443Y-82346466D01*
X65992778Y-82502991D01*
X65969044Y-82531911D01*
X65880186Y-82640186D01*
X65778729Y-82723448D01*
X65742991Y-82752778D01*
X65586466Y-82836443D01*
X65416627Y-82887963D01*
X65350443Y-82894481D01*
X65284260Y-82901000D01*
X65195740Y-82901000D01*
X65129557Y-82894481D01*
X65063373Y-82887963D01*
X64893534Y-82836443D01*
X64737009Y-82752778D01*
X64701271Y-82723448D01*
X64599814Y-82640186D01*
X64510956Y-82531911D01*
X64487222Y-82502991D01*
X64403557Y-82346466D01*
X64352037Y-82176627D01*
X64334641Y-82000000D01*
X64352037Y-81823373D01*
X64403557Y-81653534D01*
X64487222Y-81497009D01*
X64516552Y-81461271D01*
X64599814Y-81359814D01*
X64701271Y-81276552D01*
X64737009Y-81247222D01*
X64815272Y-81205389D01*
X64893532Y-81163558D01*
X64893534Y-81163557D01*
X65063373Y-81112037D01*
X65129557Y-81105519D01*
X65195740Y-81099000D01*
X65284260Y-81099000D01*
X65350443Y-81105519D01*
X65350443Y-81105519D01*
G37*
G36*
X72970443Y-81105519D02*
G01*
X73036627Y-81112037D01*
X73206466Y-81163557D01*
X73206468Y-81163558D01*
X73284728Y-81205389D01*
X73362991Y-81247222D01*
X73398729Y-81276552D01*
X73500186Y-81359814D01*
X73583448Y-81461271D01*
X73612778Y-81497009D01*
X73696443Y-81653534D01*
X73747963Y-81823373D01*
X73765359Y-82000000D01*
X73747963Y-82176627D01*
X73696443Y-82346466D01*
X73612778Y-82502991D01*
X73589044Y-82531911D01*
X73500186Y-82640186D01*
X73398729Y-82723448D01*
X73362991Y-82752778D01*
X73206466Y-82836443D01*
X73036627Y-82887963D01*
X72970443Y-82894481D01*
X72904260Y-82901000D01*
X72815740Y-82901000D01*
X72749557Y-82894481D01*
X72683373Y-82887963D01*
X72513534Y-82836443D01*
X72357009Y-82752778D01*
X72321271Y-82723448D01*
X72219814Y-82640186D01*
X72130956Y-82531911D01*
X72107222Y-82502991D01*
X72023557Y-82346466D01*
X71972037Y-82176627D01*
X71954641Y-82000000D01*
X71972037Y-81823373D01*
X72023557Y-81653534D01*
X72107222Y-81497009D01*
X72136552Y-81461271D01*
X72219814Y-81359814D01*
X72321271Y-81276552D01*
X72357009Y-81247222D01*
X72435272Y-81205389D01*
X72513532Y-81163558D01*
X72513534Y-81163557D01*
X72683373Y-81112037D01*
X72749557Y-81105519D01*
X72815740Y-81099000D01*
X72904260Y-81099000D01*
X72970443Y-81105519D01*
X72970443Y-81105519D01*
G37*
G36*
X76301000Y-82901000D02*
G01*
X74499000Y-82901000D01*
X74499000Y-81099000D01*
X76301000Y-81099000D01*
X76301000Y-82901000D01*
X76301000Y-82901000D01*
G37*
G36*
X70430443Y-81105519D02*
G01*
X70496627Y-81112037D01*
X70666466Y-81163557D01*
X70666468Y-81163558D01*
X70744728Y-81205389D01*
X70822991Y-81247222D01*
X70858729Y-81276552D01*
X70960186Y-81359814D01*
X71043448Y-81461271D01*
X71072778Y-81497009D01*
X71156443Y-81653534D01*
X71207963Y-81823373D01*
X71225359Y-82000000D01*
X71207963Y-82176627D01*
X71156443Y-82346466D01*
X71072778Y-82502991D01*
X71049044Y-82531911D01*
X70960186Y-82640186D01*
X70858729Y-82723448D01*
X70822991Y-82752778D01*
X70666466Y-82836443D01*
X70496627Y-82887963D01*
X70430443Y-82894481D01*
X70364260Y-82901000D01*
X70275740Y-82901000D01*
X70209557Y-82894481D01*
X70143373Y-82887963D01*
X69973534Y-82836443D01*
X69817009Y-82752778D01*
X69781271Y-82723448D01*
X69679814Y-82640186D01*
X69590956Y-82531911D01*
X69567222Y-82502991D01*
X69483557Y-82346466D01*
X69432037Y-82176627D01*
X69414641Y-82000000D01*
X69432037Y-81823373D01*
X69483557Y-81653534D01*
X69567222Y-81497009D01*
X69596552Y-81461271D01*
X69679814Y-81359814D01*
X69781271Y-81276552D01*
X69817009Y-81247222D01*
X69895272Y-81205389D01*
X69973532Y-81163558D01*
X69973534Y-81163557D01*
X70143373Y-81112037D01*
X70209557Y-81105519D01*
X70275740Y-81099000D01*
X70364260Y-81099000D01*
X70430443Y-81105519D01*
X70430443Y-81105519D01*
G37*
G36*
X64501000Y-78501000D02*
G01*
X62699000Y-78501000D01*
X62699000Y-76699000D01*
X64501000Y-76699000D01*
X64501000Y-78501000D01*
X64501000Y-78501000D01*
G37*
G36*
X61170443Y-76705519D02*
G01*
X61236627Y-76712037D01*
X61406466Y-76763557D01*
X61562991Y-76847222D01*
X61598729Y-76876552D01*
X61700186Y-76959814D01*
X61783448Y-77061271D01*
X61812778Y-77097009D01*
X61896443Y-77253534D01*
X61947963Y-77423373D01*
X61965359Y-77600000D01*
X61947963Y-77776627D01*
X61896443Y-77946466D01*
X61812778Y-78102991D01*
X61783448Y-78138729D01*
X61700186Y-78240186D01*
X61598729Y-78323448D01*
X61562991Y-78352778D01*
X61406466Y-78436443D01*
X61236627Y-78487963D01*
X61170442Y-78494482D01*
X61104260Y-78501000D01*
X61015740Y-78501000D01*
X60949558Y-78494482D01*
X60883373Y-78487963D01*
X60713534Y-78436443D01*
X60557009Y-78352778D01*
X60521271Y-78323448D01*
X60419814Y-78240186D01*
X60336552Y-78138729D01*
X60307222Y-78102991D01*
X60223557Y-77946466D01*
X60172037Y-77776627D01*
X60154641Y-77600000D01*
X60172037Y-77423373D01*
X60223557Y-77253534D01*
X60307222Y-77097009D01*
X60336552Y-77061271D01*
X60419814Y-76959814D01*
X60521271Y-76876552D01*
X60557009Y-76847222D01*
X60713534Y-76763557D01*
X60883373Y-76712037D01*
X60949557Y-76705519D01*
X61015740Y-76699000D01*
X61104260Y-76699000D01*
X61170443Y-76705519D01*
X61170443Y-76705519D01*
G37*
G36*
X116556564Y-71739389D02*
G01*
X116747833Y-71818615D01*
X116747835Y-71818616D01*
X116919973Y-71933635D01*
X117066365Y-72080027D01*
X117181385Y-72252167D01*
X117260611Y-72443436D01*
X117301000Y-72646484D01*
X117301000Y-72853516D01*
X117260611Y-73056564D01*
X117181385Y-73247833D01*
X117181384Y-73247835D01*
X117066365Y-73419973D01*
X116919973Y-73566365D01*
X116747835Y-73681384D01*
X116747834Y-73681385D01*
X116747833Y-73681385D01*
X116556564Y-73760611D01*
X116353516Y-73801000D01*
X116146484Y-73801000D01*
X115943436Y-73760611D01*
X115752167Y-73681385D01*
X115752166Y-73681385D01*
X115752165Y-73681384D01*
X115580027Y-73566365D01*
X115433635Y-73419973D01*
X115318616Y-73247835D01*
X115318615Y-73247833D01*
X115239389Y-73056564D01*
X115199000Y-72853516D01*
X115199000Y-72646484D01*
X115239389Y-72443436D01*
X115318615Y-72252167D01*
X115433635Y-72080027D01*
X115580027Y-71933635D01*
X115752165Y-71818616D01*
X115752167Y-71818615D01*
X115943436Y-71739389D01*
X116146484Y-71699000D01*
X116353516Y-71699000D01*
X116556564Y-71739389D01*
X116556564Y-71739389D01*
G37*
G36*
X109801000Y-73801000D02*
G01*
X107699000Y-73801000D01*
X107699000Y-71699000D01*
X109801000Y-71699000D01*
X109801000Y-73801000D01*
X109801000Y-73801000D01*
G37*
G36*
X109976600Y-66226600D02*
G01*
X107523400Y-66226600D01*
X107523400Y-63773400D01*
X109976600Y-63773400D01*
X109976600Y-66226600D01*
X109976600Y-66226600D01*
G37*
G36*
X104107785Y-63820537D02*
G01*
X104331011Y-63913000D01*
X104331013Y-63913001D01*
X104432144Y-63980575D01*
X104531911Y-64047237D01*
X104702763Y-64218089D01*
X104837000Y-64418989D01*
X104929463Y-64642215D01*
X104976600Y-64879189D01*
X104976600Y-65120811D01*
X104929463Y-65357785D01*
X104837000Y-65581011D01*
X104836999Y-65581013D01*
X104702762Y-65781912D01*
X104531912Y-65952762D01*
X104331013Y-66086999D01*
X104331012Y-66087000D01*
X104331011Y-66087000D01*
X104107785Y-66179463D01*
X103870811Y-66226600D01*
X103629189Y-66226600D01*
X103392215Y-66179463D01*
X103168989Y-66087000D01*
X103168988Y-66087000D01*
X103168987Y-66086999D01*
X102968088Y-65952762D01*
X102797238Y-65781912D01*
X102663001Y-65581013D01*
X102663000Y-65581011D01*
X102570537Y-65357785D01*
X102523400Y-65120811D01*
X102523400Y-64879189D01*
X102570537Y-64642215D01*
X102663000Y-64418989D01*
X102797237Y-64218089D01*
X102968089Y-64047237D01*
X103067856Y-63980575D01*
X103168987Y-63913001D01*
X103168989Y-63913000D01*
X103392215Y-63820537D01*
X103629189Y-63773400D01*
X103870811Y-63773400D01*
X104107785Y-63820537D01*
X104107785Y-63820537D01*
G37*
G36*
X117884239Y-55561467D02*
G01*
X118198282Y-55623934D01*
X118789926Y-55869001D01*
X119079523Y-56062504D01*
X119322391Y-56224783D01*
X119775217Y-56677609D01*
X119790388Y-56700314D01*
X120130999Y-57210074D01*
X120376066Y-57801718D01*
X120376066Y-57801719D01*
X120501000Y-58429803D01*
X120501000Y-59070197D01*
X120438533Y-59384239D01*
X120376066Y-59698282D01*
X120130999Y-60289926D01*
X119775216Y-60822392D01*
X119322392Y-61275216D01*
X118789926Y-61630999D01*
X118198282Y-61876066D01*
X117884239Y-61938533D01*
X117570197Y-62001000D01*
X116929803Y-62001000D01*
X116615761Y-61938533D01*
X116301718Y-61876066D01*
X115710074Y-61630999D01*
X115177608Y-61275216D01*
X114724784Y-60822392D01*
X114369001Y-60289926D01*
X114123934Y-59698282D01*
X114061467Y-59384239D01*
X113999000Y-59070197D01*
X113999000Y-58429803D01*
X114123934Y-57801719D01*
X114123934Y-57801718D01*
X114369001Y-57210074D01*
X114709612Y-56700314D01*
X114724783Y-56677609D01*
X115177609Y-56224783D01*
X115420477Y-56062504D01*
X115710074Y-55869001D01*
X116301718Y-55623934D01*
X116615761Y-55561467D01*
X116929803Y-55499000D01*
X117570197Y-55499000D01*
X117884239Y-55561467D01*
X117884239Y-55561467D01*
G37*
G36*
X60384239Y-55561467D02*
G01*
X60698282Y-55623934D01*
X61289926Y-55869001D01*
X61579523Y-56062504D01*
X61822391Y-56224783D01*
X62275217Y-56677609D01*
X62290388Y-56700314D01*
X62630999Y-57210074D01*
X62876066Y-57801718D01*
X62876066Y-57801719D01*
X63001000Y-58429803D01*
X63001000Y-59070197D01*
X62938533Y-59384239D01*
X62876066Y-59698282D01*
X62630999Y-60289926D01*
X62275216Y-60822392D01*
X61822392Y-61275216D01*
X61289926Y-61630999D01*
X60698282Y-61876066D01*
X60384239Y-61938533D01*
X60070197Y-62001000D01*
X59429803Y-62001000D01*
X59115761Y-61938533D01*
X58801718Y-61876066D01*
X58210074Y-61630999D01*
X57677608Y-61275216D01*
X57224784Y-60822392D01*
X56869001Y-60289926D01*
X56623934Y-59698282D01*
X56561467Y-59384239D01*
X56499000Y-59070197D01*
X56499000Y-58429803D01*
X56623934Y-57801719D01*
X56623934Y-57801718D01*
X56869001Y-57210074D01*
X57209612Y-56700314D01*
X57224783Y-56677609D01*
X57677609Y-56224783D01*
X57920477Y-56062504D01*
X58210074Y-55869001D01*
X58801718Y-55623934D01*
X59115761Y-55561467D01*
X59429803Y-55499000D01*
X60070197Y-55499000D01*
X60384239Y-55561467D01*
X60384239Y-55561467D01*
G37*
G36*
X75226348Y-59466320D02*
G01*
X75226350Y-59466321D01*
X75226351Y-59466321D01*
X75367574Y-59524817D01*
X75367577Y-59524819D01*
X75494669Y-59609739D01*
X75602761Y-59717831D01*
X75687681Y-59844923D01*
X75687683Y-59844926D01*
X75746179Y-59986149D01*
X75746180Y-59986152D01*
X75768177Y-60096742D01*
X75776000Y-60136071D01*
X75776000Y-60288929D01*
X75746179Y-60438851D01*
X75687683Y-60580074D01*
X75687681Y-60580077D01*
X75602761Y-60707169D01*
X75494669Y-60815261D01*
X75370757Y-60898056D01*
X75367574Y-60900183D01*
X75226351Y-60958679D01*
X75226350Y-60958679D01*
X75226348Y-60958680D01*
X75076431Y-60988500D01*
X74923569Y-60988500D01*
X74773652Y-60958680D01*
X74773650Y-60958679D01*
X74773649Y-60958679D01*
X74632426Y-60900183D01*
X74629243Y-60898056D01*
X74505331Y-60815261D01*
X74397239Y-60707169D01*
X74312319Y-60580077D01*
X74312317Y-60580074D01*
X74253821Y-60438851D01*
X74224000Y-60288929D01*
X74224000Y-60136071D01*
X74231823Y-60096742D01*
X74253820Y-59986152D01*
X74253821Y-59986149D01*
X74312317Y-59844926D01*
X74312319Y-59844923D01*
X74397239Y-59717831D01*
X74505331Y-59609739D01*
X74632423Y-59524819D01*
X74632426Y-59524817D01*
X74773649Y-59466321D01*
X74773650Y-59466321D01*
X74773652Y-59466320D01*
X74923569Y-59436500D01*
X75076431Y-59436500D01*
X75226348Y-59466320D01*
X75226348Y-59466320D01*
G37*
G36*
X70226348Y-59466320D02*
G01*
X70226350Y-59466321D01*
X70226351Y-59466321D01*
X70367574Y-59524817D01*
X70367577Y-59524819D01*
X70494669Y-59609739D01*
X70602761Y-59717831D01*
X70687681Y-59844923D01*
X70687683Y-59844926D01*
X70746179Y-59986149D01*
X70746180Y-59986152D01*
X70768177Y-60096742D01*
X70776000Y-60136071D01*
X70776000Y-60288929D01*
X70746179Y-60438851D01*
X70687683Y-60580074D01*
X70687681Y-60580077D01*
X70602761Y-60707169D01*
X70494669Y-60815261D01*
X70370757Y-60898056D01*
X70367574Y-60900183D01*
X70226351Y-60958679D01*
X70226350Y-60958679D01*
X70226348Y-60958680D01*
X70076431Y-60988500D01*
X69923569Y-60988500D01*
X69773652Y-60958680D01*
X69773650Y-60958679D01*
X69773649Y-60958679D01*
X69632426Y-60900183D01*
X69629243Y-60898056D01*
X69505331Y-60815261D01*
X69397239Y-60707169D01*
X69312319Y-60580077D01*
X69312317Y-60580074D01*
X69253821Y-60438851D01*
X69224000Y-60288929D01*
X69224000Y-60136071D01*
X69231823Y-60096742D01*
X69253820Y-59986152D01*
X69253821Y-59986149D01*
X69312317Y-59844926D01*
X69312319Y-59844923D01*
X69397239Y-59717831D01*
X69505331Y-59609739D01*
X69632423Y-59524819D01*
X69632426Y-59524817D01*
X69773649Y-59466321D01*
X69773650Y-59466321D01*
X69773652Y-59466320D01*
X69923569Y-59436500D01*
X70076431Y-59436500D01*
X70226348Y-59466320D01*
X70226348Y-59466320D01*
G37*
G36*
X76127617Y-56520920D02*
G01*
X76218403Y-56548460D01*
X76250335Y-56558146D01*
X76363424Y-56618594D01*
X76462554Y-56699947D01*
X76543906Y-56799075D01*
X76604354Y-56912164D01*
X76607153Y-56921392D01*
X76641580Y-57034882D01*
X76651000Y-57130527D01*
X76651000Y-57894473D01*
X76641580Y-57990118D01*
X76614040Y-58080904D01*
X76604354Y-58112836D01*
X76543906Y-58225925D01*
X76462554Y-58325054D01*
X76363425Y-58406406D01*
X76250336Y-58466854D01*
X76218404Y-58476540D01*
X76127618Y-58504080D01*
X76000000Y-58516649D01*
X75872383Y-58504080D01*
X75781597Y-58476540D01*
X75749665Y-58466854D01*
X75636576Y-58406406D01*
X75537447Y-58325054D01*
X75456095Y-58225925D01*
X75395648Y-58112837D01*
X75395645Y-58112832D01*
X75358420Y-57990118D01*
X75349000Y-57894473D01*
X75349000Y-57130528D01*
X75358420Y-57034883D01*
X75395645Y-56912169D01*
X75395646Y-56912165D01*
X75456094Y-56799076D01*
X75537447Y-56699946D01*
X75636575Y-56618594D01*
X75749664Y-56558146D01*
X75781596Y-56548460D01*
X75872382Y-56520920D01*
X76000000Y-56508351D01*
X76127617Y-56520920D01*
X76127617Y-56520920D01*
G37*
G36*
X69127618Y-56520920D02*
G01*
X69218404Y-56548460D01*
X69250336Y-56558146D01*
X69363425Y-56618594D01*
X69462554Y-56699946D01*
X69543906Y-56799075D01*
X69604354Y-56912164D01*
X69607153Y-56921392D01*
X69641580Y-57034882D01*
X69651000Y-57130527D01*
X69651000Y-57894473D01*
X69641580Y-57990118D01*
X69614040Y-58080904D01*
X69604354Y-58112836D01*
X69543906Y-58225925D01*
X69462554Y-58325053D01*
X69363424Y-58406406D01*
X69250335Y-58466854D01*
X69218403Y-58476540D01*
X69127617Y-58504080D01*
X69000000Y-58516649D01*
X68872382Y-58504080D01*
X68781596Y-58476540D01*
X68749664Y-58466854D01*
X68636575Y-58406406D01*
X68537447Y-58325054D01*
X68456094Y-58225924D01*
X68395646Y-58112835D01*
X68385960Y-58080903D01*
X68358420Y-57990117D01*
X68349000Y-57894472D01*
X68349000Y-57130527D01*
X68358420Y-57034882D01*
X68395645Y-56912168D01*
X68434586Y-56839315D01*
X68456095Y-56799075D01*
X68537447Y-56699946D01*
X68636576Y-56618594D01*
X68749665Y-56558146D01*
X68781597Y-56548460D01*
X68872383Y-56520920D01*
X69000000Y-56508351D01*
X69127618Y-56520920D01*
X69127618Y-56520920D01*
G37*
M02*
