G04 #@! TF.GenerationSoftware,KiCad,Pcbnew,5.1.4-e60b266~84~ubuntu18.04.1*
G04 #@! TF.CreationDate,2020-01-24T11:28:00-03:00*
G04 #@! TF.ProjectId,tecsci_dip,74656373-6369-45f6-9469-702e6b696361,v1.3*
G04 #@! TF.SameCoordinates,Original*
G04 #@! TF.FileFunction,Drawing*
%FSLAX46Y46*%
G04 Gerber Fmt 4.6, Leading zero omitted, Abs format (unit mm)*
G04 Created by KiCad (PCBNEW 5.1.4-e60b266~84~ubuntu18.04.1) date 2020-01-24 11:28:00*
%MOMM*%
%LPD*%
G04 APERTURE LIST*
%ADD10C,0.150000*%
%ADD11C,0.100000*%
%ADD12C,0.080000*%
G04 APERTURE END LIST*
D10*
X127597619Y-81333333D02*
X127597619Y-81142857D01*
X127550000Y-81047619D01*
X127502380Y-81000000D01*
X127359523Y-80904761D01*
X127169047Y-80857142D01*
X126788095Y-80857142D01*
X126692857Y-80904761D01*
X126645238Y-80952380D01*
X126597619Y-81047619D01*
X126597619Y-81238095D01*
X126645238Y-81333333D01*
X126692857Y-81380952D01*
X126788095Y-81428571D01*
X127026190Y-81428571D01*
X127121428Y-81380952D01*
X127169047Y-81333333D01*
X127216666Y-81238095D01*
X127216666Y-81047619D01*
X127169047Y-80952380D01*
X127121428Y-80904761D01*
X127026190Y-80857142D01*
X127597619Y-82047619D02*
X127597619Y-82142857D01*
X127550000Y-82238095D01*
X127502380Y-82285714D01*
X127407142Y-82333333D01*
X127216666Y-82380952D01*
X126978571Y-82380952D01*
X126788095Y-82333333D01*
X126692857Y-82285714D01*
X126645238Y-82238095D01*
X126597619Y-82142857D01*
X126597619Y-82047619D01*
X126645238Y-81952380D01*
X126692857Y-81904761D01*
X126788095Y-81857142D01*
X126978571Y-81809523D01*
X127216666Y-81809523D01*
X127407142Y-81857142D01*
X127502380Y-81904761D01*
X127550000Y-81952380D01*
X127597619Y-82047619D01*
X126645238Y-82857142D02*
X126597619Y-82857142D01*
X126502380Y-82809523D01*
X126454761Y-82761904D01*
X127597619Y-83476190D02*
X127597619Y-83571428D01*
X127550000Y-83666666D01*
X127502380Y-83714285D01*
X127407142Y-83761904D01*
X127216666Y-83809523D01*
X126978571Y-83809523D01*
X126788095Y-83761904D01*
X126692857Y-83714285D01*
X126645238Y-83666666D01*
X126597619Y-83571428D01*
X126597619Y-83476190D01*
X126645238Y-83380952D01*
X126692857Y-83333333D01*
X126788095Y-83285714D01*
X126978571Y-83238095D01*
X127216666Y-83238095D01*
X127407142Y-83285714D01*
X127502380Y-83333333D01*
X127550000Y-83380952D01*
X127597619Y-83476190D01*
X127597619Y-84428571D02*
X127597619Y-84523809D01*
X127550000Y-84619047D01*
X127502380Y-84666666D01*
X127407142Y-84714285D01*
X127216666Y-84761904D01*
X126978571Y-84761904D01*
X126788095Y-84714285D01*
X126692857Y-84666666D01*
X126645238Y-84619047D01*
X126597619Y-84523809D01*
X126597619Y-84428571D01*
X126645238Y-84333333D01*
X126692857Y-84285714D01*
X126788095Y-84238095D01*
X126978571Y-84190476D01*
X127216666Y-84190476D01*
X127407142Y-84238095D01*
X127502380Y-84285714D01*
X127550000Y-84333333D01*
X127597619Y-84428571D01*
X127597619Y-85380952D02*
X127597619Y-85476190D01*
X127550000Y-85571428D01*
X127502380Y-85619047D01*
X127407142Y-85666666D01*
X127216666Y-85714285D01*
X126978571Y-85714285D01*
X126788095Y-85666666D01*
X126692857Y-85619047D01*
X126645238Y-85571428D01*
X126597619Y-85476190D01*
X126597619Y-85380952D01*
X126645238Y-85285714D01*
X126692857Y-85238095D01*
X126788095Y-85190476D01*
X126978571Y-85142857D01*
X127216666Y-85142857D01*
X127407142Y-85190476D01*
X127502380Y-85238095D01*
X127550000Y-85285714D01*
X127597619Y-85380952D01*
X126597619Y-86904761D02*
X127264285Y-86904761D01*
X127169047Y-86904761D02*
X127216666Y-86952380D01*
X127264285Y-87047619D01*
X127264285Y-87190476D01*
X127216666Y-87285714D01*
X127121428Y-87333333D01*
X126597619Y-87333333D01*
X127121428Y-87333333D02*
X127216666Y-87380952D01*
X127264285Y-87476190D01*
X127264285Y-87619047D01*
X127216666Y-87714285D01*
X127121428Y-87761904D01*
X126597619Y-87761904D01*
X126597619Y-88238095D02*
X127264285Y-88238095D01*
X127169047Y-88238095D02*
X127216666Y-88285714D01*
X127264285Y-88380952D01*
X127264285Y-88523809D01*
X127216666Y-88619047D01*
X127121428Y-88666666D01*
X126597619Y-88666666D01*
X127121428Y-88666666D02*
X127216666Y-88714285D01*
X127264285Y-88809523D01*
X127264285Y-88952380D01*
X127216666Y-89047619D01*
X127121428Y-89095238D01*
X126597619Y-89095238D01*
X125750000Y-55000000D02*
X125750000Y-115000000D01*
X121000000Y-55000000D02*
X126336421Y-55000000D01*
X121000000Y-115000000D02*
X126336421Y-115000000D01*
X125750000Y-115000000D02*
X125163579Y-113873496D01*
X125750000Y-115000000D02*
X126336421Y-113873496D01*
X125750000Y-55000000D02*
X125163579Y-56126504D01*
X125750000Y-55000000D02*
X126336421Y-56126504D01*
X84833333Y-47402380D02*
X84642857Y-47402380D01*
X84547619Y-47450000D01*
X84500000Y-47497619D01*
X84404761Y-47640476D01*
X84357142Y-47830952D01*
X84357142Y-48211904D01*
X84404761Y-48307142D01*
X84452380Y-48354761D01*
X84547619Y-48402380D01*
X84738095Y-48402380D01*
X84833333Y-48354761D01*
X84880952Y-48307142D01*
X84928571Y-48211904D01*
X84928571Y-47973809D01*
X84880952Y-47878571D01*
X84833333Y-47830952D01*
X84738095Y-47783333D01*
X84547619Y-47783333D01*
X84452380Y-47830952D01*
X84404761Y-47878571D01*
X84357142Y-47973809D01*
X85833333Y-47402380D02*
X85357142Y-47402380D01*
X85309523Y-47878571D01*
X85357142Y-47830952D01*
X85452380Y-47783333D01*
X85690476Y-47783333D01*
X85785714Y-47830952D01*
X85833333Y-47878571D01*
X85880952Y-47973809D01*
X85880952Y-48211904D01*
X85833333Y-48307142D01*
X85785714Y-48354761D01*
X85690476Y-48402380D01*
X85452380Y-48402380D01*
X85357142Y-48354761D01*
X85309523Y-48307142D01*
X86357142Y-48354761D02*
X86357142Y-48402380D01*
X86309523Y-48497619D01*
X86261904Y-48545238D01*
X86976190Y-47402380D02*
X87071428Y-47402380D01*
X87166666Y-47450000D01*
X87214285Y-47497619D01*
X87261904Y-47592857D01*
X87309523Y-47783333D01*
X87309523Y-48021428D01*
X87261904Y-48211904D01*
X87214285Y-48307142D01*
X87166666Y-48354761D01*
X87071428Y-48402380D01*
X86976190Y-48402380D01*
X86880952Y-48354761D01*
X86833333Y-48307142D01*
X86785714Y-48211904D01*
X86738095Y-48021428D01*
X86738095Y-47783333D01*
X86785714Y-47592857D01*
X86833333Y-47497619D01*
X86880952Y-47450000D01*
X86976190Y-47402380D01*
X87928571Y-47402380D02*
X88023809Y-47402380D01*
X88119047Y-47450000D01*
X88166666Y-47497619D01*
X88214285Y-47592857D01*
X88261904Y-47783333D01*
X88261904Y-48021428D01*
X88214285Y-48211904D01*
X88166666Y-48307142D01*
X88119047Y-48354761D01*
X88023809Y-48402380D01*
X87928571Y-48402380D01*
X87833333Y-48354761D01*
X87785714Y-48307142D01*
X87738095Y-48211904D01*
X87690476Y-48021428D01*
X87690476Y-47783333D01*
X87738095Y-47592857D01*
X87785714Y-47497619D01*
X87833333Y-47450000D01*
X87928571Y-47402380D01*
X88880952Y-47402380D02*
X88976190Y-47402380D01*
X89071428Y-47450000D01*
X89119047Y-47497619D01*
X89166666Y-47592857D01*
X89214285Y-47783333D01*
X89214285Y-48021428D01*
X89166666Y-48211904D01*
X89119047Y-48307142D01*
X89071428Y-48354761D01*
X88976190Y-48402380D01*
X88880952Y-48402380D01*
X88785714Y-48354761D01*
X88738095Y-48307142D01*
X88690476Y-48211904D01*
X88642857Y-48021428D01*
X88642857Y-47783333D01*
X88690476Y-47592857D01*
X88738095Y-47497619D01*
X88785714Y-47450000D01*
X88880952Y-47402380D01*
X90404761Y-48402380D02*
X90404761Y-47735714D01*
X90404761Y-47830952D02*
X90452380Y-47783333D01*
X90547619Y-47735714D01*
X90690476Y-47735714D01*
X90785714Y-47783333D01*
X90833333Y-47878571D01*
X90833333Y-48402380D01*
X90833333Y-47878571D02*
X90880952Y-47783333D01*
X90976190Y-47735714D01*
X91119047Y-47735714D01*
X91214285Y-47783333D01*
X91261904Y-47878571D01*
X91261904Y-48402380D01*
X91738095Y-48402380D02*
X91738095Y-47735714D01*
X91738095Y-47830952D02*
X91785714Y-47783333D01*
X91880952Y-47735714D01*
X92023809Y-47735714D01*
X92119047Y-47783333D01*
X92166666Y-47878571D01*
X92166666Y-48402380D01*
X92166666Y-47878571D02*
X92214285Y-47783333D01*
X92309523Y-47735714D01*
X92452380Y-47735714D01*
X92547619Y-47783333D01*
X92595238Y-47878571D01*
X92595238Y-48402380D01*
X121000000Y-49250000D02*
X56000000Y-49250000D01*
X121000000Y-55000000D02*
X121000000Y-48663579D01*
X56000000Y-55000000D02*
X56000000Y-48663579D01*
X56000000Y-49250000D02*
X57126504Y-48663579D01*
X56000000Y-49250000D02*
X57126504Y-49836421D01*
X121000000Y-49250000D02*
X119873496Y-48663579D01*
X121000000Y-49250000D02*
X119873496Y-49836421D01*
D11*
X54415000Y-81500000D02*
X56030000Y-83500000D01*
X52800000Y-81500000D02*
X56030000Y-85500000D01*
X51185000Y-81500000D02*
X56030000Y-87500000D01*
X49570000Y-81500000D02*
X56030000Y-89500000D01*
X47955000Y-81500000D02*
X56030000Y-91500000D01*
X46340000Y-81500000D02*
X56030000Y-93500000D01*
X45250000Y-82025000D02*
X56030000Y-95500000D01*
X45250000Y-84025000D02*
X56030000Y-97500000D01*
X45250000Y-86025000D02*
X56030000Y-99500000D01*
X45250000Y-88025000D02*
X56030000Y-101500000D01*
X56030000Y-103500000D02*
X45250000Y-90025000D01*
X45250000Y-92025000D02*
X56030000Y-105500000D01*
X45250000Y-94025000D02*
X56030000Y-107500000D01*
X45250000Y-96025000D02*
X56030000Y-109500000D01*
X45250000Y-98025000D02*
X54415000Y-109500000D01*
X45250000Y-100025000D02*
X52800000Y-109500000D01*
X45250000Y-102025000D02*
X51185000Y-109500000D01*
X45250000Y-104025000D02*
X49570000Y-109500000D01*
X45250000Y-106025000D02*
X47955000Y-109500000D01*
X45250000Y-108025000D02*
X46340000Y-109500000D01*
X45250000Y-81500000D02*
X45250000Y-109500000D01*
X56030000Y-81500000D02*
X45250000Y-81500000D01*
X56030000Y-81500000D02*
X56030000Y-109500000D01*
X56030000Y-109500000D02*
X45250000Y-109500000D01*
D12*
X70785714Y-56288690D02*
X70785714Y-55788690D01*
X70976190Y-55788690D01*
X71023809Y-55812500D01*
X71047619Y-55836309D01*
X71071428Y-55883928D01*
X71071428Y-55955357D01*
X71047619Y-56002976D01*
X71023809Y-56026785D01*
X70976190Y-56050595D01*
X70785714Y-56050595D01*
X71571428Y-56241071D02*
X71547619Y-56264880D01*
X71476190Y-56288690D01*
X71428571Y-56288690D01*
X71357142Y-56264880D01*
X71309523Y-56217261D01*
X71285714Y-56169642D01*
X71261904Y-56074404D01*
X71261904Y-56002976D01*
X71285714Y-55907738D01*
X71309523Y-55860119D01*
X71357142Y-55812500D01*
X71428571Y-55788690D01*
X71476190Y-55788690D01*
X71547619Y-55812500D01*
X71571428Y-55836309D01*
X71952380Y-56026785D02*
X72023809Y-56050595D01*
X72047619Y-56074404D01*
X72071428Y-56122023D01*
X72071428Y-56193452D01*
X72047619Y-56241071D01*
X72023809Y-56264880D01*
X71976190Y-56288690D01*
X71785714Y-56288690D01*
X71785714Y-55788690D01*
X71952380Y-55788690D01*
X72000000Y-55812500D01*
X72023809Y-55836309D01*
X72047619Y-55883928D01*
X72047619Y-55931547D01*
X72023809Y-55979166D01*
X72000000Y-56002976D01*
X71952380Y-56026785D01*
X71785714Y-56026785D01*
X72666666Y-56026785D02*
X72833333Y-56026785D01*
X72904761Y-56288690D02*
X72666666Y-56288690D01*
X72666666Y-55788690D01*
X72904761Y-55788690D01*
X73333333Y-56288690D02*
X73333333Y-55788690D01*
X73333333Y-56264880D02*
X73285714Y-56288690D01*
X73190476Y-56288690D01*
X73142857Y-56264880D01*
X73119047Y-56241071D01*
X73095238Y-56193452D01*
X73095238Y-56050595D01*
X73119047Y-56002976D01*
X73142857Y-55979166D01*
X73190476Y-55955357D01*
X73285714Y-55955357D01*
X73333333Y-55979166D01*
X73785714Y-55955357D02*
X73785714Y-56360119D01*
X73761904Y-56407738D01*
X73738095Y-56431547D01*
X73690476Y-56455357D01*
X73619047Y-56455357D01*
X73571428Y-56431547D01*
X73785714Y-56264880D02*
X73738095Y-56288690D01*
X73642857Y-56288690D01*
X73595238Y-56264880D01*
X73571428Y-56241071D01*
X73547619Y-56193452D01*
X73547619Y-56050595D01*
X73571428Y-56002976D01*
X73595238Y-55979166D01*
X73642857Y-55955357D01*
X73738095Y-55955357D01*
X73785714Y-55979166D01*
X74214285Y-56264880D02*
X74166666Y-56288690D01*
X74071428Y-56288690D01*
X74023809Y-56264880D01*
X74000000Y-56217261D01*
X74000000Y-56026785D01*
X74023809Y-55979166D01*
X74071428Y-55955357D01*
X74166666Y-55955357D01*
X74214285Y-55979166D01*
X74238095Y-56026785D01*
X74238095Y-56074404D01*
X74000000Y-56122023D01*
M02*
