G04 #@! TF.GenerationSoftware,KiCad,Pcbnew,5.1.4-e60b266~84~ubuntu18.04.1*
G04 #@! TF.CreationDate,2020-01-21T10:37:06-03:00*
G04 #@! TF.ProjectId,tecsci_dip,74656373-6369-45f6-9469-702e6b696361,v1.3*
G04 #@! TF.SameCoordinates,Original*
G04 #@! TF.FileFunction,Soldermask,Top*
G04 #@! TF.FilePolarity,Negative*
%FSLAX46Y46*%
G04 Gerber Fmt 4.6, Leading zero omitted, Abs format (unit mm)*
G04 Created by KiCad (PCBNEW 5.1.4-e60b266~84~ubuntu18.04.1) date 2020-01-21 10:37:06*
%MOMM*%
%LPD*%
G04 APERTURE LIST*
%ADD10C,0.100000*%
G04 APERTURE END LIST*
D10*
G36*
X117884239Y-108061467D02*
G01*
X118198282Y-108123934D01*
X118789926Y-108369001D01*
X119322392Y-108724784D01*
X119775216Y-109177608D01*
X120130999Y-109710074D01*
X120376066Y-110301718D01*
X120376066Y-110301719D01*
X120501000Y-110929803D01*
X120501000Y-111570197D01*
X120446075Y-111846322D01*
X120376066Y-112198282D01*
X120130999Y-112789926D01*
X119883265Y-113160685D01*
X119776815Y-113320000D01*
X119775216Y-113322392D01*
X119322392Y-113775216D01*
X118789926Y-114130999D01*
X118198282Y-114376066D01*
X117884239Y-114438533D01*
X117570197Y-114501000D01*
X116929803Y-114501000D01*
X116615761Y-114438533D01*
X116301718Y-114376066D01*
X115710074Y-114130999D01*
X115177608Y-113775216D01*
X114724784Y-113322392D01*
X114723186Y-113320000D01*
X114616735Y-113160685D01*
X114369001Y-112789926D01*
X114123934Y-112198282D01*
X114053925Y-111846322D01*
X113999000Y-111570197D01*
X113999000Y-110929803D01*
X114123934Y-110301719D01*
X114123934Y-110301718D01*
X114369001Y-109710074D01*
X114724784Y-109177608D01*
X115177608Y-108724784D01*
X115710074Y-108369001D01*
X116301718Y-108123934D01*
X116615761Y-108061467D01*
X116929803Y-107999000D01*
X117570197Y-107999000D01*
X117884239Y-108061467D01*
X117884239Y-108061467D01*
G37*
G36*
X60384239Y-108061467D02*
G01*
X60698282Y-108123934D01*
X61289926Y-108369001D01*
X61822392Y-108724784D01*
X62275216Y-109177608D01*
X62630999Y-109710074D01*
X62876066Y-110301718D01*
X62876066Y-110301719D01*
X63001000Y-110929803D01*
X63001000Y-111570197D01*
X62946075Y-111846322D01*
X62876066Y-112198282D01*
X62630999Y-112789926D01*
X62383265Y-113160685D01*
X62276815Y-113320000D01*
X62275216Y-113322392D01*
X61822392Y-113775216D01*
X61289926Y-114130999D01*
X60698282Y-114376066D01*
X60384239Y-114438533D01*
X60070197Y-114501000D01*
X59429803Y-114501000D01*
X59115761Y-114438533D01*
X58801718Y-114376066D01*
X58210074Y-114130999D01*
X57677608Y-113775216D01*
X57224784Y-113322392D01*
X57223186Y-113320000D01*
X57116735Y-113160685D01*
X56869001Y-112789926D01*
X56623934Y-112198282D01*
X56553925Y-111846322D01*
X56499000Y-111570197D01*
X56499000Y-110929803D01*
X56623934Y-110301719D01*
X56623934Y-110301718D01*
X56869001Y-109710074D01*
X57224784Y-109177608D01*
X57677608Y-108724784D01*
X58210074Y-108369001D01*
X58801718Y-108123934D01*
X59115761Y-108061467D01*
X59429803Y-107999000D01*
X60070197Y-107999000D01*
X60384239Y-108061467D01*
X60384239Y-108061467D01*
G37*
G36*
X72297290Y-111345619D02*
G01*
X72361689Y-111358429D01*
X72543678Y-111433811D01*
X72707463Y-111543249D01*
X72846751Y-111682537D01*
X72956189Y-111846322D01*
X73031571Y-112028311D01*
X73070000Y-112221509D01*
X73070000Y-112418491D01*
X73031571Y-112611689D01*
X72956189Y-112793678D01*
X72846751Y-112957463D01*
X72707463Y-113096751D01*
X72543678Y-113206189D01*
X72361689Y-113281571D01*
X72297290Y-113294381D01*
X72168493Y-113320000D01*
X71971507Y-113320000D01*
X71842710Y-113294381D01*
X71778311Y-113281571D01*
X71596322Y-113206189D01*
X71432537Y-113096751D01*
X71293249Y-112957463D01*
X71183811Y-112793678D01*
X71108429Y-112611689D01*
X71070000Y-112418491D01*
X71070000Y-112221509D01*
X71108429Y-112028311D01*
X71183811Y-111846322D01*
X71293249Y-111682537D01*
X71432537Y-111543249D01*
X71596322Y-111433811D01*
X71778311Y-111358429D01*
X71842710Y-111345619D01*
X71971507Y-111320000D01*
X72168493Y-111320000D01*
X72297290Y-111345619D01*
X72297290Y-111345619D01*
G37*
G36*
X78901000Y-109901000D02*
G01*
X77099000Y-109901000D01*
X77099000Y-108099000D01*
X78901000Y-108099000D01*
X78901000Y-109901000D01*
X78901000Y-109901000D01*
G37*
G36*
X65410442Y-108105518D02*
G01*
X65476627Y-108112037D01*
X65646466Y-108163557D01*
X65802991Y-108247222D01*
X65838729Y-108276552D01*
X65940186Y-108359814D01*
X66023448Y-108461271D01*
X66052778Y-108497009D01*
X66136443Y-108653534D01*
X66187963Y-108823373D01*
X66205359Y-109000000D01*
X66187963Y-109176627D01*
X66136443Y-109346466D01*
X66052778Y-109502991D01*
X66048237Y-109508524D01*
X65940186Y-109640186D01*
X65838729Y-109723448D01*
X65802991Y-109752778D01*
X65646466Y-109836443D01*
X65476627Y-109887963D01*
X65410443Y-109894481D01*
X65344260Y-109901000D01*
X65255740Y-109901000D01*
X65189557Y-109894481D01*
X65123373Y-109887963D01*
X64953534Y-109836443D01*
X64797009Y-109752778D01*
X64761271Y-109723448D01*
X64659814Y-109640186D01*
X64551763Y-109508524D01*
X64547222Y-109502991D01*
X64463557Y-109346466D01*
X64412037Y-109176627D01*
X64394641Y-109000000D01*
X64412037Y-108823373D01*
X64463557Y-108653534D01*
X64547222Y-108497009D01*
X64576552Y-108461271D01*
X64659814Y-108359814D01*
X64761271Y-108276552D01*
X64797009Y-108247222D01*
X64953534Y-108163557D01*
X65123373Y-108112037D01*
X65189558Y-108105518D01*
X65255740Y-108099000D01*
X65344260Y-108099000D01*
X65410442Y-108105518D01*
X65410442Y-108105518D01*
G37*
G36*
X67950442Y-108105518D02*
G01*
X68016627Y-108112037D01*
X68186466Y-108163557D01*
X68342991Y-108247222D01*
X68378729Y-108276552D01*
X68480186Y-108359814D01*
X68563448Y-108461271D01*
X68592778Y-108497009D01*
X68676443Y-108653534D01*
X68727963Y-108823373D01*
X68745359Y-109000000D01*
X68727963Y-109176627D01*
X68676443Y-109346466D01*
X68592778Y-109502991D01*
X68588237Y-109508524D01*
X68480186Y-109640186D01*
X68378729Y-109723448D01*
X68342991Y-109752778D01*
X68186466Y-109836443D01*
X68016627Y-109887963D01*
X67950443Y-109894481D01*
X67884260Y-109901000D01*
X67795740Y-109901000D01*
X67729557Y-109894481D01*
X67663373Y-109887963D01*
X67493534Y-109836443D01*
X67337009Y-109752778D01*
X67301271Y-109723448D01*
X67199814Y-109640186D01*
X67091763Y-109508524D01*
X67087222Y-109502991D01*
X67003557Y-109346466D01*
X66952037Y-109176627D01*
X66934641Y-109000000D01*
X66952037Y-108823373D01*
X67003557Y-108653534D01*
X67087222Y-108497009D01*
X67116552Y-108461271D01*
X67199814Y-108359814D01*
X67301271Y-108276552D01*
X67337009Y-108247222D01*
X67493534Y-108163557D01*
X67663373Y-108112037D01*
X67729558Y-108105518D01*
X67795740Y-108099000D01*
X67884260Y-108099000D01*
X67950442Y-108105518D01*
X67950442Y-108105518D01*
G37*
G36*
X73030442Y-108105518D02*
G01*
X73096627Y-108112037D01*
X73266466Y-108163557D01*
X73422991Y-108247222D01*
X73458729Y-108276552D01*
X73560186Y-108359814D01*
X73643448Y-108461271D01*
X73672778Y-108497009D01*
X73756443Y-108653534D01*
X73807963Y-108823373D01*
X73825359Y-109000000D01*
X73807963Y-109176627D01*
X73756443Y-109346466D01*
X73672778Y-109502991D01*
X73668237Y-109508524D01*
X73560186Y-109640186D01*
X73458729Y-109723448D01*
X73422991Y-109752778D01*
X73266466Y-109836443D01*
X73096627Y-109887963D01*
X73030443Y-109894481D01*
X72964260Y-109901000D01*
X72875740Y-109901000D01*
X72809557Y-109894481D01*
X72743373Y-109887963D01*
X72573534Y-109836443D01*
X72417009Y-109752778D01*
X72381271Y-109723448D01*
X72279814Y-109640186D01*
X72171763Y-109508524D01*
X72167222Y-109502991D01*
X72083557Y-109346466D01*
X72032037Y-109176627D01*
X72014641Y-109000000D01*
X72032037Y-108823373D01*
X72083557Y-108653534D01*
X72167222Y-108497009D01*
X72196552Y-108461271D01*
X72279814Y-108359814D01*
X72381271Y-108276552D01*
X72417009Y-108247222D01*
X72573534Y-108163557D01*
X72743373Y-108112037D01*
X72809558Y-108105518D01*
X72875740Y-108099000D01*
X72964260Y-108099000D01*
X73030442Y-108105518D01*
X73030442Y-108105518D01*
G37*
G36*
X75570442Y-108105518D02*
G01*
X75636627Y-108112037D01*
X75806466Y-108163557D01*
X75962991Y-108247222D01*
X75998729Y-108276552D01*
X76100186Y-108359814D01*
X76183448Y-108461271D01*
X76212778Y-108497009D01*
X76296443Y-108653534D01*
X76347963Y-108823373D01*
X76365359Y-109000000D01*
X76347963Y-109176627D01*
X76296443Y-109346466D01*
X76212778Y-109502991D01*
X76208237Y-109508524D01*
X76100186Y-109640186D01*
X75998729Y-109723448D01*
X75962991Y-109752778D01*
X75806466Y-109836443D01*
X75636627Y-109887963D01*
X75570443Y-109894481D01*
X75504260Y-109901000D01*
X75415740Y-109901000D01*
X75349557Y-109894481D01*
X75283373Y-109887963D01*
X75113534Y-109836443D01*
X74957009Y-109752778D01*
X74921271Y-109723448D01*
X74819814Y-109640186D01*
X74711763Y-109508524D01*
X74707222Y-109502991D01*
X74623557Y-109346466D01*
X74572037Y-109176627D01*
X74554641Y-109000000D01*
X74572037Y-108823373D01*
X74623557Y-108653534D01*
X74707222Y-108497009D01*
X74736552Y-108461271D01*
X74819814Y-108359814D01*
X74921271Y-108276552D01*
X74957009Y-108247222D01*
X75113534Y-108163557D01*
X75283373Y-108112037D01*
X75349558Y-108105518D01*
X75415740Y-108099000D01*
X75504260Y-108099000D01*
X75570442Y-108105518D01*
X75570442Y-108105518D01*
G37*
G36*
X70490442Y-108105518D02*
G01*
X70556627Y-108112037D01*
X70726466Y-108163557D01*
X70882991Y-108247222D01*
X70918729Y-108276552D01*
X71020186Y-108359814D01*
X71103448Y-108461271D01*
X71132778Y-108497009D01*
X71216443Y-108653534D01*
X71267963Y-108823373D01*
X71285359Y-109000000D01*
X71267963Y-109176627D01*
X71216443Y-109346466D01*
X71132778Y-109502991D01*
X71128237Y-109508524D01*
X71020186Y-109640186D01*
X70918729Y-109723448D01*
X70882991Y-109752778D01*
X70726466Y-109836443D01*
X70556627Y-109887963D01*
X70490443Y-109894481D01*
X70424260Y-109901000D01*
X70335740Y-109901000D01*
X70269557Y-109894481D01*
X70203373Y-109887963D01*
X70033534Y-109836443D01*
X69877009Y-109752778D01*
X69841271Y-109723448D01*
X69739814Y-109640186D01*
X69631763Y-109508524D01*
X69627222Y-109502991D01*
X69543557Y-109346466D01*
X69492037Y-109176627D01*
X69474641Y-109000000D01*
X69492037Y-108823373D01*
X69543557Y-108653534D01*
X69627222Y-108497009D01*
X69656552Y-108461271D01*
X69739814Y-108359814D01*
X69841271Y-108276552D01*
X69877009Y-108247222D01*
X70033534Y-108163557D01*
X70203373Y-108112037D01*
X70269558Y-108105518D01*
X70335740Y-108099000D01*
X70424260Y-108099000D01*
X70490442Y-108105518D01*
X70490442Y-108105518D01*
G37*
G36*
X60059468Y-105753565D02*
G01*
X60098138Y-105765296D01*
X60133777Y-105784346D01*
X60165017Y-105809983D01*
X60190654Y-105841223D01*
X60209704Y-105876862D01*
X60221435Y-105915532D01*
X60226000Y-105961888D01*
X60226000Y-107038112D01*
X60221435Y-107084468D01*
X60209704Y-107123138D01*
X60190654Y-107158777D01*
X60165017Y-107190017D01*
X60133777Y-107215654D01*
X60098138Y-107234704D01*
X60059468Y-107246435D01*
X60013112Y-107251000D01*
X59361888Y-107251000D01*
X59315532Y-107246435D01*
X59276862Y-107234704D01*
X59241223Y-107215654D01*
X59209983Y-107190017D01*
X59184346Y-107158777D01*
X59165296Y-107123138D01*
X59153565Y-107084468D01*
X59149000Y-107038112D01*
X59149000Y-105961888D01*
X59153565Y-105915532D01*
X59165296Y-105876862D01*
X59184346Y-105841223D01*
X59209983Y-105809983D01*
X59241223Y-105784346D01*
X59276862Y-105765296D01*
X59315532Y-105753565D01*
X59361888Y-105749000D01*
X60013112Y-105749000D01*
X60059468Y-105753565D01*
X60059468Y-105753565D01*
G37*
G36*
X58184468Y-105753565D02*
G01*
X58223138Y-105765296D01*
X58258777Y-105784346D01*
X58290017Y-105809983D01*
X58315654Y-105841223D01*
X58334704Y-105876862D01*
X58346435Y-105915532D01*
X58351000Y-105961888D01*
X58351000Y-107038112D01*
X58346435Y-107084468D01*
X58334704Y-107123138D01*
X58315654Y-107158777D01*
X58290017Y-107190017D01*
X58258777Y-107215654D01*
X58223138Y-107234704D01*
X58184468Y-107246435D01*
X58138112Y-107251000D01*
X57486888Y-107251000D01*
X57440532Y-107246435D01*
X57401862Y-107234704D01*
X57366223Y-107215654D01*
X57334983Y-107190017D01*
X57309346Y-107158777D01*
X57290296Y-107123138D01*
X57278565Y-107084468D01*
X57274000Y-107038112D01*
X57274000Y-105961888D01*
X57278565Y-105915532D01*
X57290296Y-105876862D01*
X57309346Y-105841223D01*
X57334983Y-105809983D01*
X57366223Y-105784346D01*
X57401862Y-105765296D01*
X57440532Y-105753565D01*
X57486888Y-105749000D01*
X58138112Y-105749000D01*
X58184468Y-105753565D01*
X58184468Y-105753565D01*
G37*
G36*
X69676000Y-105051000D02*
G01*
X68674000Y-105051000D01*
X68674000Y-102949000D01*
X69676000Y-102949000D01*
X69676000Y-105051000D01*
X69676000Y-105051000D01*
G37*
G36*
X58246000Y-105051000D02*
G01*
X57244000Y-105051000D01*
X57244000Y-102949000D01*
X58246000Y-102949000D01*
X58246000Y-105051000D01*
X58246000Y-105051000D01*
G37*
G36*
X59516000Y-105051000D02*
G01*
X58514000Y-105051000D01*
X58514000Y-102949000D01*
X59516000Y-102949000D01*
X59516000Y-105051000D01*
X59516000Y-105051000D01*
G37*
G36*
X60786000Y-105051000D02*
G01*
X59784000Y-105051000D01*
X59784000Y-102949000D01*
X60786000Y-102949000D01*
X60786000Y-105051000D01*
X60786000Y-105051000D01*
G37*
G36*
X62056000Y-105051000D02*
G01*
X61054000Y-105051000D01*
X61054000Y-102949000D01*
X62056000Y-102949000D01*
X62056000Y-105051000D01*
X62056000Y-105051000D01*
G37*
G36*
X63326000Y-105051000D02*
G01*
X62324000Y-105051000D01*
X62324000Y-102949000D01*
X63326000Y-102949000D01*
X63326000Y-105051000D01*
X63326000Y-105051000D01*
G37*
G36*
X67136000Y-105051000D02*
G01*
X66134000Y-105051000D01*
X66134000Y-102949000D01*
X67136000Y-102949000D01*
X67136000Y-105051000D01*
X67136000Y-105051000D01*
G37*
G36*
X68406000Y-105051000D02*
G01*
X67404000Y-105051000D01*
X67404000Y-102949000D01*
X68406000Y-102949000D01*
X68406000Y-105051000D01*
X68406000Y-105051000D01*
G37*
G36*
X70946000Y-105051000D02*
G01*
X69944000Y-105051000D01*
X69944000Y-102949000D01*
X70946000Y-102949000D01*
X70946000Y-105051000D01*
X70946000Y-105051000D01*
G37*
G36*
X72216000Y-105051000D02*
G01*
X71214000Y-105051000D01*
X71214000Y-102949000D01*
X72216000Y-102949000D01*
X72216000Y-105051000D01*
X72216000Y-105051000D01*
G37*
G36*
X73486000Y-105051000D02*
G01*
X72484000Y-105051000D01*
X72484000Y-102949000D01*
X73486000Y-102949000D01*
X73486000Y-105051000D01*
X73486000Y-105051000D01*
G37*
G36*
X74756000Y-105051000D02*
G01*
X73754000Y-105051000D01*
X73754000Y-102949000D01*
X74756000Y-102949000D01*
X74756000Y-105051000D01*
X74756000Y-105051000D01*
G37*
G36*
X65866000Y-105051000D02*
G01*
X64864000Y-105051000D01*
X64864000Y-102949000D01*
X65866000Y-102949000D01*
X65866000Y-105051000D01*
X65866000Y-105051000D01*
G37*
G36*
X64596000Y-105051000D02*
G01*
X63594000Y-105051000D01*
X63594000Y-102949000D01*
X64596000Y-102949000D01*
X64596000Y-105051000D01*
X64596000Y-105051000D01*
G37*
G36*
X104351600Y-103051600D02*
G01*
X101648400Y-103051600D01*
X101648400Y-100948400D01*
X104351600Y-100948400D01*
X104351600Y-103051600D01*
X104351600Y-103051600D01*
G37*
G36*
X90584468Y-101428565D02*
G01*
X90623138Y-101440296D01*
X90658777Y-101459346D01*
X90690017Y-101484983D01*
X90715654Y-101516223D01*
X90734704Y-101551862D01*
X90746435Y-101590532D01*
X90751000Y-101636888D01*
X90751000Y-102713112D01*
X90746435Y-102759468D01*
X90734704Y-102798138D01*
X90715654Y-102833777D01*
X90690017Y-102865017D01*
X90658777Y-102890654D01*
X90623138Y-102909704D01*
X90584468Y-102921435D01*
X90538112Y-102926000D01*
X89886888Y-102926000D01*
X89840532Y-102921435D01*
X89801862Y-102909704D01*
X89766223Y-102890654D01*
X89734983Y-102865017D01*
X89709346Y-102833777D01*
X89690296Y-102798138D01*
X89678565Y-102759468D01*
X89674000Y-102713112D01*
X89674000Y-101636888D01*
X89678565Y-101590532D01*
X89690296Y-101551862D01*
X89709346Y-101516223D01*
X89734983Y-101484983D01*
X89766223Y-101459346D01*
X89801862Y-101440296D01*
X89840532Y-101428565D01*
X89886888Y-101424000D01*
X90538112Y-101424000D01*
X90584468Y-101428565D01*
X90584468Y-101428565D01*
G37*
G36*
X96684468Y-101428565D02*
G01*
X96723138Y-101440296D01*
X96758777Y-101459346D01*
X96790017Y-101484983D01*
X96815654Y-101516223D01*
X96834704Y-101551862D01*
X96846435Y-101590532D01*
X96851000Y-101636888D01*
X96851000Y-102713112D01*
X96846435Y-102759468D01*
X96834704Y-102798138D01*
X96815654Y-102833777D01*
X96790017Y-102865017D01*
X96758777Y-102890654D01*
X96723138Y-102909704D01*
X96684468Y-102921435D01*
X96638112Y-102926000D01*
X95986888Y-102926000D01*
X95940532Y-102921435D01*
X95901862Y-102909704D01*
X95866223Y-102890654D01*
X95834983Y-102865017D01*
X95809346Y-102833777D01*
X95790296Y-102798138D01*
X95778565Y-102759468D01*
X95774000Y-102713112D01*
X95774000Y-101636888D01*
X95778565Y-101590532D01*
X95790296Y-101551862D01*
X95809346Y-101516223D01*
X95834983Y-101484983D01*
X95866223Y-101459346D01*
X95901862Y-101440296D01*
X95940532Y-101428565D01*
X95986888Y-101424000D01*
X96638112Y-101424000D01*
X96684468Y-101428565D01*
X96684468Y-101428565D01*
G37*
G36*
X98559468Y-101428565D02*
G01*
X98598138Y-101440296D01*
X98633777Y-101459346D01*
X98665017Y-101484983D01*
X98690654Y-101516223D01*
X98709704Y-101551862D01*
X98721435Y-101590532D01*
X98726000Y-101636888D01*
X98726000Y-102713112D01*
X98721435Y-102759468D01*
X98709704Y-102798138D01*
X98690654Y-102833777D01*
X98665017Y-102865017D01*
X98633777Y-102890654D01*
X98598138Y-102909704D01*
X98559468Y-102921435D01*
X98513112Y-102926000D01*
X97861888Y-102926000D01*
X97815532Y-102921435D01*
X97776862Y-102909704D01*
X97741223Y-102890654D01*
X97709983Y-102865017D01*
X97684346Y-102833777D01*
X97665296Y-102798138D01*
X97653565Y-102759468D01*
X97649000Y-102713112D01*
X97649000Y-101636888D01*
X97653565Y-101590532D01*
X97665296Y-101551862D01*
X97684346Y-101516223D01*
X97709983Y-101484983D01*
X97741223Y-101459346D01*
X97776862Y-101440296D01*
X97815532Y-101428565D01*
X97861888Y-101424000D01*
X98513112Y-101424000D01*
X98559468Y-101428565D01*
X98559468Y-101428565D01*
G37*
G36*
X92459468Y-101428565D02*
G01*
X92498138Y-101440296D01*
X92533777Y-101459346D01*
X92565017Y-101484983D01*
X92590654Y-101516223D01*
X92609704Y-101551862D01*
X92621435Y-101590532D01*
X92626000Y-101636888D01*
X92626000Y-102713112D01*
X92621435Y-102759468D01*
X92609704Y-102798138D01*
X92590654Y-102833777D01*
X92565017Y-102865017D01*
X92533777Y-102890654D01*
X92498138Y-102909704D01*
X92459468Y-102921435D01*
X92413112Y-102926000D01*
X91761888Y-102926000D01*
X91715532Y-102921435D01*
X91676862Y-102909704D01*
X91641223Y-102890654D01*
X91609983Y-102865017D01*
X91584346Y-102833777D01*
X91565296Y-102798138D01*
X91553565Y-102759468D01*
X91549000Y-102713112D01*
X91549000Y-101636888D01*
X91553565Y-101590532D01*
X91565296Y-101551862D01*
X91584346Y-101516223D01*
X91609983Y-101484983D01*
X91641223Y-101459346D01*
X91676862Y-101440296D01*
X91715532Y-101428565D01*
X91761888Y-101424000D01*
X92413112Y-101424000D01*
X92459468Y-101428565D01*
X92459468Y-101428565D01*
G37*
G36*
X85368604Y-100173347D02*
G01*
X85405144Y-100184432D01*
X85438821Y-100202433D01*
X85468341Y-100226659D01*
X85492567Y-100256179D01*
X85510568Y-100289856D01*
X85521653Y-100326396D01*
X85526000Y-100370538D01*
X85526000Y-102719462D01*
X85521653Y-102763604D01*
X85510568Y-102800144D01*
X85492567Y-102833821D01*
X85468341Y-102863341D01*
X85438821Y-102887567D01*
X85405144Y-102905568D01*
X85368604Y-102916653D01*
X85324462Y-102921000D01*
X84375538Y-102921000D01*
X84331396Y-102916653D01*
X84294856Y-102905568D01*
X84261179Y-102887567D01*
X84231659Y-102863341D01*
X84207433Y-102833821D01*
X84189432Y-102800144D01*
X84178347Y-102763604D01*
X84174000Y-102719462D01*
X84174000Y-100370538D01*
X84178347Y-100326396D01*
X84189432Y-100289856D01*
X84207433Y-100256179D01*
X84231659Y-100226659D01*
X84261179Y-100202433D01*
X84294856Y-100184432D01*
X84331396Y-100173347D01*
X84375538Y-100169000D01*
X85324462Y-100169000D01*
X85368604Y-100173347D01*
X85368604Y-100173347D01*
G37*
G36*
X88168604Y-100173347D02*
G01*
X88205144Y-100184432D01*
X88238821Y-100202433D01*
X88268341Y-100226659D01*
X88292567Y-100256179D01*
X88310568Y-100289856D01*
X88321653Y-100326396D01*
X88326000Y-100370538D01*
X88326000Y-102719462D01*
X88321653Y-102763604D01*
X88310568Y-102800144D01*
X88292567Y-102833821D01*
X88268341Y-102863341D01*
X88238821Y-102887567D01*
X88205144Y-102905568D01*
X88168604Y-102916653D01*
X88124462Y-102921000D01*
X87175538Y-102921000D01*
X87131396Y-102916653D01*
X87094856Y-102905568D01*
X87061179Y-102887567D01*
X87031659Y-102863341D01*
X87007433Y-102833821D01*
X86989432Y-102800144D01*
X86978347Y-102763604D01*
X86974000Y-102719462D01*
X86974000Y-100370538D01*
X86978347Y-100326396D01*
X86989432Y-100289856D01*
X87007433Y-100256179D01*
X87031659Y-100226659D01*
X87061179Y-100202433D01*
X87094856Y-100184432D01*
X87131396Y-100173347D01*
X87175538Y-100169000D01*
X88124462Y-100169000D01*
X88168604Y-100173347D01*
X88168604Y-100173347D01*
G37*
G36*
X116556564Y-100239389D02*
G01*
X116678402Y-100289856D01*
X116747835Y-100318616D01*
X116849652Y-100386648D01*
X116919973Y-100433635D01*
X117066365Y-100580027D01*
X117181385Y-100752167D01*
X117260611Y-100943436D01*
X117301000Y-101146484D01*
X117301000Y-101353516D01*
X117260611Y-101556564D01*
X117181385Y-101747833D01*
X117181384Y-101747835D01*
X117066365Y-101919973D01*
X116919973Y-102066365D01*
X116747835Y-102181384D01*
X116747834Y-102181385D01*
X116747833Y-102181385D01*
X116556564Y-102260611D01*
X116353516Y-102301000D01*
X116146484Y-102301000D01*
X115943436Y-102260611D01*
X115752167Y-102181385D01*
X115752166Y-102181385D01*
X115752165Y-102181384D01*
X115580027Y-102066365D01*
X115433635Y-101919973D01*
X115318616Y-101747835D01*
X115318615Y-101747833D01*
X115239389Y-101556564D01*
X115199000Y-101353516D01*
X115199000Y-101146484D01*
X115239389Y-100943436D01*
X115318615Y-100752167D01*
X115433635Y-100580027D01*
X115580027Y-100433635D01*
X115650348Y-100386648D01*
X115752165Y-100318616D01*
X115821598Y-100289856D01*
X115943436Y-100239389D01*
X116146484Y-100199000D01*
X116353516Y-100199000D01*
X116556564Y-100239389D01*
X116556564Y-100239389D01*
G37*
G36*
X109801000Y-102301000D02*
G01*
X107699000Y-102301000D01*
X107699000Y-100199000D01*
X109801000Y-100199000D01*
X109801000Y-102301000D01*
X109801000Y-102301000D01*
G37*
G36*
X76306000Y-101716000D02*
G01*
X74204000Y-101716000D01*
X74204000Y-100714000D01*
X76306000Y-100714000D01*
X76306000Y-101716000D01*
X76306000Y-101716000D01*
G37*
G36*
X76306000Y-100446000D02*
G01*
X74204000Y-100446000D01*
X74204000Y-99444000D01*
X76306000Y-99444000D01*
X76306000Y-100446000D01*
X76306000Y-100446000D01*
G37*
G36*
X76306000Y-99176000D02*
G01*
X74204000Y-99176000D01*
X74204000Y-98174000D01*
X76306000Y-98174000D01*
X76306000Y-99176000D01*
X76306000Y-99176000D01*
G37*
G36*
X104351600Y-99051600D02*
G01*
X101648400Y-99051600D01*
X101648400Y-96948400D01*
X104351600Y-96948400D01*
X104351600Y-99051600D01*
X104351600Y-99051600D01*
G37*
G36*
X67796000Y-99051000D02*
G01*
X62694000Y-99051000D01*
X62694000Y-93949000D01*
X67796000Y-93949000D01*
X67796000Y-99051000D01*
X67796000Y-99051000D01*
G37*
G36*
X93818604Y-97078347D02*
G01*
X93855144Y-97089432D01*
X93888821Y-97107433D01*
X93918341Y-97131659D01*
X93942567Y-97161179D01*
X93960568Y-97194856D01*
X93971653Y-97231396D01*
X93976000Y-97275538D01*
X93976000Y-98724462D01*
X93971653Y-98768604D01*
X93960568Y-98805144D01*
X93942567Y-98838821D01*
X93918341Y-98868341D01*
X93888821Y-98892567D01*
X93855144Y-98910568D01*
X93818604Y-98921653D01*
X93774462Y-98926000D01*
X92825538Y-98926000D01*
X92781396Y-98921653D01*
X92744856Y-98910568D01*
X92711179Y-98892567D01*
X92681659Y-98868341D01*
X92657433Y-98838821D01*
X92639432Y-98805144D01*
X92628347Y-98768604D01*
X92624000Y-98724462D01*
X92624000Y-97275538D01*
X92628347Y-97231396D01*
X92639432Y-97194856D01*
X92657433Y-97161179D01*
X92681659Y-97131659D01*
X92711179Y-97107433D01*
X92744856Y-97089432D01*
X92781396Y-97078347D01*
X92825538Y-97074000D01*
X93774462Y-97074000D01*
X93818604Y-97078347D01*
X93818604Y-97078347D01*
G37*
G36*
X91018604Y-97078347D02*
G01*
X91055144Y-97089432D01*
X91088821Y-97107433D01*
X91118341Y-97131659D01*
X91142567Y-97161179D01*
X91160568Y-97194856D01*
X91171653Y-97231396D01*
X91176000Y-97275538D01*
X91176000Y-98724462D01*
X91171653Y-98768604D01*
X91160568Y-98805144D01*
X91142567Y-98838821D01*
X91118341Y-98868341D01*
X91088821Y-98892567D01*
X91055144Y-98910568D01*
X91018604Y-98921653D01*
X90974462Y-98926000D01*
X90025538Y-98926000D01*
X89981396Y-98921653D01*
X89944856Y-98910568D01*
X89911179Y-98892567D01*
X89881659Y-98868341D01*
X89857433Y-98838821D01*
X89839432Y-98805144D01*
X89828347Y-98768604D01*
X89824000Y-98724462D01*
X89824000Y-97275538D01*
X89828347Y-97231396D01*
X89839432Y-97194856D01*
X89857433Y-97161179D01*
X89881659Y-97131659D01*
X89911179Y-97107433D01*
X89944856Y-97089432D01*
X89981396Y-97078347D01*
X90025538Y-97074000D01*
X90974462Y-97074000D01*
X91018604Y-97078347D01*
X91018604Y-97078347D01*
G37*
G36*
X86959468Y-97003565D02*
G01*
X86998138Y-97015296D01*
X87033777Y-97034346D01*
X87065017Y-97059983D01*
X87090654Y-97091223D01*
X87109704Y-97126862D01*
X87121435Y-97165532D01*
X87126000Y-97211888D01*
X87126000Y-98288112D01*
X87121435Y-98334468D01*
X87109704Y-98373138D01*
X87090654Y-98408777D01*
X87065017Y-98440017D01*
X87033777Y-98465654D01*
X86998138Y-98484704D01*
X86959468Y-98496435D01*
X86913112Y-98501000D01*
X86261888Y-98501000D01*
X86215532Y-98496435D01*
X86176862Y-98484704D01*
X86141223Y-98465654D01*
X86109983Y-98440017D01*
X86084346Y-98408777D01*
X86065296Y-98373138D01*
X86053565Y-98334468D01*
X86049000Y-98288112D01*
X86049000Y-97211888D01*
X86053565Y-97165532D01*
X86065296Y-97126862D01*
X86084346Y-97091223D01*
X86109983Y-97059983D01*
X86141223Y-97034346D01*
X86176862Y-97015296D01*
X86215532Y-97003565D01*
X86261888Y-96999000D01*
X86913112Y-96999000D01*
X86959468Y-97003565D01*
X86959468Y-97003565D01*
G37*
G36*
X85084468Y-97003565D02*
G01*
X85123138Y-97015296D01*
X85158777Y-97034346D01*
X85190017Y-97059983D01*
X85215654Y-97091223D01*
X85234704Y-97126862D01*
X85246435Y-97165532D01*
X85251000Y-97211888D01*
X85251000Y-98288112D01*
X85246435Y-98334468D01*
X85234704Y-98373138D01*
X85215654Y-98408777D01*
X85190017Y-98440017D01*
X85158777Y-98465654D01*
X85123138Y-98484704D01*
X85084468Y-98496435D01*
X85038112Y-98501000D01*
X84386888Y-98501000D01*
X84340532Y-98496435D01*
X84301862Y-98484704D01*
X84266223Y-98465654D01*
X84234983Y-98440017D01*
X84209346Y-98408777D01*
X84190296Y-98373138D01*
X84178565Y-98334468D01*
X84174000Y-98288112D01*
X84174000Y-97211888D01*
X84178565Y-97165532D01*
X84190296Y-97126862D01*
X84209346Y-97091223D01*
X84234983Y-97059983D01*
X84266223Y-97034346D01*
X84301862Y-97015296D01*
X84340532Y-97003565D01*
X84386888Y-96999000D01*
X85038112Y-96999000D01*
X85084468Y-97003565D01*
X85084468Y-97003565D01*
G37*
G36*
X76306000Y-97906000D02*
G01*
X74204000Y-97906000D01*
X74204000Y-96904000D01*
X76306000Y-96904000D01*
X76306000Y-97906000D01*
X76306000Y-97906000D01*
G37*
G36*
X76306000Y-96636000D02*
G01*
X74204000Y-96636000D01*
X74204000Y-95634000D01*
X76306000Y-95634000D01*
X76306000Y-96636000D01*
X76306000Y-96636000D01*
G37*
G36*
X90684468Y-94003565D02*
G01*
X90723138Y-94015296D01*
X90758777Y-94034346D01*
X90790017Y-94059983D01*
X90815654Y-94091223D01*
X90834704Y-94126862D01*
X90846435Y-94165532D01*
X90851000Y-94211888D01*
X90851000Y-95288112D01*
X90846435Y-95334468D01*
X90834704Y-95373138D01*
X90815654Y-95408777D01*
X90790017Y-95440017D01*
X90758777Y-95465654D01*
X90723138Y-95484704D01*
X90684468Y-95496435D01*
X90638112Y-95501000D01*
X89986888Y-95501000D01*
X89940532Y-95496435D01*
X89901862Y-95484704D01*
X89866223Y-95465654D01*
X89834983Y-95440017D01*
X89809346Y-95408777D01*
X89790296Y-95373138D01*
X89778565Y-95334468D01*
X89774000Y-95288112D01*
X89774000Y-94211888D01*
X89778565Y-94165532D01*
X89790296Y-94126862D01*
X89809346Y-94091223D01*
X89834983Y-94059983D01*
X89866223Y-94034346D01*
X89901862Y-94015296D01*
X89940532Y-94003565D01*
X89986888Y-93999000D01*
X90638112Y-93999000D01*
X90684468Y-94003565D01*
X90684468Y-94003565D01*
G37*
G36*
X92559468Y-94003565D02*
G01*
X92598138Y-94015296D01*
X92633777Y-94034346D01*
X92665017Y-94059983D01*
X92690654Y-94091223D01*
X92709704Y-94126862D01*
X92721435Y-94165532D01*
X92726000Y-94211888D01*
X92726000Y-95288112D01*
X92721435Y-95334468D01*
X92709704Y-95373138D01*
X92690654Y-95408777D01*
X92665017Y-95440017D01*
X92633777Y-95465654D01*
X92598138Y-95484704D01*
X92559468Y-95496435D01*
X92513112Y-95501000D01*
X91861888Y-95501000D01*
X91815532Y-95496435D01*
X91776862Y-95484704D01*
X91741223Y-95465654D01*
X91709983Y-95440017D01*
X91684346Y-95408777D01*
X91665296Y-95373138D01*
X91653565Y-95334468D01*
X91649000Y-95288112D01*
X91649000Y-94211888D01*
X91653565Y-94165532D01*
X91665296Y-94126862D01*
X91684346Y-94091223D01*
X91709983Y-94059983D01*
X91741223Y-94034346D01*
X91776862Y-94015296D01*
X91815532Y-94003565D01*
X91861888Y-93999000D01*
X92513112Y-93999000D01*
X92559468Y-94003565D01*
X92559468Y-94003565D01*
G37*
G36*
X76306000Y-95366000D02*
G01*
X74204000Y-95366000D01*
X74204000Y-94364000D01*
X76306000Y-94364000D01*
X76306000Y-95366000D01*
X76306000Y-95366000D01*
G37*
G36*
X86959468Y-93753565D02*
G01*
X86998138Y-93765296D01*
X87033777Y-93784346D01*
X87065017Y-93809983D01*
X87090654Y-93841223D01*
X87109704Y-93876862D01*
X87121435Y-93915532D01*
X87126000Y-93961888D01*
X87126000Y-95038112D01*
X87121435Y-95084468D01*
X87109704Y-95123138D01*
X87090654Y-95158777D01*
X87065017Y-95190017D01*
X87033777Y-95215654D01*
X86998138Y-95234704D01*
X86959468Y-95246435D01*
X86913112Y-95251000D01*
X86261888Y-95251000D01*
X86215532Y-95246435D01*
X86176862Y-95234704D01*
X86141223Y-95215654D01*
X86109983Y-95190017D01*
X86084346Y-95158777D01*
X86065296Y-95123138D01*
X86053565Y-95084468D01*
X86049000Y-95038112D01*
X86049000Y-93961888D01*
X86053565Y-93915532D01*
X86065296Y-93876862D01*
X86084346Y-93841223D01*
X86109983Y-93809983D01*
X86141223Y-93784346D01*
X86176862Y-93765296D01*
X86215532Y-93753565D01*
X86261888Y-93749000D01*
X86913112Y-93749000D01*
X86959468Y-93753565D01*
X86959468Y-93753565D01*
G37*
G36*
X85084468Y-93753565D02*
G01*
X85123138Y-93765296D01*
X85158777Y-93784346D01*
X85190017Y-93809983D01*
X85215654Y-93841223D01*
X85234704Y-93876862D01*
X85246435Y-93915532D01*
X85251000Y-93961888D01*
X85251000Y-95038112D01*
X85246435Y-95084468D01*
X85234704Y-95123138D01*
X85215654Y-95158777D01*
X85190017Y-95190017D01*
X85158777Y-95215654D01*
X85123138Y-95234704D01*
X85084468Y-95246435D01*
X85038112Y-95251000D01*
X84386888Y-95251000D01*
X84340532Y-95246435D01*
X84301862Y-95234704D01*
X84266223Y-95215654D01*
X84234983Y-95190017D01*
X84209346Y-95158777D01*
X84190296Y-95123138D01*
X84178565Y-95084468D01*
X84174000Y-95038112D01*
X84174000Y-93961888D01*
X84178565Y-93915532D01*
X84190296Y-93876862D01*
X84209346Y-93841223D01*
X84234983Y-93809983D01*
X84266223Y-93784346D01*
X84301862Y-93765296D01*
X84340532Y-93753565D01*
X84386888Y-93749000D01*
X85038112Y-93749000D01*
X85084468Y-93753565D01*
X85084468Y-93753565D01*
G37*
G36*
X76306000Y-94096000D02*
G01*
X74204000Y-94096000D01*
X74204000Y-93094000D01*
X76306000Y-93094000D01*
X76306000Y-94096000D01*
X76306000Y-94096000D01*
G37*
G36*
X112307785Y-91070537D02*
G01*
X112531011Y-91163000D01*
X112531013Y-91163001D01*
X112731912Y-91297238D01*
X112902762Y-91468088D01*
X113006364Y-91623138D01*
X113037000Y-91668989D01*
X113129463Y-91892215D01*
X113176600Y-92129189D01*
X113176600Y-92370811D01*
X113129463Y-92607785D01*
X113037000Y-92831011D01*
X113036999Y-92831013D01*
X112902762Y-93031912D01*
X112731912Y-93202762D01*
X112531013Y-93336999D01*
X112531012Y-93337000D01*
X112531011Y-93337000D01*
X112307785Y-93429463D01*
X112070811Y-93476600D01*
X111829189Y-93476600D01*
X111592215Y-93429463D01*
X111368989Y-93337000D01*
X111368988Y-93337000D01*
X111368987Y-93336999D01*
X111168088Y-93202762D01*
X110997238Y-93031912D01*
X110863001Y-92831013D01*
X110863000Y-92831011D01*
X110770537Y-92607785D01*
X110723400Y-92370811D01*
X110723400Y-92129189D01*
X110770537Y-91892215D01*
X110863000Y-91668989D01*
X110893637Y-91623138D01*
X110997238Y-91468088D01*
X111168088Y-91297238D01*
X111368987Y-91163001D01*
X111368989Y-91163000D01*
X111592215Y-91070537D01*
X111829189Y-91023400D01*
X112070811Y-91023400D01*
X112307785Y-91070537D01*
X112307785Y-91070537D01*
G37*
G36*
X76306000Y-92826000D02*
G01*
X74204000Y-92826000D01*
X74204000Y-91824000D01*
X76306000Y-91824000D01*
X76306000Y-92826000D01*
X76306000Y-92826000D01*
G37*
G36*
X101751600Y-92276600D02*
G01*
X95748400Y-92276600D01*
X95748400Y-90623400D01*
X101751600Y-90623400D01*
X101751600Y-92276600D01*
X101751600Y-92276600D01*
G37*
G36*
X85084468Y-90753565D02*
G01*
X85123138Y-90765296D01*
X85158777Y-90784346D01*
X85190017Y-90809983D01*
X85215654Y-90841223D01*
X85234704Y-90876862D01*
X85246435Y-90915532D01*
X85251000Y-90961888D01*
X85251000Y-92038112D01*
X85246435Y-92084468D01*
X85234704Y-92123138D01*
X85215654Y-92158777D01*
X85190017Y-92190017D01*
X85158777Y-92215654D01*
X85123138Y-92234704D01*
X85084468Y-92246435D01*
X85038112Y-92251000D01*
X84386888Y-92251000D01*
X84340532Y-92246435D01*
X84301862Y-92234704D01*
X84266223Y-92215654D01*
X84234983Y-92190017D01*
X84209346Y-92158777D01*
X84190296Y-92123138D01*
X84178565Y-92084468D01*
X84174000Y-92038112D01*
X84174000Y-90961888D01*
X84178565Y-90915532D01*
X84190296Y-90876862D01*
X84209346Y-90841223D01*
X84234983Y-90809983D01*
X84266223Y-90784346D01*
X84301862Y-90765296D01*
X84340532Y-90753565D01*
X84386888Y-90749000D01*
X85038112Y-90749000D01*
X85084468Y-90753565D01*
X85084468Y-90753565D01*
G37*
G36*
X86959468Y-90753565D02*
G01*
X86998138Y-90765296D01*
X87033777Y-90784346D01*
X87065017Y-90809983D01*
X87090654Y-90841223D01*
X87109704Y-90876862D01*
X87121435Y-90915532D01*
X87126000Y-90961888D01*
X87126000Y-92038112D01*
X87121435Y-92084468D01*
X87109704Y-92123138D01*
X87090654Y-92158777D01*
X87065017Y-92190017D01*
X87033777Y-92215654D01*
X86998138Y-92234704D01*
X86959468Y-92246435D01*
X86913112Y-92251000D01*
X86261888Y-92251000D01*
X86215532Y-92246435D01*
X86176862Y-92234704D01*
X86141223Y-92215654D01*
X86109983Y-92190017D01*
X86084346Y-92158777D01*
X86065296Y-92123138D01*
X86053565Y-92084468D01*
X86049000Y-92038112D01*
X86049000Y-90961888D01*
X86053565Y-90915532D01*
X86065296Y-90876862D01*
X86084346Y-90841223D01*
X86109983Y-90809983D01*
X86141223Y-90784346D01*
X86176862Y-90765296D01*
X86215532Y-90753565D01*
X86261888Y-90749000D01*
X86913112Y-90749000D01*
X86959468Y-90753565D01*
X86959468Y-90753565D01*
G37*
G36*
X90684468Y-90253565D02*
G01*
X90723138Y-90265296D01*
X90758777Y-90284346D01*
X90790017Y-90309983D01*
X90815654Y-90341223D01*
X90834704Y-90376862D01*
X90846435Y-90415532D01*
X90851000Y-90461888D01*
X90851000Y-91538112D01*
X90846435Y-91584468D01*
X90834704Y-91623138D01*
X90815654Y-91658777D01*
X90790017Y-91690017D01*
X90758777Y-91715654D01*
X90723138Y-91734704D01*
X90684468Y-91746435D01*
X90638112Y-91751000D01*
X89986888Y-91751000D01*
X89940532Y-91746435D01*
X89901862Y-91734704D01*
X89866223Y-91715654D01*
X89834983Y-91690017D01*
X89809346Y-91658777D01*
X89790296Y-91623138D01*
X89778565Y-91584468D01*
X89774000Y-91538112D01*
X89774000Y-90461888D01*
X89778565Y-90415532D01*
X89790296Y-90376862D01*
X89809346Y-90341223D01*
X89834983Y-90309983D01*
X89866223Y-90284346D01*
X89901862Y-90265296D01*
X89940532Y-90253565D01*
X89986888Y-90249000D01*
X90638112Y-90249000D01*
X90684468Y-90253565D01*
X90684468Y-90253565D01*
G37*
G36*
X92559468Y-90253565D02*
G01*
X92598138Y-90265296D01*
X92633777Y-90284346D01*
X92665017Y-90309983D01*
X92690654Y-90341223D01*
X92709704Y-90376862D01*
X92721435Y-90415532D01*
X92726000Y-90461888D01*
X92726000Y-91538112D01*
X92721435Y-91584468D01*
X92709704Y-91623138D01*
X92690654Y-91658777D01*
X92665017Y-91690017D01*
X92633777Y-91715654D01*
X92598138Y-91734704D01*
X92559468Y-91746435D01*
X92513112Y-91751000D01*
X91861888Y-91751000D01*
X91815532Y-91746435D01*
X91776862Y-91734704D01*
X91741223Y-91715654D01*
X91709983Y-91690017D01*
X91684346Y-91658777D01*
X91665296Y-91623138D01*
X91653565Y-91584468D01*
X91649000Y-91538112D01*
X91649000Y-90461888D01*
X91653565Y-90415532D01*
X91665296Y-90376862D01*
X91684346Y-90341223D01*
X91709983Y-90309983D01*
X91741223Y-90284346D01*
X91776862Y-90265296D01*
X91815532Y-90253565D01*
X91861888Y-90249000D01*
X92513112Y-90249000D01*
X92559468Y-90253565D01*
X92559468Y-90253565D01*
G37*
G36*
X76306000Y-91556000D02*
G01*
X74204000Y-91556000D01*
X74204000Y-90554000D01*
X76306000Y-90554000D01*
X76306000Y-91556000D01*
X76306000Y-91556000D01*
G37*
G36*
X76306000Y-90286000D02*
G01*
X74204000Y-90286000D01*
X74204000Y-89284000D01*
X76306000Y-89284000D01*
X76306000Y-90286000D01*
X76306000Y-90286000D01*
G37*
G36*
X95376600Y-90251600D02*
G01*
X93723400Y-90251600D01*
X93723400Y-84248400D01*
X95376600Y-84248400D01*
X95376600Y-90251600D01*
X95376600Y-90251600D01*
G37*
G36*
X103776600Y-90251600D02*
G01*
X102123400Y-90251600D01*
X102123400Y-84248400D01*
X103776600Y-84248400D01*
X103776600Y-90251600D01*
X103776600Y-90251600D01*
G37*
G36*
X112307785Y-87570537D02*
G01*
X112531011Y-87663000D01*
X112531013Y-87663001D01*
X112632144Y-87730575D01*
X112731911Y-87797237D01*
X112902763Y-87968089D01*
X113037000Y-88168989D01*
X113129463Y-88392215D01*
X113176600Y-88629189D01*
X113176600Y-88870811D01*
X113129463Y-89107785D01*
X113037000Y-89331011D01*
X113036999Y-89331013D01*
X112902762Y-89531912D01*
X112731912Y-89702762D01*
X112531013Y-89836999D01*
X112531012Y-89837000D01*
X112531011Y-89837000D01*
X112307785Y-89929463D01*
X112070811Y-89976600D01*
X111829189Y-89976600D01*
X111592215Y-89929463D01*
X111368989Y-89837000D01*
X111368988Y-89837000D01*
X111368987Y-89836999D01*
X111168088Y-89702762D01*
X110997238Y-89531912D01*
X110863001Y-89331013D01*
X110863000Y-89331011D01*
X110770537Y-89107785D01*
X110723400Y-88870811D01*
X110723400Y-88629189D01*
X110770537Y-88392215D01*
X110863000Y-88168989D01*
X110997237Y-87968089D01*
X111168089Y-87797237D01*
X111267856Y-87730575D01*
X111368987Y-87663001D01*
X111368989Y-87663000D01*
X111592215Y-87570537D01*
X111829189Y-87523400D01*
X112070811Y-87523400D01*
X112307785Y-87570537D01*
X112307785Y-87570537D01*
G37*
G36*
X101076600Y-89576600D02*
G01*
X96423400Y-89576600D01*
X96423400Y-84923400D01*
X101076600Y-84923400D01*
X101076600Y-89576600D01*
X101076600Y-89576600D01*
G37*
G36*
X62056000Y-88051000D02*
G01*
X61054000Y-88051000D01*
X61054000Y-85949000D01*
X62056000Y-85949000D01*
X62056000Y-88051000D01*
X62056000Y-88051000D01*
G37*
G36*
X74756000Y-88051000D02*
G01*
X73754000Y-88051000D01*
X73754000Y-85949000D01*
X74756000Y-85949000D01*
X74756000Y-88051000D01*
X74756000Y-88051000D01*
G37*
G36*
X73486000Y-88051000D02*
G01*
X72484000Y-88051000D01*
X72484000Y-85949000D01*
X73486000Y-85949000D01*
X73486000Y-88051000D01*
X73486000Y-88051000D01*
G37*
G36*
X72216000Y-88051000D02*
G01*
X71214000Y-88051000D01*
X71214000Y-85949000D01*
X72216000Y-85949000D01*
X72216000Y-88051000D01*
X72216000Y-88051000D01*
G37*
G36*
X70946000Y-88051000D02*
G01*
X69944000Y-88051000D01*
X69944000Y-85949000D01*
X70946000Y-85949000D01*
X70946000Y-88051000D01*
X70946000Y-88051000D01*
G37*
G36*
X69676000Y-88051000D02*
G01*
X68674000Y-88051000D01*
X68674000Y-85949000D01*
X69676000Y-85949000D01*
X69676000Y-88051000D01*
X69676000Y-88051000D01*
G37*
G36*
X68406000Y-88051000D02*
G01*
X67404000Y-88051000D01*
X67404000Y-85949000D01*
X68406000Y-85949000D01*
X68406000Y-88051000D01*
X68406000Y-88051000D01*
G37*
G36*
X67136000Y-88051000D02*
G01*
X66134000Y-88051000D01*
X66134000Y-85949000D01*
X67136000Y-85949000D01*
X67136000Y-88051000D01*
X67136000Y-88051000D01*
G37*
G36*
X65866000Y-88051000D02*
G01*
X64864000Y-88051000D01*
X64864000Y-85949000D01*
X65866000Y-85949000D01*
X65866000Y-88051000D01*
X65866000Y-88051000D01*
G37*
G36*
X64596000Y-88051000D02*
G01*
X63594000Y-88051000D01*
X63594000Y-85949000D01*
X64596000Y-85949000D01*
X64596000Y-88051000D01*
X64596000Y-88051000D01*
G37*
G36*
X63326000Y-88051000D02*
G01*
X62324000Y-88051000D01*
X62324000Y-85949000D01*
X63326000Y-85949000D01*
X63326000Y-88051000D01*
X63326000Y-88051000D01*
G37*
G36*
X60786000Y-88051000D02*
G01*
X59784000Y-88051000D01*
X59784000Y-85949000D01*
X60786000Y-85949000D01*
X60786000Y-88051000D01*
X60786000Y-88051000D01*
G37*
G36*
X59516000Y-88051000D02*
G01*
X58514000Y-88051000D01*
X58514000Y-85949000D01*
X59516000Y-85949000D01*
X59516000Y-88051000D01*
X59516000Y-88051000D01*
G37*
G36*
X58246000Y-88051000D02*
G01*
X57244000Y-88051000D01*
X57244000Y-85949000D01*
X58246000Y-85949000D01*
X58246000Y-88051000D01*
X58246000Y-88051000D01*
G37*
G36*
X112307785Y-84070537D02*
G01*
X112531011Y-84163000D01*
X112531013Y-84163001D01*
X112632144Y-84230575D01*
X112731911Y-84297237D01*
X112902763Y-84468089D01*
X113037000Y-84668989D01*
X113129463Y-84892215D01*
X113176600Y-85129189D01*
X113176600Y-85370811D01*
X113129463Y-85607785D01*
X113069893Y-85751600D01*
X113036999Y-85831013D01*
X112902762Y-86031912D01*
X112731912Y-86202762D01*
X112531013Y-86336999D01*
X112531012Y-86337000D01*
X112531011Y-86337000D01*
X112307785Y-86429463D01*
X112070811Y-86476600D01*
X111829189Y-86476600D01*
X111592215Y-86429463D01*
X111368989Y-86337000D01*
X111368988Y-86337000D01*
X111368987Y-86336999D01*
X111168088Y-86202762D01*
X110997238Y-86031912D01*
X110863001Y-85831013D01*
X110830107Y-85751600D01*
X110770537Y-85607785D01*
X110723400Y-85370811D01*
X110723400Y-85129189D01*
X110770537Y-84892215D01*
X110863000Y-84668989D01*
X110997237Y-84468089D01*
X111168089Y-84297237D01*
X111267856Y-84230575D01*
X111368987Y-84163001D01*
X111368989Y-84163000D01*
X111592215Y-84070537D01*
X111829189Y-84023400D01*
X112070811Y-84023400D01*
X112307785Y-84070537D01*
X112307785Y-84070537D01*
G37*
G36*
X87687248Y-83535845D02*
G01*
X87725918Y-83547576D01*
X87761557Y-83566626D01*
X87792797Y-83592263D01*
X87818434Y-83623503D01*
X87837484Y-83659142D01*
X87849215Y-83697812D01*
X87853780Y-83744168D01*
X87853780Y-84820392D01*
X87849215Y-84866748D01*
X87837484Y-84905418D01*
X87818434Y-84941057D01*
X87792797Y-84972297D01*
X87761557Y-84997934D01*
X87725918Y-85016984D01*
X87687248Y-85028715D01*
X87640892Y-85033280D01*
X86989668Y-85033280D01*
X86943312Y-85028715D01*
X86904642Y-85016984D01*
X86869003Y-84997934D01*
X86837763Y-84972297D01*
X86812126Y-84941057D01*
X86793076Y-84905418D01*
X86781345Y-84866748D01*
X86776780Y-84820392D01*
X86776780Y-83744168D01*
X86781345Y-83697812D01*
X86793076Y-83659142D01*
X86812126Y-83623503D01*
X86837763Y-83592263D01*
X86869003Y-83566626D01*
X86904642Y-83547576D01*
X86943312Y-83535845D01*
X86989668Y-83531280D01*
X87640892Y-83531280D01*
X87687248Y-83535845D01*
X87687248Y-83535845D01*
G37*
G36*
X85812248Y-83535845D02*
G01*
X85850918Y-83547576D01*
X85886557Y-83566626D01*
X85917797Y-83592263D01*
X85943434Y-83623503D01*
X85962484Y-83659142D01*
X85974215Y-83697812D01*
X85978780Y-83744168D01*
X85978780Y-84820392D01*
X85974215Y-84866748D01*
X85962484Y-84905418D01*
X85943434Y-84941057D01*
X85917797Y-84972297D01*
X85886557Y-84997934D01*
X85850918Y-85016984D01*
X85812248Y-85028715D01*
X85765892Y-85033280D01*
X85114668Y-85033280D01*
X85068312Y-85028715D01*
X85029642Y-85016984D01*
X84994003Y-84997934D01*
X84962763Y-84972297D01*
X84937126Y-84941057D01*
X84918076Y-84905418D01*
X84906345Y-84866748D01*
X84901780Y-84820392D01*
X84901780Y-83744168D01*
X84906345Y-83697812D01*
X84918076Y-83659142D01*
X84937126Y-83623503D01*
X84962763Y-83592263D01*
X84994003Y-83566626D01*
X85029642Y-83547576D01*
X85068312Y-83535845D01*
X85114668Y-83531280D01*
X85765892Y-83531280D01*
X85812248Y-83535845D01*
X85812248Y-83535845D01*
G37*
G36*
X101751600Y-83876600D02*
G01*
X95748400Y-83876600D01*
X95748400Y-82223400D01*
X101751600Y-82223400D01*
X101751600Y-83876600D01*
X101751600Y-83876600D01*
G37*
G36*
X112307785Y-80570537D02*
G01*
X112531011Y-80663000D01*
X112531013Y-80663001D01*
X112598885Y-80708352D01*
X112689059Y-80768604D01*
X112731912Y-80797238D01*
X112902762Y-80968088D01*
X113033371Y-81163557D01*
X113037000Y-81168989D01*
X113129463Y-81392215D01*
X113176600Y-81629189D01*
X113176600Y-81870811D01*
X113129463Y-82107785D01*
X113037000Y-82331011D01*
X113036999Y-82331013D01*
X113026672Y-82346468D01*
X112922087Y-82502991D01*
X112902762Y-82531912D01*
X112731912Y-82702762D01*
X112531013Y-82836999D01*
X112531012Y-82837000D01*
X112531011Y-82837000D01*
X112307785Y-82929463D01*
X112070811Y-82976600D01*
X111829189Y-82976600D01*
X111592215Y-82929463D01*
X111368989Y-82837000D01*
X111368988Y-82837000D01*
X111368987Y-82836999D01*
X111168088Y-82702762D01*
X110997238Y-82531912D01*
X110977914Y-82502991D01*
X110873328Y-82346468D01*
X110863001Y-82331013D01*
X110863000Y-82331011D01*
X110770537Y-82107785D01*
X110723400Y-81870811D01*
X110723400Y-81629189D01*
X110770537Y-81392215D01*
X110863000Y-81168989D01*
X110866630Y-81163557D01*
X110997238Y-80968088D01*
X111168088Y-80797238D01*
X111210942Y-80768604D01*
X111301115Y-80708352D01*
X111368987Y-80663001D01*
X111368989Y-80663000D01*
X111592215Y-80570537D01*
X111829189Y-80523400D01*
X112070811Y-80523400D01*
X112307785Y-80570537D01*
X112307785Y-80570537D01*
G37*
G36*
X72970443Y-81105519D02*
G01*
X73036627Y-81112037D01*
X73206466Y-81163557D01*
X73206468Y-81163558D01*
X73222522Y-81172139D01*
X73362991Y-81247222D01*
X73398729Y-81276552D01*
X73500186Y-81359814D01*
X73583448Y-81461271D01*
X73612778Y-81497009D01*
X73696443Y-81653534D01*
X73747963Y-81823373D01*
X73765359Y-82000000D01*
X73747963Y-82176627D01*
X73696443Y-82346466D01*
X73612778Y-82502991D01*
X73589044Y-82531911D01*
X73500186Y-82640186D01*
X73398729Y-82723448D01*
X73362991Y-82752778D01*
X73206466Y-82836443D01*
X73036627Y-82887963D01*
X72970443Y-82894481D01*
X72904260Y-82901000D01*
X72815740Y-82901000D01*
X72749557Y-82894481D01*
X72683373Y-82887963D01*
X72513534Y-82836443D01*
X72357009Y-82752778D01*
X72321271Y-82723448D01*
X72219814Y-82640186D01*
X72130956Y-82531911D01*
X72107222Y-82502991D01*
X72023557Y-82346466D01*
X71972037Y-82176627D01*
X71954641Y-82000000D01*
X71972037Y-81823373D01*
X72023557Y-81653534D01*
X72107222Y-81497009D01*
X72136552Y-81461271D01*
X72219814Y-81359814D01*
X72321271Y-81276552D01*
X72357009Y-81247222D01*
X72497478Y-81172139D01*
X72513532Y-81163558D01*
X72513534Y-81163557D01*
X72683373Y-81112037D01*
X72749557Y-81105519D01*
X72815740Y-81099000D01*
X72904260Y-81099000D01*
X72970443Y-81105519D01*
X72970443Y-81105519D01*
G37*
G36*
X70430443Y-81105519D02*
G01*
X70496627Y-81112037D01*
X70666466Y-81163557D01*
X70666468Y-81163558D01*
X70682522Y-81172139D01*
X70822991Y-81247222D01*
X70858729Y-81276552D01*
X70960186Y-81359814D01*
X71043448Y-81461271D01*
X71072778Y-81497009D01*
X71156443Y-81653534D01*
X71207963Y-81823373D01*
X71225359Y-82000000D01*
X71207963Y-82176627D01*
X71156443Y-82346466D01*
X71072778Y-82502991D01*
X71049044Y-82531911D01*
X70960186Y-82640186D01*
X70858729Y-82723448D01*
X70822991Y-82752778D01*
X70666466Y-82836443D01*
X70496627Y-82887963D01*
X70430443Y-82894481D01*
X70364260Y-82901000D01*
X70275740Y-82901000D01*
X70209557Y-82894481D01*
X70143373Y-82887963D01*
X69973534Y-82836443D01*
X69817009Y-82752778D01*
X69781271Y-82723448D01*
X69679814Y-82640186D01*
X69590956Y-82531911D01*
X69567222Y-82502991D01*
X69483557Y-82346466D01*
X69432037Y-82176627D01*
X69414641Y-82000000D01*
X69432037Y-81823373D01*
X69483557Y-81653534D01*
X69567222Y-81497009D01*
X69596552Y-81461271D01*
X69679814Y-81359814D01*
X69781271Y-81276552D01*
X69817009Y-81247222D01*
X69957478Y-81172139D01*
X69973532Y-81163558D01*
X69973534Y-81163557D01*
X70143373Y-81112037D01*
X70209557Y-81105519D01*
X70275740Y-81099000D01*
X70364260Y-81099000D01*
X70430443Y-81105519D01*
X70430443Y-81105519D01*
G37*
G36*
X67890443Y-81105519D02*
G01*
X67956627Y-81112037D01*
X68126466Y-81163557D01*
X68126468Y-81163558D01*
X68142522Y-81172139D01*
X68282991Y-81247222D01*
X68318729Y-81276552D01*
X68420186Y-81359814D01*
X68503448Y-81461271D01*
X68532778Y-81497009D01*
X68616443Y-81653534D01*
X68667963Y-81823373D01*
X68685359Y-82000000D01*
X68667963Y-82176627D01*
X68616443Y-82346466D01*
X68532778Y-82502991D01*
X68509044Y-82531911D01*
X68420186Y-82640186D01*
X68318729Y-82723448D01*
X68282991Y-82752778D01*
X68126466Y-82836443D01*
X67956627Y-82887963D01*
X67890443Y-82894481D01*
X67824260Y-82901000D01*
X67735740Y-82901000D01*
X67669557Y-82894481D01*
X67603373Y-82887963D01*
X67433534Y-82836443D01*
X67277009Y-82752778D01*
X67241271Y-82723448D01*
X67139814Y-82640186D01*
X67050956Y-82531911D01*
X67027222Y-82502991D01*
X66943557Y-82346466D01*
X66892037Y-82176627D01*
X66874641Y-82000000D01*
X66892037Y-81823373D01*
X66943557Y-81653534D01*
X67027222Y-81497009D01*
X67056552Y-81461271D01*
X67139814Y-81359814D01*
X67241271Y-81276552D01*
X67277009Y-81247222D01*
X67417478Y-81172139D01*
X67433532Y-81163558D01*
X67433534Y-81163557D01*
X67603373Y-81112037D01*
X67669557Y-81105519D01*
X67735740Y-81099000D01*
X67824260Y-81099000D01*
X67890443Y-81105519D01*
X67890443Y-81105519D01*
G37*
G36*
X76301000Y-82901000D02*
G01*
X74499000Y-82901000D01*
X74499000Y-81099000D01*
X76301000Y-81099000D01*
X76301000Y-82901000D01*
X76301000Y-82901000D01*
G37*
G36*
X65350443Y-81105519D02*
G01*
X65416627Y-81112037D01*
X65586466Y-81163557D01*
X65586468Y-81163558D01*
X65602522Y-81172139D01*
X65742991Y-81247222D01*
X65778729Y-81276552D01*
X65880186Y-81359814D01*
X65963448Y-81461271D01*
X65992778Y-81497009D01*
X66076443Y-81653534D01*
X66127963Y-81823373D01*
X66145359Y-82000000D01*
X66127963Y-82176627D01*
X66076443Y-82346466D01*
X65992778Y-82502991D01*
X65969044Y-82531911D01*
X65880186Y-82640186D01*
X65778729Y-82723448D01*
X65742991Y-82752778D01*
X65586466Y-82836443D01*
X65416627Y-82887963D01*
X65350443Y-82894481D01*
X65284260Y-82901000D01*
X65195740Y-82901000D01*
X65129557Y-82894481D01*
X65063373Y-82887963D01*
X64893534Y-82836443D01*
X64737009Y-82752778D01*
X64701271Y-82723448D01*
X64599814Y-82640186D01*
X64510956Y-82531911D01*
X64487222Y-82502991D01*
X64403557Y-82346466D01*
X64352037Y-82176627D01*
X64334641Y-82000000D01*
X64352037Y-81823373D01*
X64403557Y-81653534D01*
X64487222Y-81497009D01*
X64516552Y-81461271D01*
X64599814Y-81359814D01*
X64701271Y-81276552D01*
X64737009Y-81247222D01*
X64877478Y-81172139D01*
X64893532Y-81163558D01*
X64893534Y-81163557D01*
X65063373Y-81112037D01*
X65129557Y-81105519D01*
X65195740Y-81099000D01*
X65284260Y-81099000D01*
X65350443Y-81105519D01*
X65350443Y-81105519D01*
G37*
G36*
X87263400Y-82560920D02*
G01*
X85761400Y-82560920D01*
X85761400Y-81258920D01*
X87263400Y-81258920D01*
X87263400Y-82560920D01*
X87263400Y-82560920D01*
G37*
G36*
X84723400Y-82560920D02*
G01*
X83221400Y-82560920D01*
X83221400Y-81258920D01*
X84723400Y-81258920D01*
X84723400Y-82560920D01*
X84723400Y-82560920D01*
G37*
G36*
X104184468Y-79753565D02*
G01*
X104223138Y-79765296D01*
X104258777Y-79784346D01*
X104290017Y-79809983D01*
X104315654Y-79841223D01*
X104334704Y-79876862D01*
X104346435Y-79915532D01*
X104351000Y-79961888D01*
X104351000Y-81038112D01*
X104346435Y-81084468D01*
X104334704Y-81123138D01*
X104315654Y-81158777D01*
X104290017Y-81190017D01*
X104258777Y-81215654D01*
X104223138Y-81234704D01*
X104184468Y-81246435D01*
X104138112Y-81251000D01*
X103486888Y-81251000D01*
X103440532Y-81246435D01*
X103401862Y-81234704D01*
X103366223Y-81215654D01*
X103334983Y-81190017D01*
X103309346Y-81158777D01*
X103290296Y-81123138D01*
X103278565Y-81084468D01*
X103274000Y-81038112D01*
X103274000Y-79961888D01*
X103278565Y-79915532D01*
X103290296Y-79876862D01*
X103309346Y-79841223D01*
X103334983Y-79809983D01*
X103366223Y-79784346D01*
X103401862Y-79765296D01*
X103440532Y-79753565D01*
X103486888Y-79749000D01*
X104138112Y-79749000D01*
X104184468Y-79753565D01*
X104184468Y-79753565D01*
G37*
G36*
X106059468Y-79753565D02*
G01*
X106098138Y-79765296D01*
X106133777Y-79784346D01*
X106165017Y-79809983D01*
X106190654Y-79841223D01*
X106209704Y-79876862D01*
X106221435Y-79915532D01*
X106226000Y-79961888D01*
X106226000Y-81038112D01*
X106221435Y-81084468D01*
X106209704Y-81123138D01*
X106190654Y-81158777D01*
X106165017Y-81190017D01*
X106133777Y-81215654D01*
X106098138Y-81234704D01*
X106059468Y-81246435D01*
X106013112Y-81251000D01*
X105361888Y-81251000D01*
X105315532Y-81246435D01*
X105276862Y-81234704D01*
X105241223Y-81215654D01*
X105209983Y-81190017D01*
X105184346Y-81158777D01*
X105165296Y-81123138D01*
X105153565Y-81084468D01*
X105149000Y-81038112D01*
X105149000Y-79961888D01*
X105153565Y-79915532D01*
X105165296Y-79876862D01*
X105184346Y-79841223D01*
X105209983Y-79809983D01*
X105241223Y-79784346D01*
X105276862Y-79765296D01*
X105315532Y-79753565D01*
X105361888Y-79749000D01*
X106013112Y-79749000D01*
X106059468Y-79753565D01*
X106059468Y-79753565D01*
G37*
G36*
X90518604Y-79078347D02*
G01*
X90555144Y-79089432D01*
X90588821Y-79107433D01*
X90618341Y-79131659D01*
X90642567Y-79161179D01*
X90660568Y-79194856D01*
X90671653Y-79231396D01*
X90676000Y-79275538D01*
X90676000Y-80724462D01*
X90671653Y-80768604D01*
X90660568Y-80805144D01*
X90642567Y-80838821D01*
X90618341Y-80868341D01*
X90588821Y-80892567D01*
X90555144Y-80910568D01*
X90518604Y-80921653D01*
X90474462Y-80926000D01*
X89525538Y-80926000D01*
X89481396Y-80921653D01*
X89444856Y-80910568D01*
X89411179Y-80892567D01*
X89381659Y-80868341D01*
X89357433Y-80838821D01*
X89339432Y-80805144D01*
X89328347Y-80768604D01*
X89324000Y-80724462D01*
X89324000Y-79275538D01*
X89328347Y-79231396D01*
X89339432Y-79194856D01*
X89357433Y-79161179D01*
X89381659Y-79131659D01*
X89411179Y-79107433D01*
X89444856Y-79089432D01*
X89481396Y-79078347D01*
X89525538Y-79074000D01*
X90474462Y-79074000D01*
X90518604Y-79078347D01*
X90518604Y-79078347D01*
G37*
G36*
X93318604Y-79078347D02*
G01*
X93355144Y-79089432D01*
X93388821Y-79107433D01*
X93418341Y-79131659D01*
X93442567Y-79161179D01*
X93460568Y-79194856D01*
X93471653Y-79231396D01*
X93476000Y-79275538D01*
X93476000Y-80724462D01*
X93471653Y-80768604D01*
X93460568Y-80805144D01*
X93442567Y-80838821D01*
X93418341Y-80868341D01*
X93388821Y-80892567D01*
X93355144Y-80910568D01*
X93318604Y-80921653D01*
X93274462Y-80926000D01*
X92325538Y-80926000D01*
X92281396Y-80921653D01*
X92244856Y-80910568D01*
X92211179Y-80892567D01*
X92181659Y-80868341D01*
X92157433Y-80838821D01*
X92139432Y-80805144D01*
X92128347Y-80768604D01*
X92124000Y-80724462D01*
X92124000Y-79275538D01*
X92128347Y-79231396D01*
X92139432Y-79194856D01*
X92157433Y-79161179D01*
X92181659Y-79131659D01*
X92211179Y-79107433D01*
X92244856Y-79089432D01*
X92281396Y-79078347D01*
X92325538Y-79074000D01*
X93274462Y-79074000D01*
X93318604Y-79078347D01*
X93318604Y-79078347D01*
G37*
G36*
X87263400Y-80360920D02*
G01*
X85761400Y-80360920D01*
X85761400Y-79058920D01*
X87263400Y-79058920D01*
X87263400Y-80360920D01*
X87263400Y-80360920D01*
G37*
G36*
X84723400Y-80360920D02*
G01*
X83221400Y-80360920D01*
X83221400Y-79058920D01*
X84723400Y-79058920D01*
X84723400Y-80360920D01*
X84723400Y-80360920D01*
G37*
G36*
X61170443Y-76705519D02*
G01*
X61236627Y-76712037D01*
X61406466Y-76763557D01*
X61562991Y-76847222D01*
X61593352Y-76872139D01*
X61700186Y-76959814D01*
X61781969Y-77059468D01*
X61812778Y-77097009D01*
X61896443Y-77253534D01*
X61947963Y-77423373D01*
X61965359Y-77600000D01*
X61947963Y-77776627D01*
X61896443Y-77946466D01*
X61812778Y-78102991D01*
X61783448Y-78138729D01*
X61700186Y-78240186D01*
X61598729Y-78323448D01*
X61562991Y-78352778D01*
X61406466Y-78436443D01*
X61236627Y-78487963D01*
X61170442Y-78494482D01*
X61104260Y-78501000D01*
X61015740Y-78501000D01*
X60949558Y-78494482D01*
X60883373Y-78487963D01*
X60713534Y-78436443D01*
X60557009Y-78352778D01*
X60521271Y-78323448D01*
X60419814Y-78240186D01*
X60336552Y-78138729D01*
X60307222Y-78102991D01*
X60223557Y-77946466D01*
X60172037Y-77776627D01*
X60154641Y-77600000D01*
X60172037Y-77423373D01*
X60223557Y-77253534D01*
X60307222Y-77097009D01*
X60338031Y-77059468D01*
X60419814Y-76959814D01*
X60526648Y-76872139D01*
X60557009Y-76847222D01*
X60713534Y-76763557D01*
X60883373Y-76712037D01*
X60949557Y-76705519D01*
X61015740Y-76699000D01*
X61104260Y-76699000D01*
X61170443Y-76705519D01*
X61170443Y-76705519D01*
G37*
G36*
X64501000Y-78501000D02*
G01*
X62699000Y-78501000D01*
X62699000Y-76699000D01*
X64501000Y-76699000D01*
X64501000Y-78501000D01*
X64501000Y-78501000D01*
G37*
G36*
X81701000Y-78201000D02*
G01*
X77799000Y-78201000D01*
X77799000Y-76099000D01*
X81701000Y-76099000D01*
X81701000Y-78201000D01*
X81701000Y-78201000D01*
G37*
G36*
X93584468Y-76216065D02*
G01*
X93623138Y-76227796D01*
X93658777Y-76246846D01*
X93690017Y-76272483D01*
X93715654Y-76303723D01*
X93734704Y-76339362D01*
X93746435Y-76378032D01*
X93751000Y-76424388D01*
X93751000Y-77075612D01*
X93746435Y-77121968D01*
X93734704Y-77160638D01*
X93715654Y-77196277D01*
X93690017Y-77227517D01*
X93658777Y-77253154D01*
X93623138Y-77272204D01*
X93584468Y-77283935D01*
X93538112Y-77288500D01*
X92461888Y-77288500D01*
X92415532Y-77283935D01*
X92376862Y-77272204D01*
X92341223Y-77253154D01*
X92309983Y-77227517D01*
X92284346Y-77196277D01*
X92265296Y-77160638D01*
X92253565Y-77121968D01*
X92249000Y-77075612D01*
X92249000Y-76424388D01*
X92253565Y-76378032D01*
X92265296Y-76339362D01*
X92284346Y-76303723D01*
X92309983Y-76272483D01*
X92341223Y-76246846D01*
X92376862Y-76227796D01*
X92415532Y-76216065D01*
X92461888Y-76211500D01*
X93538112Y-76211500D01*
X93584468Y-76216065D01*
X93584468Y-76216065D01*
G37*
G36*
X96584468Y-76153565D02*
G01*
X96623138Y-76165296D01*
X96658777Y-76184346D01*
X96690017Y-76209983D01*
X96715654Y-76241223D01*
X96734704Y-76276862D01*
X96746435Y-76315532D01*
X96751000Y-76361888D01*
X96751000Y-77013112D01*
X96746435Y-77059468D01*
X96734704Y-77098138D01*
X96715654Y-77133777D01*
X96690017Y-77165017D01*
X96658777Y-77190654D01*
X96623138Y-77209704D01*
X96584468Y-77221435D01*
X96538112Y-77226000D01*
X95461888Y-77226000D01*
X95415532Y-77221435D01*
X95376862Y-77209704D01*
X95341223Y-77190654D01*
X95309983Y-77165017D01*
X95284346Y-77133777D01*
X95265296Y-77098138D01*
X95253565Y-77059468D01*
X95249000Y-77013112D01*
X95249000Y-76361888D01*
X95253565Y-76315532D01*
X95265296Y-76276862D01*
X95284346Y-76241223D01*
X95309983Y-76209983D01*
X95341223Y-76184346D01*
X95376862Y-76165296D01*
X95415532Y-76153565D01*
X95461888Y-76149000D01*
X96538112Y-76149000D01*
X96584468Y-76153565D01*
X96584468Y-76153565D01*
G37*
G36*
X90584468Y-76153565D02*
G01*
X90623138Y-76165296D01*
X90658777Y-76184346D01*
X90690017Y-76209983D01*
X90715654Y-76241223D01*
X90734704Y-76276862D01*
X90746435Y-76315532D01*
X90751000Y-76361888D01*
X90751000Y-77013112D01*
X90746435Y-77059468D01*
X90734704Y-77098138D01*
X90715654Y-77133777D01*
X90690017Y-77165017D01*
X90658777Y-77190654D01*
X90623138Y-77209704D01*
X90584468Y-77221435D01*
X90538112Y-77226000D01*
X89461888Y-77226000D01*
X89415532Y-77221435D01*
X89376862Y-77209704D01*
X89341223Y-77190654D01*
X89309983Y-77165017D01*
X89284346Y-77133777D01*
X89265296Y-77098138D01*
X89253565Y-77059468D01*
X89249000Y-77013112D01*
X89249000Y-76361888D01*
X89253565Y-76315532D01*
X89265296Y-76276862D01*
X89284346Y-76241223D01*
X89309983Y-76209983D01*
X89341223Y-76184346D01*
X89376862Y-76165296D01*
X89415532Y-76153565D01*
X89461888Y-76149000D01*
X90538112Y-76149000D01*
X90584468Y-76153565D01*
X90584468Y-76153565D01*
G37*
G36*
X73846968Y-75453565D02*
G01*
X73885638Y-75465296D01*
X73921277Y-75484346D01*
X73952517Y-75509983D01*
X73978154Y-75541223D01*
X73997204Y-75576862D01*
X74008935Y-75615532D01*
X74013500Y-75661888D01*
X74013500Y-76738112D01*
X74008935Y-76784468D01*
X73997204Y-76823138D01*
X73978154Y-76858777D01*
X73952517Y-76890017D01*
X73921277Y-76915654D01*
X73885638Y-76934704D01*
X73846968Y-76946435D01*
X73800612Y-76951000D01*
X73149388Y-76951000D01*
X73103032Y-76946435D01*
X73064362Y-76934704D01*
X73028723Y-76915654D01*
X72997483Y-76890017D01*
X72971846Y-76858777D01*
X72952796Y-76823138D01*
X72941065Y-76784468D01*
X72936500Y-76738112D01*
X72936500Y-75661888D01*
X72941065Y-75615532D01*
X72952796Y-75576862D01*
X72971846Y-75541223D01*
X72997483Y-75509983D01*
X73028723Y-75484346D01*
X73064362Y-75465296D01*
X73103032Y-75453565D01*
X73149388Y-75449000D01*
X73800612Y-75449000D01*
X73846968Y-75453565D01*
X73846968Y-75453565D01*
G37*
G36*
X69709468Y-75453565D02*
G01*
X69748138Y-75465296D01*
X69783777Y-75484346D01*
X69815017Y-75509983D01*
X69840654Y-75541223D01*
X69859704Y-75576862D01*
X69871435Y-75615532D01*
X69876000Y-75661888D01*
X69876000Y-76738112D01*
X69871435Y-76784468D01*
X69859704Y-76823138D01*
X69840654Y-76858777D01*
X69815017Y-76890017D01*
X69783777Y-76915654D01*
X69748138Y-76934704D01*
X69709468Y-76946435D01*
X69663112Y-76951000D01*
X69011888Y-76951000D01*
X68965532Y-76946435D01*
X68926862Y-76934704D01*
X68891223Y-76915654D01*
X68859983Y-76890017D01*
X68834346Y-76858777D01*
X68815296Y-76823138D01*
X68803565Y-76784468D01*
X68799000Y-76738112D01*
X68799000Y-75661888D01*
X68803565Y-75615532D01*
X68815296Y-75576862D01*
X68834346Y-75541223D01*
X68859983Y-75509983D01*
X68891223Y-75484346D01*
X68926862Y-75465296D01*
X68965532Y-75453565D01*
X69011888Y-75449000D01*
X69663112Y-75449000D01*
X69709468Y-75453565D01*
X69709468Y-75453565D01*
G37*
G36*
X71971968Y-75453565D02*
G01*
X72010638Y-75465296D01*
X72046277Y-75484346D01*
X72077517Y-75509983D01*
X72103154Y-75541223D01*
X72122204Y-75576862D01*
X72133935Y-75615532D01*
X72138500Y-75661888D01*
X72138500Y-76738112D01*
X72133935Y-76784468D01*
X72122204Y-76823138D01*
X72103154Y-76858777D01*
X72077517Y-76890017D01*
X72046277Y-76915654D01*
X72010638Y-76934704D01*
X71971968Y-76946435D01*
X71925612Y-76951000D01*
X71274388Y-76951000D01*
X71228032Y-76946435D01*
X71189362Y-76934704D01*
X71153723Y-76915654D01*
X71122483Y-76890017D01*
X71096846Y-76858777D01*
X71077796Y-76823138D01*
X71066065Y-76784468D01*
X71061500Y-76738112D01*
X71061500Y-75661888D01*
X71066065Y-75615532D01*
X71077796Y-75576862D01*
X71096846Y-75541223D01*
X71122483Y-75509983D01*
X71153723Y-75484346D01*
X71189362Y-75465296D01*
X71228032Y-75453565D01*
X71274388Y-75449000D01*
X71925612Y-75449000D01*
X71971968Y-75453565D01*
X71971968Y-75453565D01*
G37*
G36*
X67834468Y-75453565D02*
G01*
X67873138Y-75465296D01*
X67908777Y-75484346D01*
X67940017Y-75509983D01*
X67965654Y-75541223D01*
X67984704Y-75576862D01*
X67996435Y-75615532D01*
X68001000Y-75661888D01*
X68001000Y-76738112D01*
X67996435Y-76784468D01*
X67984704Y-76823138D01*
X67965654Y-76858777D01*
X67940017Y-76890017D01*
X67908777Y-76915654D01*
X67873138Y-76934704D01*
X67834468Y-76946435D01*
X67788112Y-76951000D01*
X67136888Y-76951000D01*
X67090532Y-76946435D01*
X67051862Y-76934704D01*
X67016223Y-76915654D01*
X66984983Y-76890017D01*
X66959346Y-76858777D01*
X66940296Y-76823138D01*
X66928565Y-76784468D01*
X66924000Y-76738112D01*
X66924000Y-75661888D01*
X66928565Y-75615532D01*
X66940296Y-75576862D01*
X66959346Y-75541223D01*
X66984983Y-75509983D01*
X67016223Y-75484346D01*
X67051862Y-75465296D01*
X67090532Y-75453565D01*
X67136888Y-75449000D01*
X67788112Y-75449000D01*
X67834468Y-75453565D01*
X67834468Y-75453565D01*
G37*
G36*
X88098604Y-74328347D02*
G01*
X88135144Y-74339432D01*
X88168821Y-74357433D01*
X88198341Y-74381659D01*
X88222567Y-74411179D01*
X88240568Y-74444856D01*
X88251653Y-74481396D01*
X88256000Y-74525538D01*
X88256000Y-75974462D01*
X88251653Y-76018604D01*
X88240568Y-76055144D01*
X88222567Y-76088821D01*
X88198341Y-76118341D01*
X88168821Y-76142567D01*
X88135144Y-76160568D01*
X88098604Y-76171653D01*
X88054462Y-76176000D01*
X87105538Y-76176000D01*
X87061396Y-76171653D01*
X87024856Y-76160568D01*
X86991179Y-76142567D01*
X86961659Y-76118341D01*
X86937433Y-76088821D01*
X86919432Y-76055144D01*
X86908347Y-76018604D01*
X86904000Y-75974462D01*
X86904000Y-74525538D01*
X86908347Y-74481396D01*
X86919432Y-74444856D01*
X86937433Y-74411179D01*
X86961659Y-74381659D01*
X86991179Y-74357433D01*
X87024856Y-74339432D01*
X87061396Y-74328347D01*
X87105538Y-74324000D01*
X88054462Y-74324000D01*
X88098604Y-74328347D01*
X88098604Y-74328347D01*
G37*
G36*
X85298604Y-74328347D02*
G01*
X85335144Y-74339432D01*
X85368821Y-74357433D01*
X85398341Y-74381659D01*
X85422567Y-74411179D01*
X85440568Y-74444856D01*
X85451653Y-74481396D01*
X85456000Y-74525538D01*
X85456000Y-75974462D01*
X85451653Y-76018604D01*
X85440568Y-76055144D01*
X85422567Y-76088821D01*
X85398341Y-76118341D01*
X85368821Y-76142567D01*
X85335144Y-76160568D01*
X85298604Y-76171653D01*
X85254462Y-76176000D01*
X84305538Y-76176000D01*
X84261396Y-76171653D01*
X84224856Y-76160568D01*
X84191179Y-76142567D01*
X84161659Y-76118341D01*
X84137433Y-76088821D01*
X84119432Y-76055144D01*
X84108347Y-76018604D01*
X84104000Y-75974462D01*
X84104000Y-74525538D01*
X84108347Y-74481396D01*
X84119432Y-74444856D01*
X84137433Y-74411179D01*
X84161659Y-74381659D01*
X84191179Y-74357433D01*
X84224856Y-74339432D01*
X84261396Y-74328347D01*
X84305538Y-74324000D01*
X85254462Y-74324000D01*
X85298604Y-74328347D01*
X85298604Y-74328347D01*
G37*
G36*
X104621968Y-74253565D02*
G01*
X104660638Y-74265296D01*
X104696277Y-74284346D01*
X104727517Y-74309983D01*
X104753154Y-74341223D01*
X104772204Y-74376862D01*
X104783935Y-74415532D01*
X104788500Y-74461888D01*
X104788500Y-75538112D01*
X104783935Y-75584468D01*
X104772204Y-75623138D01*
X104753154Y-75658777D01*
X104727517Y-75690017D01*
X104696277Y-75715654D01*
X104660638Y-75734704D01*
X104621968Y-75746435D01*
X104575612Y-75751000D01*
X103924388Y-75751000D01*
X103878032Y-75746435D01*
X103839362Y-75734704D01*
X103803723Y-75715654D01*
X103772483Y-75690017D01*
X103746846Y-75658777D01*
X103727796Y-75623138D01*
X103716065Y-75584468D01*
X103711500Y-75538112D01*
X103711500Y-74461888D01*
X103716065Y-74415532D01*
X103727796Y-74376862D01*
X103746846Y-74341223D01*
X103772483Y-74309983D01*
X103803723Y-74284346D01*
X103839362Y-74265296D01*
X103878032Y-74253565D01*
X103924388Y-74249000D01*
X104575612Y-74249000D01*
X104621968Y-74253565D01*
X104621968Y-74253565D01*
G37*
G36*
X106496968Y-74253565D02*
G01*
X106535638Y-74265296D01*
X106571277Y-74284346D01*
X106602517Y-74309983D01*
X106628154Y-74341223D01*
X106647204Y-74376862D01*
X106658935Y-74415532D01*
X106663500Y-74461888D01*
X106663500Y-75538112D01*
X106658935Y-75584468D01*
X106647204Y-75623138D01*
X106628154Y-75658777D01*
X106602517Y-75690017D01*
X106571277Y-75715654D01*
X106535638Y-75734704D01*
X106496968Y-75746435D01*
X106450612Y-75751000D01*
X105799388Y-75751000D01*
X105753032Y-75746435D01*
X105714362Y-75734704D01*
X105678723Y-75715654D01*
X105647483Y-75690017D01*
X105621846Y-75658777D01*
X105602796Y-75623138D01*
X105591065Y-75584468D01*
X105586500Y-75538112D01*
X105586500Y-74461888D01*
X105591065Y-74415532D01*
X105602796Y-74376862D01*
X105621846Y-74341223D01*
X105647483Y-74309983D01*
X105678723Y-74284346D01*
X105714362Y-74265296D01*
X105753032Y-74253565D01*
X105799388Y-74249000D01*
X106450612Y-74249000D01*
X106496968Y-74253565D01*
X106496968Y-74253565D01*
G37*
G36*
X93584468Y-74341065D02*
G01*
X93623138Y-74352796D01*
X93658777Y-74371846D01*
X93690017Y-74397483D01*
X93715654Y-74428723D01*
X93734704Y-74464362D01*
X93746435Y-74503032D01*
X93751000Y-74549388D01*
X93751000Y-75200612D01*
X93746435Y-75246968D01*
X93734704Y-75285638D01*
X93715654Y-75321277D01*
X93690017Y-75352517D01*
X93658777Y-75378154D01*
X93623138Y-75397204D01*
X93584468Y-75408935D01*
X93538112Y-75413500D01*
X92461888Y-75413500D01*
X92415532Y-75408935D01*
X92376862Y-75397204D01*
X92341223Y-75378154D01*
X92309983Y-75352517D01*
X92284346Y-75321277D01*
X92265296Y-75285638D01*
X92253565Y-75246968D01*
X92249000Y-75200612D01*
X92249000Y-74549388D01*
X92253565Y-74503032D01*
X92265296Y-74464362D01*
X92284346Y-74428723D01*
X92309983Y-74397483D01*
X92341223Y-74371846D01*
X92376862Y-74352796D01*
X92415532Y-74341065D01*
X92461888Y-74336500D01*
X93538112Y-74336500D01*
X93584468Y-74341065D01*
X93584468Y-74341065D01*
G37*
G36*
X90584468Y-74278565D02*
G01*
X90623138Y-74290296D01*
X90658777Y-74309346D01*
X90690017Y-74334983D01*
X90715654Y-74366223D01*
X90734704Y-74401862D01*
X90746435Y-74440532D01*
X90751000Y-74486888D01*
X90751000Y-75138112D01*
X90746435Y-75184468D01*
X90734704Y-75223138D01*
X90715654Y-75258777D01*
X90690017Y-75290017D01*
X90658777Y-75315654D01*
X90623138Y-75334704D01*
X90584468Y-75346435D01*
X90538112Y-75351000D01*
X89461888Y-75351000D01*
X89415532Y-75346435D01*
X89376862Y-75334704D01*
X89341223Y-75315654D01*
X89309983Y-75290017D01*
X89284346Y-75258777D01*
X89265296Y-75223138D01*
X89253565Y-75184468D01*
X89249000Y-75138112D01*
X89249000Y-74486888D01*
X89253565Y-74440532D01*
X89265296Y-74401862D01*
X89284346Y-74366223D01*
X89309983Y-74334983D01*
X89341223Y-74309346D01*
X89376862Y-74290296D01*
X89415532Y-74278565D01*
X89461888Y-74274000D01*
X90538112Y-74274000D01*
X90584468Y-74278565D01*
X90584468Y-74278565D01*
G37*
G36*
X96584468Y-74278565D02*
G01*
X96623138Y-74290296D01*
X96658777Y-74309346D01*
X96690017Y-74334983D01*
X96715654Y-74366223D01*
X96734704Y-74401862D01*
X96746435Y-74440532D01*
X96751000Y-74486888D01*
X96751000Y-75138112D01*
X96746435Y-75184468D01*
X96734704Y-75223138D01*
X96715654Y-75258777D01*
X96690017Y-75290017D01*
X96658777Y-75315654D01*
X96623138Y-75334704D01*
X96584468Y-75346435D01*
X96538112Y-75351000D01*
X95461888Y-75351000D01*
X95415532Y-75346435D01*
X95376862Y-75334704D01*
X95341223Y-75315654D01*
X95309983Y-75290017D01*
X95284346Y-75258777D01*
X95265296Y-75223138D01*
X95253565Y-75184468D01*
X95249000Y-75138112D01*
X95249000Y-74486888D01*
X95253565Y-74440532D01*
X95265296Y-74401862D01*
X95284346Y-74366223D01*
X95309983Y-74334983D01*
X95341223Y-74309346D01*
X95376862Y-74290296D01*
X95415532Y-74278565D01*
X95461888Y-74274000D01*
X96538112Y-74274000D01*
X96584468Y-74278565D01*
X96584468Y-74278565D01*
G37*
G36*
X60434468Y-72653565D02*
G01*
X60473138Y-72665296D01*
X60508777Y-72684346D01*
X60540017Y-72709983D01*
X60565654Y-72741223D01*
X60584704Y-72776862D01*
X60596435Y-72815532D01*
X60601000Y-72861888D01*
X60601000Y-73938112D01*
X60596435Y-73984468D01*
X60584704Y-74023138D01*
X60565654Y-74058777D01*
X60540017Y-74090017D01*
X60508777Y-74115654D01*
X60473138Y-74134704D01*
X60434468Y-74146435D01*
X60388112Y-74151000D01*
X59736888Y-74151000D01*
X59690532Y-74146435D01*
X59651862Y-74134704D01*
X59616223Y-74115654D01*
X59584983Y-74090017D01*
X59559346Y-74058777D01*
X59540296Y-74023138D01*
X59528565Y-73984468D01*
X59524000Y-73938112D01*
X59524000Y-72861888D01*
X59528565Y-72815532D01*
X59540296Y-72776862D01*
X59559346Y-72741223D01*
X59584983Y-72709983D01*
X59616223Y-72684346D01*
X59651862Y-72665296D01*
X59690532Y-72653565D01*
X59736888Y-72649000D01*
X60388112Y-72649000D01*
X60434468Y-72653565D01*
X60434468Y-72653565D01*
G37*
G36*
X62309468Y-72653565D02*
G01*
X62348138Y-72665296D01*
X62383777Y-72684346D01*
X62415017Y-72709983D01*
X62440654Y-72741223D01*
X62459704Y-72776862D01*
X62471435Y-72815532D01*
X62476000Y-72861888D01*
X62476000Y-73938112D01*
X62471435Y-73984468D01*
X62459704Y-74023138D01*
X62440654Y-74058777D01*
X62415017Y-74090017D01*
X62383777Y-74115654D01*
X62348138Y-74134704D01*
X62309468Y-74146435D01*
X62263112Y-74151000D01*
X61611888Y-74151000D01*
X61565532Y-74146435D01*
X61526862Y-74134704D01*
X61491223Y-74115654D01*
X61459983Y-74090017D01*
X61434346Y-74058777D01*
X61415296Y-74023138D01*
X61403565Y-73984468D01*
X61399000Y-73938112D01*
X61399000Y-72861888D01*
X61403565Y-72815532D01*
X61415296Y-72776862D01*
X61434346Y-72741223D01*
X61459983Y-72709983D01*
X61491223Y-72684346D01*
X61526862Y-72665296D01*
X61565532Y-72653565D01*
X61611888Y-72649000D01*
X62263112Y-72649000D01*
X62309468Y-72653565D01*
X62309468Y-72653565D01*
G37*
G36*
X109801000Y-73801000D02*
G01*
X107699000Y-73801000D01*
X107699000Y-71699000D01*
X109801000Y-71699000D01*
X109801000Y-73801000D01*
X109801000Y-73801000D01*
G37*
G36*
X116556564Y-71739389D02*
G01*
X116747833Y-71818615D01*
X116747835Y-71818616D01*
X116919973Y-71933635D01*
X117066365Y-72080027D01*
X117180606Y-72251000D01*
X117181385Y-72252167D01*
X117260611Y-72443436D01*
X117301000Y-72646484D01*
X117301000Y-72853516D01*
X117260611Y-73056564D01*
X117181385Y-73247833D01*
X117181384Y-73247835D01*
X117066365Y-73419973D01*
X116919973Y-73566365D01*
X116747835Y-73681384D01*
X116747834Y-73681385D01*
X116747833Y-73681385D01*
X116556564Y-73760611D01*
X116353516Y-73801000D01*
X116146484Y-73801000D01*
X115943436Y-73760611D01*
X115752167Y-73681385D01*
X115752166Y-73681385D01*
X115752165Y-73681384D01*
X115580027Y-73566365D01*
X115433635Y-73419973D01*
X115318616Y-73247835D01*
X115318615Y-73247833D01*
X115239389Y-73056564D01*
X115199000Y-72853516D01*
X115199000Y-72646484D01*
X115239389Y-72443436D01*
X115318615Y-72252167D01*
X115319395Y-72251000D01*
X115433635Y-72080027D01*
X115580027Y-71933635D01*
X115752165Y-71818616D01*
X115752167Y-71818615D01*
X115943436Y-71739389D01*
X116146484Y-71699000D01*
X116353516Y-71699000D01*
X116556564Y-71739389D01*
X116556564Y-71739389D01*
G37*
G36*
X73846968Y-72253565D02*
G01*
X73885638Y-72265296D01*
X73921277Y-72284346D01*
X73952517Y-72309983D01*
X73978154Y-72341223D01*
X73997204Y-72376862D01*
X74008935Y-72415532D01*
X74013500Y-72461888D01*
X74013500Y-73538112D01*
X74008935Y-73584468D01*
X73997204Y-73623138D01*
X73978154Y-73658777D01*
X73952517Y-73690017D01*
X73921277Y-73715654D01*
X73885638Y-73734704D01*
X73846968Y-73746435D01*
X73800612Y-73751000D01*
X73149388Y-73751000D01*
X73103032Y-73746435D01*
X73064362Y-73734704D01*
X73028723Y-73715654D01*
X72997483Y-73690017D01*
X72971846Y-73658777D01*
X72952796Y-73623138D01*
X72941065Y-73584468D01*
X72936500Y-73538112D01*
X72936500Y-72461888D01*
X72941065Y-72415532D01*
X72952796Y-72376862D01*
X72971846Y-72341223D01*
X72997483Y-72309983D01*
X73028723Y-72284346D01*
X73064362Y-72265296D01*
X73103032Y-72253565D01*
X73149388Y-72249000D01*
X73800612Y-72249000D01*
X73846968Y-72253565D01*
X73846968Y-72253565D01*
G37*
G36*
X67834468Y-72253565D02*
G01*
X67873138Y-72265296D01*
X67908777Y-72284346D01*
X67940017Y-72309983D01*
X67965654Y-72341223D01*
X67984704Y-72376862D01*
X67996435Y-72415532D01*
X68001000Y-72461888D01*
X68001000Y-73538112D01*
X67996435Y-73584468D01*
X67984704Y-73623138D01*
X67965654Y-73658777D01*
X67940017Y-73690017D01*
X67908777Y-73715654D01*
X67873138Y-73734704D01*
X67834468Y-73746435D01*
X67788112Y-73751000D01*
X67136888Y-73751000D01*
X67090532Y-73746435D01*
X67051862Y-73734704D01*
X67016223Y-73715654D01*
X66984983Y-73690017D01*
X66959346Y-73658777D01*
X66940296Y-73623138D01*
X66928565Y-73584468D01*
X66924000Y-73538112D01*
X66924000Y-72461888D01*
X66928565Y-72415532D01*
X66940296Y-72376862D01*
X66959346Y-72341223D01*
X66984983Y-72309983D01*
X67016223Y-72284346D01*
X67051862Y-72265296D01*
X67090532Y-72253565D01*
X67136888Y-72249000D01*
X67788112Y-72249000D01*
X67834468Y-72253565D01*
X67834468Y-72253565D01*
G37*
G36*
X69709468Y-72253565D02*
G01*
X69748138Y-72265296D01*
X69783777Y-72284346D01*
X69815017Y-72309983D01*
X69840654Y-72341223D01*
X69859704Y-72376862D01*
X69871435Y-72415532D01*
X69876000Y-72461888D01*
X69876000Y-73538112D01*
X69871435Y-73584468D01*
X69859704Y-73623138D01*
X69840654Y-73658777D01*
X69815017Y-73690017D01*
X69783777Y-73715654D01*
X69748138Y-73734704D01*
X69709468Y-73746435D01*
X69663112Y-73751000D01*
X69011888Y-73751000D01*
X68965532Y-73746435D01*
X68926862Y-73734704D01*
X68891223Y-73715654D01*
X68859983Y-73690017D01*
X68834346Y-73658777D01*
X68815296Y-73623138D01*
X68803565Y-73584468D01*
X68799000Y-73538112D01*
X68799000Y-72461888D01*
X68803565Y-72415532D01*
X68815296Y-72376862D01*
X68834346Y-72341223D01*
X68859983Y-72309983D01*
X68891223Y-72284346D01*
X68926862Y-72265296D01*
X68965532Y-72253565D01*
X69011888Y-72249000D01*
X69663112Y-72249000D01*
X69709468Y-72253565D01*
X69709468Y-72253565D01*
G37*
G36*
X71971968Y-72253565D02*
G01*
X72010638Y-72265296D01*
X72046277Y-72284346D01*
X72077517Y-72309983D01*
X72103154Y-72341223D01*
X72122204Y-72376862D01*
X72133935Y-72415532D01*
X72138500Y-72461888D01*
X72138500Y-73538112D01*
X72133935Y-73584468D01*
X72122204Y-73623138D01*
X72103154Y-73658777D01*
X72077517Y-73690017D01*
X72046277Y-73715654D01*
X72010638Y-73734704D01*
X71971968Y-73746435D01*
X71925612Y-73751000D01*
X71274388Y-73751000D01*
X71228032Y-73746435D01*
X71189362Y-73734704D01*
X71153723Y-73715654D01*
X71122483Y-73690017D01*
X71096846Y-73658777D01*
X71077796Y-73623138D01*
X71066065Y-73584468D01*
X71061500Y-73538112D01*
X71061500Y-72461888D01*
X71066065Y-72415532D01*
X71077796Y-72376862D01*
X71096846Y-72341223D01*
X71122483Y-72309983D01*
X71153723Y-72284346D01*
X71189362Y-72265296D01*
X71228032Y-72253565D01*
X71274388Y-72249000D01*
X71925612Y-72249000D01*
X71971968Y-72253565D01*
X71971968Y-72253565D01*
G37*
G36*
X102226000Y-73126000D02*
G01*
X100674000Y-73126000D01*
X100674000Y-68674000D01*
X102226000Y-68674000D01*
X102226000Y-73126000D01*
X102226000Y-73126000D01*
G37*
G36*
X96326000Y-73126000D02*
G01*
X94774000Y-73126000D01*
X94774000Y-68674000D01*
X96326000Y-68674000D01*
X96326000Y-73126000D01*
X96326000Y-73126000D01*
G37*
G36*
X90584468Y-71903565D02*
G01*
X90623138Y-71915296D01*
X90658777Y-71934346D01*
X90690017Y-71959983D01*
X90715654Y-71991223D01*
X90734704Y-72026862D01*
X90746435Y-72065532D01*
X90751000Y-72111888D01*
X90751000Y-72763112D01*
X90746435Y-72809468D01*
X90734704Y-72848138D01*
X90715654Y-72883777D01*
X90690017Y-72915017D01*
X90658777Y-72940654D01*
X90623138Y-72959704D01*
X90584468Y-72971435D01*
X90538112Y-72976000D01*
X89461888Y-72976000D01*
X89415532Y-72971435D01*
X89376862Y-72959704D01*
X89341223Y-72940654D01*
X89309983Y-72915017D01*
X89284346Y-72883777D01*
X89265296Y-72848138D01*
X89253565Y-72809468D01*
X89249000Y-72763112D01*
X89249000Y-72111888D01*
X89253565Y-72065532D01*
X89265296Y-72026862D01*
X89284346Y-71991223D01*
X89309983Y-71959983D01*
X89341223Y-71934346D01*
X89376862Y-71915296D01*
X89415532Y-71903565D01*
X89461888Y-71899000D01*
X90538112Y-71899000D01*
X90584468Y-71903565D01*
X90584468Y-71903565D01*
G37*
G36*
X93334468Y-71903565D02*
G01*
X93373138Y-71915296D01*
X93408777Y-71934346D01*
X93440017Y-71959983D01*
X93465654Y-71991223D01*
X93484704Y-72026862D01*
X93496435Y-72065532D01*
X93501000Y-72111888D01*
X93501000Y-72763112D01*
X93496435Y-72809468D01*
X93484704Y-72848138D01*
X93465654Y-72883777D01*
X93440017Y-72915017D01*
X93408777Y-72940654D01*
X93373138Y-72959704D01*
X93334468Y-72971435D01*
X93288112Y-72976000D01*
X92211888Y-72976000D01*
X92165532Y-72971435D01*
X92126862Y-72959704D01*
X92091223Y-72940654D01*
X92059983Y-72915017D01*
X92034346Y-72883777D01*
X92015296Y-72848138D01*
X92003565Y-72809468D01*
X91999000Y-72763112D01*
X91999000Y-72111888D01*
X92003565Y-72065532D01*
X92015296Y-72026862D01*
X92034346Y-71991223D01*
X92059983Y-71959983D01*
X92091223Y-71934346D01*
X92126862Y-71915296D01*
X92165532Y-71903565D01*
X92211888Y-71899000D01*
X93288112Y-71899000D01*
X93334468Y-71903565D01*
X93334468Y-71903565D01*
G37*
G36*
X100051000Y-72751000D02*
G01*
X96949000Y-72751000D01*
X96949000Y-69049000D01*
X100051000Y-69049000D01*
X100051000Y-72751000D01*
X100051000Y-72751000D01*
G37*
G36*
X88098604Y-70828347D02*
G01*
X88135144Y-70839432D01*
X88168821Y-70857433D01*
X88198341Y-70881659D01*
X88222567Y-70911179D01*
X88240568Y-70944856D01*
X88251653Y-70981396D01*
X88256000Y-71025538D01*
X88256000Y-72474462D01*
X88251653Y-72518604D01*
X88240568Y-72555144D01*
X88222567Y-72588821D01*
X88198341Y-72618341D01*
X88168821Y-72642567D01*
X88135144Y-72660568D01*
X88098604Y-72671653D01*
X88054462Y-72676000D01*
X87105538Y-72676000D01*
X87061396Y-72671653D01*
X87024856Y-72660568D01*
X86991179Y-72642567D01*
X86961659Y-72618341D01*
X86937433Y-72588821D01*
X86919432Y-72555144D01*
X86908347Y-72518604D01*
X86904000Y-72474462D01*
X86904000Y-71025538D01*
X86908347Y-70981396D01*
X86919432Y-70944856D01*
X86937433Y-70911179D01*
X86961659Y-70881659D01*
X86991179Y-70857433D01*
X87024856Y-70839432D01*
X87061396Y-70828347D01*
X87105538Y-70824000D01*
X88054462Y-70824000D01*
X88098604Y-70828347D01*
X88098604Y-70828347D01*
G37*
G36*
X85298604Y-70828347D02*
G01*
X85335144Y-70839432D01*
X85368821Y-70857433D01*
X85398341Y-70881659D01*
X85422567Y-70911179D01*
X85440568Y-70944856D01*
X85451653Y-70981396D01*
X85456000Y-71025538D01*
X85456000Y-72474462D01*
X85451653Y-72518604D01*
X85440568Y-72555144D01*
X85422567Y-72588821D01*
X85398341Y-72618341D01*
X85368821Y-72642567D01*
X85335144Y-72660568D01*
X85298604Y-72671653D01*
X85254462Y-72676000D01*
X84305538Y-72676000D01*
X84261396Y-72671653D01*
X84224856Y-72660568D01*
X84191179Y-72642567D01*
X84161659Y-72618341D01*
X84137433Y-72588821D01*
X84119432Y-72555144D01*
X84108347Y-72518604D01*
X84104000Y-72474462D01*
X84104000Y-71025538D01*
X84108347Y-70981396D01*
X84119432Y-70944856D01*
X84137433Y-70911179D01*
X84161659Y-70881659D01*
X84191179Y-70857433D01*
X84224856Y-70839432D01*
X84261396Y-70828347D01*
X84305538Y-70824000D01*
X85254462Y-70824000D01*
X85298604Y-70828347D01*
X85298604Y-70828347D01*
G37*
G36*
X106496968Y-70753565D02*
G01*
X106535638Y-70765296D01*
X106571277Y-70784346D01*
X106602517Y-70809983D01*
X106628154Y-70841223D01*
X106647204Y-70876862D01*
X106658935Y-70915532D01*
X106663500Y-70961888D01*
X106663500Y-72038112D01*
X106658935Y-72084468D01*
X106647204Y-72123138D01*
X106628154Y-72158777D01*
X106602517Y-72190017D01*
X106571277Y-72215654D01*
X106535638Y-72234704D01*
X106496968Y-72246435D01*
X106450612Y-72251000D01*
X105799388Y-72251000D01*
X105753032Y-72246435D01*
X105714362Y-72234704D01*
X105678723Y-72215654D01*
X105647483Y-72190017D01*
X105621846Y-72158777D01*
X105602796Y-72123138D01*
X105591065Y-72084468D01*
X105586500Y-72038112D01*
X105586500Y-70961888D01*
X105591065Y-70915532D01*
X105602796Y-70876862D01*
X105621846Y-70841223D01*
X105647483Y-70809983D01*
X105678723Y-70784346D01*
X105714362Y-70765296D01*
X105753032Y-70753565D01*
X105799388Y-70749000D01*
X106450612Y-70749000D01*
X106496968Y-70753565D01*
X106496968Y-70753565D01*
G37*
G36*
X104621968Y-70753565D02*
G01*
X104660638Y-70765296D01*
X104696277Y-70784346D01*
X104727517Y-70809983D01*
X104753154Y-70841223D01*
X104772204Y-70876862D01*
X104783935Y-70915532D01*
X104788500Y-70961888D01*
X104788500Y-72038112D01*
X104783935Y-72084468D01*
X104772204Y-72123138D01*
X104753154Y-72158777D01*
X104727517Y-72190017D01*
X104696277Y-72215654D01*
X104660638Y-72234704D01*
X104621968Y-72246435D01*
X104575612Y-72251000D01*
X103924388Y-72251000D01*
X103878032Y-72246435D01*
X103839362Y-72234704D01*
X103803723Y-72215654D01*
X103772483Y-72190017D01*
X103746846Y-72158777D01*
X103727796Y-72123138D01*
X103716065Y-72084468D01*
X103711500Y-72038112D01*
X103711500Y-70961888D01*
X103716065Y-70915532D01*
X103727796Y-70876862D01*
X103746846Y-70841223D01*
X103772483Y-70809983D01*
X103803723Y-70784346D01*
X103839362Y-70765296D01*
X103878032Y-70753565D01*
X103924388Y-70749000D01*
X104575612Y-70749000D01*
X104621968Y-70753565D01*
X104621968Y-70753565D01*
G37*
G36*
X80551000Y-71901000D02*
G01*
X78949000Y-71901000D01*
X78949000Y-69799000D01*
X80551000Y-69799000D01*
X80551000Y-71901000D01*
X80551000Y-71901000D01*
G37*
G36*
X82851000Y-71901000D02*
G01*
X81249000Y-71901000D01*
X81249000Y-69799000D01*
X82851000Y-69799000D01*
X82851000Y-71901000D01*
X82851000Y-71901000D01*
G37*
G36*
X78251000Y-71901000D02*
G01*
X76649000Y-71901000D01*
X76649000Y-69799000D01*
X78251000Y-69799000D01*
X78251000Y-71901000D01*
X78251000Y-71901000D01*
G37*
G36*
X93334468Y-70028565D02*
G01*
X93373138Y-70040296D01*
X93408777Y-70059346D01*
X93440017Y-70084983D01*
X93465654Y-70116223D01*
X93484704Y-70151862D01*
X93496435Y-70190532D01*
X93501000Y-70236888D01*
X93501000Y-70888112D01*
X93496435Y-70934468D01*
X93484704Y-70973138D01*
X93465654Y-71008777D01*
X93440017Y-71040017D01*
X93408777Y-71065654D01*
X93373138Y-71084704D01*
X93334468Y-71096435D01*
X93288112Y-71101000D01*
X92211888Y-71101000D01*
X92165532Y-71096435D01*
X92126862Y-71084704D01*
X92091223Y-71065654D01*
X92059983Y-71040017D01*
X92034346Y-71008777D01*
X92015296Y-70973138D01*
X92003565Y-70934468D01*
X91999000Y-70888112D01*
X91999000Y-70236888D01*
X92003565Y-70190532D01*
X92015296Y-70151862D01*
X92034346Y-70116223D01*
X92059983Y-70084983D01*
X92091223Y-70059346D01*
X92126862Y-70040296D01*
X92165532Y-70028565D01*
X92211888Y-70024000D01*
X93288112Y-70024000D01*
X93334468Y-70028565D01*
X93334468Y-70028565D01*
G37*
G36*
X90584468Y-70028565D02*
G01*
X90623138Y-70040296D01*
X90658777Y-70059346D01*
X90690017Y-70084983D01*
X90715654Y-70116223D01*
X90734704Y-70151862D01*
X90746435Y-70190532D01*
X90751000Y-70236888D01*
X90751000Y-70888112D01*
X90746435Y-70934468D01*
X90734704Y-70973138D01*
X90715654Y-71008777D01*
X90690017Y-71040017D01*
X90658777Y-71065654D01*
X90623138Y-71084704D01*
X90584468Y-71096435D01*
X90538112Y-71101000D01*
X89461888Y-71101000D01*
X89415532Y-71096435D01*
X89376862Y-71084704D01*
X89341223Y-71065654D01*
X89309983Y-71040017D01*
X89284346Y-71008777D01*
X89265296Y-70973138D01*
X89253565Y-70934468D01*
X89249000Y-70888112D01*
X89249000Y-70236888D01*
X89253565Y-70190532D01*
X89265296Y-70151862D01*
X89284346Y-70116223D01*
X89309983Y-70084983D01*
X89341223Y-70059346D01*
X89376862Y-70040296D01*
X89415532Y-70028565D01*
X89461888Y-70024000D01*
X90538112Y-70024000D01*
X90584468Y-70028565D01*
X90584468Y-70028565D01*
G37*
G36*
X61451000Y-70701000D02*
G01*
X60549000Y-70701000D01*
X60549000Y-69699000D01*
X61451000Y-69699000D01*
X61451000Y-70701000D01*
X61451000Y-70701000D01*
G37*
G36*
X85014468Y-67753565D02*
G01*
X85053138Y-67765296D01*
X85088777Y-67784346D01*
X85120017Y-67809983D01*
X85145654Y-67841223D01*
X85164704Y-67876862D01*
X85176435Y-67915532D01*
X85181000Y-67961888D01*
X85181000Y-69038112D01*
X85176435Y-69084468D01*
X85164704Y-69123138D01*
X85145654Y-69158777D01*
X85120017Y-69190017D01*
X85088777Y-69215654D01*
X85053138Y-69234704D01*
X85014468Y-69246435D01*
X84968112Y-69251000D01*
X84316888Y-69251000D01*
X84270532Y-69246435D01*
X84231862Y-69234704D01*
X84196223Y-69215654D01*
X84164983Y-69190017D01*
X84139346Y-69158777D01*
X84120296Y-69123138D01*
X84108565Y-69084468D01*
X84104000Y-69038112D01*
X84104000Y-67961888D01*
X84108565Y-67915532D01*
X84120296Y-67876862D01*
X84139346Y-67841223D01*
X84164983Y-67809983D01*
X84196223Y-67784346D01*
X84231862Y-67765296D01*
X84270532Y-67753565D01*
X84316888Y-67749000D01*
X84968112Y-67749000D01*
X85014468Y-67753565D01*
X85014468Y-67753565D01*
G37*
G36*
X86889468Y-67753565D02*
G01*
X86928138Y-67765296D01*
X86963777Y-67784346D01*
X86995017Y-67809983D01*
X87020654Y-67841223D01*
X87039704Y-67876862D01*
X87051435Y-67915532D01*
X87056000Y-67961888D01*
X87056000Y-69038112D01*
X87051435Y-69084468D01*
X87039704Y-69123138D01*
X87020654Y-69158777D01*
X86995017Y-69190017D01*
X86963777Y-69215654D01*
X86928138Y-69234704D01*
X86889468Y-69246435D01*
X86843112Y-69251000D01*
X86191888Y-69251000D01*
X86145532Y-69246435D01*
X86106862Y-69234704D01*
X86071223Y-69215654D01*
X86039983Y-69190017D01*
X86014346Y-69158777D01*
X85995296Y-69123138D01*
X85983565Y-69084468D01*
X85979000Y-69038112D01*
X85979000Y-67961888D01*
X85983565Y-67915532D01*
X85995296Y-67876862D01*
X86014346Y-67841223D01*
X86039983Y-67809983D01*
X86071223Y-67784346D01*
X86106862Y-67765296D01*
X86145532Y-67753565D01*
X86191888Y-67749000D01*
X86843112Y-67749000D01*
X86889468Y-67753565D01*
X86889468Y-67753565D01*
G37*
G36*
X90184468Y-67753565D02*
G01*
X90223138Y-67765296D01*
X90258777Y-67784346D01*
X90290017Y-67809983D01*
X90315654Y-67841223D01*
X90334704Y-67876862D01*
X90346435Y-67915532D01*
X90351000Y-67961888D01*
X90351000Y-69038112D01*
X90346435Y-69084468D01*
X90334704Y-69123138D01*
X90315654Y-69158777D01*
X90290017Y-69190017D01*
X90258777Y-69215654D01*
X90223138Y-69234704D01*
X90184468Y-69246435D01*
X90138112Y-69251000D01*
X89486888Y-69251000D01*
X89440532Y-69246435D01*
X89401862Y-69234704D01*
X89366223Y-69215654D01*
X89334983Y-69190017D01*
X89309346Y-69158777D01*
X89290296Y-69123138D01*
X89278565Y-69084468D01*
X89274000Y-69038112D01*
X89274000Y-67961888D01*
X89278565Y-67915532D01*
X89290296Y-67876862D01*
X89309346Y-67841223D01*
X89334983Y-67809983D01*
X89366223Y-67784346D01*
X89401862Y-67765296D01*
X89440532Y-67753565D01*
X89486888Y-67749000D01*
X90138112Y-67749000D01*
X90184468Y-67753565D01*
X90184468Y-67753565D01*
G37*
G36*
X92059468Y-67753565D02*
G01*
X92098138Y-67765296D01*
X92133777Y-67784346D01*
X92165017Y-67809983D01*
X92190654Y-67841223D01*
X92209704Y-67876862D01*
X92221435Y-67915532D01*
X92226000Y-67961888D01*
X92226000Y-69038112D01*
X92221435Y-69084468D01*
X92209704Y-69123138D01*
X92190654Y-69158777D01*
X92165017Y-69190017D01*
X92133777Y-69215654D01*
X92098138Y-69234704D01*
X92059468Y-69246435D01*
X92013112Y-69251000D01*
X91361888Y-69251000D01*
X91315532Y-69246435D01*
X91276862Y-69234704D01*
X91241223Y-69215654D01*
X91209983Y-69190017D01*
X91184346Y-69158777D01*
X91165296Y-69123138D01*
X91153565Y-69084468D01*
X91149000Y-69038112D01*
X91149000Y-67961888D01*
X91153565Y-67915532D01*
X91165296Y-67876862D01*
X91184346Y-67841223D01*
X91209983Y-67809983D01*
X91241223Y-67784346D01*
X91276862Y-67765296D01*
X91315532Y-67753565D01*
X91361888Y-67749000D01*
X92013112Y-67749000D01*
X92059468Y-67753565D01*
X92059468Y-67753565D01*
G37*
G36*
X64834468Y-67653565D02*
G01*
X64873138Y-67665296D01*
X64908777Y-67684346D01*
X64940017Y-67709983D01*
X64965654Y-67741223D01*
X64984704Y-67776862D01*
X64996435Y-67815532D01*
X65001000Y-67861888D01*
X65001000Y-68938112D01*
X64996435Y-68984468D01*
X64984704Y-69023138D01*
X64965654Y-69058777D01*
X64940017Y-69090017D01*
X64908777Y-69115654D01*
X64873138Y-69134704D01*
X64834468Y-69146435D01*
X64788112Y-69151000D01*
X64136888Y-69151000D01*
X64090532Y-69146435D01*
X64051862Y-69134704D01*
X64016223Y-69115654D01*
X63984983Y-69090017D01*
X63959346Y-69058777D01*
X63940296Y-69023138D01*
X63928565Y-68984468D01*
X63924000Y-68938112D01*
X63924000Y-67861888D01*
X63928565Y-67815532D01*
X63940296Y-67776862D01*
X63959346Y-67741223D01*
X63984983Y-67709983D01*
X64016223Y-67684346D01*
X64051862Y-67665296D01*
X64090532Y-67653565D01*
X64136888Y-67649000D01*
X64788112Y-67649000D01*
X64834468Y-67653565D01*
X64834468Y-67653565D01*
G37*
G36*
X66709468Y-67653565D02*
G01*
X66748138Y-67665296D01*
X66783777Y-67684346D01*
X66815017Y-67709983D01*
X66840654Y-67741223D01*
X66859704Y-67776862D01*
X66871435Y-67815532D01*
X66876000Y-67861888D01*
X66876000Y-68938112D01*
X66871435Y-68984468D01*
X66859704Y-69023138D01*
X66840654Y-69058777D01*
X66815017Y-69090017D01*
X66783777Y-69115654D01*
X66748138Y-69134704D01*
X66709468Y-69146435D01*
X66663112Y-69151000D01*
X66011888Y-69151000D01*
X65965532Y-69146435D01*
X65926862Y-69134704D01*
X65891223Y-69115654D01*
X65859983Y-69090017D01*
X65834346Y-69058777D01*
X65815296Y-69023138D01*
X65803565Y-68984468D01*
X65799000Y-68938112D01*
X65799000Y-67861888D01*
X65803565Y-67815532D01*
X65815296Y-67776862D01*
X65834346Y-67741223D01*
X65859983Y-67709983D01*
X65891223Y-67684346D01*
X65926862Y-67665296D01*
X65965532Y-67653565D01*
X66011888Y-67649000D01*
X66663112Y-67649000D01*
X66709468Y-67653565D01*
X66709468Y-67653565D01*
G37*
G36*
X70055355Y-68200083D02*
G01*
X70060029Y-68201501D01*
X70064330Y-68203800D01*
X70070702Y-68209029D01*
X70091076Y-68222643D01*
X70113715Y-68232020D01*
X70137749Y-68236800D01*
X70162253Y-68236800D01*
X70186286Y-68232019D01*
X70208925Y-68222642D01*
X70229298Y-68209029D01*
X70235670Y-68203800D01*
X70239971Y-68201501D01*
X70244645Y-68200083D01*
X70255641Y-68199000D01*
X70544359Y-68199000D01*
X70555355Y-68200083D01*
X70560029Y-68201501D01*
X70564330Y-68203800D01*
X70570702Y-68209029D01*
X70591076Y-68222643D01*
X70613715Y-68232020D01*
X70637749Y-68236800D01*
X70662253Y-68236800D01*
X70686286Y-68232019D01*
X70708925Y-68222642D01*
X70729298Y-68209029D01*
X70735670Y-68203800D01*
X70739971Y-68201501D01*
X70744645Y-68200083D01*
X70755641Y-68199000D01*
X71044359Y-68199000D01*
X71055355Y-68200083D01*
X71060029Y-68201501D01*
X71064330Y-68203800D01*
X71070702Y-68209029D01*
X71091076Y-68222643D01*
X71113715Y-68232020D01*
X71137749Y-68236800D01*
X71162253Y-68236800D01*
X71186286Y-68232019D01*
X71208925Y-68222642D01*
X71229298Y-68209029D01*
X71235670Y-68203800D01*
X71239971Y-68201501D01*
X71244645Y-68200083D01*
X71255641Y-68199000D01*
X71544359Y-68199000D01*
X71555355Y-68200083D01*
X71560029Y-68201501D01*
X71564330Y-68203800D01*
X71570702Y-68209029D01*
X71591076Y-68222643D01*
X71613715Y-68232020D01*
X71637749Y-68236800D01*
X71662253Y-68236800D01*
X71686286Y-68232019D01*
X71708925Y-68222642D01*
X71729298Y-68209029D01*
X71735670Y-68203800D01*
X71739971Y-68201501D01*
X71744645Y-68200083D01*
X71755641Y-68199000D01*
X72044359Y-68199000D01*
X72055355Y-68200083D01*
X72060029Y-68201501D01*
X72064330Y-68203800D01*
X72070702Y-68209029D01*
X72091076Y-68222643D01*
X72113715Y-68232020D01*
X72137749Y-68236800D01*
X72162253Y-68236800D01*
X72186286Y-68232019D01*
X72208925Y-68222642D01*
X72229298Y-68209029D01*
X72235670Y-68203800D01*
X72239971Y-68201501D01*
X72244645Y-68200083D01*
X72255641Y-68199000D01*
X72544359Y-68199000D01*
X72555355Y-68200083D01*
X72560029Y-68201501D01*
X72564330Y-68203800D01*
X72570702Y-68209029D01*
X72591076Y-68222643D01*
X72613715Y-68232020D01*
X72637749Y-68236800D01*
X72662253Y-68236800D01*
X72686286Y-68232019D01*
X72708925Y-68222642D01*
X72729298Y-68209029D01*
X72735670Y-68203800D01*
X72739971Y-68201501D01*
X72744645Y-68200083D01*
X72755641Y-68199000D01*
X73044359Y-68199000D01*
X73055355Y-68200083D01*
X73060029Y-68201501D01*
X73064331Y-68203800D01*
X73068104Y-68206896D01*
X73071200Y-68210669D01*
X73073499Y-68214971D01*
X73074917Y-68219645D01*
X73076000Y-68230641D01*
X73076000Y-69069359D01*
X73074917Y-69080355D01*
X73073499Y-69085029D01*
X73071200Y-69089331D01*
X73068104Y-69093104D01*
X73064331Y-69096200D01*
X73060029Y-69098499D01*
X73055355Y-69099917D01*
X73044359Y-69101000D01*
X72755641Y-69101000D01*
X72744645Y-69099917D01*
X72739971Y-69098499D01*
X72735670Y-69096200D01*
X72729298Y-69090971D01*
X72708924Y-69077357D01*
X72686285Y-69067980D01*
X72662251Y-69063200D01*
X72637747Y-69063200D01*
X72613714Y-69067981D01*
X72591075Y-69077358D01*
X72570702Y-69090971D01*
X72564330Y-69096200D01*
X72560029Y-69098499D01*
X72555355Y-69099917D01*
X72544359Y-69101000D01*
X72255641Y-69101000D01*
X72244645Y-69099917D01*
X72239971Y-69098499D01*
X72235670Y-69096200D01*
X72229298Y-69090971D01*
X72208924Y-69077357D01*
X72186285Y-69067980D01*
X72162251Y-69063200D01*
X72137747Y-69063200D01*
X72113714Y-69067981D01*
X72091075Y-69077358D01*
X72070702Y-69090971D01*
X72064330Y-69096200D01*
X72060029Y-69098499D01*
X72055355Y-69099917D01*
X72044359Y-69101000D01*
X71755641Y-69101000D01*
X71744645Y-69099917D01*
X71739971Y-69098499D01*
X71735670Y-69096200D01*
X71729298Y-69090971D01*
X71708924Y-69077357D01*
X71686285Y-69067980D01*
X71662251Y-69063200D01*
X71637747Y-69063200D01*
X71613714Y-69067981D01*
X71591075Y-69077358D01*
X71570702Y-69090971D01*
X71564330Y-69096200D01*
X71560029Y-69098499D01*
X71555355Y-69099917D01*
X71544359Y-69101000D01*
X71255641Y-69101000D01*
X71244645Y-69099917D01*
X71239971Y-69098499D01*
X71235670Y-69096200D01*
X71229298Y-69090971D01*
X71208924Y-69077357D01*
X71186285Y-69067980D01*
X71162251Y-69063200D01*
X71137747Y-69063200D01*
X71113714Y-69067981D01*
X71091075Y-69077358D01*
X71070702Y-69090971D01*
X71064330Y-69096200D01*
X71060029Y-69098499D01*
X71055355Y-69099917D01*
X71044359Y-69101000D01*
X70755641Y-69101000D01*
X70744645Y-69099917D01*
X70739971Y-69098499D01*
X70735670Y-69096200D01*
X70729298Y-69090971D01*
X70708924Y-69077357D01*
X70686285Y-69067980D01*
X70662251Y-69063200D01*
X70637747Y-69063200D01*
X70613714Y-69067981D01*
X70591075Y-69077358D01*
X70570702Y-69090971D01*
X70564330Y-69096200D01*
X70560029Y-69098499D01*
X70555355Y-69099917D01*
X70544359Y-69101000D01*
X70255641Y-69101000D01*
X70244645Y-69099917D01*
X70239971Y-69098499D01*
X70235670Y-69096200D01*
X70229298Y-69090971D01*
X70208924Y-69077357D01*
X70186285Y-69067980D01*
X70162251Y-69063200D01*
X70137747Y-69063200D01*
X70113714Y-69067981D01*
X70091075Y-69077358D01*
X70070702Y-69090971D01*
X70064330Y-69096200D01*
X70060029Y-69098499D01*
X70055355Y-69099917D01*
X70044359Y-69101000D01*
X69755641Y-69101000D01*
X69744645Y-69099917D01*
X69739971Y-69098499D01*
X69735669Y-69096200D01*
X69731896Y-69093104D01*
X69728800Y-69089331D01*
X69726501Y-69085029D01*
X69725083Y-69080355D01*
X69724000Y-69069359D01*
X69724000Y-68230641D01*
X69725083Y-68219645D01*
X69726501Y-68214971D01*
X69728800Y-68210669D01*
X69731896Y-68206896D01*
X69735669Y-68203800D01*
X69739971Y-68201501D01*
X69744645Y-68200083D01*
X69755641Y-68199000D01*
X70044359Y-68199000D01*
X70055355Y-68200083D01*
X70055355Y-68200083D01*
G37*
G36*
X106496968Y-67503565D02*
G01*
X106535638Y-67515296D01*
X106571277Y-67534346D01*
X106602517Y-67559983D01*
X106628154Y-67591223D01*
X106647204Y-67626862D01*
X106658935Y-67665532D01*
X106663500Y-67711888D01*
X106663500Y-68788112D01*
X106658935Y-68834468D01*
X106647204Y-68873138D01*
X106628154Y-68908777D01*
X106602517Y-68940017D01*
X106571277Y-68965654D01*
X106535638Y-68984704D01*
X106496968Y-68996435D01*
X106450612Y-69001000D01*
X105799388Y-69001000D01*
X105753032Y-68996435D01*
X105714362Y-68984704D01*
X105678723Y-68965654D01*
X105647483Y-68940017D01*
X105621846Y-68908777D01*
X105602796Y-68873138D01*
X105591065Y-68834468D01*
X105586500Y-68788112D01*
X105586500Y-67711888D01*
X105591065Y-67665532D01*
X105602796Y-67626862D01*
X105621846Y-67591223D01*
X105647483Y-67559983D01*
X105678723Y-67534346D01*
X105714362Y-67515296D01*
X105753032Y-67503565D01*
X105799388Y-67499000D01*
X106450612Y-67499000D01*
X106496968Y-67503565D01*
X106496968Y-67503565D01*
G37*
G36*
X104621968Y-67503565D02*
G01*
X104660638Y-67515296D01*
X104696277Y-67534346D01*
X104727517Y-67559983D01*
X104753154Y-67591223D01*
X104772204Y-67626862D01*
X104783935Y-67665532D01*
X104788500Y-67711888D01*
X104788500Y-68788112D01*
X104783935Y-68834468D01*
X104772204Y-68873138D01*
X104753154Y-68908777D01*
X104727517Y-68940017D01*
X104696277Y-68965654D01*
X104660638Y-68984704D01*
X104621968Y-68996435D01*
X104575612Y-69001000D01*
X103924388Y-69001000D01*
X103878032Y-68996435D01*
X103839362Y-68984704D01*
X103803723Y-68965654D01*
X103772483Y-68940017D01*
X103746846Y-68908777D01*
X103727796Y-68873138D01*
X103716065Y-68834468D01*
X103711500Y-68788112D01*
X103711500Y-67711888D01*
X103716065Y-67665532D01*
X103727796Y-67626862D01*
X103746846Y-67591223D01*
X103772483Y-67559983D01*
X103803723Y-67534346D01*
X103839362Y-67515296D01*
X103878032Y-67503565D01*
X103924388Y-67499000D01*
X104575612Y-67499000D01*
X104621968Y-67503565D01*
X104621968Y-67503565D01*
G37*
G36*
X62401000Y-68701000D02*
G01*
X61499000Y-68701000D01*
X61499000Y-67699000D01*
X62401000Y-67699000D01*
X62401000Y-68701000D01*
X62401000Y-68701000D01*
G37*
G36*
X60501000Y-68701000D02*
G01*
X59599000Y-68701000D01*
X59599000Y-67699000D01*
X60501000Y-67699000D01*
X60501000Y-68701000D01*
X60501000Y-68701000D01*
G37*
G36*
X73004124Y-64477499D02*
G01*
X73032387Y-64486073D01*
X73058434Y-64499996D01*
X73081267Y-64518733D01*
X73100004Y-64541566D01*
X73113927Y-64567613D01*
X73122501Y-64595876D01*
X73126000Y-64631408D01*
X73126000Y-67768592D01*
X73122501Y-67804124D01*
X73113927Y-67832387D01*
X73100004Y-67858434D01*
X73081267Y-67881267D01*
X73058434Y-67900004D01*
X73032387Y-67913927D01*
X73004124Y-67922501D01*
X72968592Y-67926000D01*
X69831408Y-67926000D01*
X69795876Y-67922501D01*
X69767613Y-67913927D01*
X69741566Y-67900004D01*
X69718733Y-67881267D01*
X69699996Y-67858434D01*
X69686073Y-67832387D01*
X69677499Y-67804124D01*
X69674000Y-67768592D01*
X69674000Y-64631408D01*
X69677499Y-64595876D01*
X69686073Y-64567613D01*
X69699996Y-64541566D01*
X69718733Y-64518733D01*
X69741566Y-64499996D01*
X69767613Y-64486073D01*
X69795876Y-64477499D01*
X69831408Y-64474000D01*
X72968592Y-64474000D01*
X73004124Y-64477499D01*
X73004124Y-64477499D01*
G37*
G36*
X69380355Y-64525083D02*
G01*
X69385029Y-64526501D01*
X69389331Y-64528800D01*
X69393104Y-64531896D01*
X69396200Y-64535669D01*
X69398499Y-64539971D01*
X69399917Y-64544645D01*
X69401000Y-64555641D01*
X69401000Y-64844359D01*
X69399917Y-64855355D01*
X69398499Y-64860029D01*
X69396200Y-64864330D01*
X69390971Y-64870702D01*
X69377357Y-64891076D01*
X69367980Y-64913715D01*
X69363200Y-64937749D01*
X69363200Y-64962253D01*
X69367981Y-64986286D01*
X69377358Y-65008925D01*
X69390971Y-65029298D01*
X69396200Y-65035670D01*
X69398499Y-65039971D01*
X69399917Y-65044645D01*
X69401000Y-65055641D01*
X69401000Y-65344359D01*
X69399917Y-65355355D01*
X69398499Y-65360029D01*
X69396200Y-65364330D01*
X69390971Y-65370702D01*
X69377357Y-65391076D01*
X69367980Y-65413715D01*
X69363200Y-65437749D01*
X69363200Y-65462253D01*
X69367981Y-65486286D01*
X69377358Y-65508925D01*
X69390971Y-65529298D01*
X69396200Y-65535670D01*
X69398499Y-65539971D01*
X69399917Y-65544645D01*
X69401000Y-65555641D01*
X69401000Y-65844359D01*
X69399917Y-65855355D01*
X69398499Y-65860029D01*
X69396200Y-65864330D01*
X69390971Y-65870702D01*
X69377357Y-65891076D01*
X69367980Y-65913715D01*
X69363200Y-65937749D01*
X69363200Y-65962253D01*
X69367981Y-65986286D01*
X69377358Y-66008925D01*
X69390971Y-66029298D01*
X69396200Y-66035670D01*
X69398499Y-66039971D01*
X69399917Y-66044645D01*
X69401000Y-66055641D01*
X69401000Y-66344359D01*
X69399917Y-66355355D01*
X69398499Y-66360029D01*
X69396200Y-66364330D01*
X69390971Y-66370702D01*
X69377357Y-66391076D01*
X69367980Y-66413715D01*
X69363200Y-66437749D01*
X69363200Y-66462253D01*
X69367981Y-66486286D01*
X69377358Y-66508925D01*
X69390971Y-66529298D01*
X69396200Y-66535670D01*
X69398499Y-66539971D01*
X69399917Y-66544645D01*
X69401000Y-66555641D01*
X69401000Y-66844359D01*
X69399917Y-66855355D01*
X69398499Y-66860029D01*
X69396200Y-66864330D01*
X69390971Y-66870702D01*
X69377357Y-66891076D01*
X69367980Y-66913715D01*
X69363200Y-66937749D01*
X69363200Y-66962253D01*
X69367981Y-66986286D01*
X69377358Y-67008925D01*
X69390971Y-67029298D01*
X69396200Y-67035670D01*
X69398499Y-67039971D01*
X69399917Y-67044645D01*
X69401000Y-67055641D01*
X69401000Y-67344359D01*
X69399917Y-67355355D01*
X69398499Y-67360029D01*
X69396200Y-67364330D01*
X69390971Y-67370702D01*
X69377357Y-67391076D01*
X69367980Y-67413715D01*
X69363200Y-67437749D01*
X69363200Y-67462253D01*
X69367981Y-67486286D01*
X69377358Y-67508925D01*
X69390971Y-67529298D01*
X69396200Y-67535670D01*
X69398499Y-67539971D01*
X69399917Y-67544645D01*
X69401000Y-67555641D01*
X69401000Y-67844359D01*
X69399917Y-67855355D01*
X69398499Y-67860029D01*
X69396200Y-67864331D01*
X69393104Y-67868104D01*
X69389331Y-67871200D01*
X69385029Y-67873499D01*
X69380355Y-67874917D01*
X69369359Y-67876000D01*
X68530641Y-67876000D01*
X68519645Y-67874917D01*
X68514971Y-67873499D01*
X68510669Y-67871200D01*
X68506896Y-67868104D01*
X68503800Y-67864331D01*
X68501501Y-67860029D01*
X68500083Y-67855355D01*
X68499000Y-67844359D01*
X68499000Y-67555641D01*
X68500083Y-67544645D01*
X68501501Y-67539971D01*
X68503800Y-67535670D01*
X68509029Y-67529298D01*
X68522643Y-67508924D01*
X68532020Y-67486285D01*
X68536800Y-67462251D01*
X68536800Y-67437747D01*
X68532019Y-67413714D01*
X68522642Y-67391075D01*
X68509029Y-67370702D01*
X68503800Y-67364330D01*
X68501501Y-67360029D01*
X68500083Y-67355355D01*
X68499000Y-67344359D01*
X68499000Y-67055641D01*
X68500083Y-67044645D01*
X68501501Y-67039971D01*
X68503800Y-67035670D01*
X68509029Y-67029298D01*
X68522643Y-67008924D01*
X68532020Y-66986285D01*
X68536800Y-66962251D01*
X68536800Y-66937747D01*
X68532019Y-66913714D01*
X68522642Y-66891075D01*
X68509029Y-66870702D01*
X68503800Y-66864330D01*
X68501501Y-66860029D01*
X68500083Y-66855355D01*
X68499000Y-66844359D01*
X68499000Y-66555641D01*
X68500083Y-66544645D01*
X68501501Y-66539971D01*
X68503800Y-66535670D01*
X68509029Y-66529298D01*
X68522643Y-66508924D01*
X68532020Y-66486285D01*
X68536800Y-66462251D01*
X68536800Y-66437747D01*
X68532019Y-66413714D01*
X68522642Y-66391075D01*
X68509029Y-66370702D01*
X68503800Y-66364330D01*
X68501501Y-66360029D01*
X68500083Y-66355355D01*
X68499000Y-66344359D01*
X68499000Y-66055641D01*
X68500083Y-66044645D01*
X68501501Y-66039971D01*
X68503800Y-66035670D01*
X68509029Y-66029298D01*
X68522643Y-66008924D01*
X68532020Y-65986285D01*
X68536800Y-65962251D01*
X68536800Y-65937747D01*
X68532019Y-65913714D01*
X68522642Y-65891075D01*
X68509029Y-65870702D01*
X68503800Y-65864330D01*
X68501501Y-65860029D01*
X68500083Y-65855355D01*
X68499000Y-65844359D01*
X68499000Y-65555641D01*
X68500083Y-65544645D01*
X68501501Y-65539971D01*
X68503800Y-65535670D01*
X68509029Y-65529298D01*
X68522643Y-65508924D01*
X68532020Y-65486285D01*
X68536800Y-65462251D01*
X68536800Y-65437747D01*
X68532019Y-65413714D01*
X68522642Y-65391075D01*
X68509029Y-65370702D01*
X68503800Y-65364330D01*
X68501501Y-65360029D01*
X68500083Y-65355355D01*
X68499000Y-65344359D01*
X68499000Y-65055641D01*
X68500083Y-65044645D01*
X68501501Y-65039971D01*
X68503800Y-65035670D01*
X68509029Y-65029298D01*
X68522643Y-65008924D01*
X68532020Y-64986285D01*
X68536800Y-64962251D01*
X68536800Y-64937747D01*
X68532019Y-64913714D01*
X68522642Y-64891075D01*
X68509029Y-64870702D01*
X68503800Y-64864330D01*
X68501501Y-64860029D01*
X68500083Y-64855355D01*
X68499000Y-64844359D01*
X68499000Y-64555641D01*
X68500083Y-64544645D01*
X68501501Y-64539971D01*
X68503800Y-64535669D01*
X68506896Y-64531896D01*
X68510669Y-64528800D01*
X68514971Y-64526501D01*
X68519645Y-64525083D01*
X68530641Y-64524000D01*
X69369359Y-64524000D01*
X69380355Y-64525083D01*
X69380355Y-64525083D01*
G37*
G36*
X74280355Y-64525083D02*
G01*
X74285029Y-64526501D01*
X74289331Y-64528800D01*
X74293104Y-64531896D01*
X74296200Y-64535669D01*
X74298499Y-64539971D01*
X74299917Y-64544645D01*
X74301000Y-64555641D01*
X74301000Y-64844359D01*
X74299917Y-64855355D01*
X74298499Y-64860029D01*
X74296200Y-64864330D01*
X74290971Y-64870702D01*
X74277357Y-64891076D01*
X74267980Y-64913715D01*
X74263200Y-64937749D01*
X74263200Y-64962253D01*
X74267981Y-64986286D01*
X74277358Y-65008925D01*
X74290971Y-65029298D01*
X74296200Y-65035670D01*
X74298499Y-65039971D01*
X74299917Y-65044645D01*
X74301000Y-65055641D01*
X74301000Y-65344359D01*
X74299917Y-65355355D01*
X74298499Y-65360029D01*
X74296200Y-65364330D01*
X74290971Y-65370702D01*
X74277357Y-65391076D01*
X74267980Y-65413715D01*
X74263200Y-65437749D01*
X74263200Y-65462253D01*
X74267981Y-65486286D01*
X74277358Y-65508925D01*
X74290971Y-65529298D01*
X74296200Y-65535670D01*
X74298499Y-65539971D01*
X74299917Y-65544645D01*
X74301000Y-65555641D01*
X74301000Y-65844359D01*
X74299917Y-65855355D01*
X74298499Y-65860029D01*
X74296200Y-65864330D01*
X74290971Y-65870702D01*
X74277357Y-65891076D01*
X74267980Y-65913715D01*
X74263200Y-65937749D01*
X74263200Y-65962253D01*
X74267981Y-65986286D01*
X74277358Y-66008925D01*
X74290971Y-66029298D01*
X74296200Y-66035670D01*
X74298499Y-66039971D01*
X74299917Y-66044645D01*
X74301000Y-66055641D01*
X74301000Y-66344359D01*
X74299917Y-66355355D01*
X74298499Y-66360029D01*
X74296200Y-66364330D01*
X74290971Y-66370702D01*
X74277357Y-66391076D01*
X74267980Y-66413715D01*
X74263200Y-66437749D01*
X74263200Y-66462253D01*
X74267981Y-66486286D01*
X74277358Y-66508925D01*
X74290971Y-66529298D01*
X74296200Y-66535670D01*
X74298499Y-66539971D01*
X74299917Y-66544645D01*
X74301000Y-66555641D01*
X74301000Y-66844359D01*
X74299917Y-66855355D01*
X74298499Y-66860029D01*
X74296200Y-66864330D01*
X74290971Y-66870702D01*
X74277357Y-66891076D01*
X74267980Y-66913715D01*
X74263200Y-66937749D01*
X74263200Y-66962253D01*
X74267981Y-66986286D01*
X74277358Y-67008925D01*
X74290971Y-67029298D01*
X74296200Y-67035670D01*
X74298499Y-67039971D01*
X74299917Y-67044645D01*
X74301000Y-67055641D01*
X74301000Y-67344359D01*
X74299917Y-67355355D01*
X74298499Y-67360029D01*
X74296200Y-67364330D01*
X74290971Y-67370702D01*
X74277357Y-67391076D01*
X74267980Y-67413715D01*
X74263200Y-67437749D01*
X74263200Y-67462253D01*
X74267981Y-67486286D01*
X74277358Y-67508925D01*
X74290971Y-67529298D01*
X74296200Y-67535670D01*
X74298499Y-67539971D01*
X74299917Y-67544645D01*
X74301000Y-67555641D01*
X74301000Y-67844359D01*
X74299917Y-67855355D01*
X74298499Y-67860029D01*
X74296200Y-67864331D01*
X74293104Y-67868104D01*
X74289331Y-67871200D01*
X74285029Y-67873499D01*
X74280355Y-67874917D01*
X74269359Y-67876000D01*
X73430641Y-67876000D01*
X73419645Y-67874917D01*
X73414971Y-67873499D01*
X73410669Y-67871200D01*
X73406896Y-67868104D01*
X73403800Y-67864331D01*
X73401501Y-67860029D01*
X73400083Y-67855355D01*
X73399000Y-67844359D01*
X73399000Y-67555641D01*
X73400083Y-67544645D01*
X73401501Y-67539971D01*
X73403800Y-67535670D01*
X73409029Y-67529298D01*
X73422643Y-67508924D01*
X73432020Y-67486285D01*
X73436800Y-67462251D01*
X73436800Y-67437747D01*
X73432019Y-67413714D01*
X73422642Y-67391075D01*
X73409029Y-67370702D01*
X73403800Y-67364330D01*
X73401501Y-67360029D01*
X73400083Y-67355355D01*
X73399000Y-67344359D01*
X73399000Y-67055641D01*
X73400083Y-67044645D01*
X73401501Y-67039971D01*
X73403800Y-67035670D01*
X73409029Y-67029298D01*
X73422643Y-67008924D01*
X73432020Y-66986285D01*
X73436800Y-66962251D01*
X73436800Y-66937747D01*
X73432019Y-66913714D01*
X73422642Y-66891075D01*
X73409029Y-66870702D01*
X73403800Y-66864330D01*
X73401501Y-66860029D01*
X73400083Y-66855355D01*
X73399000Y-66844359D01*
X73399000Y-66555641D01*
X73400083Y-66544645D01*
X73401501Y-66539971D01*
X73403800Y-66535670D01*
X73409029Y-66529298D01*
X73422643Y-66508924D01*
X73432020Y-66486285D01*
X73436800Y-66462251D01*
X73436800Y-66437747D01*
X73432019Y-66413714D01*
X73422642Y-66391075D01*
X73409029Y-66370702D01*
X73403800Y-66364330D01*
X73401501Y-66360029D01*
X73400083Y-66355355D01*
X73399000Y-66344359D01*
X73399000Y-66055641D01*
X73400083Y-66044645D01*
X73401501Y-66039971D01*
X73403800Y-66035670D01*
X73409029Y-66029298D01*
X73422643Y-66008924D01*
X73432020Y-65986285D01*
X73436800Y-65962251D01*
X73436800Y-65937747D01*
X73432019Y-65913714D01*
X73422642Y-65891075D01*
X73409029Y-65870702D01*
X73403800Y-65864330D01*
X73401501Y-65860029D01*
X73400083Y-65855355D01*
X73399000Y-65844359D01*
X73399000Y-65555641D01*
X73400083Y-65544645D01*
X73401501Y-65539971D01*
X73403800Y-65535670D01*
X73409029Y-65529298D01*
X73422643Y-65508924D01*
X73432020Y-65486285D01*
X73436800Y-65462251D01*
X73436800Y-65437747D01*
X73432019Y-65413714D01*
X73422642Y-65391075D01*
X73409029Y-65370702D01*
X73403800Y-65364330D01*
X73401501Y-65360029D01*
X73400083Y-65355355D01*
X73399000Y-65344359D01*
X73399000Y-65055641D01*
X73400083Y-65044645D01*
X73401501Y-65039971D01*
X73403800Y-65035670D01*
X73409029Y-65029298D01*
X73422643Y-65008924D01*
X73432020Y-64986285D01*
X73436800Y-64962251D01*
X73436800Y-64937747D01*
X73432019Y-64913714D01*
X73422642Y-64891075D01*
X73409029Y-64870702D01*
X73403800Y-64864330D01*
X73401501Y-64860029D01*
X73400083Y-64855355D01*
X73399000Y-64844359D01*
X73399000Y-64555641D01*
X73400083Y-64544645D01*
X73401501Y-64539971D01*
X73403800Y-64535669D01*
X73406896Y-64531896D01*
X73410669Y-64528800D01*
X73414971Y-64526501D01*
X73419645Y-64525083D01*
X73430641Y-64524000D01*
X74269359Y-64524000D01*
X74280355Y-64525083D01*
X74280355Y-64525083D01*
G37*
G36*
X80051000Y-67751000D02*
G01*
X78749000Y-67751000D01*
X78749000Y-66749000D01*
X80051000Y-66749000D01*
X80051000Y-67751000D01*
X80051000Y-67751000D01*
G37*
G36*
X117427913Y-64612000D02*
G01*
X117525389Y-64631389D01*
X117707378Y-64706771D01*
X117871163Y-64816209D01*
X118010451Y-64955497D01*
X118119889Y-65119282D01*
X118172557Y-65246435D01*
X118195271Y-65301272D01*
X118233700Y-65494467D01*
X118233700Y-65691453D01*
X118211081Y-65805168D01*
X118195271Y-65884649D01*
X118119889Y-66066638D01*
X118010451Y-66230423D01*
X117871163Y-66369711D01*
X117707378Y-66479149D01*
X117525389Y-66554531D01*
X117482259Y-66563110D01*
X117332193Y-66592960D01*
X117135207Y-66592960D01*
X116985141Y-66563110D01*
X116942011Y-66554531D01*
X116760022Y-66479149D01*
X116596237Y-66369711D01*
X116456949Y-66230423D01*
X116347511Y-66066638D01*
X116272129Y-65884649D01*
X116256319Y-65805168D01*
X116233700Y-65691453D01*
X116233700Y-65494467D01*
X116272129Y-65301272D01*
X116294843Y-65246435D01*
X116347511Y-65119282D01*
X116456949Y-64955497D01*
X116596237Y-64816209D01*
X116760022Y-64706771D01*
X116942011Y-64631389D01*
X117039487Y-64612000D01*
X117135207Y-64592960D01*
X117332193Y-64592960D01*
X117427913Y-64612000D01*
X117427913Y-64612000D01*
G37*
G36*
X104107785Y-63820537D02*
G01*
X104302040Y-63901000D01*
X104331013Y-63913001D01*
X104404177Y-63961888D01*
X104531911Y-64047237D01*
X104702763Y-64218089D01*
X104837000Y-64418989D01*
X104929463Y-64642215D01*
X104976600Y-64879189D01*
X104976600Y-65120811D01*
X104929463Y-65357785D01*
X104837000Y-65581011D01*
X104702763Y-65781911D01*
X104531911Y-65952763D01*
X104432144Y-66019425D01*
X104331013Y-66086999D01*
X104331012Y-66087000D01*
X104331011Y-66087000D01*
X104107785Y-66179463D01*
X103870811Y-66226600D01*
X103629189Y-66226600D01*
X103392215Y-66179463D01*
X103168989Y-66087000D01*
X103168988Y-66087000D01*
X103168987Y-66086999D01*
X103067856Y-66019425D01*
X102968089Y-65952763D01*
X102797237Y-65781911D01*
X102663000Y-65581011D01*
X102570537Y-65357785D01*
X102523400Y-65120811D01*
X102523400Y-64879189D01*
X102570537Y-64642215D01*
X102663000Y-64418989D01*
X102797237Y-64218089D01*
X102968089Y-64047237D01*
X103095823Y-63961888D01*
X103168987Y-63913001D01*
X103197960Y-63901000D01*
X103392215Y-63820537D01*
X103629189Y-63773400D01*
X103870811Y-63773400D01*
X104107785Y-63820537D01*
X104107785Y-63820537D01*
G37*
G36*
X109976600Y-66226600D02*
G01*
X107523400Y-66226600D01*
X107523400Y-63773400D01*
X109976600Y-63773400D01*
X109976600Y-66226600D01*
X109976600Y-66226600D01*
G37*
G36*
X61451000Y-65901000D02*
G01*
X60549000Y-65901000D01*
X60549000Y-64899000D01*
X61451000Y-64899000D01*
X61451000Y-65901000D01*
X61451000Y-65901000D01*
G37*
G36*
X85014468Y-63753565D02*
G01*
X85053138Y-63765296D01*
X85088777Y-63784346D01*
X85120017Y-63809983D01*
X85145654Y-63841223D01*
X85164704Y-63876862D01*
X85176435Y-63915532D01*
X85181000Y-63961888D01*
X85181000Y-65038112D01*
X85176435Y-65084468D01*
X85164704Y-65123138D01*
X85145654Y-65158777D01*
X85120017Y-65190017D01*
X85088777Y-65215654D01*
X85053138Y-65234704D01*
X85014468Y-65246435D01*
X84968112Y-65251000D01*
X84316888Y-65251000D01*
X84270532Y-65246435D01*
X84231862Y-65234704D01*
X84196223Y-65215654D01*
X84164983Y-65190017D01*
X84139346Y-65158777D01*
X84120296Y-65123138D01*
X84108565Y-65084468D01*
X84104000Y-65038112D01*
X84104000Y-63961888D01*
X84108565Y-63915532D01*
X84120296Y-63876862D01*
X84139346Y-63841223D01*
X84164983Y-63809983D01*
X84196223Y-63784346D01*
X84231862Y-63765296D01*
X84270532Y-63753565D01*
X84316888Y-63749000D01*
X84968112Y-63749000D01*
X85014468Y-63753565D01*
X85014468Y-63753565D01*
G37*
G36*
X86889468Y-63753565D02*
G01*
X86928138Y-63765296D01*
X86963777Y-63784346D01*
X86995017Y-63809983D01*
X87020654Y-63841223D01*
X87039704Y-63876862D01*
X87051435Y-63915532D01*
X87056000Y-63961888D01*
X87056000Y-65038112D01*
X87051435Y-65084468D01*
X87039704Y-65123138D01*
X87020654Y-65158777D01*
X86995017Y-65190017D01*
X86963777Y-65215654D01*
X86928138Y-65234704D01*
X86889468Y-65246435D01*
X86843112Y-65251000D01*
X86191888Y-65251000D01*
X86145532Y-65246435D01*
X86106862Y-65234704D01*
X86071223Y-65215654D01*
X86039983Y-65190017D01*
X86014346Y-65158777D01*
X85995296Y-65123138D01*
X85983565Y-65084468D01*
X85979000Y-65038112D01*
X85979000Y-63961888D01*
X85983565Y-63915532D01*
X85995296Y-63876862D01*
X86014346Y-63841223D01*
X86039983Y-63809983D01*
X86071223Y-63784346D01*
X86106862Y-63765296D01*
X86145532Y-63753565D01*
X86191888Y-63749000D01*
X86843112Y-63749000D01*
X86889468Y-63753565D01*
X86889468Y-63753565D01*
G37*
G36*
X66771968Y-63453565D02*
G01*
X66810638Y-63465296D01*
X66846277Y-63484346D01*
X66877517Y-63509983D01*
X66903154Y-63541223D01*
X66922204Y-63576862D01*
X66933935Y-63615532D01*
X66938500Y-63661888D01*
X66938500Y-64738112D01*
X66933935Y-64784468D01*
X66922204Y-64823138D01*
X66903154Y-64858777D01*
X66877517Y-64890017D01*
X66846277Y-64915654D01*
X66810638Y-64934704D01*
X66771968Y-64946435D01*
X66725612Y-64951000D01*
X66074388Y-64951000D01*
X66028032Y-64946435D01*
X65989362Y-64934704D01*
X65953723Y-64915654D01*
X65922483Y-64890017D01*
X65896846Y-64858777D01*
X65877796Y-64823138D01*
X65866065Y-64784468D01*
X65861500Y-64738112D01*
X65861500Y-63661888D01*
X65866065Y-63615532D01*
X65877796Y-63576862D01*
X65896846Y-63541223D01*
X65922483Y-63509983D01*
X65953723Y-63484346D01*
X65989362Y-63465296D01*
X66028032Y-63453565D01*
X66074388Y-63449000D01*
X66725612Y-63449000D01*
X66771968Y-63453565D01*
X66771968Y-63453565D01*
G37*
G36*
X64896968Y-63453565D02*
G01*
X64935638Y-63465296D01*
X64971277Y-63484346D01*
X65002517Y-63509983D01*
X65028154Y-63541223D01*
X65047204Y-63576862D01*
X65058935Y-63615532D01*
X65063500Y-63661888D01*
X65063500Y-64738112D01*
X65058935Y-64784468D01*
X65047204Y-64823138D01*
X65028154Y-64858777D01*
X65002517Y-64890017D01*
X64971277Y-64915654D01*
X64935638Y-64934704D01*
X64896968Y-64946435D01*
X64850612Y-64951000D01*
X64199388Y-64951000D01*
X64153032Y-64946435D01*
X64114362Y-64934704D01*
X64078723Y-64915654D01*
X64047483Y-64890017D01*
X64021846Y-64858777D01*
X64002796Y-64823138D01*
X63991065Y-64784468D01*
X63986500Y-64738112D01*
X63986500Y-63661888D01*
X63991065Y-63615532D01*
X64002796Y-63576862D01*
X64021846Y-63541223D01*
X64047483Y-63509983D01*
X64078723Y-63484346D01*
X64114362Y-63465296D01*
X64153032Y-63453565D01*
X64199388Y-63449000D01*
X64850612Y-63449000D01*
X64896968Y-63453565D01*
X64896968Y-63453565D01*
G37*
G36*
X80051000Y-64451000D02*
G01*
X78749000Y-64451000D01*
X78749000Y-63449000D01*
X80051000Y-63449000D01*
X80051000Y-64451000D01*
X80051000Y-64451000D01*
G37*
G36*
X70055355Y-63300083D02*
G01*
X70060029Y-63301501D01*
X70064330Y-63303800D01*
X70070702Y-63309029D01*
X70091076Y-63322643D01*
X70113715Y-63332020D01*
X70137749Y-63336800D01*
X70162253Y-63336800D01*
X70186286Y-63332019D01*
X70208925Y-63322642D01*
X70229298Y-63309029D01*
X70235670Y-63303800D01*
X70239971Y-63301501D01*
X70244645Y-63300083D01*
X70255641Y-63299000D01*
X70544359Y-63299000D01*
X70555355Y-63300083D01*
X70560029Y-63301501D01*
X70564330Y-63303800D01*
X70570702Y-63309029D01*
X70591076Y-63322643D01*
X70613715Y-63332020D01*
X70637749Y-63336800D01*
X70662253Y-63336800D01*
X70686286Y-63332019D01*
X70708925Y-63322642D01*
X70729298Y-63309029D01*
X70735670Y-63303800D01*
X70739971Y-63301501D01*
X70744645Y-63300083D01*
X70755641Y-63299000D01*
X71044359Y-63299000D01*
X71055355Y-63300083D01*
X71060029Y-63301501D01*
X71064330Y-63303800D01*
X71070702Y-63309029D01*
X71091076Y-63322643D01*
X71113715Y-63332020D01*
X71137749Y-63336800D01*
X71162253Y-63336800D01*
X71186286Y-63332019D01*
X71208925Y-63322642D01*
X71229298Y-63309029D01*
X71235670Y-63303800D01*
X71239971Y-63301501D01*
X71244645Y-63300083D01*
X71255641Y-63299000D01*
X71544359Y-63299000D01*
X71555355Y-63300083D01*
X71560029Y-63301501D01*
X71564330Y-63303800D01*
X71570702Y-63309029D01*
X71591076Y-63322643D01*
X71613715Y-63332020D01*
X71637749Y-63336800D01*
X71662253Y-63336800D01*
X71686286Y-63332019D01*
X71708925Y-63322642D01*
X71729298Y-63309029D01*
X71735670Y-63303800D01*
X71739971Y-63301501D01*
X71744645Y-63300083D01*
X71755641Y-63299000D01*
X72044359Y-63299000D01*
X72055355Y-63300083D01*
X72060029Y-63301501D01*
X72064330Y-63303800D01*
X72070702Y-63309029D01*
X72091076Y-63322643D01*
X72113715Y-63332020D01*
X72137749Y-63336800D01*
X72162253Y-63336800D01*
X72186286Y-63332019D01*
X72208925Y-63322642D01*
X72229298Y-63309029D01*
X72235670Y-63303800D01*
X72239971Y-63301501D01*
X72244645Y-63300083D01*
X72255641Y-63299000D01*
X72544359Y-63299000D01*
X72555355Y-63300083D01*
X72560029Y-63301501D01*
X72564330Y-63303800D01*
X72570702Y-63309029D01*
X72591076Y-63322643D01*
X72613715Y-63332020D01*
X72637749Y-63336800D01*
X72662253Y-63336800D01*
X72686286Y-63332019D01*
X72708925Y-63322642D01*
X72729298Y-63309029D01*
X72735670Y-63303800D01*
X72739971Y-63301501D01*
X72744645Y-63300083D01*
X72755641Y-63299000D01*
X73044359Y-63299000D01*
X73055355Y-63300083D01*
X73060029Y-63301501D01*
X73064331Y-63303800D01*
X73068104Y-63306896D01*
X73071200Y-63310669D01*
X73073499Y-63314971D01*
X73074917Y-63319645D01*
X73076000Y-63330641D01*
X73076000Y-64169359D01*
X73074917Y-64180355D01*
X73073499Y-64185029D01*
X73071200Y-64189331D01*
X73068104Y-64193104D01*
X73064331Y-64196200D01*
X73060029Y-64198499D01*
X73055355Y-64199917D01*
X73044359Y-64201000D01*
X72755641Y-64201000D01*
X72744645Y-64199917D01*
X72739971Y-64198499D01*
X72735670Y-64196200D01*
X72729298Y-64190971D01*
X72708924Y-64177357D01*
X72686285Y-64167980D01*
X72662251Y-64163200D01*
X72637747Y-64163200D01*
X72613714Y-64167981D01*
X72591075Y-64177358D01*
X72570702Y-64190971D01*
X72564330Y-64196200D01*
X72560029Y-64198499D01*
X72555355Y-64199917D01*
X72544359Y-64201000D01*
X72255641Y-64201000D01*
X72244645Y-64199917D01*
X72239971Y-64198499D01*
X72235670Y-64196200D01*
X72229298Y-64190971D01*
X72208924Y-64177357D01*
X72186285Y-64167980D01*
X72162251Y-64163200D01*
X72137747Y-64163200D01*
X72113714Y-64167981D01*
X72091075Y-64177358D01*
X72070702Y-64190971D01*
X72064330Y-64196200D01*
X72060029Y-64198499D01*
X72055355Y-64199917D01*
X72044359Y-64201000D01*
X71755641Y-64201000D01*
X71744645Y-64199917D01*
X71739971Y-64198499D01*
X71735670Y-64196200D01*
X71729298Y-64190971D01*
X71708924Y-64177357D01*
X71686285Y-64167980D01*
X71662251Y-64163200D01*
X71637747Y-64163200D01*
X71613714Y-64167981D01*
X71591075Y-64177358D01*
X71570702Y-64190971D01*
X71564330Y-64196200D01*
X71560029Y-64198499D01*
X71555355Y-64199917D01*
X71544359Y-64201000D01*
X71255641Y-64201000D01*
X71244645Y-64199917D01*
X71239971Y-64198499D01*
X71235670Y-64196200D01*
X71229298Y-64190971D01*
X71208924Y-64177357D01*
X71186285Y-64167980D01*
X71162251Y-64163200D01*
X71137747Y-64163200D01*
X71113714Y-64167981D01*
X71091075Y-64177358D01*
X71070702Y-64190971D01*
X71064330Y-64196200D01*
X71060029Y-64198499D01*
X71055355Y-64199917D01*
X71044359Y-64201000D01*
X70755641Y-64201000D01*
X70744645Y-64199917D01*
X70739971Y-64198499D01*
X70735670Y-64196200D01*
X70729298Y-64190971D01*
X70708924Y-64177357D01*
X70686285Y-64167980D01*
X70662251Y-64163200D01*
X70637747Y-64163200D01*
X70613714Y-64167981D01*
X70591075Y-64177358D01*
X70570702Y-64190971D01*
X70564330Y-64196200D01*
X70560029Y-64198499D01*
X70555355Y-64199917D01*
X70544359Y-64201000D01*
X70255641Y-64201000D01*
X70244645Y-64199917D01*
X70239971Y-64198499D01*
X70235670Y-64196200D01*
X70229298Y-64190971D01*
X70208924Y-64177357D01*
X70186285Y-64167980D01*
X70162251Y-64163200D01*
X70137747Y-64163200D01*
X70113714Y-64167981D01*
X70091075Y-64177358D01*
X70070702Y-64190971D01*
X70064330Y-64196200D01*
X70060029Y-64198499D01*
X70055355Y-64199917D01*
X70044359Y-64201000D01*
X69755641Y-64201000D01*
X69744645Y-64199917D01*
X69739971Y-64198499D01*
X69735669Y-64196200D01*
X69731896Y-64193104D01*
X69728800Y-64189331D01*
X69726501Y-64185029D01*
X69725083Y-64180355D01*
X69724000Y-64169359D01*
X69724000Y-63330641D01*
X69725083Y-63319645D01*
X69726501Y-63314971D01*
X69728800Y-63310669D01*
X69731896Y-63306896D01*
X69735669Y-63303800D01*
X69739971Y-63301501D01*
X69744645Y-63300083D01*
X69755641Y-63299000D01*
X70044359Y-63299000D01*
X70055355Y-63300083D01*
X70055355Y-63300083D01*
G37*
G36*
X60501000Y-63901000D02*
G01*
X59599000Y-63901000D01*
X59599000Y-62899000D01*
X60501000Y-62899000D01*
X60501000Y-63901000D01*
X60501000Y-63901000D01*
G37*
G36*
X62401000Y-63901000D02*
G01*
X61499000Y-63901000D01*
X61499000Y-62899000D01*
X62401000Y-62899000D01*
X62401000Y-63901000D01*
X62401000Y-63901000D01*
G37*
G36*
X83154788Y-62143345D02*
G01*
X83193458Y-62155076D01*
X83229097Y-62174126D01*
X83260337Y-62199763D01*
X83285974Y-62231003D01*
X83305024Y-62266642D01*
X83316755Y-62305312D01*
X83321320Y-62351668D01*
X83321320Y-63002892D01*
X83316755Y-63049248D01*
X83305024Y-63087918D01*
X83285974Y-63123557D01*
X83260337Y-63154797D01*
X83229097Y-63180434D01*
X83193458Y-63199484D01*
X83154788Y-63211215D01*
X83108432Y-63215780D01*
X82032208Y-63215780D01*
X81985852Y-63211215D01*
X81947182Y-63199484D01*
X81911543Y-63180434D01*
X81880303Y-63154797D01*
X81854666Y-63123557D01*
X81835616Y-63087918D01*
X81823885Y-63049248D01*
X81819320Y-63002892D01*
X81819320Y-62351668D01*
X81823885Y-62305312D01*
X81835616Y-62266642D01*
X81854666Y-62231003D01*
X81880303Y-62199763D01*
X81911543Y-62174126D01*
X81947182Y-62155076D01*
X81985852Y-62143345D01*
X82032208Y-62138780D01*
X83108432Y-62138780D01*
X83154788Y-62143345D01*
X83154788Y-62143345D01*
G37*
G36*
X99201000Y-62651000D02*
G01*
X97099000Y-62651000D01*
X97099000Y-59349000D01*
X99201000Y-59349000D01*
X99201000Y-62651000D01*
X99201000Y-62651000D01*
G37*
G36*
X91401000Y-62651000D02*
G01*
X89299000Y-62651000D01*
X89299000Y-59349000D01*
X91401000Y-59349000D01*
X91401000Y-62651000D01*
X91401000Y-62651000D01*
G37*
G36*
X60384239Y-55561467D02*
G01*
X60698282Y-55623934D01*
X61289926Y-55869001D01*
X61579523Y-56062504D01*
X61822391Y-56224783D01*
X62275217Y-56677609D01*
X62290388Y-56700314D01*
X62630999Y-57210074D01*
X62876066Y-57801718D01*
X62890906Y-57876324D01*
X63001000Y-58429803D01*
X63001000Y-59070197D01*
X62967982Y-59236189D01*
X62876066Y-59698282D01*
X62630999Y-60289926D01*
X62437128Y-60580074D01*
X62275217Y-60822391D01*
X61822391Y-61275217D01*
X61732012Y-61335606D01*
X61289926Y-61630999D01*
X60698282Y-61876066D01*
X60572930Y-61901000D01*
X60070197Y-62001000D01*
X59429803Y-62001000D01*
X58927070Y-61901000D01*
X58801718Y-61876066D01*
X58210074Y-61630999D01*
X57767988Y-61335606D01*
X57677609Y-61275217D01*
X57224783Y-60822391D01*
X57062872Y-60580074D01*
X56869001Y-60289926D01*
X56623934Y-59698282D01*
X56532018Y-59236189D01*
X56499000Y-59070197D01*
X56499000Y-58429803D01*
X56609094Y-57876324D01*
X56623934Y-57801718D01*
X56869001Y-57210074D01*
X57209612Y-56700314D01*
X57224783Y-56677609D01*
X57677609Y-56224783D01*
X57920477Y-56062504D01*
X58210074Y-55869001D01*
X58801718Y-55623934D01*
X59115761Y-55561467D01*
X59429803Y-55499000D01*
X60070197Y-55499000D01*
X60384239Y-55561467D01*
X60384239Y-55561467D01*
G37*
G36*
X117884239Y-55561467D02*
G01*
X118198282Y-55623934D01*
X118789926Y-55869001D01*
X119079523Y-56062504D01*
X119322391Y-56224783D01*
X119775217Y-56677609D01*
X119790388Y-56700314D01*
X120130999Y-57210074D01*
X120376066Y-57801718D01*
X120390906Y-57876324D01*
X120501000Y-58429803D01*
X120501000Y-59070197D01*
X120467982Y-59236189D01*
X120376066Y-59698282D01*
X120130999Y-60289926D01*
X119937128Y-60580074D01*
X119775217Y-60822391D01*
X119322391Y-61275217D01*
X119232012Y-61335606D01*
X118789926Y-61630999D01*
X118198282Y-61876066D01*
X118072930Y-61901000D01*
X117570197Y-62001000D01*
X116929803Y-62001000D01*
X116427070Y-61901000D01*
X116301718Y-61876066D01*
X115710074Y-61630999D01*
X115267988Y-61335606D01*
X115177609Y-61275217D01*
X114724783Y-60822391D01*
X114562872Y-60580074D01*
X114369001Y-60289926D01*
X114123934Y-59698282D01*
X114032018Y-59236189D01*
X113999000Y-59070197D01*
X113999000Y-58429803D01*
X114109094Y-57876324D01*
X114123934Y-57801718D01*
X114369001Y-57210074D01*
X114709612Y-56700314D01*
X114724783Y-56677609D01*
X115177609Y-56224783D01*
X115420477Y-56062504D01*
X115710074Y-55869001D01*
X116301718Y-55623934D01*
X116615761Y-55561467D01*
X116929803Y-55499000D01*
X117570197Y-55499000D01*
X117884239Y-55561467D01*
X117884239Y-55561467D01*
G37*
G36*
X85101000Y-61901000D02*
G01*
X84099000Y-61901000D01*
X84099000Y-60599000D01*
X85101000Y-60599000D01*
X85101000Y-61901000D01*
X85101000Y-61901000D01*
G37*
G36*
X88401000Y-61901000D02*
G01*
X87399000Y-61901000D01*
X87399000Y-60599000D01*
X88401000Y-60599000D01*
X88401000Y-61901000D01*
X88401000Y-61901000D01*
G37*
G36*
X83154788Y-60268345D02*
G01*
X83193458Y-60280076D01*
X83229097Y-60299126D01*
X83260337Y-60324763D01*
X83285974Y-60356003D01*
X83305024Y-60391642D01*
X83316755Y-60430312D01*
X83321320Y-60476668D01*
X83321320Y-61127892D01*
X83316755Y-61174248D01*
X83305024Y-61212918D01*
X83285974Y-61248557D01*
X83260337Y-61279797D01*
X83229097Y-61305434D01*
X83193458Y-61324484D01*
X83154788Y-61336215D01*
X83108432Y-61340780D01*
X82032208Y-61340780D01*
X81985852Y-61336215D01*
X81947182Y-61324484D01*
X81911543Y-61305434D01*
X81880303Y-61279797D01*
X81854666Y-61248557D01*
X81835616Y-61212918D01*
X81823885Y-61174248D01*
X81819320Y-61127892D01*
X81819320Y-60476668D01*
X81823885Y-60430312D01*
X81835616Y-60391642D01*
X81854666Y-60356003D01*
X81880303Y-60324763D01*
X81911543Y-60299126D01*
X81947182Y-60280076D01*
X81985852Y-60268345D01*
X82032208Y-60263780D01*
X83108432Y-60263780D01*
X83154788Y-60268345D01*
X83154788Y-60268345D01*
G37*
G36*
X70226348Y-59466320D02*
G01*
X70226350Y-59466321D01*
X70226351Y-59466321D01*
X70367574Y-59524817D01*
X70367577Y-59524819D01*
X70494669Y-59609739D01*
X70602761Y-59717831D01*
X70659375Y-59802560D01*
X70687683Y-59844926D01*
X70708517Y-59895225D01*
X70720068Y-59916836D01*
X70735614Y-59935778D01*
X70754556Y-59951323D01*
X70776166Y-59962874D01*
X70799615Y-59969987D01*
X70824001Y-59972389D01*
X70848387Y-59969987D01*
X70871836Y-59962874D01*
X70893447Y-59951323D01*
X70912389Y-59935777D01*
X70927934Y-59916835D01*
X70939485Y-59895225D01*
X70946598Y-59871776D01*
X70949000Y-59847390D01*
X70949000Y-59486500D01*
X74051000Y-59486500D01*
X74051000Y-59847390D01*
X74053402Y-59871776D01*
X74060515Y-59895225D01*
X74072066Y-59916836D01*
X74087611Y-59935778D01*
X74106553Y-59951323D01*
X74128164Y-59962874D01*
X74151613Y-59969987D01*
X74175999Y-59972389D01*
X74200385Y-59969987D01*
X74223834Y-59962874D01*
X74245445Y-59951323D01*
X74264387Y-59935778D01*
X74279932Y-59916836D01*
X74291483Y-59895225D01*
X74312317Y-59844926D01*
X74340625Y-59802560D01*
X74397239Y-59717831D01*
X74505331Y-59609739D01*
X74632423Y-59524819D01*
X74632426Y-59524817D01*
X74773649Y-59466321D01*
X74773650Y-59466321D01*
X74773652Y-59466320D01*
X74923569Y-59436500D01*
X75076431Y-59436500D01*
X75226348Y-59466320D01*
X75226350Y-59466321D01*
X75226351Y-59466321D01*
X75367574Y-59524817D01*
X75367577Y-59524819D01*
X75494669Y-59609739D01*
X75602761Y-59717831D01*
X75687681Y-59844923D01*
X75687683Y-59844926D01*
X75740479Y-59972389D01*
X75746180Y-59986152D01*
X75776000Y-60136069D01*
X75776000Y-60288931D01*
X75747878Y-60430312D01*
X75746179Y-60438851D01*
X75687683Y-60580074D01*
X75687682Y-60580075D01*
X75687681Y-60580077D01*
X75602761Y-60707169D01*
X75494669Y-60815261D01*
X75370757Y-60898056D01*
X75367574Y-60900183D01*
X75226351Y-60958679D01*
X75226350Y-60958679D01*
X75226348Y-60958680D01*
X75076431Y-60988500D01*
X74923569Y-60988500D01*
X74773652Y-60958680D01*
X74773650Y-60958679D01*
X74773649Y-60958679D01*
X74632426Y-60900183D01*
X74629243Y-60898056D01*
X74505331Y-60815261D01*
X74397239Y-60707169D01*
X74312318Y-60580075D01*
X74312317Y-60580074D01*
X74291481Y-60529772D01*
X74279932Y-60508164D01*
X74264386Y-60489222D01*
X74245444Y-60473677D01*
X74223834Y-60462126D01*
X74200385Y-60455013D01*
X74175999Y-60452611D01*
X74151613Y-60455013D01*
X74128164Y-60462126D01*
X74106553Y-60473677D01*
X74087611Y-60489223D01*
X74072066Y-60508165D01*
X74060515Y-60529775D01*
X74053402Y-60553224D01*
X74051000Y-60577610D01*
X74051000Y-60938500D01*
X70949000Y-60938500D01*
X70949000Y-60577610D01*
X70946598Y-60553224D01*
X70939485Y-60529775D01*
X70927934Y-60508164D01*
X70912389Y-60489222D01*
X70893447Y-60473677D01*
X70871836Y-60462126D01*
X70848387Y-60455013D01*
X70824001Y-60452611D01*
X70799615Y-60455013D01*
X70776166Y-60462126D01*
X70754555Y-60473677D01*
X70735613Y-60489222D01*
X70720068Y-60508164D01*
X70708519Y-60529772D01*
X70687683Y-60580074D01*
X70687682Y-60580075D01*
X70602761Y-60707169D01*
X70494669Y-60815261D01*
X70370757Y-60898056D01*
X70367574Y-60900183D01*
X70226351Y-60958679D01*
X70226350Y-60958679D01*
X70226348Y-60958680D01*
X70076431Y-60988500D01*
X69923569Y-60988500D01*
X69773652Y-60958680D01*
X69773650Y-60958679D01*
X69773649Y-60958679D01*
X69632426Y-60900183D01*
X69629243Y-60898056D01*
X69505331Y-60815261D01*
X69397239Y-60707169D01*
X69312319Y-60580077D01*
X69312318Y-60580075D01*
X69312317Y-60580074D01*
X69253821Y-60438851D01*
X69252123Y-60430312D01*
X69224000Y-60288931D01*
X69224000Y-60136069D01*
X69253820Y-59986152D01*
X69259521Y-59972389D01*
X69312317Y-59844926D01*
X69312319Y-59844923D01*
X69397239Y-59717831D01*
X69505331Y-59609739D01*
X69632423Y-59524819D01*
X69632426Y-59524817D01*
X69773649Y-59466321D01*
X69773650Y-59466321D01*
X69773652Y-59466320D01*
X69923569Y-59436500D01*
X70076431Y-59436500D01*
X70226348Y-59466320D01*
X70226348Y-59466320D01*
G37*
G36*
X65477290Y-57375619D02*
G01*
X65541689Y-57388429D01*
X65723678Y-57463811D01*
X65887463Y-57573249D01*
X66026751Y-57712537D01*
X66136189Y-57876322D01*
X66211571Y-58058311D01*
X66211571Y-58058312D01*
X66250000Y-58251507D01*
X66250000Y-58448493D01*
X66236443Y-58516649D01*
X66211571Y-58641689D01*
X66136189Y-58823678D01*
X66026751Y-58987463D01*
X65887463Y-59126751D01*
X65723678Y-59236189D01*
X65541689Y-59311571D01*
X65477290Y-59324381D01*
X65348493Y-59350000D01*
X65151507Y-59350000D01*
X65022710Y-59324381D01*
X64958311Y-59311571D01*
X64776322Y-59236189D01*
X64612537Y-59126751D01*
X64473249Y-58987463D01*
X64363811Y-58823678D01*
X64288429Y-58641689D01*
X64263557Y-58516649D01*
X64250000Y-58448493D01*
X64250000Y-58251507D01*
X64288429Y-58058312D01*
X64288429Y-58058311D01*
X64363811Y-57876322D01*
X64473249Y-57712537D01*
X64612537Y-57573249D01*
X64776322Y-57463811D01*
X64958311Y-57388429D01*
X65022710Y-57375619D01*
X65151507Y-57350000D01*
X65348493Y-57350000D01*
X65477290Y-57375619D01*
X65477290Y-57375619D01*
G37*
G36*
X76025862Y-56510898D02*
G01*
X76038114Y-56511500D01*
X76111406Y-56511500D01*
X76128164Y-56520457D01*
X76139707Y-56524587D01*
X76250331Y-56558145D01*
X76250334Y-56558146D01*
X76363424Y-56618594D01*
X76462554Y-56699947D01*
X76543906Y-56799075D01*
X76604354Y-56912164D01*
X76607153Y-56921392D01*
X76641580Y-57034882D01*
X76651000Y-57130527D01*
X76651000Y-57894473D01*
X76641580Y-57990118D01*
X76614040Y-58080904D01*
X76604354Y-58112836D01*
X76543906Y-58225925D01*
X76462554Y-58325054D01*
X76363425Y-58406406D01*
X76250336Y-58466854D01*
X76224693Y-58474632D01*
X76139708Y-58500413D01*
X76117075Y-58509787D01*
X76111518Y-58513500D01*
X76038114Y-58513500D01*
X76025862Y-58514102D01*
X76000000Y-58516649D01*
X75974138Y-58514102D01*
X75961886Y-58513500D01*
X74749000Y-58513500D01*
X74749000Y-56511500D01*
X75961886Y-56511500D01*
X75974138Y-56510898D01*
X76000000Y-56508351D01*
X76025862Y-56510898D01*
X76025862Y-56510898D01*
G37*
G36*
X69025862Y-56510898D02*
G01*
X69038114Y-56511500D01*
X70251000Y-56511500D01*
X70251000Y-58513500D01*
X69038114Y-58513500D01*
X69025862Y-58514102D01*
X69000000Y-58516649D01*
X68974138Y-58514102D01*
X68961886Y-58513500D01*
X68888594Y-58513500D01*
X68871836Y-58504543D01*
X68860299Y-58500415D01*
X68775307Y-58474632D01*
X68749664Y-58466854D01*
X68636575Y-58406406D01*
X68537447Y-58325054D01*
X68456094Y-58225924D01*
X68395646Y-58112835D01*
X68379107Y-58058312D01*
X68358420Y-57990117D01*
X68349000Y-57894472D01*
X68349000Y-57130527D01*
X68358420Y-57034882D01*
X68395645Y-56912168D01*
X68434586Y-56839315D01*
X68456095Y-56799075D01*
X68537447Y-56699946D01*
X68636576Y-56618594D01*
X68749666Y-56558146D01*
X68749669Y-56558145D01*
X68860290Y-56524588D01*
X68882925Y-56515212D01*
X68888481Y-56511500D01*
X68961886Y-56511500D01*
X68974138Y-56510898D01*
X69000000Y-56508351D01*
X69025862Y-56510898D01*
X69025862Y-56510898D01*
G37*
G36*
X72301000Y-58513500D02*
G01*
X70699000Y-58513500D01*
X70699000Y-56511500D01*
X72301000Y-56511500D01*
X72301000Y-58513500D01*
X72301000Y-58513500D01*
G37*
G36*
X74301000Y-58513500D02*
G01*
X72699000Y-58513500D01*
X72699000Y-56511500D01*
X74301000Y-56511500D01*
X74301000Y-58513500D01*
X74301000Y-58513500D01*
G37*
M02*
