%FSLAX45Y45*%
G04 Gerber Fmt 4.5, Leading zero omitted, Abs format (unit mm)*
G04 Created by KiCad (PCBNEW 5.1.4-e60b266~84~ubuntu18.04.1) date 2020-01-21 10:37:14*
%MOMM*%
%LPD*%
G04 APERTURE LIST*
%ADD10C,0.050000*%
%ADD11C,0.200000*%
%ADD12C,0.300000*%
G04 APERTURE END LIST*
D10*
X5600000Y-11500000D02*
X12100000Y-11500000D01*
X5600000Y-5500000D02*
X5600000Y-11500000D01*
X12100000Y-5500000D02*
X5600000Y-5500000D01*
X12100000Y-11500000D02*
X12100000Y-5500000D01*
D11*
X5745000Y-7925000D02*
X5785000Y-7965000D01*
X5785000Y-7925000D02*
X5745000Y-7965000D01*
X5840000Y-6695000D02*
X5880000Y-6735000D01*
X5880000Y-6695000D02*
X5840000Y-6735000D01*
X5880000Y-10125000D02*
X5920000Y-10165000D01*
X5920000Y-10125000D02*
X5880000Y-10165000D01*
X5905000Y-8395000D02*
X5945000Y-8435000D01*
X5945000Y-8395000D02*
X5905000Y-8435000D01*
X6010000Y-9960000D02*
X6050000Y-10000000D01*
X6050000Y-9960000D02*
X6010000Y-10000000D01*
X6085000Y-8125000D02*
X6125000Y-8165000D01*
X6125000Y-8125000D02*
X6085000Y-8165000D01*
X6174820Y-7135179D02*
X6214820Y-7175179D01*
X6214820Y-7135179D02*
X6174820Y-7175179D01*
X6510000Y-7505000D02*
X6550000Y-7545000D01*
X6550000Y-7505000D02*
X6510000Y-7545000D01*
X6510000Y-7970000D02*
X6550000Y-8010000D01*
X6550000Y-7970000D02*
X6510000Y-8010000D01*
X6710000Y-6624500D02*
X6750000Y-6664500D01*
X6750000Y-6624500D02*
X6710000Y-6664500D01*
X6735000Y-7760000D02*
X6775000Y-7800000D01*
X6775000Y-7760000D02*
X6735000Y-7800000D01*
X6845000Y-7055000D02*
X6885000Y-7095000D01*
X6885000Y-7055000D02*
X6845000Y-7095000D01*
X6975000Y-6205000D02*
X7015000Y-6245000D01*
X7015000Y-6205000D02*
X6975000Y-6245000D01*
X6975000Y-7055000D02*
X7015000Y-7095000D01*
X7015000Y-7055000D02*
X6975000Y-7095000D01*
X7140000Y-7060000D02*
X7180000Y-7100000D01*
X7180000Y-7060000D02*
X7140000Y-7100000D01*
X7220000Y-6200000D02*
X7260000Y-6240000D01*
X7260000Y-6200000D02*
X7220000Y-6240000D01*
X7300000Y-7060000D02*
X7340000Y-7100000D01*
X7340000Y-7060000D02*
X7300000Y-7100000D01*
X7315000Y-7885000D02*
X7355000Y-7925000D01*
X7355000Y-7885000D02*
X7315000Y-7925000D01*
X7360000Y-6200000D02*
X7400000Y-6240000D01*
X7400000Y-6200000D02*
X7360000Y-6240000D01*
X7390000Y-8505000D02*
X7430000Y-8545000D01*
X7430000Y-8505000D02*
X7390000Y-8545000D01*
X7530000Y-6655000D02*
X7570000Y-6695000D01*
X7570000Y-6655000D02*
X7530000Y-6695000D01*
X7530000Y-7060000D02*
X7570000Y-7100000D01*
X7570000Y-7060000D02*
X7530000Y-7100000D01*
X7540000Y-7755000D02*
X7580000Y-7795000D01*
X7580000Y-7755000D02*
X7540000Y-7795000D01*
X7795000Y-9930000D02*
X7835000Y-9970000D01*
X7835000Y-9930000D02*
X7795000Y-9970000D01*
X8265000Y-9930000D02*
X8305000Y-9970000D01*
X8305000Y-9930000D02*
X8265000Y-9970000D01*
X8830000Y-10355000D02*
X8870000Y-10395000D01*
X8870000Y-10355000D02*
X8830000Y-10395000D01*
X8895000Y-8410000D02*
X8935000Y-8450000D01*
X8935000Y-8410000D02*
X8895000Y-8450000D01*
X8975000Y-8165000D02*
X9015000Y-8205000D01*
X9015000Y-8165000D02*
X8975000Y-8205000D01*
X9408480Y-9584502D02*
X9448480Y-9624502D01*
X9448480Y-9584502D02*
X9408480Y-9624502D01*
X9430000Y-7955000D02*
X9470000Y-7995000D01*
X9470000Y-7955000D02*
X9430000Y-7995000D01*
X9480000Y-9780000D02*
X9520000Y-9820000D01*
X9520000Y-9780000D02*
X9480000Y-9820000D01*
X9571548Y-6700078D02*
X9611548Y-6740078D01*
X9611548Y-6700078D02*
X9571548Y-6740078D01*
X9630000Y-7905000D02*
X9670000Y-7945000D01*
X9670000Y-7905000D02*
X9630000Y-7945000D01*
X9680260Y-9316532D02*
X9720260Y-9356532D01*
X9720260Y-9316532D02*
X9680260Y-9356532D01*
X9730000Y-8080000D02*
X9770000Y-8120000D01*
X9770000Y-8080000D02*
X9730000Y-8120000D01*
X9779828Y-9675434D02*
X9819828Y-9715434D01*
X9819828Y-9675434D02*
X9779828Y-9715434D01*
X9880000Y-8105000D02*
X9920000Y-8145000D01*
X9920000Y-8105000D02*
X9880000Y-8145000D01*
X9880000Y-9462836D02*
X9920000Y-9502836D01*
X9920000Y-9462836D02*
X9880000Y-9502836D01*
X9979726Y-9675688D02*
X10019726Y-9715688D01*
X10019726Y-9675688D02*
X9979726Y-9715688D01*
X9979999Y-10055000D02*
X10019999Y-10095000D01*
X10019999Y-10055000D02*
X9979999Y-10095000D01*
X10280002Y-7480000D02*
X10320002Y-7520000D01*
X10320002Y-7480000D02*
X10280002Y-7520000D01*
X10480000Y-8955000D02*
X10520000Y-8995000D01*
X10520000Y-8955000D02*
X10480000Y-8995000D01*
X10605000Y-7705000D02*
X10645000Y-7745000D01*
X10645000Y-7705000D02*
X10605000Y-7745000D01*
X10605000Y-10330000D02*
X10645000Y-10370000D01*
X10645000Y-10330000D02*
X10605000Y-10370000D01*
X10605074Y-9684578D02*
X10645074Y-9724578D01*
X10645074Y-9684578D02*
X10605074Y-9724578D01*
X10731312Y-9587804D02*
X10771312Y-9627804D01*
X10771312Y-9587804D02*
X10731312Y-9627804D01*
X11530000Y-7855000D02*
X11570000Y-7895000D01*
X11570000Y-7855000D02*
X11530000Y-7895000D01*
X11510000Y-5875000D02*
G75*
G03X11510000Y-5875000I-25000J0D01*
G01*
X11580294Y-5705294D02*
G75*
G03X11580294Y-5705294I-25000J0D01*
G01*
X11580294Y-6044706D02*
G75*
G03X11580294Y-6044706I-25000J0D01*
G01*
X11750000Y-5635000D02*
G75*
G03X11750000Y-5635000I-25000J0D01*
G01*
X11750000Y-6115000D02*
G75*
G03X11750000Y-6115000I-25000J0D01*
G01*
X11919706Y-5705294D02*
G75*
G03X11919706Y-5705294I-25000J0D01*
G01*
X11919706Y-6044706D02*
G75*
G03X11919706Y-6044706I-25000J0D01*
G01*
X11990000Y-5875000D02*
G75*
G03X11990000Y-5875000I-25000J0D01*
G01*
X5760000Y-11125000D02*
G75*
G03X5760000Y-11125000I-25000J0D01*
G01*
X5830294Y-10955294D02*
G75*
G03X5830294Y-10955294I-25000J0D01*
G01*
X5830294Y-11294706D02*
G75*
G03X5830294Y-11294706I-25000J0D01*
G01*
X6000000Y-10885000D02*
G75*
G03X6000000Y-10885000I-25000J0D01*
G01*
X6000000Y-11365000D02*
G75*
G03X6000000Y-11365000I-25000J0D01*
G01*
X6169706Y-10955294D02*
G75*
G03X6169706Y-10955294I-25000J0D01*
G01*
X6169706Y-11294706D02*
G75*
G03X6169706Y-11294706I-25000J0D01*
G01*
X6240000Y-11125000D02*
G75*
G03X6240000Y-11125000I-25000J0D01*
G01*
X5760000Y-5875000D02*
G75*
G03X5760000Y-5875000I-25000J0D01*
G01*
X5830294Y-5705294D02*
G75*
G03X5830294Y-5705294I-25000J0D01*
G01*
X5830294Y-6044706D02*
G75*
G03X5830294Y-6044706I-25000J0D01*
G01*
X6000000Y-5635000D02*
G75*
G03X6000000Y-5635000I-25000J0D01*
G01*
X6000000Y-6115000D02*
G75*
G03X6000000Y-6115000I-25000J0D01*
G01*
X6169706Y-5705294D02*
G75*
G03X6169706Y-5705294I-25000J0D01*
G01*
X6169706Y-6044706D02*
G75*
G03X6169706Y-6044706I-25000J0D01*
G01*
X6240000Y-5875000D02*
G75*
G03X6240000Y-5875000I-25000J0D01*
G01*
X11510000Y-11125000D02*
G75*
G03X11510000Y-11125000I-25000J0D01*
G01*
X11580294Y-10955294D02*
G75*
G03X11580294Y-10955294I-25000J0D01*
G01*
X11580294Y-11294706D02*
G75*
G03X11580294Y-11294706I-25000J0D01*
G01*
X11750000Y-10885000D02*
G75*
G03X11750000Y-10885000I-25000J0D01*
G01*
X11750000Y-11365000D02*
G75*
G03X11750000Y-11365000I-25000J0D01*
G01*
X11919706Y-10955294D02*
G75*
G03X11919706Y-10955294I-25000J0D01*
G01*
X11919706Y-11294706D02*
G75*
G03X11919706Y-11294706I-25000J0D01*
G01*
X11990000Y-11125000D02*
G75*
G03X11990000Y-11125000I-25000J0D01*
G01*
X6900000Y-5721250D02*
X6900000Y-5781250D01*
X6870000Y-5751250D02*
X6930000Y-5751250D01*
X6920000Y-5786250D02*
X6920000Y-5716250D01*
X6880000Y-5786250D02*
X6880000Y-5716250D01*
X6920000Y-5716250D02*
G75*
G03X6880000Y-5716250I-20000J0D01*
G01*
X6880000Y-5786250D02*
G75*
G03X6920000Y-5786250I20000J0D01*
G01*
X7600000Y-5721250D02*
X7600000Y-5781250D01*
X7570000Y-5751250D02*
X7630000Y-5751250D01*
X7580000Y-5716250D02*
X7580000Y-5786250D01*
X7620000Y-5716250D02*
X7620000Y-5786250D01*
X7580000Y-5786250D02*
G75*
G03X7620000Y-5786250I20000J0D01*
G01*
X7620000Y-5716250D02*
G75*
G03X7580000Y-5716250I-20000J0D01*
G01*
X7030052Y-6051302D02*
X7030052Y-5991198D01*
X6969948Y-5991198D01*
X6969948Y-6051302D01*
X7030052Y-6051302D01*
X7530052Y-6051302D02*
X7530052Y-5991198D01*
X7469948Y-5991198D01*
X7469948Y-6051302D01*
X7530052Y-6051302D01*
X6106000Y-7810000D02*
X6156000Y-7760000D01*
X6106000Y-7710000D01*
X6056000Y-7760000D01*
X6106000Y-7810000D01*
X6360000Y-7810000D02*
X6410000Y-7760000D01*
X6360000Y-7710000D01*
X6310000Y-7760000D01*
X6360000Y-7810000D01*
X6524000Y-8250000D02*
X6574000Y-8200000D01*
X6524000Y-8150000D01*
X6474000Y-8200000D01*
X6524000Y-8250000D01*
X6778000Y-8250000D02*
X6828000Y-8200000D01*
X6778000Y-8150000D01*
X6728000Y-8200000D01*
X6778000Y-8250000D01*
X7032000Y-8250000D02*
X7082000Y-8200000D01*
X7032000Y-8150000D01*
X6982000Y-8200000D01*
X7032000Y-8250000D01*
X7286000Y-8250000D02*
X7336000Y-8200000D01*
X7286000Y-8150000D01*
X7236000Y-8200000D01*
X7286000Y-8250000D01*
X7540000Y-8250000D02*
X7590000Y-8200000D01*
X7540000Y-8150000D01*
X7490000Y-8200000D01*
X7540000Y-8250000D01*
X6530000Y-10950000D02*
X6580000Y-10900000D01*
X6530000Y-10850000D01*
X6480000Y-10900000D01*
X6530000Y-10950000D01*
X6784000Y-10950000D02*
X6834000Y-10900000D01*
X6784000Y-10850000D01*
X6734000Y-10900000D01*
X6784000Y-10950000D01*
X7038000Y-10950000D02*
X7088000Y-10900000D01*
X7038000Y-10850000D01*
X6988000Y-10900000D01*
X7038000Y-10950000D01*
X7292000Y-10950000D02*
X7342000Y-10900000D01*
X7292000Y-10850000D01*
X7242000Y-10900000D01*
X7292000Y-10950000D01*
X7546000Y-10950000D02*
X7596000Y-10900000D01*
X7546000Y-10850000D01*
X7496000Y-10900000D01*
X7546000Y-10950000D01*
X7800000Y-10950000D02*
X7850000Y-10900000D01*
X7800000Y-10850000D01*
X7750000Y-10900000D01*
X7800000Y-10950000D01*
X10875000Y-7325000D02*
X10925000Y-7275000D01*
X10875000Y-7225000D01*
X10825000Y-7275000D01*
X10875000Y-7325000D01*
X11625000Y-7325000D02*
X11675000Y-7275000D01*
X11625000Y-7225000D01*
X11575000Y-7275000D01*
X11625000Y-7325000D01*
X10875000Y-10175000D02*
X10925000Y-10125000D01*
X10875000Y-10075000D01*
X10825000Y-10125000D01*
X10875000Y-10175000D01*
X11625000Y-10175000D02*
X11675000Y-10125000D01*
X11625000Y-10075000D01*
X11575000Y-10125000D01*
X11625000Y-10175000D01*
X10300000Y-6425000D02*
X10450000Y-6575000D01*
X10450000Y-6425000D02*
X10300000Y-6575000D01*
X10450000Y-6500000D02*
G75*
G03X10450000Y-6500000I-75000J0D01*
G01*
X10800000Y-6425000D02*
X10950000Y-6575000D01*
X10950000Y-6425000D02*
X10800000Y-6575000D01*
X10950000Y-6500000D02*
G75*
G03X10950000Y-6500000I-75000J0D01*
G01*
X11120000Y-8100000D02*
X11270000Y-8250000D01*
X11270000Y-8100000D02*
X11120000Y-8250000D01*
X11270000Y-8175000D02*
G75*
G03X11270000Y-8175000I-75000J0D01*
G01*
X11120000Y-8450000D02*
X11270000Y-8600000D01*
X11270000Y-8450000D02*
X11120000Y-8600000D01*
X11270000Y-8525000D02*
G75*
G03X11270000Y-8525000I-75000J0D01*
G01*
X11120000Y-8800000D02*
X11270000Y-8950000D01*
X11270000Y-8800000D02*
X11120000Y-8950000D01*
X11270000Y-8875000D02*
G75*
G03X11270000Y-8875000I-75000J0D01*
G01*
X11120000Y-9150000D02*
X11270000Y-9300000D01*
X11270000Y-9150000D02*
X11120000Y-9300000D01*
X11270000Y-9225000D02*
G75*
G03X11270000Y-9225000I-75000J0D01*
G01*
X11565000Y-5715000D02*
X11885000Y-6035000D01*
X11885000Y-5715000D02*
X11565000Y-6035000D01*
X11725000Y-5715000D02*
X11725000Y-6035000D01*
X11565000Y-5875000D02*
X11885000Y-5875000D01*
X5815000Y-10965000D02*
X6135000Y-11285000D01*
X6135000Y-10965000D02*
X5815000Y-11285000D01*
X5975000Y-10965000D02*
X5975000Y-11285000D01*
X5815000Y-11125000D02*
X6135000Y-11125000D01*
X5815000Y-5715000D02*
X6135000Y-6035000D01*
X6135000Y-5715000D02*
X5815000Y-6035000D01*
X5975000Y-5715000D02*
X5975000Y-6035000D01*
X5815000Y-5875000D02*
X6135000Y-5875000D01*
X11565000Y-10965000D02*
X11885000Y-11285000D01*
X11885000Y-10965000D02*
X11565000Y-11285000D01*
X11725000Y-10965000D02*
X11725000Y-11285000D01*
X11565000Y-11125000D02*
X11885000Y-11125000D01*
D12*
X5883928Y-11968214D02*
X5883928Y-11668214D01*
X5955357Y-11668214D01*
X5998214Y-11682500D01*
X6026786Y-11711071D01*
X6041071Y-11739643D01*
X6055357Y-11796786D01*
X6055357Y-11839643D01*
X6041071Y-11896786D01*
X6026786Y-11925357D01*
X5998214Y-11953929D01*
X5955357Y-11968214D01*
X5883928Y-11968214D01*
X6183928Y-11968214D02*
X6183928Y-11768214D01*
X6183928Y-11825357D02*
X6198214Y-11796786D01*
X6212500Y-11782500D01*
X6241071Y-11768214D01*
X6269643Y-11768214D01*
X6369643Y-11968214D02*
X6369643Y-11768214D01*
X6369643Y-11668214D02*
X6355357Y-11682500D01*
X6369643Y-11696786D01*
X6383928Y-11682500D01*
X6369643Y-11668214D01*
X6369643Y-11696786D01*
X6555357Y-11968214D02*
X6526786Y-11953929D01*
X6512500Y-11925357D01*
X6512500Y-11668214D01*
X6712500Y-11968214D02*
X6683928Y-11953929D01*
X6669643Y-11925357D01*
X6669643Y-11668214D01*
X7055357Y-11968214D02*
X7055357Y-11668214D01*
X7155357Y-11882500D01*
X7255357Y-11668214D01*
X7255357Y-11968214D01*
X7526786Y-11968214D02*
X7526786Y-11811071D01*
X7512500Y-11782500D01*
X7483928Y-11768214D01*
X7426786Y-11768214D01*
X7398214Y-11782500D01*
X7526786Y-11953929D02*
X7498214Y-11968214D01*
X7426786Y-11968214D01*
X7398214Y-11953929D01*
X7383928Y-11925357D01*
X7383928Y-11896786D01*
X7398214Y-11868214D01*
X7426786Y-11853929D01*
X7498214Y-11853929D01*
X7526786Y-11839643D01*
X7669643Y-11768214D02*
X7669643Y-12068214D01*
X7669643Y-11782500D02*
X7698214Y-11768214D01*
X7755357Y-11768214D01*
X7783928Y-11782500D01*
X7798214Y-11796786D01*
X7812500Y-11825357D01*
X7812500Y-11911071D01*
X7798214Y-11939643D01*
X7783928Y-11953929D01*
X7755357Y-11968214D01*
X7698214Y-11968214D01*
X7669643Y-11953929D01*
X7941071Y-11939643D02*
X7955357Y-11953929D01*
X7941071Y-11968214D01*
X7926786Y-11953929D01*
X7941071Y-11939643D01*
X7941071Y-11968214D01*
X7941071Y-11782500D02*
X7955357Y-11796786D01*
X7941071Y-11811071D01*
X7926786Y-11796786D01*
X7941071Y-11782500D01*
X7941071Y-11811071D01*
X5557500Y-12442500D02*
X5597500Y-12482500D01*
X5597500Y-12442500D02*
X5557500Y-12482500D01*
X5941071Y-12298214D02*
X5969643Y-12298214D01*
X5998214Y-12312500D01*
X6012500Y-12326786D01*
X6026786Y-12355357D01*
X6041071Y-12412500D01*
X6041071Y-12483929D01*
X6026786Y-12541071D01*
X6012500Y-12569643D01*
X5998214Y-12583929D01*
X5969643Y-12598214D01*
X5941071Y-12598214D01*
X5912500Y-12583929D01*
X5898214Y-12569643D01*
X5883928Y-12541071D01*
X5869643Y-12483929D01*
X5869643Y-12412500D01*
X5883928Y-12355357D01*
X5898214Y-12326786D01*
X5912500Y-12312500D01*
X5941071Y-12298214D01*
X6169643Y-12569643D02*
X6183928Y-12583929D01*
X6169643Y-12598214D01*
X6155357Y-12583929D01*
X6169643Y-12569643D01*
X6169643Y-12598214D01*
X6441071Y-12398214D02*
X6441071Y-12598214D01*
X6369643Y-12283929D02*
X6298214Y-12498214D01*
X6483928Y-12498214D01*
X6655357Y-12298214D02*
X6683928Y-12298214D01*
X6712500Y-12312500D01*
X6726786Y-12326786D01*
X6741071Y-12355357D01*
X6755357Y-12412500D01*
X6755357Y-12483929D01*
X6741071Y-12541071D01*
X6726786Y-12569643D01*
X6712500Y-12583929D01*
X6683928Y-12598214D01*
X6655357Y-12598214D01*
X6626786Y-12583929D01*
X6612500Y-12569643D01*
X6598214Y-12541071D01*
X6583928Y-12483929D01*
X6583928Y-12412500D01*
X6598214Y-12355357D01*
X6612500Y-12326786D01*
X6626786Y-12312500D01*
X6655357Y-12298214D01*
X6883928Y-12598214D02*
X6883928Y-12398214D01*
X6883928Y-12426786D02*
X6898214Y-12412500D01*
X6926786Y-12398214D01*
X6969643Y-12398214D01*
X6998214Y-12412500D01*
X7012500Y-12441071D01*
X7012500Y-12598214D01*
X7012500Y-12441071D02*
X7026786Y-12412500D01*
X7055357Y-12398214D01*
X7098214Y-12398214D01*
X7126786Y-12412500D01*
X7141071Y-12441071D01*
X7141071Y-12598214D01*
X7283928Y-12598214D02*
X7283928Y-12398214D01*
X7283928Y-12426786D02*
X7298214Y-12412500D01*
X7326786Y-12398214D01*
X7369643Y-12398214D01*
X7398214Y-12412500D01*
X7412500Y-12441071D01*
X7412500Y-12598214D01*
X7412500Y-12441071D02*
X7426786Y-12412500D01*
X7455357Y-12398214D01*
X7498214Y-12398214D01*
X7526786Y-12412500D01*
X7541071Y-12441071D01*
X7541071Y-12598214D01*
X8126786Y-12283929D02*
X7869643Y-12669643D01*
X8512500Y-12298214D02*
X8541071Y-12298214D01*
X8569643Y-12312500D01*
X8583928Y-12326786D01*
X8598214Y-12355357D01*
X8612500Y-12412500D01*
X8612500Y-12483929D01*
X8598214Y-12541071D01*
X8583928Y-12569643D01*
X8569643Y-12583929D01*
X8541071Y-12598214D01*
X8512500Y-12598214D01*
X8483928Y-12583929D01*
X8469643Y-12569643D01*
X8455357Y-12541071D01*
X8441071Y-12483929D01*
X8441071Y-12412500D01*
X8455357Y-12355357D01*
X8469643Y-12326786D01*
X8483928Y-12312500D01*
X8512500Y-12298214D01*
X8741071Y-12569643D02*
X8755357Y-12583929D01*
X8741071Y-12598214D01*
X8726786Y-12583929D01*
X8741071Y-12569643D01*
X8741071Y-12598214D01*
X8941071Y-12298214D02*
X8969643Y-12298214D01*
X8998214Y-12312500D01*
X9012500Y-12326786D01*
X9026786Y-12355357D01*
X9041071Y-12412500D01*
X9041071Y-12483929D01*
X9026786Y-12541071D01*
X9012500Y-12569643D01*
X8998214Y-12583929D01*
X8969643Y-12598214D01*
X8941071Y-12598214D01*
X8912500Y-12583929D01*
X8898214Y-12569643D01*
X8883928Y-12541071D01*
X8869643Y-12483929D01*
X8869643Y-12412500D01*
X8883928Y-12355357D01*
X8898214Y-12326786D01*
X8912500Y-12312500D01*
X8941071Y-12298214D01*
X9326786Y-12598214D02*
X9155357Y-12598214D01*
X9241071Y-12598214D02*
X9241071Y-12298214D01*
X9212500Y-12341071D01*
X9183928Y-12369643D01*
X9155357Y-12383929D01*
X9583928Y-12298214D02*
X9526786Y-12298214D01*
X9498214Y-12312500D01*
X9483928Y-12326786D01*
X9455357Y-12369643D01*
X9441071Y-12426786D01*
X9441071Y-12541071D01*
X9455357Y-12569643D01*
X9469643Y-12583929D01*
X9498214Y-12598214D01*
X9555357Y-12598214D01*
X9583928Y-12583929D01*
X9598214Y-12569643D01*
X9612500Y-12541071D01*
X9612500Y-12469643D01*
X9598214Y-12441071D01*
X9583928Y-12426786D01*
X9555357Y-12412500D01*
X9498214Y-12412500D01*
X9469643Y-12426786D01*
X9455357Y-12441071D01*
X9441071Y-12469643D01*
X9726786Y-12298214D02*
X9726786Y-12355357D01*
X9841071Y-12298214D02*
X9841071Y-12355357D01*
X10283928Y-12712500D02*
X10269643Y-12698214D01*
X10241071Y-12655357D01*
X10226786Y-12626786D01*
X10212500Y-12583929D01*
X10198214Y-12512500D01*
X10198214Y-12455357D01*
X10212500Y-12383929D01*
X10226786Y-12341071D01*
X10241071Y-12312500D01*
X10269643Y-12269643D01*
X10283928Y-12255357D01*
X10526786Y-12398214D02*
X10526786Y-12598214D01*
X10455357Y-12283929D02*
X10383928Y-12498214D01*
X10569643Y-12498214D01*
X10655357Y-12298214D02*
X10855357Y-12298214D01*
X10726786Y-12598214D01*
X11198214Y-12598214D02*
X11198214Y-12298214D01*
X11326786Y-12598214D02*
X11326786Y-12441071D01*
X11312500Y-12412500D01*
X11283928Y-12398214D01*
X11241071Y-12398214D01*
X11212500Y-12412500D01*
X11198214Y-12426786D01*
X11512500Y-12598214D02*
X11483928Y-12583929D01*
X11469643Y-12569643D01*
X11455357Y-12541071D01*
X11455357Y-12455357D01*
X11469643Y-12426786D01*
X11483928Y-12412500D01*
X11512500Y-12398214D01*
X11555357Y-12398214D01*
X11583928Y-12412500D01*
X11598214Y-12426786D01*
X11612500Y-12455357D01*
X11612500Y-12541071D01*
X11598214Y-12569643D01*
X11583928Y-12583929D01*
X11555357Y-12598214D01*
X11512500Y-12598214D01*
X11783928Y-12598214D02*
X11755357Y-12583929D01*
X11741071Y-12555357D01*
X11741071Y-12298214D01*
X12012500Y-12583929D02*
X11983928Y-12598214D01*
X11926786Y-12598214D01*
X11898214Y-12583929D01*
X11883928Y-12555357D01*
X11883928Y-12441071D01*
X11898214Y-12412500D01*
X11926786Y-12398214D01*
X11983928Y-12398214D01*
X12012500Y-12412500D01*
X12026786Y-12441071D01*
X12026786Y-12469643D01*
X11883928Y-12498214D01*
X12141071Y-12583929D02*
X12169643Y-12598214D01*
X12226786Y-12598214D01*
X12255357Y-12583929D01*
X12269643Y-12555357D01*
X12269643Y-12541071D01*
X12255357Y-12512500D01*
X12226786Y-12498214D01*
X12183928Y-12498214D01*
X12155357Y-12483929D01*
X12141071Y-12455357D01*
X12141071Y-12441071D01*
X12155357Y-12412500D01*
X12183928Y-12398214D01*
X12226786Y-12398214D01*
X12255357Y-12412500D01*
X12369643Y-12712500D02*
X12383928Y-12698214D01*
X12412500Y-12655357D01*
X12426786Y-12626786D01*
X12441071Y-12583929D01*
X12455357Y-12512500D01*
X12455357Y-12455357D01*
X12441071Y-12383929D01*
X12426786Y-12341071D01*
X12412500Y-12312500D01*
X12383928Y-12269643D01*
X12369643Y-12255357D01*
X5597500Y-12858500D02*
G75*
G03X5597500Y-12858500I-25000J0D01*
G01*
X5941071Y-12694214D02*
X5969643Y-12694214D01*
X5998214Y-12708500D01*
X6012500Y-12722786D01*
X6026786Y-12751357D01*
X6041071Y-12808500D01*
X6041071Y-12879929D01*
X6026786Y-12937071D01*
X6012500Y-12965643D01*
X5998214Y-12979929D01*
X5969643Y-12994214D01*
X5941071Y-12994214D01*
X5912500Y-12979929D01*
X5898214Y-12965643D01*
X5883928Y-12937071D01*
X5869643Y-12879929D01*
X5869643Y-12808500D01*
X5883928Y-12751357D01*
X5898214Y-12722786D01*
X5912500Y-12708500D01*
X5941071Y-12694214D01*
X6169643Y-12965643D02*
X6183928Y-12979929D01*
X6169643Y-12994214D01*
X6155357Y-12979929D01*
X6169643Y-12965643D01*
X6169643Y-12994214D01*
X6455357Y-12694214D02*
X6312500Y-12694214D01*
X6298214Y-12837071D01*
X6312500Y-12822786D01*
X6341071Y-12808500D01*
X6412500Y-12808500D01*
X6441071Y-12822786D01*
X6455357Y-12837071D01*
X6469643Y-12865643D01*
X6469643Y-12937071D01*
X6455357Y-12965643D01*
X6441071Y-12979929D01*
X6412500Y-12994214D01*
X6341071Y-12994214D01*
X6312500Y-12979929D01*
X6298214Y-12965643D01*
X6655357Y-12694214D02*
X6683928Y-12694214D01*
X6712500Y-12708500D01*
X6726786Y-12722786D01*
X6741071Y-12751357D01*
X6755357Y-12808500D01*
X6755357Y-12879929D01*
X6741071Y-12937071D01*
X6726786Y-12965643D01*
X6712500Y-12979929D01*
X6683928Y-12994214D01*
X6655357Y-12994214D01*
X6626786Y-12979929D01*
X6612500Y-12965643D01*
X6598214Y-12937071D01*
X6583928Y-12879929D01*
X6583928Y-12808500D01*
X6598214Y-12751357D01*
X6612500Y-12722786D01*
X6626786Y-12708500D01*
X6655357Y-12694214D01*
X6883928Y-12994214D02*
X6883928Y-12794214D01*
X6883928Y-12822786D02*
X6898214Y-12808500D01*
X6926786Y-12794214D01*
X6969643Y-12794214D01*
X6998214Y-12808500D01*
X7012500Y-12837071D01*
X7012500Y-12994214D01*
X7012500Y-12837071D02*
X7026786Y-12808500D01*
X7055357Y-12794214D01*
X7098214Y-12794214D01*
X7126786Y-12808500D01*
X7141071Y-12837071D01*
X7141071Y-12994214D01*
X7283928Y-12994214D02*
X7283928Y-12794214D01*
X7283928Y-12822786D02*
X7298214Y-12808500D01*
X7326786Y-12794214D01*
X7369643Y-12794214D01*
X7398214Y-12808500D01*
X7412500Y-12837071D01*
X7412500Y-12994214D01*
X7412500Y-12837071D02*
X7426786Y-12808500D01*
X7455357Y-12794214D01*
X7498214Y-12794214D01*
X7526786Y-12808500D01*
X7541071Y-12837071D01*
X7541071Y-12994214D01*
X8126786Y-12679929D02*
X7869643Y-13065643D01*
X8512500Y-12694214D02*
X8541071Y-12694214D01*
X8569643Y-12708500D01*
X8583928Y-12722786D01*
X8598214Y-12751357D01*
X8612500Y-12808500D01*
X8612500Y-12879929D01*
X8598214Y-12937071D01*
X8583928Y-12965643D01*
X8569643Y-12979929D01*
X8541071Y-12994214D01*
X8512500Y-12994214D01*
X8483928Y-12979929D01*
X8469643Y-12965643D01*
X8455357Y-12937071D01*
X8441071Y-12879929D01*
X8441071Y-12808500D01*
X8455357Y-12751357D01*
X8469643Y-12722786D01*
X8483928Y-12708500D01*
X8512500Y-12694214D01*
X8741071Y-12965643D02*
X8755357Y-12979929D01*
X8741071Y-12994214D01*
X8726786Y-12979929D01*
X8741071Y-12965643D01*
X8741071Y-12994214D01*
X8941071Y-12694214D02*
X8969643Y-12694214D01*
X8998214Y-12708500D01*
X9012500Y-12722786D01*
X9026786Y-12751357D01*
X9041071Y-12808500D01*
X9041071Y-12879929D01*
X9026786Y-12937071D01*
X9012500Y-12965643D01*
X8998214Y-12979929D01*
X8969643Y-12994214D01*
X8941071Y-12994214D01*
X8912500Y-12979929D01*
X8898214Y-12965643D01*
X8883928Y-12937071D01*
X8869643Y-12879929D01*
X8869643Y-12808500D01*
X8883928Y-12751357D01*
X8898214Y-12722786D01*
X8912500Y-12708500D01*
X8941071Y-12694214D01*
X9155357Y-12722786D02*
X9169643Y-12708500D01*
X9198214Y-12694214D01*
X9269643Y-12694214D01*
X9298214Y-12708500D01*
X9312500Y-12722786D01*
X9326786Y-12751357D01*
X9326786Y-12779929D01*
X9312500Y-12822786D01*
X9141071Y-12994214D01*
X9326786Y-12994214D01*
X9512500Y-12694214D02*
X9541071Y-12694214D01*
X9569643Y-12708500D01*
X9583928Y-12722786D01*
X9598214Y-12751357D01*
X9612500Y-12808500D01*
X9612500Y-12879929D01*
X9598214Y-12937071D01*
X9583928Y-12965643D01*
X9569643Y-12979929D01*
X9541071Y-12994214D01*
X9512500Y-12994214D01*
X9483928Y-12979929D01*
X9469643Y-12965643D01*
X9455357Y-12937071D01*
X9441071Y-12879929D01*
X9441071Y-12808500D01*
X9455357Y-12751357D01*
X9469643Y-12722786D01*
X9483928Y-12708500D01*
X9512500Y-12694214D01*
X9726786Y-12694214D02*
X9726786Y-12751357D01*
X9841071Y-12694214D02*
X9841071Y-12751357D01*
X10283928Y-13108500D02*
X10269643Y-13094214D01*
X10241071Y-13051357D01*
X10226786Y-13022786D01*
X10212500Y-12979929D01*
X10198214Y-12908500D01*
X10198214Y-12851357D01*
X10212500Y-12779929D01*
X10226786Y-12737071D01*
X10241071Y-12708500D01*
X10269643Y-12665643D01*
X10283928Y-12651357D01*
X10369643Y-12694214D02*
X10555357Y-12694214D01*
X10455357Y-12808500D01*
X10498214Y-12808500D01*
X10526786Y-12822786D01*
X10541071Y-12837071D01*
X10555357Y-12865643D01*
X10555357Y-12937071D01*
X10541071Y-12965643D01*
X10526786Y-12979929D01*
X10498214Y-12994214D01*
X10412500Y-12994214D01*
X10383928Y-12979929D01*
X10369643Y-12965643D01*
X10669643Y-12722786D02*
X10683928Y-12708500D01*
X10712500Y-12694214D01*
X10783928Y-12694214D01*
X10812500Y-12708500D01*
X10826786Y-12722786D01*
X10841071Y-12751357D01*
X10841071Y-12779929D01*
X10826786Y-12822786D01*
X10655357Y-12994214D01*
X10841071Y-12994214D01*
X11198214Y-12994214D02*
X11198214Y-12694214D01*
X11326786Y-12994214D02*
X11326786Y-12837071D01*
X11312500Y-12808500D01*
X11283928Y-12794214D01*
X11241071Y-12794214D01*
X11212500Y-12808500D01*
X11198214Y-12822786D01*
X11512500Y-12994214D02*
X11483928Y-12979929D01*
X11469643Y-12965643D01*
X11455357Y-12937071D01*
X11455357Y-12851357D01*
X11469643Y-12822786D01*
X11483928Y-12808500D01*
X11512500Y-12794214D01*
X11555357Y-12794214D01*
X11583928Y-12808500D01*
X11598214Y-12822786D01*
X11612500Y-12851357D01*
X11612500Y-12937071D01*
X11598214Y-12965643D01*
X11583928Y-12979929D01*
X11555357Y-12994214D01*
X11512500Y-12994214D01*
X11783928Y-12994214D02*
X11755357Y-12979929D01*
X11741071Y-12951357D01*
X11741071Y-12694214D01*
X12012500Y-12979929D02*
X11983928Y-12994214D01*
X11926786Y-12994214D01*
X11898214Y-12979929D01*
X11883928Y-12951357D01*
X11883928Y-12837071D01*
X11898214Y-12808500D01*
X11926786Y-12794214D01*
X11983928Y-12794214D01*
X12012500Y-12808500D01*
X12026786Y-12837071D01*
X12026786Y-12865643D01*
X11883928Y-12894214D01*
X12141071Y-12979929D02*
X12169643Y-12994214D01*
X12226786Y-12994214D01*
X12255357Y-12979929D01*
X12269643Y-12951357D01*
X12269643Y-12937071D01*
X12255357Y-12908500D01*
X12226786Y-12894214D01*
X12183928Y-12894214D01*
X12155357Y-12879929D01*
X12141071Y-12851357D01*
X12141071Y-12837071D01*
X12155357Y-12808500D01*
X12183928Y-12794214D01*
X12226786Y-12794214D01*
X12255357Y-12808500D01*
X12369643Y-13108500D02*
X12383928Y-13094214D01*
X12412500Y-13051357D01*
X12426786Y-13022786D01*
X12441071Y-12979929D01*
X12455357Y-12908500D01*
X12455357Y-12851357D01*
X12441071Y-12779929D01*
X12426786Y-12737071D01*
X12412500Y-12708500D01*
X12383928Y-12665643D01*
X12369643Y-12651357D01*
X5567500Y-13224500D02*
X5567500Y-13284500D01*
X5537500Y-13254500D02*
X5597500Y-13254500D01*
X5941071Y-13090214D02*
X5969643Y-13090214D01*
X5998214Y-13104500D01*
X6012500Y-13118786D01*
X6026786Y-13147357D01*
X6041071Y-13204500D01*
X6041071Y-13275929D01*
X6026786Y-13333071D01*
X6012500Y-13361643D01*
X5998214Y-13375929D01*
X5969643Y-13390214D01*
X5941071Y-13390214D01*
X5912500Y-13375929D01*
X5898214Y-13361643D01*
X5883928Y-13333071D01*
X5869643Y-13275929D01*
X5869643Y-13204500D01*
X5883928Y-13147357D01*
X5898214Y-13118786D01*
X5912500Y-13104500D01*
X5941071Y-13090214D01*
X6169643Y-13361643D02*
X6183928Y-13375929D01*
X6169643Y-13390214D01*
X6155357Y-13375929D01*
X6169643Y-13361643D01*
X6169643Y-13390214D01*
X6441071Y-13090214D02*
X6383928Y-13090214D01*
X6355357Y-13104500D01*
X6341071Y-13118786D01*
X6312500Y-13161643D01*
X6298214Y-13218786D01*
X6298214Y-13333071D01*
X6312500Y-13361643D01*
X6326786Y-13375929D01*
X6355357Y-13390214D01*
X6412500Y-13390214D01*
X6441071Y-13375929D01*
X6455357Y-13361643D01*
X6469643Y-13333071D01*
X6469643Y-13261643D01*
X6455357Y-13233071D01*
X6441071Y-13218786D01*
X6412500Y-13204500D01*
X6355357Y-13204500D01*
X6326786Y-13218786D01*
X6312500Y-13233071D01*
X6298214Y-13261643D01*
X6655357Y-13090214D02*
X6683928Y-13090214D01*
X6712500Y-13104500D01*
X6726786Y-13118786D01*
X6741071Y-13147357D01*
X6755357Y-13204500D01*
X6755357Y-13275929D01*
X6741071Y-13333071D01*
X6726786Y-13361643D01*
X6712500Y-13375929D01*
X6683928Y-13390214D01*
X6655357Y-13390214D01*
X6626786Y-13375929D01*
X6612500Y-13361643D01*
X6598214Y-13333071D01*
X6583928Y-13275929D01*
X6583928Y-13204500D01*
X6598214Y-13147357D01*
X6612500Y-13118786D01*
X6626786Y-13104500D01*
X6655357Y-13090214D01*
X6883928Y-13390214D02*
X6883928Y-13190214D01*
X6883928Y-13218786D02*
X6898214Y-13204500D01*
X6926786Y-13190214D01*
X6969643Y-13190214D01*
X6998214Y-13204500D01*
X7012500Y-13233071D01*
X7012500Y-13390214D01*
X7012500Y-13233071D02*
X7026786Y-13204500D01*
X7055357Y-13190214D01*
X7098214Y-13190214D01*
X7126786Y-13204500D01*
X7141071Y-13233071D01*
X7141071Y-13390214D01*
X7283928Y-13390214D02*
X7283928Y-13190214D01*
X7283928Y-13218786D02*
X7298214Y-13204500D01*
X7326786Y-13190214D01*
X7369643Y-13190214D01*
X7398214Y-13204500D01*
X7412500Y-13233071D01*
X7412500Y-13390214D01*
X7412500Y-13233071D02*
X7426786Y-13204500D01*
X7455357Y-13190214D01*
X7498214Y-13190214D01*
X7526786Y-13204500D01*
X7541071Y-13233071D01*
X7541071Y-13390214D01*
X8126786Y-13075929D02*
X7869643Y-13461643D01*
X8512500Y-13090214D02*
X8541071Y-13090214D01*
X8569643Y-13104500D01*
X8583928Y-13118786D01*
X8598214Y-13147357D01*
X8612500Y-13204500D01*
X8612500Y-13275929D01*
X8598214Y-13333071D01*
X8583928Y-13361643D01*
X8569643Y-13375929D01*
X8541071Y-13390214D01*
X8512500Y-13390214D01*
X8483928Y-13375929D01*
X8469643Y-13361643D01*
X8455357Y-13333071D01*
X8441071Y-13275929D01*
X8441071Y-13204500D01*
X8455357Y-13147357D01*
X8469643Y-13118786D01*
X8483928Y-13104500D01*
X8512500Y-13090214D01*
X8741071Y-13361643D02*
X8755357Y-13375929D01*
X8741071Y-13390214D01*
X8726786Y-13375929D01*
X8741071Y-13361643D01*
X8741071Y-13390214D01*
X8941071Y-13090214D02*
X8969643Y-13090214D01*
X8998214Y-13104500D01*
X9012500Y-13118786D01*
X9026786Y-13147357D01*
X9041071Y-13204500D01*
X9041071Y-13275929D01*
X9026786Y-13333071D01*
X9012500Y-13361643D01*
X8998214Y-13375929D01*
X8969643Y-13390214D01*
X8941071Y-13390214D01*
X8912500Y-13375929D01*
X8898214Y-13361643D01*
X8883928Y-13333071D01*
X8869643Y-13275929D01*
X8869643Y-13204500D01*
X8883928Y-13147357D01*
X8898214Y-13118786D01*
X8912500Y-13104500D01*
X8941071Y-13090214D01*
X9155357Y-13118786D02*
X9169643Y-13104500D01*
X9198214Y-13090214D01*
X9269643Y-13090214D01*
X9298214Y-13104500D01*
X9312500Y-13118786D01*
X9326786Y-13147357D01*
X9326786Y-13175929D01*
X9312500Y-13218786D01*
X9141071Y-13390214D01*
X9326786Y-13390214D01*
X9583928Y-13190214D02*
X9583928Y-13390214D01*
X9512500Y-13075929D02*
X9441071Y-13290214D01*
X9626786Y-13290214D01*
X9726786Y-13090214D02*
X9726786Y-13147357D01*
X9841071Y-13090214D02*
X9841071Y-13147357D01*
X10283928Y-13504500D02*
X10269643Y-13490214D01*
X10241071Y-13447357D01*
X10226786Y-13418786D01*
X10212500Y-13375929D01*
X10198214Y-13304500D01*
X10198214Y-13247357D01*
X10212500Y-13175929D01*
X10226786Y-13133071D01*
X10241071Y-13104500D01*
X10269643Y-13061643D01*
X10283928Y-13047357D01*
X10455357Y-13090214D02*
X10483928Y-13090214D01*
X10512500Y-13104500D01*
X10526786Y-13118786D01*
X10541071Y-13147357D01*
X10555357Y-13204500D01*
X10555357Y-13275929D01*
X10541071Y-13333071D01*
X10526786Y-13361643D01*
X10512500Y-13375929D01*
X10483928Y-13390214D01*
X10455357Y-13390214D01*
X10426786Y-13375929D01*
X10412500Y-13361643D01*
X10398214Y-13333071D01*
X10383928Y-13275929D01*
X10383928Y-13204500D01*
X10398214Y-13147357D01*
X10412500Y-13118786D01*
X10426786Y-13104500D01*
X10455357Y-13090214D01*
X10912500Y-13390214D02*
X10912500Y-13090214D01*
X11041071Y-13390214D02*
X11041071Y-13233071D01*
X11026786Y-13204500D01*
X10998214Y-13190214D01*
X10955357Y-13190214D01*
X10926786Y-13204500D01*
X10912500Y-13218786D01*
X11226786Y-13390214D02*
X11198214Y-13375929D01*
X11183928Y-13361643D01*
X11169643Y-13333071D01*
X11169643Y-13247357D01*
X11183928Y-13218786D01*
X11198214Y-13204500D01*
X11226786Y-13190214D01*
X11269643Y-13190214D01*
X11298214Y-13204500D01*
X11312500Y-13218786D01*
X11326786Y-13247357D01*
X11326786Y-13333071D01*
X11312500Y-13361643D01*
X11298214Y-13375929D01*
X11269643Y-13390214D01*
X11226786Y-13390214D01*
X11498214Y-13390214D02*
X11469643Y-13375929D01*
X11455357Y-13347357D01*
X11455357Y-13090214D01*
X11726786Y-13375929D02*
X11698214Y-13390214D01*
X11641071Y-13390214D01*
X11612500Y-13375929D01*
X11598214Y-13347357D01*
X11598214Y-13233071D01*
X11612500Y-13204500D01*
X11641071Y-13190214D01*
X11698214Y-13190214D01*
X11726786Y-13204500D01*
X11741071Y-13233071D01*
X11741071Y-13261643D01*
X11598214Y-13290214D01*
X11855357Y-13375929D02*
X11883928Y-13390214D01*
X11941071Y-13390214D01*
X11969643Y-13375929D01*
X11983928Y-13347357D01*
X11983928Y-13333071D01*
X11969643Y-13304500D01*
X11941071Y-13290214D01*
X11898214Y-13290214D01*
X11869643Y-13275929D01*
X11855357Y-13247357D01*
X11855357Y-13233071D01*
X11869643Y-13204500D01*
X11898214Y-13190214D01*
X11941071Y-13190214D01*
X11969643Y-13204500D01*
X12341071Y-13275929D02*
X12569643Y-13275929D01*
X12455357Y-13390214D02*
X12455357Y-13161643D01*
X12926786Y-13118786D02*
X12941071Y-13104500D01*
X12969643Y-13090214D01*
X13041071Y-13090214D01*
X13069643Y-13104500D01*
X13083928Y-13118786D01*
X13098214Y-13147357D01*
X13098214Y-13175929D01*
X13083928Y-13218786D01*
X12912500Y-13390214D01*
X13098214Y-13390214D01*
X13441071Y-13375929D02*
X13469643Y-13390214D01*
X13526786Y-13390214D01*
X13555357Y-13375929D01*
X13569643Y-13347357D01*
X13569643Y-13333071D01*
X13555357Y-13304500D01*
X13526786Y-13290214D01*
X13483928Y-13290214D01*
X13455357Y-13275929D01*
X13441071Y-13247357D01*
X13441071Y-13233071D01*
X13455357Y-13204500D01*
X13483928Y-13190214D01*
X13526786Y-13190214D01*
X13555357Y-13204500D01*
X13741071Y-13390214D02*
X13712500Y-13375929D01*
X13698214Y-13347357D01*
X13698214Y-13090214D01*
X13898214Y-13390214D02*
X13869643Y-13375929D01*
X13855357Y-13361643D01*
X13841071Y-13333071D01*
X13841071Y-13247357D01*
X13855357Y-13218786D01*
X13869643Y-13204500D01*
X13898214Y-13190214D01*
X13941071Y-13190214D01*
X13969643Y-13204500D01*
X13983928Y-13218786D01*
X13998214Y-13247357D01*
X13998214Y-13333071D01*
X13983928Y-13361643D01*
X13969643Y-13375929D01*
X13941071Y-13390214D01*
X13898214Y-13390214D01*
X14083928Y-13190214D02*
X14198214Y-13190214D01*
X14126786Y-13090214D02*
X14126786Y-13347357D01*
X14141071Y-13375929D01*
X14169643Y-13390214D01*
X14198214Y-13390214D01*
X14283928Y-13375929D02*
X14312500Y-13390214D01*
X14369643Y-13390214D01*
X14398214Y-13375929D01*
X14412500Y-13347357D01*
X14412500Y-13333071D01*
X14398214Y-13304500D01*
X14369643Y-13290214D01*
X14326786Y-13290214D01*
X14298214Y-13275929D01*
X14283928Y-13247357D01*
X14283928Y-13233071D01*
X14298214Y-13204500D01*
X14326786Y-13190214D01*
X14369643Y-13190214D01*
X14398214Y-13204500D01*
X14512500Y-13504500D02*
X14526786Y-13490214D01*
X14555357Y-13447357D01*
X14569643Y-13418786D01*
X14583928Y-13375929D01*
X14598214Y-13304500D01*
X14598214Y-13247357D01*
X14583928Y-13175929D01*
X14569643Y-13133071D01*
X14555357Y-13104500D01*
X14526786Y-13061643D01*
X14512500Y-13047357D01*
X5585052Y-13680552D02*
X5585052Y-13620448D01*
X5524948Y-13620448D01*
X5524948Y-13680552D01*
X5585052Y-13680552D01*
X5941071Y-13486214D02*
X5969643Y-13486214D01*
X5998214Y-13500500D01*
X6012500Y-13514786D01*
X6026786Y-13543357D01*
X6041071Y-13600500D01*
X6041071Y-13671929D01*
X6026786Y-13729071D01*
X6012500Y-13757643D01*
X5998214Y-13771929D01*
X5969643Y-13786214D01*
X5941071Y-13786214D01*
X5912500Y-13771929D01*
X5898214Y-13757643D01*
X5883928Y-13729071D01*
X5869643Y-13671929D01*
X5869643Y-13600500D01*
X5883928Y-13543357D01*
X5898214Y-13514786D01*
X5912500Y-13500500D01*
X5941071Y-13486214D01*
X6169643Y-13757643D02*
X6183928Y-13771929D01*
X6169643Y-13786214D01*
X6155357Y-13771929D01*
X6169643Y-13757643D01*
X6169643Y-13786214D01*
X6355357Y-13614786D02*
X6326786Y-13600500D01*
X6312500Y-13586214D01*
X6298214Y-13557643D01*
X6298214Y-13543357D01*
X6312500Y-13514786D01*
X6326786Y-13500500D01*
X6355357Y-13486214D01*
X6412500Y-13486214D01*
X6441071Y-13500500D01*
X6455357Y-13514786D01*
X6469643Y-13543357D01*
X6469643Y-13557643D01*
X6455357Y-13586214D01*
X6441071Y-13600500D01*
X6412500Y-13614786D01*
X6355357Y-13614786D01*
X6326786Y-13629071D01*
X6312500Y-13643357D01*
X6298214Y-13671929D01*
X6298214Y-13729071D01*
X6312500Y-13757643D01*
X6326786Y-13771929D01*
X6355357Y-13786214D01*
X6412500Y-13786214D01*
X6441071Y-13771929D01*
X6455357Y-13757643D01*
X6469643Y-13729071D01*
X6469643Y-13671929D01*
X6455357Y-13643357D01*
X6441071Y-13629071D01*
X6412500Y-13614786D01*
X6741071Y-13486214D02*
X6598214Y-13486214D01*
X6583928Y-13629071D01*
X6598214Y-13614786D01*
X6626786Y-13600500D01*
X6698214Y-13600500D01*
X6726786Y-13614786D01*
X6741071Y-13629071D01*
X6755357Y-13657643D01*
X6755357Y-13729071D01*
X6741071Y-13757643D01*
X6726786Y-13771929D01*
X6698214Y-13786214D01*
X6626786Y-13786214D01*
X6598214Y-13771929D01*
X6583928Y-13757643D01*
X6883928Y-13786214D02*
X6883928Y-13586214D01*
X6883928Y-13614786D02*
X6898214Y-13600500D01*
X6926786Y-13586214D01*
X6969643Y-13586214D01*
X6998214Y-13600500D01*
X7012500Y-13629071D01*
X7012500Y-13786214D01*
X7012500Y-13629071D02*
X7026786Y-13600500D01*
X7055357Y-13586214D01*
X7098214Y-13586214D01*
X7126786Y-13600500D01*
X7141071Y-13629071D01*
X7141071Y-13786214D01*
X7283928Y-13786214D02*
X7283928Y-13586214D01*
X7283928Y-13614786D02*
X7298214Y-13600500D01*
X7326786Y-13586214D01*
X7369643Y-13586214D01*
X7398214Y-13600500D01*
X7412500Y-13629071D01*
X7412500Y-13786214D01*
X7412500Y-13629071D02*
X7426786Y-13600500D01*
X7455357Y-13586214D01*
X7498214Y-13586214D01*
X7526786Y-13600500D01*
X7541071Y-13629071D01*
X7541071Y-13786214D01*
X8126786Y-13471929D02*
X7869643Y-13857643D01*
X8512500Y-13486214D02*
X8541071Y-13486214D01*
X8569643Y-13500500D01*
X8583928Y-13514786D01*
X8598214Y-13543357D01*
X8612500Y-13600500D01*
X8612500Y-13671929D01*
X8598214Y-13729071D01*
X8583928Y-13757643D01*
X8569643Y-13771929D01*
X8541071Y-13786214D01*
X8512500Y-13786214D01*
X8483928Y-13771929D01*
X8469643Y-13757643D01*
X8455357Y-13729071D01*
X8441071Y-13671929D01*
X8441071Y-13600500D01*
X8455357Y-13543357D01*
X8469643Y-13514786D01*
X8483928Y-13500500D01*
X8512500Y-13486214D01*
X8741071Y-13757643D02*
X8755357Y-13771929D01*
X8741071Y-13786214D01*
X8726786Y-13771929D01*
X8741071Y-13757643D01*
X8741071Y-13786214D01*
X8941071Y-13486214D02*
X8969643Y-13486214D01*
X8998214Y-13500500D01*
X9012500Y-13514786D01*
X9026786Y-13543357D01*
X9041071Y-13600500D01*
X9041071Y-13671929D01*
X9026786Y-13729071D01*
X9012500Y-13757643D01*
X8998214Y-13771929D01*
X8969643Y-13786214D01*
X8941071Y-13786214D01*
X8912500Y-13771929D01*
X8898214Y-13757643D01*
X8883928Y-13729071D01*
X8869643Y-13671929D01*
X8869643Y-13600500D01*
X8883928Y-13543357D01*
X8898214Y-13514786D01*
X8912500Y-13500500D01*
X8941071Y-13486214D01*
X9141071Y-13486214D02*
X9326786Y-13486214D01*
X9226786Y-13600500D01*
X9269643Y-13600500D01*
X9298214Y-13614786D01*
X9312500Y-13629071D01*
X9326786Y-13657643D01*
X9326786Y-13729071D01*
X9312500Y-13757643D01*
X9298214Y-13771929D01*
X9269643Y-13786214D01*
X9183928Y-13786214D01*
X9155357Y-13771929D01*
X9141071Y-13757643D01*
X9426786Y-13486214D02*
X9612500Y-13486214D01*
X9512500Y-13600500D01*
X9555357Y-13600500D01*
X9583928Y-13614786D01*
X9598214Y-13629071D01*
X9612500Y-13657643D01*
X9612500Y-13729071D01*
X9598214Y-13757643D01*
X9583928Y-13771929D01*
X9555357Y-13786214D01*
X9469643Y-13786214D01*
X9441071Y-13771929D01*
X9426786Y-13757643D01*
X9726786Y-13486214D02*
X9726786Y-13543357D01*
X9841071Y-13486214D02*
X9841071Y-13543357D01*
X10283928Y-13900500D02*
X10269643Y-13886214D01*
X10241071Y-13843357D01*
X10226786Y-13814786D01*
X10212500Y-13771929D01*
X10198214Y-13700500D01*
X10198214Y-13643357D01*
X10212500Y-13571929D01*
X10226786Y-13529071D01*
X10241071Y-13500500D01*
X10269643Y-13457643D01*
X10283928Y-13443357D01*
X10383928Y-13514786D02*
X10398214Y-13500500D01*
X10426786Y-13486214D01*
X10498214Y-13486214D01*
X10526786Y-13500500D01*
X10541071Y-13514786D01*
X10555357Y-13543357D01*
X10555357Y-13571929D01*
X10541071Y-13614786D01*
X10369643Y-13786214D01*
X10555357Y-13786214D01*
X10912500Y-13786214D02*
X10912500Y-13486214D01*
X11041071Y-13786214D02*
X11041071Y-13629071D01*
X11026786Y-13600500D01*
X10998214Y-13586214D01*
X10955357Y-13586214D01*
X10926786Y-13600500D01*
X10912500Y-13614786D01*
X11226786Y-13786214D02*
X11198214Y-13771929D01*
X11183928Y-13757643D01*
X11169643Y-13729071D01*
X11169643Y-13643357D01*
X11183928Y-13614786D01*
X11198214Y-13600500D01*
X11226786Y-13586214D01*
X11269643Y-13586214D01*
X11298214Y-13600500D01*
X11312500Y-13614786D01*
X11326786Y-13643357D01*
X11326786Y-13729071D01*
X11312500Y-13757643D01*
X11298214Y-13771929D01*
X11269643Y-13786214D01*
X11226786Y-13786214D01*
X11498214Y-13786214D02*
X11469643Y-13771929D01*
X11455357Y-13743357D01*
X11455357Y-13486214D01*
X11726786Y-13771929D02*
X11698214Y-13786214D01*
X11641071Y-13786214D01*
X11612500Y-13771929D01*
X11598214Y-13743357D01*
X11598214Y-13629071D01*
X11612500Y-13600500D01*
X11641071Y-13586214D01*
X11698214Y-13586214D01*
X11726786Y-13600500D01*
X11741071Y-13629071D01*
X11741071Y-13657643D01*
X11598214Y-13686214D01*
X11855357Y-13771929D02*
X11883928Y-13786214D01*
X11941071Y-13786214D01*
X11969643Y-13771929D01*
X11983928Y-13743357D01*
X11983928Y-13729071D01*
X11969643Y-13700500D01*
X11941071Y-13686214D01*
X11898214Y-13686214D01*
X11869643Y-13671929D01*
X11855357Y-13643357D01*
X11855357Y-13629071D01*
X11869643Y-13600500D01*
X11898214Y-13586214D01*
X11941071Y-13586214D01*
X11969643Y-13600500D01*
X12083928Y-13900500D02*
X12098214Y-13886214D01*
X12126786Y-13843357D01*
X12141071Y-13814786D01*
X12155357Y-13771929D01*
X12169643Y-13700500D01*
X12169643Y-13643357D01*
X12155357Y-13571929D01*
X12141071Y-13529071D01*
X12126786Y-13500500D01*
X12098214Y-13457643D01*
X12083928Y-13443357D01*
X5547500Y-14096500D02*
X5597500Y-14046500D01*
X5547500Y-13996500D01*
X5497500Y-14046500D01*
X5547500Y-14096500D01*
X6041071Y-14182214D02*
X5869643Y-14182214D01*
X5955357Y-14182214D02*
X5955357Y-13882214D01*
X5926786Y-13925071D01*
X5898214Y-13953643D01*
X5869643Y-13967929D01*
X6169643Y-14153643D02*
X6183928Y-14167929D01*
X6169643Y-14182214D01*
X6155357Y-14167929D01*
X6169643Y-14153643D01*
X6169643Y-14182214D01*
X6369643Y-13882214D02*
X6398214Y-13882214D01*
X6426786Y-13896500D01*
X6441071Y-13910786D01*
X6455357Y-13939357D01*
X6469643Y-13996500D01*
X6469643Y-14067929D01*
X6455357Y-14125071D01*
X6441071Y-14153643D01*
X6426786Y-14167929D01*
X6398214Y-14182214D01*
X6369643Y-14182214D01*
X6341071Y-14167929D01*
X6326786Y-14153643D01*
X6312500Y-14125071D01*
X6298214Y-14067929D01*
X6298214Y-13996500D01*
X6312500Y-13939357D01*
X6326786Y-13910786D01*
X6341071Y-13896500D01*
X6369643Y-13882214D01*
X6655357Y-13882214D02*
X6683928Y-13882214D01*
X6712500Y-13896500D01*
X6726786Y-13910786D01*
X6741071Y-13939357D01*
X6755357Y-13996500D01*
X6755357Y-14067929D01*
X6741071Y-14125071D01*
X6726786Y-14153643D01*
X6712500Y-14167929D01*
X6683928Y-14182214D01*
X6655357Y-14182214D01*
X6626786Y-14167929D01*
X6612500Y-14153643D01*
X6598214Y-14125071D01*
X6583928Y-14067929D01*
X6583928Y-13996500D01*
X6598214Y-13939357D01*
X6612500Y-13910786D01*
X6626786Y-13896500D01*
X6655357Y-13882214D01*
X6883928Y-14182214D02*
X6883928Y-13982214D01*
X6883928Y-14010786D02*
X6898214Y-13996500D01*
X6926786Y-13982214D01*
X6969643Y-13982214D01*
X6998214Y-13996500D01*
X7012500Y-14025071D01*
X7012500Y-14182214D01*
X7012500Y-14025071D02*
X7026786Y-13996500D01*
X7055357Y-13982214D01*
X7098214Y-13982214D01*
X7126786Y-13996500D01*
X7141071Y-14025071D01*
X7141071Y-14182214D01*
X7283928Y-14182214D02*
X7283928Y-13982214D01*
X7283928Y-14010786D02*
X7298214Y-13996500D01*
X7326786Y-13982214D01*
X7369643Y-13982214D01*
X7398214Y-13996500D01*
X7412500Y-14025071D01*
X7412500Y-14182214D01*
X7412500Y-14025071D02*
X7426786Y-13996500D01*
X7455357Y-13982214D01*
X7498214Y-13982214D01*
X7526786Y-13996500D01*
X7541071Y-14025071D01*
X7541071Y-14182214D01*
X8126786Y-13867929D02*
X7869643Y-14253643D01*
X8512500Y-13882214D02*
X8541071Y-13882214D01*
X8569643Y-13896500D01*
X8583928Y-13910786D01*
X8598214Y-13939357D01*
X8612500Y-13996500D01*
X8612500Y-14067929D01*
X8598214Y-14125071D01*
X8583928Y-14153643D01*
X8569643Y-14167929D01*
X8541071Y-14182214D01*
X8512500Y-14182214D01*
X8483928Y-14167929D01*
X8469643Y-14153643D01*
X8455357Y-14125071D01*
X8441071Y-14067929D01*
X8441071Y-13996500D01*
X8455357Y-13939357D01*
X8469643Y-13910786D01*
X8483928Y-13896500D01*
X8512500Y-13882214D01*
X8741071Y-14153643D02*
X8755357Y-14167929D01*
X8741071Y-14182214D01*
X8726786Y-14167929D01*
X8741071Y-14153643D01*
X8741071Y-14182214D01*
X8941071Y-13882214D02*
X8969643Y-13882214D01*
X8998214Y-13896500D01*
X9012500Y-13910786D01*
X9026786Y-13939357D01*
X9041071Y-13996500D01*
X9041071Y-14067929D01*
X9026786Y-14125071D01*
X9012500Y-14153643D01*
X8998214Y-14167929D01*
X8969643Y-14182214D01*
X8941071Y-14182214D01*
X8912500Y-14167929D01*
X8898214Y-14153643D01*
X8883928Y-14125071D01*
X8869643Y-14067929D01*
X8869643Y-13996500D01*
X8883928Y-13939357D01*
X8898214Y-13910786D01*
X8912500Y-13896500D01*
X8941071Y-13882214D01*
X9141071Y-13882214D02*
X9326786Y-13882214D01*
X9226786Y-13996500D01*
X9269643Y-13996500D01*
X9298214Y-14010786D01*
X9312500Y-14025071D01*
X9326786Y-14053643D01*
X9326786Y-14125071D01*
X9312500Y-14153643D01*
X9298214Y-14167929D01*
X9269643Y-14182214D01*
X9183928Y-14182214D01*
X9155357Y-14167929D01*
X9141071Y-14153643D01*
X9469643Y-14182214D02*
X9526786Y-14182214D01*
X9555357Y-14167929D01*
X9569643Y-14153643D01*
X9598214Y-14110786D01*
X9612500Y-14053643D01*
X9612500Y-13939357D01*
X9598214Y-13910786D01*
X9583928Y-13896500D01*
X9555357Y-13882214D01*
X9498214Y-13882214D01*
X9469643Y-13896500D01*
X9455357Y-13910786D01*
X9441071Y-13939357D01*
X9441071Y-14010786D01*
X9455357Y-14039357D01*
X9469643Y-14053643D01*
X9498214Y-14067929D01*
X9555357Y-14067929D01*
X9583928Y-14053643D01*
X9598214Y-14039357D01*
X9612500Y-14010786D01*
X9726786Y-13882214D02*
X9726786Y-13939357D01*
X9841071Y-13882214D02*
X9841071Y-13939357D01*
X10283928Y-14296500D02*
X10269643Y-14282214D01*
X10241071Y-14239357D01*
X10226786Y-14210786D01*
X10212500Y-14167929D01*
X10198214Y-14096500D01*
X10198214Y-14039357D01*
X10212500Y-13967929D01*
X10226786Y-13925071D01*
X10241071Y-13896500D01*
X10269643Y-13853643D01*
X10283928Y-13839357D01*
X10555357Y-14182214D02*
X10383928Y-14182214D01*
X10469643Y-14182214D02*
X10469643Y-13882214D01*
X10441071Y-13925071D01*
X10412500Y-13953643D01*
X10383928Y-13967929D01*
X10655357Y-13882214D02*
X10855357Y-13882214D01*
X10726786Y-14182214D01*
X11198214Y-14182214D02*
X11198214Y-13882214D01*
X11326786Y-14182214D02*
X11326786Y-14025071D01*
X11312500Y-13996500D01*
X11283928Y-13982214D01*
X11241071Y-13982214D01*
X11212500Y-13996500D01*
X11198214Y-14010786D01*
X11512500Y-14182214D02*
X11483928Y-14167929D01*
X11469643Y-14153643D01*
X11455357Y-14125071D01*
X11455357Y-14039357D01*
X11469643Y-14010786D01*
X11483928Y-13996500D01*
X11512500Y-13982214D01*
X11555357Y-13982214D01*
X11583928Y-13996500D01*
X11598214Y-14010786D01*
X11612500Y-14039357D01*
X11612500Y-14125071D01*
X11598214Y-14153643D01*
X11583928Y-14167929D01*
X11555357Y-14182214D01*
X11512500Y-14182214D01*
X11783928Y-14182214D02*
X11755357Y-14167929D01*
X11741071Y-14139357D01*
X11741071Y-13882214D01*
X12012500Y-14167929D02*
X11983928Y-14182214D01*
X11926786Y-14182214D01*
X11898214Y-14167929D01*
X11883928Y-14139357D01*
X11883928Y-14025071D01*
X11898214Y-13996500D01*
X11926786Y-13982214D01*
X11983928Y-13982214D01*
X12012500Y-13996500D01*
X12026786Y-14025071D01*
X12026786Y-14053643D01*
X11883928Y-14082214D01*
X12141071Y-14167929D02*
X12169643Y-14182214D01*
X12226786Y-14182214D01*
X12255357Y-14167929D01*
X12269643Y-14139357D01*
X12269643Y-14125071D01*
X12255357Y-14096500D01*
X12226786Y-14082214D01*
X12183928Y-14082214D01*
X12155357Y-14067929D01*
X12141071Y-14039357D01*
X12141071Y-14025071D01*
X12155357Y-13996500D01*
X12183928Y-13982214D01*
X12226786Y-13982214D01*
X12255357Y-13996500D01*
X12369643Y-14296500D02*
X12383928Y-14282214D01*
X12412500Y-14239357D01*
X12426786Y-14210786D01*
X12441071Y-14167929D01*
X12455357Y-14096500D01*
X12455357Y-14039357D01*
X12441071Y-13967929D01*
X12426786Y-13925071D01*
X12412500Y-13896500D01*
X12383928Y-13853643D01*
X12369643Y-13839357D01*
X5447500Y-14367500D02*
X5597500Y-14517500D01*
X5597500Y-14367500D02*
X5447500Y-14517500D01*
X5597500Y-14442500D02*
G75*
G03X5597500Y-14442500I-75000J0D01*
G01*
X6041071Y-14578214D02*
X5869643Y-14578214D01*
X5955357Y-14578214D02*
X5955357Y-14278214D01*
X5926786Y-14321071D01*
X5898214Y-14349643D01*
X5869643Y-14363929D01*
X6169643Y-14549643D02*
X6183928Y-14563929D01*
X6169643Y-14578214D01*
X6155357Y-14563929D01*
X6169643Y-14549643D01*
X6169643Y-14578214D01*
X6455357Y-14278214D02*
X6312500Y-14278214D01*
X6298214Y-14421071D01*
X6312500Y-14406786D01*
X6341071Y-14392500D01*
X6412500Y-14392500D01*
X6441071Y-14406786D01*
X6455357Y-14421071D01*
X6469643Y-14449643D01*
X6469643Y-14521071D01*
X6455357Y-14549643D01*
X6441071Y-14563929D01*
X6412500Y-14578214D01*
X6341071Y-14578214D01*
X6312500Y-14563929D01*
X6298214Y-14549643D01*
X6655357Y-14278214D02*
X6683928Y-14278214D01*
X6712500Y-14292500D01*
X6726786Y-14306786D01*
X6741071Y-14335357D01*
X6755357Y-14392500D01*
X6755357Y-14463929D01*
X6741071Y-14521071D01*
X6726786Y-14549643D01*
X6712500Y-14563929D01*
X6683928Y-14578214D01*
X6655357Y-14578214D01*
X6626786Y-14563929D01*
X6612500Y-14549643D01*
X6598214Y-14521071D01*
X6583928Y-14463929D01*
X6583928Y-14392500D01*
X6598214Y-14335357D01*
X6612500Y-14306786D01*
X6626786Y-14292500D01*
X6655357Y-14278214D01*
X6883928Y-14578214D02*
X6883928Y-14378214D01*
X6883928Y-14406786D02*
X6898214Y-14392500D01*
X6926786Y-14378214D01*
X6969643Y-14378214D01*
X6998214Y-14392500D01*
X7012500Y-14421071D01*
X7012500Y-14578214D01*
X7012500Y-14421071D02*
X7026786Y-14392500D01*
X7055357Y-14378214D01*
X7098214Y-14378214D01*
X7126786Y-14392500D01*
X7141071Y-14421071D01*
X7141071Y-14578214D01*
X7283928Y-14578214D02*
X7283928Y-14378214D01*
X7283928Y-14406786D02*
X7298214Y-14392500D01*
X7326786Y-14378214D01*
X7369643Y-14378214D01*
X7398214Y-14392500D01*
X7412500Y-14421071D01*
X7412500Y-14578214D01*
X7412500Y-14421071D02*
X7426786Y-14392500D01*
X7455357Y-14378214D01*
X7498214Y-14378214D01*
X7526786Y-14392500D01*
X7541071Y-14421071D01*
X7541071Y-14578214D01*
X8126786Y-14263929D02*
X7869643Y-14649643D01*
X8512500Y-14278214D02*
X8541071Y-14278214D01*
X8569643Y-14292500D01*
X8583928Y-14306786D01*
X8598214Y-14335357D01*
X8612500Y-14392500D01*
X8612500Y-14463929D01*
X8598214Y-14521071D01*
X8583928Y-14549643D01*
X8569643Y-14563929D01*
X8541071Y-14578214D01*
X8512500Y-14578214D01*
X8483928Y-14563929D01*
X8469643Y-14549643D01*
X8455357Y-14521071D01*
X8441071Y-14463929D01*
X8441071Y-14392500D01*
X8455357Y-14335357D01*
X8469643Y-14306786D01*
X8483928Y-14292500D01*
X8512500Y-14278214D01*
X8741071Y-14549643D02*
X8755357Y-14563929D01*
X8741071Y-14578214D01*
X8726786Y-14563929D01*
X8741071Y-14549643D01*
X8741071Y-14578214D01*
X8941071Y-14278214D02*
X8969643Y-14278214D01*
X8998214Y-14292500D01*
X9012500Y-14306786D01*
X9026786Y-14335357D01*
X9041071Y-14392500D01*
X9041071Y-14463929D01*
X9026786Y-14521071D01*
X9012500Y-14549643D01*
X8998214Y-14563929D01*
X8969643Y-14578214D01*
X8941071Y-14578214D01*
X8912500Y-14563929D01*
X8898214Y-14549643D01*
X8883928Y-14521071D01*
X8869643Y-14463929D01*
X8869643Y-14392500D01*
X8883928Y-14335357D01*
X8898214Y-14306786D01*
X8912500Y-14292500D01*
X8941071Y-14278214D01*
X9312500Y-14278214D02*
X9169643Y-14278214D01*
X9155357Y-14421071D01*
X9169643Y-14406786D01*
X9198214Y-14392500D01*
X9269643Y-14392500D01*
X9298214Y-14406786D01*
X9312500Y-14421071D01*
X9326786Y-14449643D01*
X9326786Y-14521071D01*
X9312500Y-14549643D01*
X9298214Y-14563929D01*
X9269643Y-14578214D01*
X9198214Y-14578214D01*
X9169643Y-14563929D01*
X9155357Y-14549643D01*
X9469643Y-14578214D02*
X9526786Y-14578214D01*
X9555357Y-14563929D01*
X9569643Y-14549643D01*
X9598214Y-14506786D01*
X9612500Y-14449643D01*
X9612500Y-14335357D01*
X9598214Y-14306786D01*
X9583928Y-14292500D01*
X9555357Y-14278214D01*
X9498214Y-14278214D01*
X9469643Y-14292500D01*
X9455357Y-14306786D01*
X9441071Y-14335357D01*
X9441071Y-14406786D01*
X9455357Y-14435357D01*
X9469643Y-14449643D01*
X9498214Y-14463929D01*
X9555357Y-14463929D01*
X9583928Y-14449643D01*
X9598214Y-14435357D01*
X9612500Y-14406786D01*
X9726786Y-14278214D02*
X9726786Y-14335357D01*
X9841071Y-14278214D02*
X9841071Y-14335357D01*
X10283928Y-14692500D02*
X10269643Y-14678214D01*
X10241071Y-14635357D01*
X10226786Y-14606786D01*
X10212500Y-14563929D01*
X10198214Y-14492500D01*
X10198214Y-14435357D01*
X10212500Y-14363929D01*
X10226786Y-14321071D01*
X10241071Y-14292500D01*
X10269643Y-14249643D01*
X10283928Y-14235357D01*
X10526786Y-14278214D02*
X10469643Y-14278214D01*
X10441071Y-14292500D01*
X10426786Y-14306786D01*
X10398214Y-14349643D01*
X10383928Y-14406786D01*
X10383928Y-14521071D01*
X10398214Y-14549643D01*
X10412500Y-14563929D01*
X10441071Y-14578214D01*
X10498214Y-14578214D01*
X10526786Y-14563929D01*
X10541071Y-14549643D01*
X10555357Y-14521071D01*
X10555357Y-14449643D01*
X10541071Y-14421071D01*
X10526786Y-14406786D01*
X10498214Y-14392500D01*
X10441071Y-14392500D01*
X10412500Y-14406786D01*
X10398214Y-14421071D01*
X10383928Y-14449643D01*
X10912500Y-14578214D02*
X10912500Y-14278214D01*
X11041071Y-14578214D02*
X11041071Y-14421071D01*
X11026786Y-14392500D01*
X10998214Y-14378214D01*
X10955357Y-14378214D01*
X10926786Y-14392500D01*
X10912500Y-14406786D01*
X11226786Y-14578214D02*
X11198214Y-14563929D01*
X11183928Y-14549643D01*
X11169643Y-14521071D01*
X11169643Y-14435357D01*
X11183928Y-14406786D01*
X11198214Y-14392500D01*
X11226786Y-14378214D01*
X11269643Y-14378214D01*
X11298214Y-14392500D01*
X11312500Y-14406786D01*
X11326786Y-14435357D01*
X11326786Y-14521071D01*
X11312500Y-14549643D01*
X11298214Y-14563929D01*
X11269643Y-14578214D01*
X11226786Y-14578214D01*
X11498214Y-14578214D02*
X11469643Y-14563929D01*
X11455357Y-14535357D01*
X11455357Y-14278214D01*
X11726786Y-14563929D02*
X11698214Y-14578214D01*
X11641071Y-14578214D01*
X11612500Y-14563929D01*
X11598214Y-14535357D01*
X11598214Y-14421071D01*
X11612500Y-14392500D01*
X11641071Y-14378214D01*
X11698214Y-14378214D01*
X11726786Y-14392500D01*
X11741071Y-14421071D01*
X11741071Y-14449643D01*
X11598214Y-14478214D01*
X11855357Y-14563929D02*
X11883928Y-14578214D01*
X11941071Y-14578214D01*
X11969643Y-14563929D01*
X11983928Y-14535357D01*
X11983928Y-14521071D01*
X11969643Y-14492500D01*
X11941071Y-14478214D01*
X11898214Y-14478214D01*
X11869643Y-14463929D01*
X11855357Y-14435357D01*
X11855357Y-14421071D01*
X11869643Y-14392500D01*
X11898214Y-14378214D01*
X11941071Y-14378214D01*
X11969643Y-14392500D01*
X12083928Y-14692500D02*
X12098214Y-14678214D01*
X12126786Y-14635357D01*
X12141071Y-14606786D01*
X12155357Y-14563929D01*
X12169643Y-14492500D01*
X12169643Y-14435357D01*
X12155357Y-14363929D01*
X12141071Y-14321071D01*
X12126786Y-14292500D01*
X12098214Y-14249643D01*
X12083928Y-14235357D01*
X5277500Y-14678500D02*
X5597500Y-14998500D01*
X5597500Y-14678500D02*
X5277500Y-14998500D01*
X5437500Y-14678500D02*
X5437500Y-14998500D01*
X5277500Y-14838500D02*
X5597500Y-14838500D01*
X5855357Y-14674214D02*
X6041071Y-14674214D01*
X5941071Y-14788500D01*
X5983928Y-14788500D01*
X6012500Y-14802786D01*
X6026786Y-14817071D01*
X6041071Y-14845643D01*
X6041071Y-14917071D01*
X6026786Y-14945643D01*
X6012500Y-14959929D01*
X5983928Y-14974214D01*
X5898214Y-14974214D01*
X5869643Y-14959929D01*
X5855357Y-14945643D01*
X6169643Y-14945643D02*
X6183928Y-14959929D01*
X6169643Y-14974214D01*
X6155357Y-14959929D01*
X6169643Y-14945643D01*
X6169643Y-14974214D01*
X6298214Y-14702786D02*
X6312500Y-14688500D01*
X6341071Y-14674214D01*
X6412500Y-14674214D01*
X6441071Y-14688500D01*
X6455357Y-14702786D01*
X6469643Y-14731357D01*
X6469643Y-14759929D01*
X6455357Y-14802786D01*
X6283928Y-14974214D01*
X6469643Y-14974214D01*
X6655357Y-14674214D02*
X6683928Y-14674214D01*
X6712500Y-14688500D01*
X6726786Y-14702786D01*
X6741071Y-14731357D01*
X6755357Y-14788500D01*
X6755357Y-14859929D01*
X6741071Y-14917071D01*
X6726786Y-14945643D01*
X6712500Y-14959929D01*
X6683928Y-14974214D01*
X6655357Y-14974214D01*
X6626786Y-14959929D01*
X6612500Y-14945643D01*
X6598214Y-14917071D01*
X6583928Y-14859929D01*
X6583928Y-14788500D01*
X6598214Y-14731357D01*
X6612500Y-14702786D01*
X6626786Y-14688500D01*
X6655357Y-14674214D01*
X6883928Y-14974214D02*
X6883928Y-14774214D01*
X6883928Y-14802786D02*
X6898214Y-14788500D01*
X6926786Y-14774214D01*
X6969643Y-14774214D01*
X6998214Y-14788500D01*
X7012500Y-14817071D01*
X7012500Y-14974214D01*
X7012500Y-14817071D02*
X7026786Y-14788500D01*
X7055357Y-14774214D01*
X7098214Y-14774214D01*
X7126786Y-14788500D01*
X7141071Y-14817071D01*
X7141071Y-14974214D01*
X7283928Y-14974214D02*
X7283928Y-14774214D01*
X7283928Y-14802786D02*
X7298214Y-14788500D01*
X7326786Y-14774214D01*
X7369643Y-14774214D01*
X7398214Y-14788500D01*
X7412500Y-14817071D01*
X7412500Y-14974214D01*
X7412500Y-14817071D02*
X7426786Y-14788500D01*
X7455357Y-14774214D01*
X7498214Y-14774214D01*
X7526786Y-14788500D01*
X7541071Y-14817071D01*
X7541071Y-14974214D01*
X8126786Y-14659929D02*
X7869643Y-15045643D01*
X8512500Y-14674214D02*
X8541071Y-14674214D01*
X8569643Y-14688500D01*
X8583928Y-14702786D01*
X8598214Y-14731357D01*
X8612500Y-14788500D01*
X8612500Y-14859929D01*
X8598214Y-14917071D01*
X8583928Y-14945643D01*
X8569643Y-14959929D01*
X8541071Y-14974214D01*
X8512500Y-14974214D01*
X8483928Y-14959929D01*
X8469643Y-14945643D01*
X8455357Y-14917071D01*
X8441071Y-14859929D01*
X8441071Y-14788500D01*
X8455357Y-14731357D01*
X8469643Y-14702786D01*
X8483928Y-14688500D01*
X8512500Y-14674214D01*
X8741071Y-14945643D02*
X8755357Y-14959929D01*
X8741071Y-14974214D01*
X8726786Y-14959929D01*
X8741071Y-14945643D01*
X8741071Y-14974214D01*
X9041071Y-14974214D02*
X8869643Y-14974214D01*
X8955357Y-14974214D02*
X8955357Y-14674214D01*
X8926786Y-14717071D01*
X8898214Y-14745643D01*
X8869643Y-14759929D01*
X9155357Y-14702786D02*
X9169643Y-14688500D01*
X9198214Y-14674214D01*
X9269643Y-14674214D01*
X9298214Y-14688500D01*
X9312500Y-14702786D01*
X9326786Y-14731357D01*
X9326786Y-14759929D01*
X9312500Y-14802786D01*
X9141071Y-14974214D01*
X9326786Y-14974214D01*
X9583928Y-14674214D02*
X9526786Y-14674214D01*
X9498214Y-14688500D01*
X9483928Y-14702786D01*
X9455357Y-14745643D01*
X9441071Y-14802786D01*
X9441071Y-14917071D01*
X9455357Y-14945643D01*
X9469643Y-14959929D01*
X9498214Y-14974214D01*
X9555357Y-14974214D01*
X9583928Y-14959929D01*
X9598214Y-14945643D01*
X9612500Y-14917071D01*
X9612500Y-14845643D01*
X9598214Y-14817071D01*
X9583928Y-14802786D01*
X9555357Y-14788500D01*
X9498214Y-14788500D01*
X9469643Y-14802786D01*
X9455357Y-14817071D01*
X9441071Y-14845643D01*
X9726786Y-14674214D02*
X9726786Y-14731357D01*
X9841071Y-14674214D02*
X9841071Y-14731357D01*
X10283928Y-15088500D02*
X10269643Y-15074214D01*
X10241071Y-15031357D01*
X10226786Y-15002786D01*
X10212500Y-14959929D01*
X10198214Y-14888500D01*
X10198214Y-14831357D01*
X10212500Y-14759929D01*
X10226786Y-14717071D01*
X10241071Y-14688500D01*
X10269643Y-14645643D01*
X10283928Y-14631357D01*
X10526786Y-14774214D02*
X10526786Y-14974214D01*
X10455357Y-14659929D02*
X10383928Y-14874214D01*
X10569643Y-14874214D01*
X10912500Y-14974214D02*
X10912500Y-14674214D01*
X11041071Y-14974214D02*
X11041071Y-14817071D01*
X11026786Y-14788500D01*
X10998214Y-14774214D01*
X10955357Y-14774214D01*
X10926786Y-14788500D01*
X10912500Y-14802786D01*
X11226786Y-14974214D02*
X11198214Y-14959929D01*
X11183928Y-14945643D01*
X11169643Y-14917071D01*
X11169643Y-14831357D01*
X11183928Y-14802786D01*
X11198214Y-14788500D01*
X11226786Y-14774214D01*
X11269643Y-14774214D01*
X11298214Y-14788500D01*
X11312500Y-14802786D01*
X11326786Y-14831357D01*
X11326786Y-14917071D01*
X11312500Y-14945643D01*
X11298214Y-14959929D01*
X11269643Y-14974214D01*
X11226786Y-14974214D01*
X11498214Y-14974214D02*
X11469643Y-14959929D01*
X11455357Y-14931357D01*
X11455357Y-14674214D01*
X11726786Y-14959929D02*
X11698214Y-14974214D01*
X11641071Y-14974214D01*
X11612500Y-14959929D01*
X11598214Y-14931357D01*
X11598214Y-14817071D01*
X11612500Y-14788500D01*
X11641071Y-14774214D01*
X11698214Y-14774214D01*
X11726786Y-14788500D01*
X11741071Y-14817071D01*
X11741071Y-14845643D01*
X11598214Y-14874214D01*
X11855357Y-14959929D02*
X11883928Y-14974214D01*
X11941071Y-14974214D01*
X11969643Y-14959929D01*
X11983928Y-14931357D01*
X11983928Y-14917071D01*
X11969643Y-14888500D01*
X11941071Y-14874214D01*
X11898214Y-14874214D01*
X11869643Y-14859929D01*
X11855357Y-14831357D01*
X11855357Y-14817071D01*
X11869643Y-14788500D01*
X11898214Y-14774214D01*
X11941071Y-14774214D01*
X11969643Y-14788500D01*
X12083928Y-15088500D02*
X12098214Y-15074214D01*
X12126786Y-15031357D01*
X12141071Y-15002786D01*
X12155357Y-14959929D01*
X12169643Y-14888500D01*
X12169643Y-14831357D01*
X12155357Y-14759929D01*
X12141071Y-14717071D01*
X12126786Y-14688500D01*
X12098214Y-14645643D01*
X12083928Y-14631357D01*
M02*
