M48
; DRILL file {KiCad 5.1.4-e60b266~84~ubuntu18.04.1} date vie 24 ene 2020 11:28:38 -03
; FORMAT={-:-/ absolute / metric / decimal}
; #@! TF.CreationDate,2020-01-24T11:28:38-03:00
; #@! TF.GenerationSoftware,Kicad,Pcbnew,5.1.4-e60b266~84~ubuntu18.04.1
; #@! TF.FileFunction,Plated,1,2,PTH
FMAT,2
METRIC
T1C0.400
T2C0.500
T3C0.600
T4C0.850
T5C1.000
T6C1.500
T7C3.200
%
G90
G05
T1
X57.65Y-79.45
X58.6Y-67.15
X59.0Y-101.45
X59.25Y-84.15
X60.14Y-72.16
X60.3Y-99.8
X61.05Y-81.45
X65.3Y-75.25
X65.3Y-79.9
X67.3Y-66.445
X67.55Y-77.8
X68.65Y-70.75
X69.95Y-62.25
X69.95Y-70.75
X71.6Y-70.8
X72.4Y-62.2
X73.2Y-70.8
X73.8Y-62.2
X75.5Y-66.75
X75.5Y-70.8
X75.6Y-77.75
X75.65Y-84.79
X78.15Y-99.5
X79.78Y-80.04
X80.82Y-86.03
X82.85Y-99.5
X86.66Y-89.02
X88.5Y-103.75
X89.15Y-84.3
X89.95Y-81.85
X94.285Y-96.045
X94.5Y-79.75
X95.0Y-98.0
X95.915Y-67.201
X96.5Y-79.25
X97.003Y-93.365
X97.5Y-81.0
X97.998Y-96.954
X99.0Y-81.25
X99.0Y-94.828
X99.997Y-96.957
X100.0Y-100.75
X103.0Y-75.0
X105.27Y-87.61
X106.25Y-77.25
X106.25Y-103.5
X106.251Y-97.046
X107.513Y-96.078
X115.5Y-78.75
T2
X57.35Y-58.75
X58.053Y-57.053
X58.053Y-60.447
X59.75Y-56.35
X59.75Y-61.15
X61.447Y-57.053
X61.447Y-60.447
X62.15Y-58.75
X57.35Y-111.25
X58.053Y-109.553
X58.053Y-112.947
X59.75Y-108.85
X59.75Y-113.65
X61.447Y-109.553
X61.447Y-112.947
X62.15Y-111.25
X114.85Y-111.25
X115.553Y-109.553
X115.553Y-112.947
X117.25Y-108.85
X117.25Y-113.65
X118.947Y-109.553
X118.947Y-112.947
X119.65Y-111.25
X114.85Y-58.75
X115.553Y-57.053
X115.553Y-60.447
X117.25Y-56.35
X117.25Y-61.15
X118.947Y-57.053
X118.947Y-60.447
X119.65Y-58.75
T4
X70.0Y-60.212
X75.0Y-60.212
T5
X65.3Y-109.0
X67.84Y-109.0
X70.38Y-109.0
X72.92Y-109.0
X75.46Y-109.0
X78.0Y-109.0
X108.75Y-72.75
X116.25Y-72.75
X65.24Y-82.0
X67.78Y-82.0
X70.32Y-82.0
X72.86Y-82.0
X75.4Y-82.0
X108.75Y-101.25
X116.25Y-101.25
X61.06Y-77.6
X63.6Y-77.6
T6
X103.75Y-65.0
X108.75Y-65.0
X111.95Y-81.75
X111.95Y-85.25
X111.95Y-88.75
X111.95Y-92.25
T7
X59.75Y-58.75
X59.75Y-111.25
X117.25Y-111.25
X117.25Y-58.75
T3
G00X69.0Y-57.862
M15
G01X69.0Y-57.162
M16
G05
G00X76.0Y-57.162
M15
G01X76.0Y-57.862
M16
G05
T0
M30
